<svg width="1687" height="711" viewBox="0 0 1687 711" fill="none" xmlns="http://www.w3.org/2000/svg">
<rect x="0.5" y="0.5" width="1686" height="710" rx="30.5" fill="#008658"/>
<rect x="0.5" y="0.5" width="1686" height="710" rx="30.5" stroke="#10113C"/>
<path d="M843.499 209.407L847.346 202.738L804.411 178L714.422 229.935V278.299L667.109 305.606V409.477L714.422 436.783V478.842L804.419 530.781L851.202 503.729V382.655L851.048 354.394L851.202 331.814V204.959L847.346 202.738L843.499 209.407H835.797V331.762V331.709L835.648 354.371L835.797 382.772V494.846L804.411 513L729.822 469.951V427.893L682.513 400.59V314.493L729.822 287.19V238.826L804.419 195.774L839.652 216.076L843.499 209.407Z" fill="white"/>
<path d="M718.398 289.487L744.52 303.921L751.971 290.445L725.85 276.016" fill="white"/>
<path d="M757.809 302.46C760.903 296.864 758.873 289.821 753.275 286.728C747.677 283.635 740.631 285.664 737.537 291.26C734.443 296.856 736.473 303.899 742.071 306.992C747.669 310.085 754.716 308.056 757.809 302.46Z" fill="white"/>
<path d="M741.318 308.36C734.986 304.862 732.682 296.864 736.182 290.534C739.681 284.204 747.683 281.902 754.015 285.4C760.347 288.898 762.65 296.896 759.151 303.226C755.651 309.552 747.651 311.859 741.318 308.36C747.651 311.859 734.99 304.862 741.318 308.36ZM752.524 288.094C747.679 285.416 741.556 287.178 738.877 292.025C736.198 296.872 737.96 302.988 742.809 305.666C747.659 308.344 753.776 306.583 756.456 301.736C759.135 296.888 757.373 290.773 752.524 288.094C757.373 290.773 747.679 285.416 752.524 288.094Z" fill="white"/>
<path d="M725.441 439.303L751.231 426.954L744.579 413.07L718.785 425.418" fill="white"/>
<path d="M752.33 430.732C758.098 427.97 760.536 421.056 757.772 415.29C755.009 409.523 748.092 407.088 742.323 409.85C736.555 412.612 734.118 419.525 736.881 425.292C739.644 431.058 746.561 433.494 752.33 430.732Z" fill="white"/>
<path d="M752.991 432.101C746.464 435.223 738.613 432.46 735.489 425.936C732.365 419.413 735.129 411.564 741.656 408.442C748.182 405.319 756.034 408.082 759.157 414.606C762.285 421.126 759.517 428.974 752.991 432.101C759.517 428.974 746.468 435.223 752.991 432.101ZM742.985 411.217C737.99 413.608 735.873 419.615 738.269 424.604C740.661 429.596 746.67 431.713 751.661 429.318C756.656 426.926 758.773 420.919 756.377 415.927C753.989 410.942 747.98 408.825 742.985 411.217C747.98 408.825 737.99 413.612 742.985 411.217Z" fill="white"/>
<path d="M775.124 261.742L787.481 271.267V310.147L753.84 332.739V389.098L787.481 404.339V444.434L773.624 457.712L784.28 468.824L802.885 451.002V394.409L769.24 379.173V340.943L802.885 318.351V263.693L784.527 249.547L775.124 261.742Z" fill="white"/>
<path d="M789.504 263.122C793.409 258.058 792.469 250.788 787.402 246.885C782.336 242.982 775.065 243.922 771.159 248.986C767.254 254.05 768.196 261.32 773.262 265.223C778.327 269.126 785.6 268.186 789.504 263.122Z" fill="white"/>
<path d="M772.323 266.435C778.053 270.851 786.309 269.785 790.726 264.056C795.143 258.329 794.076 250.076 788.346 245.661C782.615 241.246 774.36 242.312 769.943 248.04C765.526 253.768 766.593 262.017 772.323 266.435C778.053 270.847 766.593 262.017 772.323 266.435ZM786.467 248.097C790.851 251.478 791.671 257.792 788.289 262.174C784.907 266.557 778.591 267.377 774.206 263.996C769.822 260.615 769.002 254.301 772.384 249.918C775.762 245.531 782.078 244.716 786.467 248.097C790.851 251.474 782.078 244.716 786.467 248.097Z" fill="white"/>
<path d="M787.431 471.162C792.049 466.738 792.205 459.41 787.779 454.794C783.353 450.177 776.022 450.021 771.405 454.445C766.786 458.869 766.63 466.197 771.055 470.814C775.481 475.43 782.813 475.587 787.431 471.162Z" fill="white"/>
<path d="M770.339 453.344C775.563 448.339 783.884 448.517 788.891 453.739C793.898 458.963 793.72 467.28 788.495 472.285C783.27 477.29 774.95 477.112 769.942 471.889C764.936 466.666 765.114 458.349 770.339 453.344C775.56 448.339 765.114 458.349 770.339 453.344ZM786.365 470.059C790.362 466.23 790.499 459.864 786.669 455.868C782.837 451.873 776.469 451.736 772.472 455.566C768.472 459.395 768.338 465.761 772.169 469.756C776 473.755 782.365 473.888 786.365 470.059C790.362 466.23 782.365 473.888 786.365 470.059Z" fill="white"/>
<path d="M674.805 367.66H704.385V352.266H674.805" fill="white"/>
<path d="M703.727 371.576C710.123 371.576 715.308 366.392 715.308 359.999C715.308 353.605 710.123 348.422 703.727 348.422C697.33 348.422 692.145 353.605 692.145 359.999C692.145 366.392 697.33 371.576 703.727 371.576Z" fill="white"/>
<path d="M703.731 373.044C696.497 373.044 690.609 367.159 690.609 359.928C690.609 352.697 696.497 346.812 703.731 346.812C710.964 346.812 716.851 352.697 716.851 359.928C716.851 367.159 710.968 373.044 703.731 373.044C710.968 373.044 696.497 373.044 703.731 373.044ZM703.731 349.891C698.194 349.891 693.688 354.39 693.688 359.928C693.688 365.462 698.19 369.966 703.731 369.966C709.266 369.966 713.772 365.467 713.772 359.928C713.772 354.39 709.271 349.891 703.731 349.891C709.271 349.891 698.194 349.891 703.731 349.891Z" fill="white"/>
<path d="M813.441 367.66H843.021V352.266H813.441" fill="white"/>
<path d="M814.097 371.576C820.493 371.576 825.679 366.392 825.679 359.999C825.679 353.605 820.493 348.422 814.097 348.422C807.701 348.422 802.516 353.605 802.516 359.999C802.516 366.392 807.701 371.576 814.097 371.576Z" fill="white"/>
<path d="M814.102 373.044C821.335 373.044 827.223 367.159 827.223 359.928C827.223 352.697 821.335 346.812 814.102 346.812C806.868 346.812 800.98 352.697 800.98 359.928C800.98 367.159 806.865 373.044 814.102 373.044C821.335 373.044 806.865 373.044 814.102 373.044ZM814.102 349.891C819.638 349.891 824.144 354.39 824.144 359.928C824.144 365.462 819.642 369.966 814.102 369.966C808.566 369.966 804.06 365.467 804.06 359.928C804.06 354.39 808.562 349.891 814.102 349.891C819.638 349.891 808.562 349.891 814.102 349.891Z" fill="white"/>
<path d="M843.495 209.407L847.342 216.076L882.579 195.774L957.17 238.826V287.19L1004.48 314.493V400.59L957.17 427.893V469.951L882.586 513L851.197 494.846V382.731L851.351 354.363L851.197 331.709V331.762V209.407H843.495H835.793V331.827L835.947 354.402L835.793 382.691V503.729L882.579 530.781L972.574 478.842V436.783L1019.88 409.48V305.606L972.574 278.299V229.935L882.586 178L835.793 204.959V209.407H843.495Z" fill="white"/>
<path d="M961.151 276.016L935.023 290.445L942.476 303.921L968.596 289.487" fill="white"/>
<path d="M944.925 306.984C950.526 303.892 952.554 296.848 949.46 291.253C946.366 285.657 939.318 283.627 933.725 286.72C928.124 289.813 926.096 296.856 929.19 302.452C932.284 308.048 939.325 310.077 944.925 306.984Z" fill="white"/>
<path d="M932.982 285.4C939.317 281.902 947.313 284.204 950.819 290.534C954.318 296.864 952.01 304.862 945.682 308.36C939.347 311.859 931.35 309.556 927.844 303.226C924.346 296.893 926.654 288.898 932.982 285.4C939.317 281.902 926.654 288.898 932.982 285.4ZM944.19 305.662C949.033 302.984 950.797 296.868 948.122 292.02C945.439 287.173 939.324 285.412 934.474 288.091C929.623 290.769 927.867 296.884 930.542 301.732C933.224 306.579 939.347 308.34 944.19 305.662C949.033 302.988 939.347 308.34 944.19 305.662Z" fill="white"/>
<path d="M968.199 425.418L942.409 413.07L935.758 426.954L961.547 439.303" fill="white"/>
<path d="M950.127 425.268C952.891 419.502 950.451 412.588 944.681 409.826C938.912 407.064 931.996 409.499 929.232 415.266C926.469 421.033 928.909 427.947 934.678 430.709C940.448 433.471 947.364 431.035 950.127 425.268Z" fill="white"/>
<path d="M945.344 408.442C951.87 411.564 954.634 419.417 951.51 425.936C948.386 432.46 940.53 435.223 934.011 432.101C927.484 428.978 924.721 421.126 927.844 414.606C930.968 408.082 938.825 405.319 945.344 408.442C951.87 411.564 938.825 405.319 945.344 408.442ZM935.341 429.321C940.331 431.713 946.336 429.596 948.732 424.607C951.121 419.615 949.004 413.612 944.013 411.221C939.023 408.829 933.018 410.942 930.615 415.935C928.227 420.927 930.343 426.93 935.341 429.321C940.331 431.713 930.343 426.93 935.341 429.321Z" fill="white"/>
<path d="M902.48 249.547L884.121 263.693V318.351L917.767 340.943V379.173L884.121 394.409V451.002L902.73 468.824L913.387 457.712L899.526 444.434V404.339L933.172 389.098V332.739L899.526 310.147V271.267L911.888 261.742L902.48 249.547Z" fill="white"/>
<path d="M913.725 265.176C918.788 261.273 919.729 254.004 915.827 248.939C911.924 243.875 904.648 242.935 899.584 246.838C894.52 250.742 893.579 258.011 897.482 263.075C901.385 268.139 908.661 269.08 913.725 265.176Z" fill="white"/>
<path d="M898.645 245.661C892.912 250.076 891.847 258.329 896.264 264.056C900.681 269.785 908.942 270.851 914.667 266.435C920.4 262.02 921.466 253.768 917.048 248.04C912.631 242.312 904.378 241.246 898.645 245.661C904.378 241.246 892.912 250.076 898.645 245.661ZM912.786 264C908.398 267.381 902.085 266.561 898.704 262.178C895.323 257.795 896.139 251.482 900.527 248.101C904.907 244.72 911.228 245.54 914.608 249.922C917.989 254.305 917.173 260.619 912.786 264C917.173 260.619 908.398 267.377 912.786 264Z" fill="white"/>
<path d="M915.939 470.806C920.364 466.189 920.209 458.861 915.594 454.437C910.971 450.013 903.643 450.17 899.219 454.786C894.787 459.402 894.949 466.73 899.564 471.155C904.18 475.579 911.515 475.422 915.939 470.806Z" fill="white"/>
<path d="M898.499 472.283C893.273 467.278 893.097 458.961 898.102 453.738C903.107 448.515 911.427 448.341 916.652 453.342C921.878 458.346 922.054 466.668 917.049 471.887C912.044 477.11 903.724 477.283 898.499 472.283C903.724 477.283 893.273 467.278 898.499 472.283ZM914.521 455.564C910.53 451.734 904.158 451.868 900.329 455.867C896.5 459.862 896.632 466.227 900.63 470.057C904.628 473.886 910.993 473.753 914.83 469.755C918.659 465.759 918.519 459.393 914.521 455.564C918.519 459.393 910.53 451.734 914.521 455.564Z" fill="white"/>
<path d="M1012.19 352.266H982.613V367.66H1012.19" fill="white"/>
<path d="M983.266 371.576C989.668 371.576 994.849 366.392 994.849 359.999C994.849 353.605 989.668 348.422 983.266 348.422C976.872 348.422 971.684 353.605 971.684 359.999C971.684 366.392 976.872 371.576 983.266 371.576Z" fill="white"/>
<path d="M983.259 346.812C990.491 346.812 996.378 352.697 996.378 359.928C996.378 367.159 990.491 373.044 983.259 373.044C976.027 373.044 970.133 367.159 970.133 359.928C970.133 352.694 976.027 346.812 983.259 346.812C990.491 346.812 976.027 346.812 983.259 346.812ZM983.259 369.962C988.793 369.962 993.299 365.462 993.299 359.924C993.299 354.39 988.801 349.886 983.259 349.886C977.718 349.886 973.212 354.386 973.212 359.924C973.212 365.462 977.718 369.962 983.259 369.962C988.793 369.962 977.718 369.962 983.259 369.962Z" fill="white"/>
<path d="M873.567 352.266H843.988V367.66H873.567" fill="white"/>
<path d="M872.913 371.576C879.307 371.576 884.488 366.392 884.488 359.999C884.488 353.605 879.307 348.422 872.913 348.422C866.513 348.422 861.328 353.605 861.328 359.999C861.328 366.392 866.513 371.576 872.913 371.576Z" fill="white"/>
<path d="M872.898 346.812C865.665 346.812 859.777 352.697 859.777 359.928C859.777 367.159 865.665 373.044 872.898 373.044C880.13 373.044 886.017 367.159 886.017 359.928C886.017 352.694 880.137 346.812 872.898 346.812C880.137 346.812 865.661 346.812 872.898 346.812ZM872.898 369.962C867.363 369.962 862.857 365.462 862.857 359.924C862.857 354.39 867.358 349.886 872.898 349.886C878.439 349.886 882.937 354.386 882.937 359.924C882.937 365.462 878.439 369.962 872.898 369.962C878.439 369.962 867.358 369.962 872.898 369.962Z" fill="white"/>
</svg>
