<svg width="15643" height="1860" viewBox="0 0 15643 1860" fill="none" xmlns="http://www.w3.org/2000/svg">
<rect width="15643" height="1860" fill="#F5F1EA"/>
<path d="M646 1162C625.6 1162 607.6 1155.6 592 1142.8C576.8 1130 564 1112.8 553.6 1091.2C543.6 1069.2 536 1044.8 530.8 1018C525.6 990.8 523 962.8 523 934C523 905.2 525.4 877.4 530.2 850.6C535.4 823.4 543.2 799 553.6 777.4C564 755.4 576.8 738 592 725.2C607.6 712.4 625.6 706 646 706C666.4 706 684.2 712.4 699.4 725.2C715 738 728 755.4 738.4 777.4C748.8 799 756.4 823.4 761.2 850.6C766.4 877.4 769 905.2 769 934C769 962.8 766.4 990.8 761.2 1018C756 1044.8 748.2 1069.2 737.8 1091.2C727.8 1112.8 715 1130 699.4 1142.8C684.2 1155.6 666.4 1162 646 1162ZM646 1139.8C674.4 1139.8 694.6 1129.6 706.6 1109.2C718.6 1088.8 724.6 1061.4 724.6 1027V841C724.6 806.6 718.4 779.2 706 758.8C694 738.4 674 728.2 646 728.2C618 728.2 597.8 738.4 585.4 758.8C573.4 779.2 567.4 806.6 567.4 841V1027C567.4 1061.4 573.4 1088.8 585.4 1109.2C597.8 1129.6 618 1139.8 646 1139.8ZM794.2 1156V1135.6H925.6V775H816.4V758.8L869.8 754C889.4 752 905.6 747.4 918.4 740.2C931.6 732.6 942.8 721.2 952 706H966.4V1135.6H1079.8V1156H794.2Z" fill="#011ECB"/>
<path d="M1449.89 1061.88L1526.35 819.008H1550.96L1536.31 884.34L1456.33 1136H1431.72L1449.89 1061.88ZM1370.49 819.008L1437.58 1063.34L1451.94 1136H1426.45L1334.46 819.008H1370.49ZM1646.18 1062.46L1711.51 819.008H1747.54L1655.55 1136H1630.36L1646.18 1062.46ZM1555.94 819.008L1631.23 1059.83L1650.28 1136H1625.67L1543.93 884.047L1530.16 819.008H1555.94ZM1853.89 819.008V1136H1819.03V819.008H1853.89ZM1812.88 727.309C1812.88 720.668 1814.93 715.102 1819.03 710.609C1823.32 705.922 1829.18 703.578 1836.61 703.578C1844.03 703.578 1849.89 705.922 1854.18 710.609C1858.68 715.102 1860.92 720.668 1860.92 727.309C1860.92 733.754 1858.68 739.32 1854.18 744.008C1849.89 748.5 1844.03 750.746 1836.61 750.746C1829.18 750.746 1823.32 748.5 1819.03 744.008C1814.93 739.32 1812.88 733.754 1812.88 727.309ZM1984.55 871.449V1136H1949.69V819.008H1983.68L1984.55 871.449ZM2096.76 816.664L2095.88 848.891C2091.98 848.305 2088.17 847.816 2084.46 847.426C2080.75 847.035 2076.74 846.84 2072.45 846.84C2057.21 846.84 2043.83 849.672 2032.31 855.336C2020.98 860.805 2011.41 868.52 2003.6 878.48C1995.79 888.246 1989.83 899.77 1985.73 913.051C1981.62 926.137 1979.28 940.199 1978.7 955.238L1965.8 960.219C1965.8 939.516 1967.95 920.277 1972.25 902.504C1976.55 884.73 1983.09 869.203 1991.88 855.922C2000.86 842.445 2012.09 831.996 2025.57 824.574C2039.24 816.957 2055.26 813.148 2073.62 813.148C2078.11 813.148 2082.5 813.539 2086.8 814.32C2091.29 814.906 2094.61 815.688 2096.76 816.664ZM2268.44 1141.86C2247.74 1141.86 2228.7 1138.05 2211.31 1130.43C2194.12 1122.82 2179.09 1112.07 2166.2 1098.21C2153.5 1084.34 2143.64 1067.93 2136.61 1048.99C2129.77 1029.85 2126.35 1008.95 2126.35 986.293V973.695C2126.35 949.281 2129.96 927.211 2137.19 907.484C2144.42 887.758 2154.38 870.863 2167.07 856.801C2179.77 842.738 2194.22 831.996 2210.43 824.574C2226.84 816.957 2244.03 813.148 2262 813.148C2282.11 813.148 2299.98 816.762 2315.61 823.988C2331.23 831.02 2344.32 841.078 2354.87 854.164C2365.61 867.055 2373.71 882.387 2379.18 900.16C2384.65 917.738 2387.39 937.172 2387.39 958.461V979.848H2147.45V949.965H2352.52V945.863C2352.13 928.09 2348.52 911.488 2341.68 896.059C2335.04 880.434 2325.08 867.738 2311.8 857.973C2298.52 848.207 2281.92 843.324 2262 843.324C2247.15 843.324 2233.48 846.449 2220.98 852.699C2208.68 858.949 2198.03 867.934 2189.05 879.652C2180.26 891.176 2173.42 904.945 2168.54 920.961C2163.85 936.781 2161.51 954.359 2161.51 973.695V986.293C2161.51 1003.87 2164.05 1020.28 2169.12 1035.51C2174.4 1050.55 2181.82 1063.83 2191.39 1075.36C2201.16 1086.88 2212.68 1095.86 2225.96 1102.31C2239.24 1108.75 2253.89 1111.98 2269.91 1111.98C2288.66 1111.98 2305.26 1108.56 2319.71 1101.72C2334.16 1094.69 2347.15 1083.66 2358.68 1068.62L2380.65 1085.61C2373.81 1095.77 2365.22 1105.14 2354.87 1113.73C2344.71 1122.33 2332.5 1129.16 2318.25 1134.24C2303.99 1139.32 2287.39 1141.86 2268.44 1141.86ZM2516.59 1136H2481.72V779.75C2481.72 758.07 2485.43 739.809 2492.86 724.965C2500.47 710.121 2511.21 698.891 2525.08 691.273C2539.14 683.656 2555.84 679.848 2575.18 679.848C2581.23 679.848 2587.48 680.238 2593.93 681.02C2600.38 681.605 2606.62 682.875 2612.68 684.828L2610.04 714.418C2605.16 713.051 2600.18 712.172 2595.1 711.781C2590.22 711.195 2584.46 710.902 2577.82 710.902C2565.12 710.902 2554.18 713.637 2545 719.105C2535.82 724.379 2528.79 732.094 2523.91 742.25C2519.03 752.406 2516.59 764.906 2516.59 779.75V1136ZM2592.17 819.008V847.719H2429.28V819.008H2592.17ZM2690.02 871.449V1136H2655.16V819.008H2689.14L2690.02 871.449ZM2802.23 816.664L2801.35 848.891C2797.45 848.305 2793.64 847.816 2789.93 847.426C2786.21 847.035 2782.21 846.84 2777.91 846.84C2762.68 846.84 2749.3 849.672 2737.78 855.336C2726.45 860.805 2716.88 868.52 2709.07 878.48C2701.25 888.246 2695.3 899.77 2691.2 913.051C2687.09 926.137 2684.75 940.199 2684.16 955.238L2671.27 960.219C2671.27 939.516 2673.42 920.277 2677.72 902.504C2682.02 884.73 2688.56 869.203 2697.35 855.922C2706.33 842.445 2717.56 831.996 2731.04 824.574C2744.71 816.957 2760.73 813.148 2779.09 813.148C2783.58 813.148 2787.97 813.539 2792.27 814.32C2796.76 814.906 2800.08 815.688 2802.23 816.664ZM3038.36 1079.16V915.688C3038.36 900.648 3035.24 887.66 3028.99 876.723C3022.74 865.785 3013.56 857.387 3001.45 851.527C2989.34 845.668 2974.4 842.738 2956.62 842.738C2940.22 842.738 2925.57 845.668 2912.68 851.527C2899.98 857.191 2889.93 864.906 2882.5 874.672C2875.28 884.242 2871.66 894.887 2871.66 906.605L2836.51 906.312C2836.51 894.398 2839.44 882.875 2845.3 871.742C2851.16 860.609 2859.46 850.648 2870.2 841.859C2880.94 833.07 2893.73 826.137 2908.58 821.059C2923.62 815.785 2940.12 813.148 2958.09 813.148C2980.75 813.148 3000.67 816.957 3017.86 824.574C3035.24 832.191 3048.81 843.617 3058.58 858.852C3068.34 874.086 3073.23 893.227 3073.23 916.273V1069.5C3073.23 1080.43 3074.01 1091.76 3075.57 1103.48C3077.33 1115.2 3079.77 1124.87 3082.89 1132.48V1136H3045.69C3043.34 1128.97 3041.49 1120.18 3040.12 1109.63C3038.95 1098.89 3038.36 1088.73 3038.36 1079.16ZM3046.57 951.43L3047.15 978.383H2978.3C2960.34 978.383 2944.22 980.043 2929.96 983.363C2915.9 986.488 2903.99 991.176 2894.22 997.426C2884.46 1003.48 2876.94 1010.8 2871.66 1019.4C2866.59 1027.99 2864.05 1037.76 2864.05 1048.7C2864.05 1060.02 2866.88 1070.38 2872.54 1079.75C2878.4 1089.12 2886.61 1096.64 2897.15 1102.31C2907.89 1107.78 2920.59 1110.51 2935.24 1110.51C2954.77 1110.51 2971.96 1106.9 2986.8 1099.67C3001.84 1092.45 3014.24 1082.97 3024.01 1071.25C3033.77 1059.54 3040.32 1046.74 3043.64 1032.88L3058.87 1053.09C3056.33 1062.86 3051.64 1072.91 3044.81 1083.27C3038.17 1093.42 3029.48 1102.99 3018.73 1111.98C3007.99 1120.77 2995.3 1127.99 2980.65 1133.66C2966.2 1139.12 2949.79 1141.86 2931.43 1141.86C2910.73 1141.86 2892.66 1137.95 2877.23 1130.14C2862 1122.33 2850.08 1111.68 2841.49 1098.21C2833.09 1084.54 2828.89 1069.11 2828.89 1051.92C2828.89 1036.29 2832.21 1022.33 2838.85 1010.02C2845.49 997.523 2855.06 986.977 2867.56 978.383C2880.26 969.594 2895.49 962.953 2913.27 958.461C2931.23 953.773 2951.35 951.43 2973.62 951.43H3046.57ZM3200.38 884.633V1136H3165.22V819.008H3198.91L3200.38 884.633ZM3193.93 957.875L3176.94 949.086C3178.11 930.336 3181.62 912.758 3187.48 896.352C3193.54 879.945 3201.94 865.492 3212.68 852.992C3223.42 840.492 3236.31 830.727 3251.35 823.695C3266.39 816.664 3283.48 813.148 3302.62 813.148C3318.05 813.148 3332.02 815.297 3344.52 819.594C3357.21 823.695 3367.95 830.238 3376.74 839.223C3385.73 848.012 3392.66 859.535 3397.54 873.793C3402.43 888.051 3404.87 905.141 3404.87 925.062V1136H3370V926.234C3370 905.141 3366.68 888.637 3360.04 876.723C3353.6 864.809 3344.52 856.312 3332.8 851.234C3321.27 846.156 3307.89 843.617 3292.66 843.617C3274.69 843.617 3259.46 847.328 3246.96 854.75C3234.65 861.977 3224.59 871.449 3216.78 883.168C3209.16 894.691 3203.5 907.094 3199.79 920.375C3196.08 933.461 3194.12 945.961 3193.93 957.875ZM3404.57 930.336L3381.14 930.922C3382.11 915.492 3385.63 900.746 3391.68 886.684C3397.93 872.621 3406.43 860.121 3417.17 849.184C3427.91 838.051 3440.71 829.262 3455.55 822.816C3470.59 816.371 3487.48 813.148 3506.23 813.148C3522.64 813.148 3537.29 815.395 3550.18 819.887C3563.07 824.184 3573.91 831.117 3582.7 840.688C3591.68 850.062 3598.52 862.074 3603.21 876.723C3607.89 891.371 3610.24 908.949 3610.24 929.457V1136H3575.08V929.164C3575.08 906.703 3571.76 889.32 3565.12 877.016C3558.68 864.516 3549.69 855.824 3538.17 850.941C3526.64 846.059 3513.17 843.617 3497.74 843.617C3482.5 843.812 3469.12 846.645 3457.6 852.113C3446.08 857.387 3436.41 864.418 3428.6 873.207C3420.98 881.801 3415.12 891.078 3411.02 901.039C3407.11 911 3404.96 920.766 3404.57 930.336ZM3821.76 1141.86C3801.06 1141.86 3782.02 1138.05 3764.63 1130.43C3747.45 1122.82 3732.41 1112.07 3719.52 1098.21C3706.82 1084.34 3696.96 1067.93 3689.93 1048.99C3683.09 1029.85 3679.67 1008.95 3679.67 986.293V973.695C3679.67 949.281 3683.29 927.211 3690.51 907.484C3697.74 887.758 3707.7 870.863 3720.39 856.801C3733.09 842.738 3747.54 831.996 3763.75 824.574C3780.16 816.957 3797.35 813.148 3815.32 813.148C3835.43 813.148 3853.3 816.762 3868.93 823.988C3884.55 831.02 3897.64 841.078 3908.19 854.164C3918.93 867.055 3927.04 882.387 3932.5 900.16C3937.97 917.738 3940.71 937.172 3940.71 958.461V979.848H3700.77V949.965H3905.84V945.863C3905.45 928.09 3901.84 911.488 3895 896.059C3888.36 880.434 3878.4 867.738 3865.12 857.973C3851.84 848.207 3835.24 843.324 3815.32 843.324C3800.47 843.324 3786.8 846.449 3774.3 852.699C3762 858.949 3751.35 867.934 3742.37 879.652C3733.58 891.176 3726.74 904.945 3721.86 920.961C3717.17 936.781 3714.83 954.359 3714.83 973.695V986.293C3714.83 1003.87 3717.37 1020.28 3722.45 1035.51C3727.72 1050.55 3735.14 1063.83 3744.71 1075.36C3754.48 1086.88 3766 1095.86 3779.28 1102.31C3792.56 1108.75 3807.21 1111.98 3823.23 1111.98C3841.98 1111.98 3858.58 1108.56 3873.03 1101.72C3887.48 1094.69 3900.47 1083.66 3912 1068.62L3933.97 1085.61C3927.13 1095.77 3918.54 1105.14 3908.19 1113.73C3898.03 1122.33 3885.82 1129.16 3871.57 1134.24C3857.31 1139.32 3840.71 1141.86 3821.76 1141.86ZM4199.69 1055.14C4199.69 1046.55 4197.54 1038.05 4193.25 1029.65C4188.95 1021.25 4180.65 1013.54 4168.34 1006.51C4156.23 999.477 4138.36 993.52 4114.73 988.637C4097.15 984.73 4081.43 980.336 4067.56 975.453C4053.89 970.57 4042.37 964.711 4032.99 957.875C4023.62 951.039 4016.49 942.836 4011.61 933.266C4006.72 923.695 4004.28 912.367 4004.28 899.281C4004.28 887.562 4006.82 876.527 4011.9 866.176C4017.17 855.629 4024.59 846.449 4034.16 838.637C4043.93 830.629 4055.65 824.379 4069.32 819.887C4083.19 815.395 4098.71 813.148 4115.9 813.148C4140.32 813.148 4161.21 817.348 4178.6 825.746C4196.18 833.949 4209.55 845.18 4218.73 859.438C4228.11 873.695 4232.8 889.809 4232.8 907.777H4197.93C4197.93 896.84 4194.71 886.488 4188.27 876.723C4182.02 866.957 4172.74 858.949 4160.43 852.699C4148.32 846.449 4133.48 843.324 4115.9 843.324C4097.74 843.324 4082.99 846.059 4071.66 851.527C4060.34 856.996 4052.04 863.93 4046.76 872.328C4041.68 880.727 4039.14 889.418 4039.14 898.402C4039.14 905.434 4040.22 911.879 4042.37 917.738C4044.71 923.402 4048.81 928.676 4054.67 933.559C4060.73 938.441 4069.32 943.031 4080.45 947.328C4091.59 951.625 4106.04 955.824 4123.81 959.926C4149.4 965.59 4170.3 972.523 4186.51 980.727C4202.91 988.734 4215.02 998.695 4222.84 1010.61C4230.65 1022.33 4234.55 1036.59 4234.55 1053.38C4234.55 1066.47 4231.82 1078.48 4226.35 1089.42C4220.88 1100.16 4212.97 1109.44 4202.62 1117.25C4192.46 1125.06 4180.16 1131.12 4165.71 1135.41C4151.45 1139.71 4135.43 1141.86 4117.66 1141.86C4090.9 1141.86 4068.25 1137.46 4049.69 1128.68C4031.33 1119.69 4017.37 1107.97 4007.8 1093.52C3998.42 1078.87 3993.73 1063.34 3993.73 1046.94H4028.6C4029.77 1063.34 4034.95 1076.33 4044.12 1085.9C4053.3 1095.28 4064.54 1101.92 4077.82 1105.82C4091.29 1109.73 4104.57 1111.68 4117.66 1111.68C4135.63 1111.68 4150.67 1109.05 4162.78 1103.77C4174.89 1098.5 4184.07 1091.57 4190.32 1082.97C4196.57 1074.38 4199.69 1065.1 4199.69 1055.14Z" fill="#011ECB"/>
<path d="M11966 1162C11945.6 1162 11927.6 1155.6 11912 1142.8C11896.8 1130 11884 1112.8 11873.6 1091.2C11863.6 1069.2 11856 1044.8 11850.8 1018C11845.6 990.8 11843 962.8 11843 934C11843 905.2 11845.4 877.4 11850.2 850.6C11855.4 823.4 11863.2 799 11873.6 777.4C11884 755.4 11896.8 738 11912 725.2C11927.6 712.4 11945.6 706 11966 706C11986.4 706 12004.2 712.4 12019.4 725.2C12035 738 12048 755.4 12058.4 777.4C12068.8 799 12076.4 823.4 12081.2 850.6C12086.4 877.4 12089 905.2 12089 934C12089 962.8 12086.4 990.8 12081.2 1018C12076 1044.8 12068.2 1069.2 12057.8 1091.2C12047.8 1112.8 12035 1130 12019.4 1142.8C12004.2 1155.6 11986.4 1162 11966 1162ZM11966 1139.8C11994.4 1139.8 12014.6 1129.6 12026.6 1109.2C12038.6 1088.8 12044.6 1061.4 12044.6 1027V841C12044.6 806.6 12038.4 779.2 12026 758.8C12014 738.4 11994 728.2 11966 728.2C11938 728.2 11917.8 738.4 11905.4 758.8C11893.4 779.2 11887.4 806.6 11887.4 841V1027C11887.4 1061.4 11893.4 1088.8 11905.4 1109.2C11917.8 1129.6 11938 1139.8 11966 1139.8ZM12261.2 1162C12238.4 1162 12218.8 1157 12202.4 1147C12186.4 1136.6 12174 1122.6 12165.2 1105C12156.8 1087.4 12152.6 1068 12152.6 1046.8C12152.6 1026 12156.2 1010.2 12163.4 999.4C12171 988.6 12180.4 983.2 12191.6 983.2C12199.6 983.2 12206 985.8 12210.8 991C12216 996.2 12218.6 1003 12218.6 1011.4C12218.6 1021.4 12215.6 1029.2 12209.6 1034.8C12203.6 1040.4 12197.4 1045.4 12191 1049.8L12173 1062.4C12174.6 1084.4 12182.4 1103 12196.4 1118.2C12210.8 1133.4 12232 1141 12260 1141C12286 1141 12306.6 1133.8 12321.8 1119.4C12337 1104.6 12344.6 1083.4 12344.6 1055.8V974.8C12344.6 954.8 12339.6 937.8 12329.6 923.8C12320 909.4 12303.6 902.2 12280.4 902.2C12264.8 902.2 12250.6 905.4 12237.8 911.8C12225.4 918.2 12213.2 926.4 12201.2 936.4L12188.6 924.4L12344.6 752.2H12240.8C12235.2 752.2 12228.2 753.4 12219.8 755.8C12211.8 758.2 12204.6 762.6 12198.2 769C12191.8 775 12188 783.8 12186.8 795.4L12182.6 840.4H12165.8V712H12365.6V752.2L12236.6 892.6L12237.8 894.4C12242.2 892 12248.2 889.6 12255.8 887.2C12263.8 884.4 12273.2 883 12284 883C12300.8 883 12317 887.4 12332.6 896.2C12348.2 905 12360.8 919 12370.4 938.2C12380.4 957.4 12385.4 982.8 12385.4 1014.4C12385.4 1046.8 12379.8 1074 12368.6 1096C12357.4 1117.6 12342.4 1134 12323.6 1145.2C12304.8 1156.4 12284 1162 12261.2 1162Z" fill="#011ECB"/>
<path d="M12716.6 879.945V1257.88H12681.4V819.008H12714.2L12716.6 879.945ZM12936.9 974.574V980.727C12936.9 1004.36 12934.1 1026.04 12928.7 1045.77C12923.2 1065.49 12915.3 1082.58 12904.9 1097.04C12894.8 1111.29 12882.2 1122.33 12867.2 1130.14C12852.1 1137.95 12835 1141.86 12815.9 1141.86C12796.9 1141.86 12780 1138.93 12765.2 1133.07C12750.4 1127.21 12737.6 1118.91 12726.8 1108.17C12716.3 1097.23 12707.8 1084.54 12701.3 1070.08C12695.1 1055.43 12690.7 1039.42 12688.1 1022.04V940.883C12691.1 921.742 12695.9 904.359 12702.5 888.734C12709.1 873.109 12717.6 859.633 12728 848.305C12738.5 836.977 12751 828.285 12765.5 822.23C12779.9 816.176 12796.4 813.148 12815 813.148C12834.3 813.148 12851.5 816.957 12866.6 824.574C12881.8 831.996 12894.6 842.836 12904.9 857.094C12915.5 871.156 12923.4 888.148 12928.7 908.07C12934.1 927.797 12936.9 949.965 12936.9 974.574ZM12901.7 980.727V974.574C12901.7 956.02 12899.8 938.832 12895.9 923.012C12892.2 907.191 12886.4 893.422 12878.6 881.703C12871 869.789 12861.2 860.512 12849.3 853.871C12837.6 847.23 12823.6 843.91 12807.4 843.91C12790.6 843.91 12776.2 846.742 12764.3 852.406C12752.6 857.875 12742.8 865.199 12735 874.379C12727.2 883.363 12721.1 893.227 12716.6 903.969C12712.1 914.711 12708.8 925.258 12706.6 935.609V1029.07C12710.3 1043.91 12716.3 1057.68 12724.5 1070.38C12732.7 1082.88 12743.6 1092.93 12757.3 1100.55C12771.2 1107.97 12788.1 1111.68 12808 1111.68C12824 1111.68 12837.9 1108.36 12849.6 1101.72C12861.3 1095.08 12871 1085.8 12878.6 1073.89C12886.4 1061.98 12892.2 1048.11 12895.9 1032.29C12899.8 1016.47 12901.7 999.281 12901.7 980.727ZM13049.7 871.449V1136H13014.8V819.008H13048.8L13049.7 871.449ZM13161.9 816.664L13161 848.891C13157.1 848.305 13153.3 847.816 13149.6 847.426C13145.9 847.035 13141.9 846.84 13137.6 846.84C13122.3 846.84 13108.9 849.672 13097.4 855.336C13086.1 860.805 13076.5 868.52 13068.7 878.48C13060.9 888.246 13054.9 899.77 13050.8 913.051C13046.7 926.137 13044.4 940.199 13043.8 955.238L13030.9 960.219C13030.9 939.516 13033.1 920.277 13037.4 902.504C13041.7 884.73 13048.2 869.203 13057 855.922C13066 842.445 13077.2 831.996 13090.7 824.574C13104.4 816.957 13120.4 813.148 13138.7 813.148C13143.2 813.148 13147.6 813.539 13151.9 814.32C13156.4 814.906 13159.7 815.688 13161.9 816.664ZM13191.8 982.484V972.816C13191.8 949.77 13195.1 928.48 13201.7 908.949C13208.4 889.418 13217.8 872.523 13230.1 858.266C13242.6 844.008 13257.6 832.973 13275 825.16C13292.3 817.152 13311.7 813.148 13333 813.148C13354.5 813.148 13373.9 817.152 13391.3 825.16C13408.7 832.973 13423.6 844.008 13436.1 858.266C13448.6 872.523 13458.2 889.418 13464.8 908.949C13471.4 928.48 13474.8 949.77 13474.8 972.816V982.484C13474.8 1005.53 13471.4 1026.82 13464.8 1046.35C13458.2 1065.69 13448.6 1082.48 13436.1 1096.74C13423.8 1111 13408.9 1122.13 13391.6 1130.14C13374.2 1137.95 13354.8 1141.86 13333.6 1141.86C13312.1 1141.86 13292.6 1137.95 13275.3 1130.14C13257.9 1122.13 13242.9 1111 13230.4 1096.74C13217.9 1082.48 13208.4 1065.69 13201.7 1046.35C13195.1 1026.82 13191.8 1005.53 13191.8 982.484ZM13226.6 972.816V982.484C13226.6 999.867 13229 1016.37 13233.7 1032C13238.3 1047.43 13245.2 1061.2 13254.2 1073.3C13263.1 1085.22 13274.3 1094.59 13287.6 1101.43C13300.8 1108.27 13316.2 1111.68 13333.6 1111.68C13350.7 1111.68 13365.9 1108.27 13379 1101.43C13392.2 1094.59 13403.4 1085.22 13412.4 1073.3C13421.4 1061.2 13428.1 1047.43 13432.6 1032C13437.3 1016.37 13439.6 999.867 13439.6 982.484V972.816C13439.6 955.629 13437.3 939.32 13432.6 923.891C13428.1 908.461 13421.3 894.691 13412.1 882.582C13403.1 870.473 13392 860.902 13378.7 853.871C13365.4 846.84 13350.2 843.324 13333 843.324C13315.8 843.324 13300.6 846.84 13287.3 853.871C13274.2 860.902 13263.1 870.473 13253.9 882.582C13244.9 894.691 13238.1 908.461 13233.4 923.891C13228.9 939.32 13226.6 955.629 13226.6 972.816ZM13667.2 819.008V847.719H13508.5V819.008H13667.2ZM13566.8 737.562H13601.6V1058.95C13601.6 1073.6 13603.6 1084.63 13607.5 1092.05C13611.4 1099.48 13616.5 1104.46 13622.7 1107C13629 1109.54 13635.7 1110.8 13642.9 1110.8C13648.2 1110.8 13653.3 1110.51 13658.2 1109.93C13663.1 1109.14 13667.4 1108.36 13671.4 1107.58L13672.8 1137.17C13668.5 1138.54 13663 1139.61 13656.1 1140.39C13649.3 1141.37 13642.4 1141.86 13635.6 1141.86C13622.1 1141.86 13610.2 1139.42 13599.9 1134.54C13589.5 1129.46 13581.4 1120.86 13575.6 1108.75C13569.7 1096.45 13566.8 1079.75 13566.8 1058.66V737.562ZM13715.6 982.484V972.816C13715.6 949.77 13718.9 928.48 13725.6 908.949C13732.2 889.418 13741.7 872.523 13754 858.266C13766.5 844.008 13781.4 832.973 13798.8 825.16C13816.2 817.152 13835.5 813.148 13856.8 813.148C13878.3 813.148 13897.7 817.152 13915.1 825.16C13932.5 832.973 13947.4 844.008 13959.9 858.266C13972.4 872.523 13982 889.418 13988.6 908.949C13995.3 928.48 13998.6 949.77 13998.6 972.816V982.484C13998.6 1005.53 13995.3 1026.82 13988.6 1046.35C13982 1065.69 13972.4 1082.48 13959.9 1096.74C13947.6 1111 13932.8 1122.13 13915.4 1130.14C13898 1137.95 13878.7 1141.86 13857.4 1141.86C13835.9 1141.86 13816.5 1137.95 13799.1 1130.14C13781.7 1122.13 13766.8 1111 13754.3 1096.74C13741.8 1082.48 13732.2 1065.69 13725.6 1046.35C13718.9 1026.82 13715.6 1005.53 13715.6 982.484ZM13750.5 972.816V982.484C13750.5 999.867 13752.8 1016.37 13757.5 1032C13762.2 1047.43 13769 1061.2 13778 1073.3C13787 1085.22 13798.1 1094.59 13811.4 1101.43C13824.7 1108.27 13840 1111.68 13857.4 1111.68C13874.6 1111.68 13889.7 1108.27 13902.8 1101.43C13916.1 1094.59 13927.2 1085.22 13936.2 1073.3C13945.2 1061.2 13951.9 1047.43 13956.4 1032C13961.1 1016.37 13963.4 999.867 13963.4 982.484V972.816C13963.4 955.629 13961.1 939.32 13956.4 923.891C13951.9 908.461 13945.1 894.691 13935.9 882.582C13926.9 870.473 13915.8 860.902 13902.5 853.871C13889.2 846.84 13874 843.324 13856.8 843.324C13839.6 843.324 13824.4 846.84 13811.1 853.871C13798 860.902 13786.9 870.473 13777.7 882.582C13768.7 894.691 13761.9 908.461 13757.2 923.891C13752.7 939.32 13750.5 955.629 13750.5 972.816ZM14191.1 819.008V847.719H14032.3V819.008H14191.1ZM14090.6 737.562H14125.5V1058.95C14125.5 1073.6 14127.4 1084.63 14131.3 1092.05C14135.2 1099.48 14140.3 1104.46 14146.5 1107C14152.8 1109.54 14159.5 1110.8 14166.8 1110.8C14172 1110.8 14177.1 1110.51 14182 1109.93C14186.9 1109.14 14191.3 1108.36 14195.2 1107.58L14196.6 1137.17C14192.3 1138.54 14186.8 1139.61 14179.9 1140.39C14173.1 1141.37 14166.3 1141.86 14159.4 1141.86C14146 1141.86 14134 1139.42 14123.7 1134.54C14113.3 1129.46 14105.2 1120.86 14099.4 1108.75C14093.5 1096.45 14090.6 1079.75 14090.6 1058.66V737.562ZM14358.7 1104.36L14457.4 819.008H14495.2L14361 1186.98C14358.3 1194.2 14354.8 1202.21 14350.5 1211C14346.4 1219.79 14340.9 1228.19 14334 1236.2C14327.4 1244.4 14319 1251.04 14308.9 1256.12C14298.9 1261.39 14286.7 1264.03 14272.2 1264.03C14268.5 1264.03 14263.7 1263.54 14257.9 1262.56C14252.2 1261.78 14248.1 1261 14245.6 1260.22L14245.3 1230.63C14247.4 1231.21 14250.6 1231.7 14254.7 1232.09C14258.8 1232.48 14261.6 1232.68 14263.1 1232.68C14275.8 1232.68 14286.5 1230.53 14295.1 1226.23C14303.9 1221.94 14311.2 1215.49 14317.1 1206.9C14322.9 1198.5 14328.1 1187.95 14332.6 1175.26L14358.7 1104.36ZM14266.4 819.008L14367.4 1091.18L14376.8 1127.8L14351.3 1142.15L14228.3 819.008H14266.4ZM14584.5 879.945V1257.88H14549.4V819.008H14582.2L14584.5 879.945ZM14804.8 974.574V980.727C14804.8 1004.36 14802.1 1026.04 14796.6 1045.77C14791.2 1065.49 14783.3 1082.58 14772.9 1097.04C14762.8 1111.29 14750.2 1122.33 14735.1 1130.14C14720.1 1137.95 14703 1141.86 14683.9 1141.86C14664.9 1141.86 14648 1138.93 14633.2 1133.07C14618.3 1127.21 14605.5 1118.91 14594.8 1108.17C14584.2 1097.23 14575.7 1084.54 14569.3 1070.08C14563.1 1055.43 14558.7 1039.42 14556.1 1022.04V940.883C14559 921.742 14563.8 904.359 14570.5 888.734C14577.1 873.109 14585.6 859.633 14596 848.305C14606.5 836.977 14619 828.285 14633.5 822.23C14647.9 816.176 14664.4 813.148 14683 813.148C14702.3 813.148 14719.5 816.957 14734.5 824.574C14749.8 831.996 14762.6 842.836 14772.9 857.094C14783.5 871.156 14791.4 888.148 14796.6 908.07C14802.1 927.797 14804.8 949.965 14804.8 974.574ZM14769.7 980.727V974.574C14769.7 956.02 14767.7 938.832 14763.8 923.012C14760.1 907.191 14754.4 893.422 14746.5 881.703C14738.9 869.789 14729.2 860.512 14717.2 853.871C14705.5 847.23 14691.6 843.91 14675.4 843.91C14658.6 843.91 14644.2 846.742 14632.3 852.406C14620.6 857.875 14610.8 865.199 14603 874.379C14595.2 883.363 14589 893.227 14584.5 903.969C14580 914.711 14576.7 925.258 14574.6 935.609V1029.07C14578.3 1043.91 14584.2 1057.68 14592.4 1070.38C14600.6 1082.88 14611.6 1092.93 14625.3 1100.55C14639.1 1107.97 14656 1111.68 14675.9 1111.68C14692 1111.68 14705.8 1108.36 14717.5 1101.72C14729.3 1095.08 14738.9 1085.8 14746.5 1073.89C14754.4 1061.98 14760.1 1048.11 14763.8 1032.29C14767.7 1016.47 14769.7 999.281 14769.7 980.727ZM15005.2 1141.86C14984.5 1141.86 14965.5 1138.05 14948.1 1130.43C14930.9 1122.82 14915.9 1112.07 14903 1098.21C14890.3 1084.34 14880.4 1067.93 14873.4 1048.99C14866.6 1029.85 14863.1 1008.95 14863.1 986.293V973.695C14863.1 949.281 14866.8 927.211 14874 907.484C14881.2 887.758 14891.2 870.863 14903.9 856.801C14916.6 842.738 14931 831.996 14947.2 824.574C14963.6 816.957 14980.8 813.148 14998.8 813.148C15018.9 813.148 15036.8 816.762 15052.4 823.988C15068 831.02 15081.1 841.078 15091.7 854.164C15102.4 867.055 15110.5 882.387 15116 900.16C15121.4 917.738 15124.2 937.172 15124.2 958.461V979.848H14884.2V949.965H15089.3V945.863C15088.9 928.09 15085.3 911.488 15078.5 896.059C15071.8 880.434 15061.9 867.738 15048.6 857.973C15035.3 848.207 15018.7 843.324 14998.8 843.324C14983.9 843.324 14970.3 846.449 14957.8 852.699C14945.5 858.949 14934.8 867.934 14925.8 879.652C14917.1 891.176 14910.2 904.945 14905.3 920.961C14900.6 936.781 14898.3 954.359 14898.3 973.695V986.293C14898.3 1003.87 14900.8 1020.28 14905.9 1035.51C14911.2 1050.55 14918.6 1063.83 14928.2 1075.36C14938 1086.88 14949.5 1095.86 14962.8 1102.31C14976 1108.75 14990.7 1111.98 15006.7 1111.98C15025.5 1111.98 15042.1 1108.56 15056.5 1101.72C15071 1094.69 15083.9 1083.66 15095.5 1068.62L15117.4 1085.61C15110.6 1095.77 15102 1105.14 15091.7 1113.73C15081.5 1122.33 15069.3 1129.16 15055 1134.24C15040.8 1139.32 15024.2 1141.86 15005.2 1141.86Z" fill="#011ECB"/>
<path d="M5383.3 935.303C5386.23 932.374 5386.23 927.626 5383.3 924.697L5335.57 876.967C5332.64 874.038 5327.9 874.038 5324.97 876.967C5322.04 879.896 5322.04 884.645 5324.97 887.574L5367.39 930L5324.97 972.426C5322.04 975.355 5322.04 980.104 5324.97 983.033C5327.9 985.962 5332.64 985.962 5335.57 983.033L5383.3 935.303ZM4576 937.5H5378V922.5H4576V937.5Z" fill="#011ECB"/>
<path d="M11513.3 935.303C11516.2 932.374 11516.2 927.626 11513.3 924.697L11465.6 876.967C11462.6 874.038 11457.9 874.038 11455 876.967C11452 879.896 11452 884.645 11455 887.574L11497.4 930L11455 972.426C11452 975.355 11452 980.104 11455 983.033C11457.9 985.962 11462.6 985.962 11465.6 983.033L11513.3 935.303ZM10706 937.5H11508V922.5H10706V937.5Z" fill="#011ECB"/>
<path d="M5836 1162C5815.6 1162 5797.6 1155.6 5782 1142.8C5766.8 1130 5754 1112.8 5743.6 1091.2C5733.6 1069.2 5726 1044.8 5720.8 1018C5715.6 990.8 5713 962.8 5713 934C5713 905.2 5715.4 877.4 5720.2 850.6C5725.4 823.4 5733.2 799 5743.6 777.4C5754 755.4 5766.8 738 5782 725.2C5797.6 712.4 5815.6 706 5836 706C5856.4 706 5874.2 712.4 5889.4 725.2C5905 738 5918 755.4 5928.4 777.4C5938.8 799 5946.4 823.4 5951.2 850.6C5956.4 877.4 5959 905.2 5959 934C5959 962.8 5956.4 990.8 5951.2 1018C5946 1044.8 5938.2 1069.2 5927.8 1091.2C5917.8 1112.8 5905 1130 5889.4 1142.8C5874.2 1155.6 5856.4 1162 5836 1162ZM5836 1139.8C5864.4 1139.8 5884.6 1129.6 5896.6 1109.2C5908.6 1088.8 5914.6 1061.4 5914.6 1027V841C5914.6 806.6 5908.4 779.2 5896 758.8C5884 738.4 5864 728.2 5836 728.2C5808 728.2 5787.8 738.4 5775.4 758.8C5763.4 779.2 5757.4 806.6 5757.4 841V1027C5757.4 1061.4 5763.4 1088.8 5775.4 1109.2C5787.8 1129.6 5808 1139.8 5836 1139.8ZM6056.2 1162C6046.6 1162 6038.2 1157.6 6031 1148.8C6024.2 1139.6 6020.8 1124.4 6020.8 1103.2C6020.8 1084 6023.4 1067 6028.6 1052.2C6034.2 1037.4 6041 1024.4 6049 1013.2C6057.4 1002 6065.8 992.6 6074.2 985C6082.6 977 6089.8 970.6 6095.8 965.8L6148.6 920.8C6155.4 914.8 6163.2 907.2 6172 898C6181.2 888.8 6189 877.2 6195.4 863.2C6202.2 849.2 6205.6 832.6 6205.6 813.4C6205.6 786.6 6198.4 765.6 6184 750.4C6169.6 734.8 6150.6 727 6127 727C6111.4 727 6098.2 730.4 6087.4 737.2C6076.6 743.6 6068 751.6 6061.6 761.2C6055.2 770.8 6051 780 6049 788.8L6073.6 811.6C6076.4 814 6080.4 818.2 6085.6 824.2C6090.8 830.2 6093.4 837.8 6093.4 847C6093.4 855.8 6090.6 862.8 6085 868C6079.4 873.2 6073 875.8 6065.8 875.8C6057 875.8 6048.2 871.4 6039.4 862.6C6031 853.8 6026.8 839.8 6026.8 820.6C6026.8 802.6 6031.2 784.8 6040 767.2C6049.2 749.6 6062.2 735 6079 723.4C6095.8 711.8 6116.2 706 6140.2 706C6161.8 706 6180.6 710.8 6196.6 720.4C6212.6 729.6 6225 742.2 6233.8 758.2C6242.6 774.2 6247 792.2 6247 812.2C6247 833.8 6242 852.8 6232 869.2C6222.4 885.2 6211 899 6197.8 910.6C6184.6 922.2 6172.4 932.2 6161.2 940.6L6107.2 980.8C6096.4 988.8 6085.6 998.2 6074.8 1009C6064.4 1019.4 6055.6 1031.4 6048.4 1045C6041.6 1058.6 6038.2 1074.4 6038.2 1092.4C6042.2 1084.4 6049.2 1076.4 6059.2 1068.4C6069.6 1060.4 6081.8 1056.4 6095.8 1056.4C6109.8 1056.4 6121.6 1060 6131.2 1067.2C6140.8 1074 6149.6 1082 6157.6 1091.2C6165.6 1100 6173.6 1108 6181.6 1115.2C6189.6 1122 6198.8 1125.4 6209.2 1125.4C6219.2 1125.4 6226.2 1122.2 6230.2 1115.8C6234.2 1109 6236.6 1100.8 6237.4 1091.2C6238.2 1081.6 6238.6 1072.4 6238.6 1063.6V1006.6H6256.6V1064.2C6256.6 1073 6256.2 1083 6255.4 1094.2C6254.6 1105.4 6252.4 1116.2 6248.8 1126.6C6245.6 1136.6 6240.2 1145 6232.6 1151.8C6225 1158.6 6214.2 1162 6200.2 1162C6187 1162 6176 1159 6167.2 1153C6158.4 1147 6151 1139.6 6145 1130.8C6139 1122 6133.2 1113.2 6127.6 1104.4C6122.4 1095.6 6116.8 1088.2 6110.8 1082.2C6104.8 1076.2 6097.2 1073.2 6088 1073.2C6078 1073.2 6069.2 1076.8 6061.6 1084C6054 1091.2 6048.6 1098.2 6045.4 1105L6061 1114C6063.8 1115.6 6067.6 1118.4 6072.4 1122.4C6077.6 1126.4 6080.2 1132.2 6080.2 1139.8C6080.2 1145.8 6078 1151 6073.6 1155.4C6069.6 1159.8 6063.8 1162 6056.2 1162Z" fill="#011ECB"/>
<path d="M6668.89 1111.68C6683.73 1111.68 6697.6 1108.95 6710.49 1103.48C6723.58 1097.82 6734.32 1089.52 6742.72 1078.58C6751.31 1067.45 6756.2 1053.87 6757.37 1037.86H6790.77C6789.79 1057.97 6783.64 1075.94 6772.31 1091.76C6761.18 1107.39 6746.53 1119.69 6728.36 1128.68C6710.39 1137.46 6690.57 1141.86 6668.89 1141.86C6646.82 1141.86 6627.29 1137.86 6610.3 1129.85C6593.5 1121.84 6579.44 1110.71 6568.11 1096.45C6556.78 1082 6548.19 1065.2 6542.33 1046.06C6536.66 1026.72 6533.83 1005.92 6533.83 983.656V971.352C6533.83 949.086 6536.66 928.383 6542.33 909.242C6548.19 889.906 6556.78 873.109 6568.11 858.852C6579.44 844.398 6593.5 833.168 6610.3 825.16C6627.09 817.152 6646.53 813.148 6668.6 813.148C6691.25 813.148 6711.57 817.738 6729.54 826.918C6747.7 836.098 6762.15 849.086 6772.89 865.883C6783.83 882.68 6789.79 902.602 6790.77 925.648H6757.37C6756.39 908.656 6751.9 894.008 6743.89 881.703C6735.88 869.398 6725.34 859.926 6712.25 853.285C6699.16 846.645 6684.61 843.324 6668.6 843.324C6650.63 843.324 6635.3 846.84 6622.6 853.871C6609.91 860.707 6599.55 870.18 6591.55 882.289C6583.73 894.203 6577.97 907.875 6574.26 923.305C6570.55 938.539 6568.7 954.555 6568.7 971.352V983.656C6568.7 1000.65 6570.45 1016.86 6573.97 1032.29C6577.68 1047.52 6583.44 1061.1 6591.25 1073.01C6599.26 1084.93 6609.61 1094.4 6622.31 1101.43C6635.2 1108.27 6650.73 1111.68 6668.89 1111.68ZM6842.04 982.484V972.816C6842.04 949.77 6845.36 928.48 6852 908.949C6858.64 889.418 6868.11 872.523 6880.41 858.266C6892.91 844.008 6907.86 832.973 6925.24 825.16C6942.62 817.152 6961.96 813.148 6983.25 813.148C7004.73 813.148 7024.16 817.152 7041.55 825.16C7058.93 832.973 7073.87 844.008 7086.37 858.266C7098.87 872.523 7108.44 889.418 7115.08 908.949C7121.72 928.48 7125.04 949.77 7125.04 972.816V982.484C7125.04 1005.53 7121.72 1026.82 7115.08 1046.35C7108.44 1065.69 7098.87 1082.48 7086.37 1096.74C7074.07 1111 7059.22 1122.13 7041.84 1130.14C7024.46 1137.95 7005.12 1141.86 6983.83 1141.86C6962.35 1141.86 6942.91 1137.95 6925.53 1130.14C6908.15 1122.13 6893.21 1111 6880.71 1096.74C6868.21 1082.48 6858.64 1065.69 6852 1046.35C6845.36 1026.82 6842.04 1005.53 6842.04 982.484ZM6876.9 972.816V982.484C6876.9 999.867 6879.24 1016.37 6883.93 1032C6888.62 1047.43 6895.45 1061.2 6904.44 1073.3C6913.42 1085.22 6924.55 1094.59 6937.84 1101.43C6951.12 1108.27 6966.45 1111.68 6983.83 1111.68C7001.02 1111.68 7016.16 1108.27 7029.24 1101.43C7042.52 1094.59 7053.66 1085.22 7062.64 1073.3C7071.62 1061.2 7078.36 1047.43 7082.86 1032C7087.54 1016.37 7089.89 999.867 7089.89 982.484V972.816C7089.89 955.629 7087.54 939.32 7082.86 923.891C7078.36 908.461 7071.53 894.691 7062.35 882.582C7053.36 870.473 7042.23 860.902 7028.95 853.871C7015.67 846.84 7000.43 843.324 6983.25 843.324C6966.06 843.324 6950.82 846.84 6937.54 853.871C6924.46 860.902 6913.32 870.473 6904.14 882.582C6895.16 894.691 6888.32 908.461 6883.64 923.891C6879.14 939.32 6876.9 955.629 6876.9 972.816ZM7230.8 884.633V1136H7195.65V819.008H7229.34L7230.8 884.633ZM7224.36 957.875L7207.37 949.086C7208.54 930.336 7212.05 912.758 7217.91 896.352C7223.97 879.945 7232.37 865.492 7243.11 852.992C7253.85 840.492 7266.74 830.727 7281.78 823.695C7296.82 816.664 7313.91 813.148 7333.05 813.148C7348.48 813.148 7362.45 815.297 7374.95 819.594C7387.64 823.695 7398.38 830.238 7407.17 839.223C7416.16 848.012 7423.09 859.535 7427.97 873.793C7432.86 888.051 7435.3 905.141 7435.3 925.062V1136H7400.43V926.234C7400.43 905.141 7397.11 888.637 7390.47 876.723C7384.03 864.809 7374.95 856.312 7363.23 851.234C7351.7 846.156 7338.32 843.617 7323.09 843.617C7305.12 843.617 7289.89 847.328 7277.39 854.75C7265.08 861.977 7255.02 871.449 7247.21 883.168C7239.59 894.691 7233.93 907.094 7230.22 920.375C7226.51 933.461 7224.55 945.961 7224.36 957.875ZM7435 930.336L7411.57 930.922C7412.54 915.492 7416.06 900.746 7422.11 886.684C7428.36 872.621 7436.86 860.121 7447.6 849.184C7458.34 838.051 7471.14 829.262 7485.98 822.816C7501.02 816.371 7517.91 813.148 7536.66 813.148C7553.07 813.148 7567.72 815.395 7580.61 819.887C7593.5 824.184 7604.34 831.117 7613.13 840.688C7622.11 850.062 7628.95 862.074 7633.64 876.723C7638.32 891.371 7640.67 908.949 7640.67 929.457V1136H7605.51V929.164C7605.51 906.703 7602.19 889.32 7595.55 877.016C7589.11 864.516 7580.12 855.824 7568.6 850.941C7557.07 846.059 7543.6 843.617 7528.17 843.617C7512.93 843.812 7499.55 846.645 7488.03 852.113C7476.51 857.387 7466.84 864.418 7459.03 873.207C7451.41 881.801 7445.55 891.078 7441.45 901.039C7437.54 911 7435.39 920.766 7435 930.336ZM7764.3 879.945V1257.88H7729.14V819.008H7761.96L7764.3 879.945ZM7984.61 974.574V980.727C7984.61 1004.36 7981.88 1026.04 7976.41 1045.77C7970.94 1065.49 7963.03 1082.58 7952.68 1097.04C7942.52 1111.29 7929.93 1122.33 7914.89 1130.14C7899.85 1137.95 7882.76 1141.86 7863.62 1141.86C7844.67 1141.86 7827.78 1138.93 7812.93 1133.07C7798.09 1127.21 7785.3 1118.91 7774.55 1108.17C7764.01 1097.23 7755.51 1084.54 7749.07 1070.08C7742.82 1055.43 7738.42 1039.42 7735.88 1022.04V940.883C7738.81 921.742 7743.6 904.359 7750.24 888.734C7756.88 873.109 7765.38 859.633 7775.73 848.305C7786.27 836.977 7798.77 828.285 7813.23 822.23C7827.68 816.176 7844.18 813.148 7862.74 813.148C7882.07 813.148 7899.26 816.957 7914.3 824.574C7929.54 831.996 7942.33 842.836 7952.68 857.094C7963.23 871.156 7971.14 888.148 7976.41 908.07C7981.88 927.797 7984.61 949.965 7984.61 974.574ZM7949.46 980.727V974.574C7949.46 956.02 7947.5 938.832 7943.6 923.012C7939.89 907.191 7934.12 893.422 7926.31 881.703C7918.7 869.789 7908.93 860.512 7897.02 853.871C7885.3 847.23 7871.33 843.91 7855.12 843.91C7838.32 843.91 7823.97 846.742 7812.05 852.406C7800.34 857.875 7790.57 865.199 7782.76 874.379C7774.95 883.363 7768.79 893.227 7764.3 903.969C7759.81 914.711 7756.49 925.258 7754.34 935.609V1029.07C7758.05 1043.91 7764.01 1057.68 7772.21 1070.38C7780.41 1082.88 7791.35 1092.93 7805.02 1100.55C7818.89 1107.97 7835.79 1111.68 7855.71 1111.68C7871.72 1111.68 7885.59 1108.36 7897.31 1101.72C7909.03 1095.08 7918.7 1085.8 7926.31 1073.89C7934.12 1061.98 7939.89 1048.11 7943.6 1032.29C7947.5 1016.47 7949.46 999.281 7949.46 980.727ZM8043.21 982.484V972.816C8043.21 949.77 8046.53 928.48 8053.17 908.949C8059.81 889.418 8069.28 872.523 8081.59 858.266C8094.09 844.008 8109.03 832.973 8126.41 825.16C8143.79 817.152 8163.13 813.148 8184.42 813.148C8205.9 813.148 8225.34 817.152 8242.72 825.16C8260.1 832.973 8275.04 844.008 8287.54 858.266C8300.04 872.523 8309.61 889.418 8316.25 908.949C8322.89 928.48 8326.21 949.77 8326.21 972.816V982.484C8326.21 1005.53 8322.89 1026.82 8316.25 1046.35C8309.61 1065.69 8300.04 1082.48 8287.54 1096.74C8275.24 1111 8260.39 1122.13 8243.01 1130.14C8225.63 1137.95 8206.29 1141.86 8185 1141.86C8163.52 1141.86 8144.09 1137.95 8126.7 1130.14C8109.32 1122.13 8094.38 1111 8081.88 1096.74C8069.38 1082.48 8059.81 1065.69 8053.17 1046.35C8046.53 1026.82 8043.21 1005.53 8043.21 982.484ZM8078.07 972.816V982.484C8078.07 999.867 8080.41 1016.37 8085.1 1032C8089.79 1047.43 8096.62 1061.2 8105.61 1073.3C8114.59 1085.22 8125.73 1094.59 8139.01 1101.43C8152.29 1108.27 8167.62 1111.68 8185 1111.68C8202.19 1111.68 8217.33 1108.27 8230.41 1101.43C8243.7 1094.59 8254.83 1085.22 8263.81 1073.3C8272.8 1061.2 8279.54 1047.43 8284.03 1032C8288.71 1016.37 8291.06 999.867 8291.06 982.484V972.816C8291.06 955.629 8288.71 939.32 8284.03 923.891C8279.54 908.461 8272.7 894.691 8263.52 882.582C8254.54 870.473 8243.4 860.902 8230.12 853.871C8216.84 846.84 8201.61 843.324 8184.42 843.324C8167.23 843.324 8152 846.84 8138.71 853.871C8125.63 860.902 8114.5 870.473 8105.32 882.582C8096.33 894.691 8089.5 908.461 8084.81 923.891C8080.32 939.32 8078.07 955.629 8078.07 972.816ZM8433.73 886.684V1136H8398.87V819.008H8432.27L8433.73 886.684ZM8425.82 957.875L8410.3 949.086C8411.47 930.336 8415.28 912.758 8421.72 896.352C8428.17 879.945 8436.86 865.492 8447.8 852.992C8458.93 840.492 8471.92 830.727 8486.76 823.695C8501.8 816.664 8518.4 813.148 8536.57 813.148C8552.39 813.148 8566.55 815.297 8579.05 819.594C8591.55 823.891 8602.19 830.727 8610.98 840.102C8619.77 849.477 8626.41 861.488 8630.9 876.137C8635.59 890.785 8637.93 908.656 8637.93 929.75V1136H8602.78V929.457C8602.78 907.582 8599.75 890.492 8593.7 878.188C8587.64 865.688 8579.05 856.801 8567.91 851.527C8556.78 846.254 8543.6 843.617 8528.36 843.617C8511.57 843.617 8496.82 847.328 8484.12 854.75C8471.62 861.977 8461.08 871.449 8452.48 883.168C8444.09 894.691 8437.64 907.094 8433.15 920.375C8428.66 933.461 8426.21 945.961 8425.82 957.875ZM8851.21 1141.86C8830.51 1141.86 8811.47 1138.05 8794.09 1130.43C8776.9 1122.82 8761.86 1112.07 8748.97 1098.21C8736.27 1084.34 8726.41 1067.93 8719.38 1048.99C8712.54 1029.85 8709.12 1008.95 8709.12 986.293V973.695C8709.12 949.281 8712.74 927.211 8719.96 907.484C8727.19 887.758 8737.15 870.863 8749.85 856.801C8762.54 842.738 8777 831.996 8793.21 824.574C8809.61 816.957 8826.8 813.148 8844.77 813.148C8864.89 813.148 8882.76 816.762 8898.38 823.988C8914.01 831.02 8927.09 841.078 8937.64 854.164C8948.38 867.055 8956.49 882.387 8961.96 900.16C8967.43 917.738 8970.16 937.172 8970.16 958.461V979.848H8730.22V949.965H8935.3V945.863C8934.91 928.09 8931.29 911.488 8924.46 896.059C8917.82 880.434 8907.86 867.738 8894.57 857.973C8881.29 848.207 8864.69 843.324 8844.77 843.324C8829.93 843.324 8816.25 846.449 8803.75 852.699C8791.45 858.949 8780.8 867.934 8771.82 879.652C8763.03 891.176 8756.2 904.945 8751.31 920.961C8746.62 936.781 8744.28 954.359 8744.28 973.695V986.293C8744.28 1003.87 8746.82 1020.28 8751.9 1035.51C8757.17 1050.55 8764.59 1063.83 8774.16 1075.36C8783.93 1086.88 8795.45 1095.86 8808.73 1102.31C8822.02 1108.75 8836.66 1111.98 8852.68 1111.98C8871.43 1111.98 8888.03 1108.56 8902.48 1101.72C8916.94 1094.69 8929.93 1083.66 8941.45 1068.62L8963.42 1085.61C8956.59 1095.77 8947.99 1105.14 8937.64 1113.73C8927.48 1122.33 8915.28 1129.16 8901.02 1134.24C8886.76 1139.32 8870.16 1141.86 8851.21 1141.86ZM9074.16 886.684V1136H9039.3V819.008H9072.7L9074.16 886.684ZM9066.25 957.875L9050.73 949.086C9051.9 930.336 9055.71 912.758 9062.15 896.352C9068.6 879.945 9077.29 865.492 9088.23 852.992C9099.36 840.492 9112.35 830.727 9127.19 823.695C9142.23 816.664 9158.83 813.148 9177 813.148C9192.82 813.148 9206.98 815.297 9219.48 819.594C9231.98 823.891 9242.62 830.727 9251.41 840.102C9260.2 849.477 9266.84 861.488 9271.33 876.137C9276.02 890.785 9278.36 908.656 9278.36 929.75V1136H9243.21V929.457C9243.21 907.582 9240.18 890.492 9234.12 878.188C9228.07 865.688 9219.48 856.801 9208.34 851.527C9197.21 846.254 9184.03 843.617 9168.79 843.617C9152 843.617 9137.25 847.328 9124.55 854.75C9112.05 861.977 9101.51 871.449 9092.91 883.168C9084.52 894.691 9078.07 907.094 9073.58 920.375C9069.09 933.461 9066.64 945.961 9066.25 957.875ZM9489.01 819.008V847.719H9330.22V819.008H9489.01ZM9388.52 737.562H9423.38V1058.95C9423.38 1073.6 9425.34 1084.63 9429.24 1092.05C9433.15 1099.48 9438.23 1104.46 9444.48 1107C9450.73 1109.54 9457.46 1110.8 9464.69 1110.8C9469.96 1110.8 9475.04 1110.51 9479.93 1109.93C9484.81 1109.14 9489.2 1108.36 9493.11 1107.58L9494.57 1137.17C9490.28 1138.54 9484.71 1139.61 9477.88 1140.39C9471.04 1141.37 9464.2 1141.86 9457.37 1141.86C9443.89 1141.86 9431.98 1139.42 9421.62 1134.54C9411.27 1129.46 9403.17 1120.86 9397.31 1108.75C9391.45 1096.45 9388.52 1079.75 9388.52 1058.66V737.562ZM9752.39 1055.14C9752.39 1046.55 9750.24 1038.05 9745.94 1029.65C9741.64 1021.25 9733.34 1013.54 9721.04 1006.51C9708.93 999.477 9691.06 993.52 9667.43 988.637C9649.85 984.73 9634.12 980.336 9620.26 975.453C9606.59 970.57 9595.06 964.711 9585.69 957.875C9576.31 951.039 9569.18 942.836 9564.3 933.266C9559.42 923.695 9556.98 912.367 9556.98 899.281C9556.98 887.562 9559.52 876.527 9564.59 866.176C9569.87 855.629 9577.29 846.449 9586.86 838.637C9596.62 830.629 9608.34 824.379 9622.02 819.887C9635.88 815.395 9651.41 813.148 9668.6 813.148C9693.01 813.148 9713.91 817.348 9731.29 825.746C9748.87 833.949 9762.25 845.18 9771.43 859.438C9780.8 873.695 9785.49 889.809 9785.49 907.777H9750.63C9750.63 896.84 9747.41 886.488 9740.96 876.723C9734.71 866.957 9725.43 858.949 9713.13 852.699C9701.02 846.449 9686.18 843.324 9668.6 843.324C9650.43 843.324 9635.69 846.059 9624.36 851.527C9613.03 856.996 9604.73 863.93 9599.46 872.328C9594.38 880.727 9591.84 889.418 9591.84 898.402C9591.84 905.434 9592.91 911.879 9595.06 917.738C9597.41 923.402 9601.51 928.676 9607.37 933.559C9613.42 938.441 9622.02 943.031 9633.15 947.328C9644.28 951.625 9658.73 955.824 9676.51 959.926C9702.09 965.59 9722.99 972.523 9739.2 980.727C9755.61 988.734 9767.72 998.695 9775.53 1010.61C9783.34 1022.33 9787.25 1036.59 9787.25 1053.38C9787.25 1066.47 9784.52 1078.48 9779.05 1089.42C9773.58 1100.16 9765.67 1109.44 9755.32 1117.25C9745.16 1125.06 9732.86 1131.12 9718.4 1135.41C9704.14 1139.71 9688.13 1141.86 9670.36 1141.86C9643.6 1141.86 9620.94 1137.46 9602.39 1128.68C9584.03 1119.69 9570.06 1107.97 9560.49 1093.52C9551.12 1078.87 9546.43 1063.34 9546.43 1046.94H9581.29C9582.46 1063.34 9587.64 1076.33 9596.82 1085.9C9606 1095.28 9617.23 1101.92 9630.51 1105.82C9643.99 1109.73 9657.27 1111.68 9670.36 1111.68C9688.32 1111.68 9703.36 1109.05 9715.47 1103.77C9727.58 1098.5 9736.76 1091.57 9743.01 1082.97C9749.26 1074.38 9752.39 1065.1 9752.39 1055.14Z" fill="#011ECB"/>
<path d="M10140.5 1046.35C10140.5 1027.74 10141.8 1010.17 10143.9 994.753C10134.5 1007.16 10123 1020.48 10109.8 1033.63C10066.2 1077.21 10021.4 1103.08 10009.7 1091.35C9997.93 1079.62 10023.8 1034.79 10067.4 991.183C10080.5 978.035 10093.8 966.53 10106.2 957.122C10090.8 959.276 10073.3 960.494 10054.7 960.494C9993 960.494 9943 947.091 9943 930.514C9943 913.937 9993 900.506 10054.7 900.506C10073.3 900.506 10090.9 901.753 10106.3 903.906C10093.8 894.555 10080.5 882.965 10067.4 869.817C10023.7 826.207 9997.9 781.379 10009.6 769.648C10021.3 757.916 10066.2 783.788 10109.8 827.369C10122.9 840.517 10134.5 853.835 10143.9 866.247C10141.7 850.803 10140.5 833.263 10140.5 814.646C10140.5 753.014 10153.9 703 10170.5 703C10187.1 703 10200.5 752.986 10200.5 814.646C10200.5 833.263 10199.3 850.832 10197.1 866.247C10206.5 853.835 10218.1 840.517 10231.2 827.369C10274.8 783.788 10319.7 757.916 10331.4 769.648C10343.1 781.379 10317.3 826.207 10273.6 869.817C10260.5 882.965 10247.2 894.555 10234.7 903.906C10250.1 901.753 10267.7 900.506 10286.3 900.506C10348 900.506 10398 913.909 10398 930.514C10398 947.119 10348 960.494 10286.3 960.494C10267.7 960.494 10250.2 959.276 10234.8 957.122C10247.2 966.502 10260.5 978.006 10273.6 991.183C10317.2 1034.79 10343.1 1079.62 10331.3 1091.35C10319.6 1103.08 10274.8 1077.21 10231.2 1033.63C10218 1020.48 10206.5 1007.16 10197.1 994.753C10199.2 1010.2 10200.5 1027.74 10200.5 1046.35C10200.5 1108.01 10187 1158 10170.5 1158C10153.9 1158 10140.5 1108.01 10140.5 1046.35H10140.5Z" fill="#011ECB"/>
</svg>
