<svg width="76" height="27" viewBox="0 0 76 27" fill="none" xmlns="http://www.w3.org/2000/svg">
<path fill-rule="evenodd" clip-rule="evenodd" d="M-1.40326e-06 14.4561C-1.40326e-06 14.4561 0.000568395 14.4561 0.000568437 13.5C0.000568479 12.5438 -1.31967e-06 12.5438 -1.31967e-06 12.5438L0.00586256 12.5438L0.0334653 12.5435C0.0591795 12.5432 0.0992655 12.5425 0.153152 12.541C0.260925 12.538 0.423337 12.532 0.634156 12.5198C1.05598 12.4953 1.67067 12.446 2.42772 12.3467C3.9441 12.1479 6.02072 11.7503 8.26126 10.9571C12.7461 9.36949 17.8082 6.23084 20.4485 -2.42823e-06L22.1864 0.753252C19.386 7.36196 14.1258 10.7809 9.48098 12.5438L76 12.5439L76 14.4562L9.48098 14.4561C14.1258 16.2191 19.386 19.638 22.1864 26.2467L20.4485 27C17.8082 20.7692 12.7461 17.6305 8.26125 16.0429C6.02072 15.2497 3.9441 14.8521 2.42772 14.6533C1.67067 14.554 1.05598 14.5047 0.634155 14.4802C0.423337 14.468 0.260925 14.462 0.153152 14.459C0.0992654 14.4575 0.0591794 14.4568 0.0334652 14.4565L0.00586247 14.4562L-1.40326e-06 14.4561Z" fill="#001ECB"/>
</svg>
