<svg width="177" height="337" viewBox="0 0 177 337" fill="none" xmlns="http://www.w3.org/2000/svg">
<path d="M123.98 63.07V123.83H102.79V63.06C102.79 41.0858 85.0649 23.19 63.07 23.19C41.0854 23.19 23.2 41.0754 23.2 63.06V273.7C23.2 295.69 41.2406 313.57 63.07 313.57C84.9097 313.57 102.79 295.679 102.79 273.7V211.2H123.98V273.7C123.98 307.581 96.9296 334.76 63.06 334.76C29.1844 334.76 2 307.585 2 273.7V63.06C2 29.1875 29.3217 2 63.06 2C96.7923 2 123.98 29.1815 123.98 63.07Z" stroke="#011ECB" stroke-width="4"/>
<path d="M151.75 157.5H153.75V155.5V15.7527C166.708 26.5664 174.95 42.7102 174.95 60.7602V271.41C174.95 289.329 166.702 305.589 153.75 316.296V180.7V178.7H151.75H76.16H74.16V180.7V270.68C74.16 274.724 72.7706 277.575 70.841 279.418C68.886 281.285 66.248 282.24 63.5655 282.233C60.8827 282.225 58.2399 281.255 56.2803 279.38C54.3464 277.529 52.96 274.684 52.96 270.68V64.3602C52.96 60.7321 54.3083 58.1559 56.2218 56.4652C58.1729 54.7412 60.8329 53.8352 63.56 53.8352C66.287 53.8352 68.9471 54.7412 70.8982 56.4652C72.8116 58.1559 74.16 60.7321 74.16 64.3602V155.5V157.5H76.16H151.75Z" stroke="#011ECB" stroke-width="4"/>
</svg>
