<svg width="349" height="349" viewBox="0 0 349 349" fill="none" xmlns="http://www.w3.org/2000/svg">
<path d="M93.3101 315.149L91.6982 314.218L122.088 261.578C122.622 261.897 123.159 262.208 123.7 262.515L93.3101 315.149Z" fill="#011ECB"/>
<path d="M133.974 267.615L110.727 323.739L112.448 324.452L112.45 324.45L135.695 268.333C135.118 268.1 134.545 267.859 133.974 267.615Z" fill="#011ECB"/>
<path d="M146.548 272.033L130.83 330.692L132.63 331.175L132.637 331.177L148.355 272.518C147.75 272.361 147.148 272.199 146.548 272.033Z" fill="#011ECB"/>
<path d="M159.603 274.75L151.676 334.961L151.679 334.963L153.523 335.205H153.526L161.453 274.994C160.835 274.918 160.218 274.838 159.603 274.75Z" fill="#011ECB"/>
<path d="M172.896 275.736V336.474H174.759H174.766V275.736C174.455 275.74 174.144 275.742 173.832 275.742C173.52 275.742 173.207 275.74 172.896 275.736Z" fill="#011ECB"/>
<path d="M186.212 274.992L194.138 335.205L195.986 334.961L188.059 274.752C187.446 274.838 186.829 274.918 186.212 274.992Z" fill="#011ECB"/>
<path d="M199.31 272.518L215.026 331.173L216.826 330.69L201.109 272.035C200.511 272.201 199.911 272.361 199.31 272.518Z" fill="#011ECB"/>
<path d="M211.969 268.333L235.214 324.448L236.935 323.737L213.69 267.615C213.118 267.859 212.546 268.1 211.969 268.333Z" fill="#011ECB"/>
<path d="M223.963 262.517L254.349 315.147L255.962 314.216L225.573 261.58C225.04 261.897 224.501 262.21 223.963 262.517Z" fill="#011ECB"/>
<path d="M235.089 255.179L272.113 303.43L273.59 302.295L236.563 254.039C236.074 254.425 235.583 254.803 235.089 255.179Z" fill="#011ECB"/>
<path d="M245.149 246.463L288.181 289.494L289.499 288.176L246.465 245.143C246.031 245.586 245.591 246.028 245.149 246.463Z" fill="#011ECB"/>
<path d="M253.993 236.508L302.303 273.577L303.438 272.1L255.124 235.027C254.751 235.525 254.375 236.018 253.993 236.508Z" fill="#011ECB"/>
<path d="M261.458 225.496L314.219 255.958L315.15 254.345L262.386 223.879C262.082 224.421 261.773 224.959 261.458 225.496Z" fill="#011ECB"/>
<path d="M267.418 213.6L323.743 236.931L324.454 235.209V235.206L268.126 211.873C267.895 212.452 267.658 213.028 267.418 213.6Z" fill="#011ECB"/>
<path d="M271.759 201.03L330.697 216.823L331.18 215.023L272.234 199.227C272.081 199.83 271.923 200.432 271.759 201.03Z" fill="#011ECB"/>
<path d="M274.406 188.007L334.969 195.978L335.213 194.132L274.639 186.156C274.566 186.775 274.488 187.392 274.406 188.007Z" fill="#011ECB"/>
<path d="M275.33 174.756H336.476V172.893L275.322 172.893C275.328 173.342 275.33 173.791 275.33 174.241C275.33 174.413 275.33 174.585 275.33 174.756Z" fill="#011ECB"/>
<path d="M274.54 161.506L335.205 153.519L334.961 151.672L274.29 159.659C274.379 160.273 274.461 160.889 274.54 161.506Z" fill="#011ECB"/>
<path d="M272.032 148.478L331.179 132.63L330.697 130.83L271.544 146.68C271.712 147.277 271.874 147.877 272.032 148.478Z" fill="#011ECB"/>
<path d="M267.837 135.896L324.454 112.444L323.743 110.723L267.118 134.177C267.362 134.747 267.603 135.32 267.837 135.896Z" fill="#011ECB"/>
<path d="M262.03 123.978L315.15 93.3087L314.219 91.6953L261.091 122.367C261.409 122.901 261.722 123.437 262.03 123.978Z" fill="#011ECB"/>
<path d="M254.725 112.926L303.434 75.5502L302.299 74.0723L253.583 111.451C253.969 111.939 254.349 112.431 254.725 112.926Z" fill="#011ECB"/>
<path d="M246.049 102.921L289.495 59.4755L288.178 58.1582L244.729 101.607C245.172 102.041 245.613 102.479 246.049 102.921Z" fill="#011ECB"/>
<path d="M236.156 94.126L273.578 45.3567L272.101 44.2227L234.677 92.9946C235.174 93.3674 235.666 93.7445 236.156 94.126Z" fill="#011ECB"/>
<path d="M225.213 86.6902L255.96 33.4354L254.347 32.5039L223.598 85.7596C224.14 86.065 224.678 86.3753 225.213 86.6902Z" fill="#011ECB"/>
<path d="M213.396 80.7434L236.935 23.9161L235.214 23.2031L235.212 23.2042L211.673 80.0319C212.25 80.2639 212.824 80.501 213.396 80.7434Z" fill="#011ECB"/>
<path d="M200.906 76.3929L216.831 16.9623L215.031 16.4801L215.022 16.4785L199.097 75.9117C199.702 76.0667 200.306 76.2271 200.906 76.3929Z" fill="#011ECB"/>
<path d="M187.952 73.7178L195.986 12.6931L194.136 12.4492L186.101 73.4776C186.719 73.5521 187.336 73.6322 187.952 73.7178Z" fill="#011ECB"/>
<path d="M174.766 72.7464V11.1777H172.903L172.896 11.1778V72.7464C173.207 72.7436 173.52 72.7423 173.832 72.7423C174.144 72.7423 174.455 72.7436 174.766 72.7464Z" fill="#011ECB"/>
<path d="M161.561 73.4764L153.527 12.4473L151.68 12.6904L159.713 73.7164C160.328 73.6308 160.944 73.5509 161.561 73.4764Z" fill="#011ECB"/>
<path d="M148.559 75.9141L132.633 16.4785L130.834 16.9602L146.759 76.3932C147.357 76.228 147.957 76.0683 148.559 75.9141Z" fill="#011ECB"/>
<path d="M135.99 80.0318L112.45 23.2012L110.729 23.9141L134.268 80.7427C134.839 80.5007 135.413 80.2638 135.99 80.0318Z" fill="#011ECB"/>
<path d="M124.063 85.761L93.3138 32.502L91.7002 33.4335L122.448 86.6908C122.983 86.3762 123.522 86.0662 124.063 85.761Z" fill="#011ECB"/>
<path d="M112.987 92.9944L75.5621 44.2207L74.084 45.3547L111.507 94.1259C111.997 93.7442 112.49 93.3671 112.987 92.9944Z" fill="#011ECB"/>
<path d="M102.933 101.611L59.4785 58.1562L58.1611 59.4736L101.611 102.925C102.048 102.483 102.488 102.045 102.933 101.611Z" fill="#011ECB"/>
<path d="M94.0797 111.452L45.3627 74.0703L44.2285 75.5482L92.9392 112.926C93.315 112.431 93.695 111.94 94.0797 111.452Z" fill="#011ECB"/>
<path d="M112.576 255.179L75.5514 303.432L74.0732 302.297L111.102 254.041C111.59 254.425 112.081 254.805 112.576 255.179Z" fill="#011ECB"/>
<path d="M102.51 246.46L59.4746 289.495L58.1572 288.178L101.196 245.139C101.63 245.584 102.068 246.024 102.51 246.46Z" fill="#011ECB"/>
<path d="M93.6697 236.508L45.3584 273.579H45.3547L44.2207 272.101L92.5381 235.025C92.9109 235.523 93.2881 236.018 93.6697 236.508Z" fill="#011ECB"/>
<path d="M33.4354 91.6934L86.5695 122.37C86.2514 122.904 85.9381 123.441 85.6298 123.981L32.5039 93.309L33.4354 91.6934Z" fill="#011ECB"/>
<path d="M80.5463 134.176L23.92 110.721L23.207 112.442V112.445L79.8251 135.896C80.0604 135.32 80.3007 134.747 80.5463 134.176Z" fill="#011ECB"/>
<path d="M76.1199 146.678L16.9675 130.828L16.4854 132.628V132.63L75.6313 148.478C75.7887 147.876 75.9517 147.276 76.1199 146.678Z" fill="#011ECB"/>
<path d="M73.3719 159.659L12.6914 151.67L12.4482 153.517L73.1234 161.506C73.2007 160.889 73.2836 160.273 73.3719 159.659Z" fill="#011ECB"/>
<path d="M72.3415 172.893H11.1807V174.756L72.334 174.756C72.3331 174.585 72.3327 174.413 72.3327 174.241C72.3327 173.791 72.3357 173.341 72.3415 172.893Z" fill="#011ECB"/>
<path d="M73.0241 186.156L12.4482 194.132L12.6914 195.978L73.2573 188.005C73.1741 187.39 73.0964 186.775 73.0241 186.156Z" fill="#011ECB"/>
<path d="M75.431 199.229L16.4854 215.021L16.9675 216.821L75.9049 201.03C75.7416 200.432 75.5836 199.83 75.431 199.229Z" fill="#011ECB"/>
<path d="M79.538 211.875L23.207 235.207L23.92 236.929L80.2452 213.598C80.0043 213.026 79.7687 212.453 79.538 211.875Z" fill="#011ECB"/>
<path d="M85.2741 223.873L32.5 254.343L33.4315 255.956L33.4343 255.954L86.2023 225.49C85.888 224.955 85.5785 224.415 85.2741 223.873Z" fill="#011ECB"/>
<path d="M163.379 0.103516L167.287 59.731C166.666 59.7689 166.046 59.8113 165.427 59.8588L161.519 0.225356L163.379 0.103516Z" fill="#011ECB"/>
<path d="M152.465 61.6007L140.8 2.95508L138.968 3.31917L150.634 61.9696C151.243 61.8417 151.853 61.7188 152.465 61.6007Z" fill="#011ECB"/>
<path d="M138.005 65.3873L118.772 8.72852L117.008 9.32736L136.243 65.9909C136.828 65.785 137.415 65.5838 138.005 65.3873Z" fill="#011ECB"/>
<path d="M124.179 71.0267L97.6973 17.3262L96.0264 18.1502L122.51 71.8556C123.064 71.575 123.62 71.2987 124.179 71.0267Z" fill="#011ECB"/>
<path d="M111.207 78.4191L77.921 28.6035L76.3721 29.6386L109.66 79.4574C110.172 79.1073 110.688 78.7612 111.207 78.4191Z" fill="#011ECB"/>
<path d="M99.3091 87.4253L59.7924 42.3652L58.3916 43.5937L97.9092 88.6549C98.3725 88.2413 98.839 87.8315 99.3091 87.4253Z" fill="#011ECB"/>
<path d="M88.6671 97.8958L43.6023 58.375L42.374 59.7756L87.4369 99.2962C87.8432 98.826 88.2533 98.3591 88.6671 97.8958Z" fill="#011ECB"/>
<path d="M79.4678 109.649L29.649 76.3607L29.6454 76.3594L28.6104 77.9083L78.429 111.196C78.7712 110.677 79.1173 110.161 79.4678 109.649Z" fill="#011ECB"/>
<path d="M71.864 122.501L18.157 96.0156L17.333 97.6866V97.6892L71.0343 124.172C71.3064 123.612 71.5831 123.055 71.864 122.501Z" fill="#011ECB"/>
<path d="M65.999 136.235L9.33615 117L8.7373 118.764V118.767L65.3946 138C65.5914 137.409 65.793 136.821 65.999 136.235Z" fill="#011ECB"/>
<path d="M61.9777 150.624L3.32148 138.957L2.95803 140.784L2.95801 140.787L61.6092 152.454C61.7271 151.842 61.8501 151.232 61.9777 150.624Z" fill="#011ECB"/>
<path d="M59.8689 165.418L0.235128 161.51L0.113281 163.369L0.117055 163.369L0.116923 163.371L59.7413 167.279C59.779 166.658 59.8214 166.037 59.8689 165.418Z" fill="#011ECB"/>
<path d="M59.6845 180.373L0.109375 184.278L0.231224 186.138L59.7959 182.234C59.7539 181.615 59.7167 180.995 59.6845 180.373Z" fill="#011ECB"/>
<path d="M61.426 195.232L2.95801 206.863L3.32146 208.689L61.778 197.062C61.6559 196.455 61.5386 195.843 61.426 195.232Z" fill="#011ECB"/>
<path d="M65.0967 209.754L8.7334 228.885L9.33225 230.65L65.6854 211.52C65.4845 210.933 65.2884 210.344 65.0967 209.754Z" fill="#011ECB"/>
<path d="M70.644 223.676L17.3369 249.963L18.1609 251.634L71.4594 225.351C71.1831 224.794 70.9113 224.237 70.644 223.676Z" fill="#011ECB"/>
<path d="M77.9666 236.754L28.6035 269.739L29.6384 271.287L29.6435 271.283L29.6457 271.287L78.9959 238.313C78.6487 237.795 78.3057 237.277 77.9666 236.754Z" fill="#011ECB"/>
<path d="M86.9414 248.785L42.3701 287.873L43.5986 289.274L88.1614 250.194C87.751 249.726 87.3443 249.258 86.9414 248.785Z" fill="#011ECB"/>
<path d="M97.4083 259.557L58.3809 304.059L59.7815 305.286L98.8009 260.794C98.3333 260.384 97.869 259.972 97.4083 259.557Z" fill="#011ECB"/>
<path d="M109.196 268.883L76.3682 318.012L77.9173 319.048L110.737 269.93C110.221 269.585 109.707 269.237 109.196 268.883Z" fill="#011ECB"/>
<path d="M122.107 276.6L96.0186 329.502L97.6895 330.325H97.6927L123.775 277.436C123.217 277.162 122.661 276.883 122.107 276.6Z" fill="#011ECB"/>
<path d="M135.937 282.561L117.008 338.324H117.011L118.772 338.922L118.775 338.924L137.701 283.17C137.111 282.972 136.523 282.769 135.937 282.561Z" fill="#011ECB"/>
<path d="M150.44 286.65L138.966 344.335H138.968L140.793 344.698H140.795L152.268 287.021C151.657 286.902 151.048 286.779 150.44 286.65Z" fill="#011ECB"/>
<path d="M165.365 288.795L161.522 347.426L161.527 347.428L163.381 347.549H163.386L167.229 288.923C166.606 288.886 165.985 288.843 165.365 288.795Z" fill="#011ECB"/>
<path d="M180.444 288.981L184.283 347.549L186.143 347.426L182.305 288.869C181.686 288.91 181.066 288.947 180.444 288.981Z" fill="#011ECB"/>
<path d="M195.437 287.205L206.872 344.698L208.705 344.333L197.27 286.85C196.661 286.974 196.049 287.092 195.437 287.205Z" fill="#011ECB"/>
<path d="M210.066 283.471L228.89 338.922L230.655 338.322L211.833 282.877C211.246 283.08 210.657 283.278 210.066 283.471Z" fill="#011ECB"/>
<path d="M224.086 277.831L249.973 330.322L251.644 329.498L225.759 277.008C225.204 277.287 224.647 277.561 224.086 277.831Z" fill="#011ECB"/>
<path d="M237.238 270.393L269.748 319.046L271.296 318.01L238.786 269.357C238.274 269.706 237.758 270.052 237.238 270.393Z" fill="#011ECB"/>
<path d="M249.306 261.288L287.889 305.283L289.288 304.054L250.707 260.061C250.243 260.472 249.775 260.882 249.306 261.288Z" fill="#011ECB"/>
<path d="M260.072 250.694L304.066 289.273L305.293 287.872L261.302 249.293C260.896 249.762 260.486 250.23 260.072 250.694Z" fill="#011ECB"/>
<path d="M269.368 238.777L318.017 271.283L318.021 271.284L319.057 269.736L270.402 237.227C270.061 237.746 269.717 238.262 269.368 238.777Z" fill="#011ECB"/>
<path d="M277.018 225.751L329.504 251.636L330.328 249.965V249.961L277.839 224.078C277.571 224.639 277.295 225.196 277.018 225.751Z" fill="#011ECB"/>
<path d="M282.885 211.829L338.332 230.651L338.932 228.886V228.883L283.481 210.061C283.287 210.651 283.088 211.242 282.885 211.829Z" fill="#011ECB"/>
<path d="M286.858 197.259L344.336 208.692L344.701 206.865V206.861L287.214 195.428C287.101 196.041 286.983 196.65 286.858 197.259Z" fill="#011ECB"/>
<path d="M288.876 182.299L347.438 186.138L347.559 184.278L347.555 184.278V184.276L288.99 180.438C288.956 181.059 288.919 181.68 288.876 182.299Z" fill="#011ECB"/>
<path d="M288.932 167.216L347.552 163.374L347.431 161.514L288.804 165.356C288.852 165.975 288.895 166.595 288.932 167.216Z" fill="#011ECB"/>
<path d="M287.03 152.258L344.702 140.786L344.336 138.959L286.659 150.432C286.788 151.039 286.911 151.647 287.03 152.258Z" fill="#011ECB"/>
<path d="M283.179 137.692L338.927 118.768L338.328 117.004L282.569 135.931C282.778 136.516 282.981 137.103 283.179 137.692Z" fill="#011ECB"/>
<path d="M277.447 123.769L330.332 97.6885L329.509 96.0176L276.61 122.104C276.894 122.657 277.171 123.212 277.447 123.769Z" fill="#011ECB"/>
<path d="M269.939 110.729L319.053 77.9124L318.017 76.3633L318.012 76.3666L318.01 76.3633L268.89 109.184C269.244 109.696 269.592 110.212 269.939 110.729Z" fill="#011ECB"/>
<path d="M260.802 98.7918L305.289 59.7776L304.062 58.377L259.565 97.3992C259.981 97.8599 260.394 98.3242 260.802 98.7918Z" fill="#011ECB"/>
<path d="M250.201 88.1527L289.278 43.5955L287.877 42.3672L248.795 86.9325C249.266 87.3354 249.736 87.7421 250.201 88.1527Z" fill="#011ECB"/>
<path d="M238.321 78.986L271.293 29.6406L269.745 28.6055L236.768 77.9591C237.287 78.2972 237.807 78.6396 238.321 78.986Z" fill="#011ECB"/>
<path d="M225.356 71.4477L251.638 18.1526L249.969 17.3286L249.965 17.3281L223.678 70.631C224.24 70.8989 224.799 71.1711 225.356 71.4477Z" fill="#011ECB"/>
<path d="M211.529 65.676L230.656 9.32846L230.654 9.32736L228.892 8.72961L228.89 8.72852L209.759 65.0862C210.351 65.2781 210.942 65.4747 211.529 65.676Z" fill="#011ECB"/>
<path d="M197.073 61.7693L208.699 3.3193L206.869 2.95508L195.24 61.4168C195.853 61.5295 196.464 61.6469 197.073 61.7693Z" fill="#011ECB"/>
<path d="M182.246 59.7862L186.15 0.22583L186.145 0.225362L184.291 0.103983L184.286 0.103516L180.382 59.6745C181.005 59.7069 181.626 59.7441 182.246 59.7862Z" fill="#011ECB"/>
</svg>
