<svg width="161" height="161" viewBox="0 0 161 161" fill="none" xmlns="http://www.w3.org/2000/svg">
<path d="M69.6899 121.17C69.6899 114.6 70.1301 108.4 70.8901 102.96C67.5801 107.34 63.5001 112.04 58.8601 116.68C43.4801 132.06 27.65 141.19 23.52 137.05C19.38 132.91 28.5001 117.09 43.8901 101.7C48.5301 97.06 53.2201 93 57.6001 89.68C52.1501 90.44 45.9701 90.87 39.4001 90.87C17.6401 90.87 0 86.14 0 80.29C0 74.44 17.6401 69.7 39.4001 69.7C45.9701 69.7 52.1801 70.14 57.6201 70.9C53.2201 67.6 48.5301 63.51 43.8801 58.87C28.4901 43.48 19.37 27.66 23.51 23.52C27.64 19.38 43.4701 28.51 58.8501 43.89C63.4901 48.53 67.5701 53.23 70.8801 57.61C70.1201 52.16 69.6802 45.97 69.6802 39.4C69.6802 17.65 74.43 0 80.27 0C86.11 0 90.8601 17.64 90.8601 39.4C90.8601 45.97 90.4202 52.17 89.6602 57.61C92.9702 53.23 97.0499 48.53 101.69 43.89C117.07 28.51 132.9 19.38 137.03 23.52C141.17 27.66 132.05 43.48 116.66 58.87C112.02 63.51 107.32 67.6 102.92 70.9C108.37 70.14 114.57 69.7 121.14 69.7C142.9 69.7 160.54 74.43 160.54 80.29C160.54 86.15 142.9 90.87 121.14 90.87C114.57 90.87 108.39 90.44 102.94 89.68C107.32 92.99 112.01 97.05 116.65 101.7C132.04 117.09 141.16 132.91 137.02 137.05C132.89 141.19 117.06 132.06 101.68 116.68C97.0402 112.04 92.9601 107.34 89.6501 102.96C90.4101 108.41 90.8501 114.6 90.8501 121.17C90.8501 142.93 86.1 160.57 80.26 160.57C74.42 160.57 69.6702 142.93 69.6702 121.17H69.6899Z" fill="#011ECB"/>
</svg>
