<svg width="267" height="267" viewBox="0 0 267 267" fill="none" xmlns="http://www.w3.org/2000/svg">
<path d="M155.1 132.61C155.11 144.57 145.49 154.23 133.55 154.24C121.59 154.25 111.93 144.63 111.91 132.69C111.9 120.73 121.52 111.07 133.46 111.06C145.42 111.05 155.08 120.67 155.1 132.61Z" fill="#011ECB"/>
<path d="M155.68 132.55C155.76 121.81 164.5 113.19 175.19 113.31C185.9 113.43 194.45 122.1 194.38 132.76C194.3 143.5 185.56 152.12 174.87 152C164.16 151.88 155.61 143.21 155.68 132.55Z" fill="#011ECB"/>
<path d="M133.519 155.12C144.219 155.12 152.809 163.73 152.789 174.44C152.779 185.13 144.149 193.71 133.439 193.69C122.799 193.67 114.229 185.08 114.219 174.42C114.219 163.72 122.809 155.11 133.509 155.12H133.519Z" fill="#011ECB"/>
<path d="M152.489 91.1497C152.479 101.57 143.939 110.11 133.519 110.11C123.049 110.11 114.489 101.52 114.529 91.0498C114.569 80.6298 123.139 72.1197 133.559 72.1397C143.979 72.1697 152.509 80.7197 152.489 91.1397V91.1497Z" fill="#011ECB"/>
<path d="M110.74 132.69C110.72 143.11 102.17 151.64 91.7497 151.64C81.2797 151.64 72.7197 143.03 72.7697 132.57C72.8197 122.15 81.3897 113.65 91.8197 113.68C102.24 113.71 110.76 122.28 110.74 132.7V132.69Z" fill="#011ECB"/>
<path d="M174.879 192.05C165.119 192 157.309 184.04 157.379 174.2C157.449 164.5 165.389 156.71 175.179 156.76C184.939 156.81 192.749 164.77 192.679 174.61C192.609 184.31 184.669 192.1 174.879 192.05Z" fill="#011ECB"/>
<path d="M192.4 91.2102C192.36 100.78 184.48 108.57 174.9 108.5C165.38 108.44 157.63 100.59 157.66 91.0503C157.7 81.4803 165.58 73.6902 175.16 73.7602C184.68 73.8202 192.43 81.6702 192.4 91.2102Z" fill="#011ECB"/>
<path d="M91.6792 191.77C82.1092 191.73 74.3191 183.85 74.3891 174.27C74.4491 164.75 82.2991 157 91.8391 157.04C101.409 157.08 109.199 164.96 109.129 174.54C109.069 184.06 101.219 191.81 91.6792 191.77Z" fill="#011ECB"/>
<path d="M108.781 91.1703C108.751 100.6 101.141 108.19 91.7205 108.16C82.2905 108.13 74.7006 100.52 74.7306 91.1004C74.7606 81.6704 82.3706 74.0804 91.7906 74.1104C101.221 74.1404 108.811 81.7503 108.781 91.1703Z" fill="#011ECB"/>
<path d="M216.79 147.28C208.67 147.28 202.15 140.75 202.16 132.62C202.16 124.5 208.71 118 216.85 118.02C224.91 118.04 231.42 124.55 231.43 132.62C231.44 140.75 224.92 147.28 216.8 147.28H216.79Z" fill="#011ECB"/>
<path d="M133.519 230.79C125.399 230.79 118.869 224.27 118.879 216.14C118.879 208.02 125.429 201.51 133.559 201.53C141.619 201.54 148.129 208.06 148.139 216.12C148.149 224.25 141.639 230.79 133.519 230.79Z" fill="#011ECB"/>
<path d="M147.639 49.4C147.629 57.19 141.229 63.5401 133.429 63.5101C125.689 63.4801 119.369 57.1102 119.379 49.3602C119.389 41.5702 125.789 35.2201 133.589 35.2501C141.329 35.2801 147.649 41.65 147.639 49.4Z" fill="#011ECB"/>
<path d="M50.2796 118.52C58.0696 118.54 64.4096 124.95 64.3696 132.75C64.3296 140.48 57.9495 146.8 50.1995 146.78C42.4095 146.76 36.0696 140.35 36.1096 132.55C36.1496 124.82 42.5296 118.5 50.2796 118.52Z" fill="#011ECB"/>
<path d="M223.196 186.252C229.701 182.688 232.086 174.526 228.523 168.021C224.96 161.516 216.798 159.13 210.293 162.694C203.787 166.257 201.402 174.419 204.965 180.924C208.528 187.429 216.69 189.815 223.196 186.252Z" fill="#011ECB"/>
<path d="M174.999 229.58C167.629 229.56 161.589 223.49 161.609 216.12C161.629 208.75 167.699 202.71 175.069 202.73C182.439 202.75 188.479 208.82 188.459 216.19C188.439 223.56 182.369 229.6 174.999 229.58Z" fill="#011ECB"/>
<path d="M216.79 104.31C209.54 104.31 203.57 98.3301 203.6 91.0801C203.63 83.8701 209.56 77.9499 216.77 77.9399C224.02 77.9399 229.99 83.9199 229.96 91.1699C229.93 98.3799 224 104.3 216.79 104.31Z" fill="#011ECB"/>
<path d="M104.94 216.11C104.97 223.36 99.0002 229.35 91.7502 229.34C84.5402 229.34 78.6102 223.41 78.5802 216.2C78.5502 208.95 84.5203 202.96 91.7703 202.97C98.9803 202.97 104.91 208.9 104.94 216.11Z" fill="#011ECB"/>
<path d="M174.98 36.4397C182.06 36.3997 187.9 42.1898 187.96 49.2898C188.02 56.3998 182.15 62.3098 175.02 62.2998C167.93 62.2998 162.11 56.4796 162.1 49.3896C162.08 42.3096 167.89 36.4697 174.98 36.4397Z" fill="#011ECB"/>
<path d="M63.1708 174.36C63.2108 181.44 57.4108 187.28 50.3108 187.34C43.2008 187.4 37.2908 181.52 37.3008 174.4C37.3008 167.31 43.1207 161.49 50.2107 161.48C57.2907 161.47 63.1308 167.27 63.1608 174.37L63.1708 174.36Z" fill="#011ECB"/>
<path d="M91.6093 62.0498C84.5693 61.9098 78.9293 56.1197 79.0893 49.1997C79.2493 42.1497 85.0593 36.5197 91.9693 36.7097C98.9893 36.8997 104.539 42.5998 104.439 49.4998C104.329 56.5198 98.5393 62.1898 91.6193 62.0498H91.6093Z" fill="#011ECB"/>
<path d="M62.9102 91.3003C62.7602 98.3503 56.9602 103.98 50.0402 103.8C42.9802 103.62 37.3602 97.8101 37.5702 90.9001C37.7802 83.8801 43.4902 78.3302 50.3802 78.4502C57.4102 78.5802 63.0602 84.3702 62.9102 91.2902V91.3003Z" fill="#011ECB"/>
<path d="M226.22 216.11C226.26 221.27 222.02 225.56 216.83 225.6C211.67 225.64 207.38 221.4 207.34 216.21C207.3 211.05 211.54 206.76 216.73 206.72C221.89 206.68 226.18 210.92 226.22 216.11Z" fill="#011ECB"/>
<path d="M225.751 49.3303C225.791 54.2503 221.711 58.3504 216.771 58.3404C211.871 58.3304 207.861 54.3302 207.821 49.4202C207.781 44.5002 211.861 40.4002 216.801 40.4102C221.701 40.4202 225.711 44.4203 225.751 49.3303Z" fill="#011ECB"/>
<path d="M59.1995 216.16C59.1995 221.1 55.0896 225.18 50.1796 225.12C45.2596 225.07 41.2695 221.05 41.2695 216.15C41.2695 211.21 45.3796 207.13 50.2896 207.19C55.2096 207.24 59.1995 211.26 59.1995 216.16Z" fill="#011ECB"/>
<path d="M50.2708 57.8198C45.5708 57.8398 41.8008 54.0797 41.8008 49.3797C41.8008 44.6797 45.5708 40.9197 50.2708 40.9297C54.9308 40.9497 58.6507 44.6498 58.6907 49.3098C58.7307 53.9998 54.9808 57.7898 50.2808 57.8098L50.2708 57.8198Z" fill="#011ECB"/>
<path d="M133.56 266.02C128.98 266.05 125.2 262.31 125.17 257.74C125.14 253.16 128.88 249.38 133.45 249.35C138.03 249.32 141.81 253.06 141.84 257.63C141.87 262.21 138.13 265.99 133.56 266.02Z" fill="#011ECB"/>
<path d="M258.489 124.48C263.039 124.46 266.679 128.04 266.709 132.57C266.749 137.17 263.119 140.83 258.529 140.82C253.989 140.82 250.379 137.21 250.369 132.67C250.359 128.12 253.949 124.5 258.489 124.48Z" fill="#011ECB"/>
<path d="M133.529 15.6498C129.249 15.6698 125.699 12.13 125.719 7.84003C125.729 3.55003 129.289 0.0199945 133.559 0.0499945C137.819 0.0899945 141.279 3.53999 141.319 7.79999C141.359 12.07 137.829 15.6298 133.539 15.6398L133.529 15.6498Z" fill="#011ECB"/>
<path d="M8.52975 140.45C4.25975 140.49 0.699772 136.97 0.679772 132.67C0.659772 128.39 4.19971 124.84 8.48971 124.85C12.7397 124.85 16.2097 128.3 16.2797 132.57C16.3497 136.84 12.8397 140.4 8.52975 140.45Z" fill="#011ECB"/>
<path d="M258.55 181.45C254.62 181.46 251.48 178.33 251.49 174.4C251.5 170.47 254.64 167.35 258.57 167.37C262.46 167.39 265.54 170.48 265.57 174.37C265.6 178.3 262.48 181.45 258.55 181.46V181.45Z" fill="#011ECB"/>
<path d="M182.071 257.69C182.071 261.62 178.921 264.74 174.991 264.72C171.061 264.7 167.951 261.54 167.991 257.61C168.031 253.72 171.131 250.65 175.021 250.64C178.951 250.64 182.091 253.76 182.081 257.69H182.071Z" fill="#011ECB"/>
<path d="M265.459 91.13C265.459 94.92 262.29 98.0701 258.51 98.0501C254.72 98.0301 251.58 94.8502 251.62 91.0702C251.66 87.3202 254.76 84.2301 258.51 84.2101C262.29 84.1901 265.459 87.34 265.459 91.13Z" fill="#011ECB"/>
<path d="M84.8398 257.69C84.8398 253.9 87.9899 250.75 91.7799 250.76C95.5699 250.77 98.7099 253.95 98.6799 257.73C98.6499 261.48 95.5499 264.58 91.7999 264.6C88.0199 264.63 84.8498 261.48 84.8398 257.69Z" fill="#011ECB"/>
<path d="M175 1.30005C178.66 1.28005 181.56 4.15005 181.6 7.80005C181.63 11.5 178.721 14.4399 175.021 14.4199C171.371 14.4099 168.49 11.5201 168.48 7.86011C168.48 4.21011 171.35 1.31004 175.01 1.29004L175 1.30005Z" fill="#011ECB"/>
<path d="M8.51012 167.84C12.1601 167.86 15.0402 170.75 15.0402 174.4C15.0402 178.1 12.0901 181 8.39013 180.96C4.74013 180.92 1.89016 177.99 1.92016 174.34C1.95016 170.69 4.86012 167.82 8.51012 167.84Z" fill="#011ECB"/>
<path d="M98.1903 7.88022C98.1703 11.4002 95.2304 14.3104 91.7204 14.2804C88.2004 14.2504 85.2404 11.3104 85.3404 7.81039C85.4404 4.26039 87.8404 1.60029 91.7804 1.45029C95.2804 1.32029 98.2103 4.38022 98.1903 7.88022Z" fill="#011ECB"/>
<path d="M14.9098 91.0802C14.9498 94.5702 12.0598 97.5001 8.54977 97.5601C5.06977 97.6101 1.88969 94.6801 2.09969 91.2201C2.31969 87.5401 4.28968 84.8901 8.45968 84.7201C11.9497 84.5801 14.8798 87.5702 14.9098 91.0802Z" fill="#011ECB"/>
</svg>
