<svg width="15" height="42" viewBox="0 0 15 42" fill="none" xmlns="http://www.w3.org/2000/svg">
<path fill-rule="evenodd" clip-rule="evenodd" d="M7.59762 41.1576C7.59762 41.1575 7.59762 41.1573 7.09762 41.1573C6.59762 41.1573 6.59762 41.1575 6.59762 41.1576L6.5976 41.1545L6.59745 41.1399C6.59727 41.1263 6.5969 41.1051 6.59613 41.0766C6.59458 41.0196 6.59144 40.9337 6.58504 40.8222C6.57224 40.5991 6.54645 40.274 6.49454 39.8736C6.39058 39.0716 6.18264 37.9733 5.76787 36.7883C4.93765 34.4163 3.29635 31.739 0.0380456 30.3426L0.431946 29.4234C3.88785 30.9045 5.6757 33.6866 6.59762 36.1432L6.59763 0.961914L7.59763 0.961914L7.59762 36.1432C8.51954 33.6866 10.3074 30.9045 13.7633 29.4234L14.1572 30.3426C10.8989 31.739 9.25758 34.4163 8.42738 36.7883C8.01261 37.9733 7.80466 39.0716 7.7007 39.8736C7.64879 40.274 7.623 40.5991 7.6102 40.8222C7.6038 40.9337 7.60066 41.0196 7.59911 41.0766C7.59834 41.1051 7.59797 41.1263 7.59779 41.1399L7.59764 41.1545L7.59762 41.1576Z" fill="#001ECB"/>
</svg>
