<svg width="76" height="27" viewBox="0 0 76 27" fill="none" xmlns="http://www.w3.org/2000/svg">
<path fill-rule="evenodd" clip-rule="evenodd" d="M76 12.5439C76 12.5439 75.9994 12.5439 75.9994 13.5C75.9994 14.4562 76 14.4562 76 14.4562L75.9941 14.4562L75.9665 14.4565C75.9408 14.4568 75.9007 14.4575 75.8468 14.459C75.7391 14.462 75.5767 14.468 75.3658 14.4802C74.944 14.5047 74.3293 14.554 73.5723 14.6533C72.0559 14.8521 69.9793 15.2497 67.7387 16.0429C63.2539 17.6305 58.1918 20.7692 55.5515 27L53.8136 26.2467C56.614 19.638 61.8742 16.2191 66.519 14.4562L1.49584e-07 14.4561L1.72388e-07 12.5438L66.519 12.5439C61.8742 10.7809 56.614 7.36195 53.8136 0.75325L55.5515 -3.49445e-06C58.1918 6.23083 63.2539 9.36952 67.7387 10.9571C69.9793 11.7503 72.0559 12.1479 73.5723 12.3467C74.3293 12.446 74.944 12.4953 75.3658 12.5198C75.5767 12.532 75.7391 12.538 75.8468 12.541C75.9007 12.5425 75.9408 12.5432 75.9665 12.5435L75.9941 12.5438L76 12.5439Z" fill="#001ECB"/>
</svg>
