<svg width="47" height="47" viewBox="0 0 47 47" fill="none" xmlns="http://www.w3.org/2000/svg">
<path d="M20.7393 30.7514C20.2104 31.2882 19.7806 31.9648 19.4725 32.6684C18.7582 32.7625 18.0282 32.7891 17.5175 32.7891C16.9191 32.7891 16.6399 32.7373 16.4412 32.637C16.2432 32.537 16.0628 32.3583 15.7381 31.9286L15.7372 31.9275C15.0473 31.0196 14.269 30.347 13.2857 30.0663L13.2442 30.0544L13.2012 30.0499C12.8591 30.0136 12.4556 30.1169 12.2357 30.4424C12.1174 30.6175 12.072 30.8376 12.1307 31.06C12.1863 31.271 12.3222 31.4369 12.4776 31.5601L12.4884 31.5686L12.4996 31.5766C13.0553 31.9692 13.3638 32.4901 13.6021 33.0726C13.6973 33.3053 13.777 33.5364 13.8595 33.7753C13.8825 33.8419 13.9057 33.9091 13.9295 33.9771C14.0349 34.2785 14.152 34.5947 14.3058 34.8826L14.3059 34.8828C14.8966 35.9874 16.0901 36.5366 17.3469 36.5366H17.3486H17.3502H17.3519H17.3536H17.3554H17.3571H17.3589H17.3606H17.3624H17.3643H17.3661H17.3679H17.3698H17.3717H17.3736H17.3756H17.3775H17.3795H17.3814H17.3834H17.3855H17.3875H17.3896H17.3916H17.3937H17.3958H17.398H17.4001H17.4023H17.4044H17.4066H17.4088H17.4111H17.4133H17.4156H17.4179H17.4202H17.4225H17.4248H17.4272H17.4295H17.4319H17.4343H17.4367H17.4391H17.4416H17.4441H17.4465H17.449H17.4516H17.4541H17.4566H17.4592H17.4618H17.4644H17.467H17.4696H17.4722H17.4749H17.4776H17.4803H17.483H17.4857H17.4884H17.4912H17.4939H17.4967H17.4995H17.5023H17.5052H17.508H17.5109H17.5137H17.5166H17.5195H17.5224H17.5254H17.5283H17.5313H17.5343H17.5373H17.5403H17.5433H17.5463H17.5494H17.5524H17.5555H17.5586H17.5617H17.5648H17.5679H17.5711H17.5742H17.5774H17.5806H17.5838H17.587H17.5902H17.5935H17.5967H17.6H17.6033H17.6066H17.6099H17.6132H17.6166H17.6199H17.6233H17.6266H17.63H17.6334H17.6368H17.6403H17.6437H17.6471H17.6506H17.6541H17.6576H17.6611H17.6646H17.6681H17.6716H17.6752H17.6787H17.6823H17.6859H17.6895H17.6931H17.6967H17.7003H17.704H17.7076H17.7113H17.715H17.7187H17.7224H17.7261H17.7298H17.7335H17.7373H17.741H17.7448H17.7486H17.7524H17.7562H17.76H17.7638H17.7676H17.7715H17.7753H17.7792H17.783H17.7869H17.7908H17.7947H17.7986H17.8026H17.8065H17.8104H17.8144H17.8184H17.8223H17.8263H17.8303H17.8343H17.8383H17.8424H17.8464H17.8504H17.8545H17.8585H17.8626H17.8667H17.8708H17.8749H17.879H17.8831H17.8872H17.8914H17.8955H17.8996H17.9038H17.908H17.9121H17.9163H17.9205H17.9247H17.9289H17.9332H17.9374H17.9416H17.9459H17.9501H17.9544H17.9586H17.9629H17.9672H17.9715H17.9758H17.9801H17.9844H17.9887H17.9931H17.9974H18.0017H18.0061H18.0104H18.0148H18.0192H18.0236H18.028H18.0323H18.0367H18.0412H18.0456H18.05H18.0544H18.0589H18.0633H18.0677H18.0722H18.0767H18.0811H18.0856H18.0901H18.0946H18.099H18.1035H18.1081H18.1126H18.1171H18.1216H18.1261H18.1307H18.1352H18.1397H18.1443H18.1488H18.1534H18.158H18.1625H18.1671H18.1717H18.1763H18.1809H18.1855H18.1901H18.1947H18.1993H18.2039H18.2085H18.2132H18.2178H18.2224H18.2271H18.2317H18.2364H18.241H18.2457H18.2503H18.255H18.2597H18.2643H18.269H18.2737H18.2784H18.2831H18.2878H18.2925H18.2972H18.3019H18.3066H18.3113H18.316H18.3207H18.3254H18.3302H18.3349H18.3396H18.3444H18.3491H18.3538H18.3586H18.3633H18.3681H18.3728H18.3776H18.3823H18.3871H18.3919H18.3966H18.4014H18.4062H18.4109H18.4157H18.4205H18.4253H18.43H18.4348H18.4396H18.4444H18.4492H18.454H18.4588H18.4636H18.4684H18.4731H18.4779H18.4827H18.4875H18.4923H18.4971H18.502H18.5068H18.5116H18.5164H18.5212H18.526H18.5308H18.5356H18.5404H18.5452H18.55H18.5549H18.5597H18.5645H18.5693H18.5741H18.5789H18.5837H18.5886H18.5934H18.5982H18.603H18.6078H18.6126H18.6175H18.6223H18.6271H18.6319H18.6367H18.6415H18.6463H18.6511H18.656H18.6608H18.6656H18.6704H18.6752H18.68H18.6848H18.6896H18.6944H18.6992H18.704H18.7088H18.7136H18.7184H18.7232H18.728H18.7328H18.7376H18.7424H18.7472H18.752H18.7568H18.7615H18.7663H18.7711H18.7759H18.7807H18.7854H18.7902H18.795H18.7997H18.8045H18.8093H18.814H18.8188H18.8235H18.8283H18.833H18.8378H18.8425H18.8472H18.852H18.8567H18.8614H18.8662H18.8709H18.8756H18.8803H18.885H18.8898H18.8945H18.8992H18.9039H18.9052V38.8612C18.9052 38.8987 18.9058 38.9355 18.9069 38.9718C12.3808 36.9828 7.62109 30.8855 7.62109 23.6474C7.62109 14.7926 14.7351 7.62109 23.4999 7.62109C32.2647 7.62109 39.3787 14.7926 39.3787 23.6474C39.3787 30.369 35.2719 36.1073 29.4595 38.4865V35.0959C29.4595 34.1625 29.1576 33.11 28.6665 32.1912C28.3862 31.667 28.0338 31.1667 27.6211 30.7492C29.8282 30.3606 31.5497 29.5759 32.77 28.4574C34.2138 27.134 34.9123 25.3826 34.9123 23.3995C34.9123 21.7451 34.2517 20.1671 33.153 18.8355C33.3298 18.1744 33.5077 17.2761 33.547 16.3973C33.5694 15.8962 33.5477 15.3835 33.4457 14.9168C33.3444 14.4529 33.1557 13.9978 32.8153 13.6548L32.6687 13.507H32.4604C30.1468 13.507 28.6295 14.809 28.0074 15.4708C26.8167 15.0938 25.5241 14.8842 24.1755 14.8842C22.8292 14.8842 21.5416 15.0939 20.3543 15.4685C19.7314 14.8072 18.2151 13.507 15.9042 13.507H15.6956L15.5488 13.6553C15.21 13.9977 15.0218 14.4514 14.9205 14.914C14.8185 15.3794 14.7963 15.8905 14.818 16.3903C14.856 17.2669 15.0319 18.1634 15.2067 18.8245C14.101 20.159 13.436 21.7415 13.436 23.3995C13.436 25.3841 14.1356 27.1366 15.5816 28.4604C16.8039 29.5794 18.5283 30.3639 20.7393 30.7514Z" fill="#011ECB" fill-opacity="0.9" stroke="#0000FF"/>
<circle cx="23.5" cy="23.5" r="23" stroke="#0000FF"/>
</svg>
