<svg width="542" height="391" viewBox="0 0 542 391" fill="none" xmlns="http://www.w3.org/2000/svg">
<path d="M83.704 158.36C82.096 158.36 80.884 157.94 80.068 157.1C79.276 156.26 78.88 155.168 78.88 153.824C78.88 152.768 79.084 151.748 79.492 150.764C79.9 149.756 80.404 148.808 81.004 147.92C81.628 147.032 82.264 146.228 82.912 145.508C83.56 144.764 84.124 144.14 84.604 143.636L87.016 141.08C86.488 141.08 85.912 140.996 85.288 140.828C84.688 140.636 84.04 140.456 83.344 140.288C82.672 140.12 81.94 140.036 81.148 140.036C80.452 140.036 79.948 140.12 79.636 140.288C79.324 140.432 79.156 140.576 79.132 140.72L80.032 140.9C80.536 140.996 80.872 141.164 81.04 141.404C81.232 141.644 81.328 141.932 81.328 142.268C81.328 142.796 81.16 143.192 80.824 143.456C80.512 143.72 80.14 143.852 79.708 143.852C79.3 143.828 78.928 143.672 78.592 143.384C78.28 143.096 78.124 142.676 78.124 142.124C78.124 141.668 78.268 141.14 78.556 140.54C78.844 139.916 79.276 139.376 79.852 138.92C80.452 138.44 81.196 138.2 82.084 138.2C82.732 138.2 83.284 138.32 83.74 138.56C84.196 138.8 84.592 139.076 84.928 139.388C85.288 139.7 85.612 139.976 85.9 140.216C86.188 140.456 86.488 140.576 86.8 140.576H86.872L86.656 138.56H89.104L85.936 143.312C85.24 144.344 84.556 145.4 83.884 146.48C83.236 147.536 82.696 148.628 82.264 149.756C81.832 150.86 81.616 152 81.616 153.176C81.616 154.448 81.904 155.408 82.48 156.056C83.08 156.704 83.884 157.028 84.892 157.028C86.02 157.028 87.04 156.692 87.952 156.02C88.888 155.324 89.692 154.424 90.364 153.32C91.06 152.216 91.588 151.016 91.948 149.72C92.332 148.424 92.524 147.152 92.524 145.904C92.524 144.848 92.404 144.032 92.164 143.456C91.948 142.856 91.684 142.388 91.372 142.052C91.06 141.716 90.784 141.404 90.544 141.116C90.328 140.804 90.22 140.396 90.22 139.892C90.22 139.268 90.4 138.836 90.76 138.596C91.144 138.332 91.504 138.2 91.84 138.2C92.608 138.2 93.136 138.668 93.424 139.604C93.712 140.516 93.856 141.668 93.856 143.06C93.856 145.052 93.628 146.96 93.172 148.784C92.74 150.608 92.08 152.24 91.192 153.68C90.328 155.12 89.272 156.26 88.024 157.1C86.776 157.94 85.336 158.36 83.704 158.36ZM110.524 135.32C110.068 135.32 109.684 135.176 109.372 134.888C109.06 134.6 108.904 134.228 108.904 133.772C108.904 133.148 109.156 132.596 109.66 132.116C110.164 131.612 110.728 131.36 111.352 131.36C111.832 131.36 112.216 131.504 112.504 131.792C112.816 132.08 112.972 132.452 112.972 132.908C112.972 133.532 112.72 134.096 112.216 134.6C111.712 135.08 111.148 135.32 110.524 135.32ZM108.112 158.36C107.008 158.36 106.18 157.976 105.628 157.208C105.076 156.44 104.944 155.408 105.232 154.112L108.256 140.288H102.172V139.424L108.544 138.956L110.308 138.056H111.172L107.644 154.112C107.476 154.88 107.512 155.48 107.752 155.912C108.016 156.344 108.472 156.56 109.12 156.56C109.864 156.56 110.584 156.224 111.28 155.552C112 154.856 112.792 153.944 113.656 152.816L114.448 151.772L115.132 152.276L114.34 153.356C113.092 155.036 112.024 156.296 111.136 157.136C110.248 157.952 109.24 158.36 108.112 158.36ZM130.612 158.36C128.956 158.36 127.636 157.724 126.652 156.452C125.692 155.156 125.212 153.416 125.212 151.232C125.212 149.672 125.464 148.124 125.968 146.588C126.472 145.052 127.168 143.648 128.056 142.376C128.968 141.104 130.024 140.096 131.224 139.352C132.448 138.584 133.768 138.2 135.184 138.2C136.528 138.2 137.608 138.56 138.424 139.28C139.264 139.976 139.684 140.948 139.684 142.196C139.684 143.396 139.312 144.392 138.568 145.184C137.848 145.976 136.9 146.6 135.724 147.056C134.572 147.512 133.336 147.824 132.016 147.992C130.72 148.136 129.496 148.172 128.344 148.1L127.912 150.08C127.456 152.336 127.516 154.076 128.092 155.3C128.668 156.5 129.652 157.1 131.044 157.1C131.884 157.1 132.616 156.908 133.24 156.524C133.888 156.14 134.428 155.672 134.86 155.12C135.316 154.544 135.676 153.98 135.94 153.428C136.228 152.876 136.432 152.444 136.552 152.132L137.092 150.656L137.992 150.944L137.56 152.132C137.344 152.756 137.032 153.428 136.624 154.148C136.24 154.868 135.76 155.552 135.184 156.2C134.632 156.824 133.972 157.34 133.204 157.748C132.46 158.156 131.596 158.36 130.612 158.36ZM128.668 146.48L128.488 147.308C129.952 147.404 131.356 147.296 132.7 146.984C134.044 146.648 135.148 146.096 136.012 145.328C136.876 144.536 137.308 143.516 137.308 142.268C137.308 141.356 137.044 140.636 136.516 140.108C136.012 139.58 135.316 139.316 134.428 139.316C133.012 139.316 131.812 139.964 130.828 141.26C129.868 142.532 129.148 144.272 128.668 146.48ZM149.548 158.36C148.66 158.36 147.952 158.072 147.424 157.496C146.92 156.896 146.668 155.984 146.668 154.76C146.668 153.488 146.932 152.156 147.46 150.764C147.988 149.372 148.708 147.992 149.62 146.624C150.556 145.256 151.612 143.972 152.788 142.772L154.444 141.08C153.988 141.08 153.52 140.996 153.04 140.828C152.56 140.636 152.068 140.456 151.564 140.288C151.084 140.12 150.604 140.036 150.124 140.036C149.716 140.036 149.392 140.12 149.152 140.288C148.912 140.432 148.768 140.576 148.72 140.72L149.62 140.9C149.74 140.924 149.98 141.02 150.34 141.188C150.7 141.332 150.88 141.68 150.88 142.232C150.88 142.76 150.7 143.168 150.34 143.456C149.98 143.72 149.608 143.852 149.224 143.852C148.912 143.852 148.576 143.72 148.216 143.456C147.856 143.192 147.676 142.748 147.676 142.124C147.676 141.548 147.844 140.96 148.18 140.36C148.516 139.736 148.972 139.22 149.548 138.812C150.148 138.404 150.796 138.2 151.492 138.2C152.044 138.2 152.464 138.32 152.752 138.56C153.064 138.8 153.292 139.076 153.436 139.388C153.604 139.7 153.736 139.976 153.832 140.216C153.952 140.456 154.084 140.576 154.228 140.576H154.3L154.084 138.56H156.532L153.364 143.312C152.596 144.464 151.876 145.664 151.204 146.912C150.556 148.16 150.028 149.384 149.62 150.584C149.212 151.76 149.008 152.864 149.008 153.896C149.008 155.504 149.584 156.308 150.736 156.308C151.456 156.308 152.056 156.08 152.536 155.624C153.016 155.168 153.4 154.664 153.688 154.112C153.976 153.56 154.168 153.152 154.264 152.888L154.696 151.844C154.696 151.004 154.732 150.14 154.804 149.252C154.9 148.364 155.032 147.536 155.2 146.768C155.368 146 155.596 145.376 155.884 144.896C156.172 144.416 156.52 144.176 156.928 144.176C157.168 144.176 157.36 144.272 157.504 144.464C157.648 144.656 157.72 145.016 157.72 145.544C157.72 146.192 157.6 146.912 157.36 147.704C157.144 148.496 156.868 149.264 156.532 150.008C156.22 150.752 155.908 151.388 155.596 151.916V152.744C155.596 152.936 155.608 153.236 155.632 153.644C155.656 154.028 155.716 154.436 155.812 154.868C155.932 155.276 156.112 155.636 156.352 155.948C156.616 156.236 156.976 156.38 157.432 156.38C158.128 156.38 158.764 156.032 159.34 155.336C159.94 154.64 160.456 153.752 160.888 152.672C161.344 151.592 161.692 150.464 161.932 149.288C162.196 148.088 162.328 146.984 162.328 145.976C162.328 144.968 162.22 144.188 162.004 143.636C161.788 143.06 161.536 142.616 161.248 142.304C160.96 141.992 160.72 141.716 160.528 141.476C160.432 141.332 160.3 141.128 160.132 140.864C159.964 140.576 159.88 140.24 159.88 139.856C159.88 139.4 160.024 139.016 160.312 138.704C160.6 138.392 160.972 138.236 161.428 138.236C162.172 138.236 162.7 138.68 163.012 139.568C163.348 140.432 163.516 141.788 163.516 143.636C163.516 145.556 163.36 147.404 163.048 149.18C162.736 150.932 162.292 152.504 161.716 153.896C161.14 155.264 160.468 156.356 159.7 157.172C158.956 157.964 158.152 158.36 157.288 158.36C156.592 158.36 156.064 158.132 155.704 157.676C155.368 157.22 155.14 156.668 155.02 156.02C154.9 155.372 154.84 154.784 154.84 154.256H154.444C154.276 154.664 153.988 155.204 153.58 155.876C153.172 156.524 152.632 157.1 151.96 157.604C151.288 158.108 150.484 158.36 149.548 158.36ZM205.384 158.36C204.784 158.36 204.364 158.108 204.124 157.604C203.884 157.1 203.92 156.308 204.232 155.228L208.228 142.016C208.3 141.824 208.36 141.584 208.408 141.296C208.48 140.984 208.492 140.708 208.444 140.468C208.42 140.228 208.264 140.108 207.976 140.108C207.592 140.108 207.208 140.348 206.824 140.828C206.44 141.308 206.068 141.932 205.708 142.7C205.372 143.468 205.048 144.296 204.736 145.184C204.448 146.072 204.172 146.924 203.908 147.74L200.704 158H198.94L202.936 141.944C203.032 141.608 203.08 141.224 203.08 140.792C203.104 140.336 202.936 140.108 202.576 140.108C202.288 140.108 201.964 140.336 201.604 140.792C201.244 141.224 200.848 141.98 200.416 143.06C200.008 144.14 199.564 145.628 199.084 147.524L196.42 158H194.476L197.968 141.584C198.04 141.248 198.076 140.912 198.076 140.576C198.076 140.24 197.92 140.072 197.608 140.072C197.416 140.072 197.188 140.216 196.924 140.504C196.66 140.768 196.168 141.392 195.448 142.376L194.512 143.636L193.9 143.168L194.728 142.052C195.712 140.708 196.468 139.736 196.996 139.136C197.524 138.512 198.052 138.2 198.58 138.2C199.036 138.2 199.396 138.452 199.66 138.956C199.948 139.436 199.948 140.228 199.66 141.332L198.076 147.452H198.472L198.688 146.624C198.88 145.904 199.108 145.076 199.372 144.14C199.66 143.18 199.996 142.244 200.38 141.332C200.788 140.42 201.244 139.676 201.748 139.1C202.252 138.5 202.828 138.2 203.476 138.2C204.028 138.2 204.472 138.464 204.808 138.992C205.144 139.52 205.12 140.42 204.736 141.692L202.972 147.452H203.368L203.62 146.66C204.076 145.244 204.544 143.9 205.024 142.628C205.504 141.332 206.056 140.276 206.68 139.46C207.304 138.62 208.036 138.2 208.876 138.2C209.644 138.2 210.148 138.584 210.388 139.352C210.628 140.12 210.544 141.176 210.136 142.52L206.356 154.976C206.332 155.072 206.284 155.24 206.212 155.48C206.164 155.72 206.152 155.948 206.176 156.164C206.224 156.38 206.356 156.488 206.572 156.488C206.86 156.488 207.184 156.284 207.544 155.876C207.904 155.468 208.348 154.904 208.876 154.184L210.604 151.88L211.216 152.312L209.596 154.508C208.756 155.66 208.012 156.596 207.364 157.316C206.716 158.012 206.056 158.36 205.384 158.36ZM214.6 164.84C213.352 164.84 212.428 164.588 211.828 164.084C211.228 163.58 210.928 162.98 210.928 162.284C210.928 161.684 211.12 161.18 211.504 160.772C211.864 160.388 212.344 160.196 212.944 160.196C213.76 160.196 214.3 160.496 214.564 161.096C214.804 161.696 214.9 162.308 214.852 162.932L214.78 163.976C216.628 163.976 218.176 163.304 219.424 161.96C220.672 160.64 221.62 158.804 222.268 156.452C222.916 154.076 223.24 151.328 223.24 148.208C223.24 145.112 222.952 142.928 222.376 141.656C221.824 140.384 221.14 139.748 220.324 139.748C219.964 139.748 219.616 139.88 219.28 140.144C218.968 140.384 218.548 140.792 218.02 141.368L217.264 142.196L216.796 141.764L217.552 140.864C218.152 140.144 218.752 139.52 219.352 138.992C219.976 138.464 220.696 138.2 221.512 138.2C222.712 138.2 223.684 138.908 224.428 140.324C225.172 141.74 225.544 144.056 225.544 147.272C225.544 149.24 225.4 151.064 225.112 152.744C224.848 154.4 224.524 155.84 224.14 157.064C223.756 158.288 223.372 159.224 222.988 159.872C224.044 158.816 225.028 157.64 225.94 156.344C226.876 155.024 227.692 153.68 228.388 152.312C229.108 150.944 229.672 149.624 230.08 148.352C230.488 147.056 230.692 145.928 230.692 144.968C230.692 144.128 230.572 143.468 230.332 142.988C230.092 142.484 229.84 142.028 229.576 141.62C229.336 141.212 229.216 140.72 229.216 140.144C229.216 139.52 229.372 139.04 229.684 138.704C230.02 138.368 230.44 138.2 230.944 138.2C231.496 138.2 231.94 138.452 232.276 138.956C232.612 139.436 232.78 140.264 232.78 141.44C232.78 142.808 232.54 144.332 232.06 146.012C231.604 147.668 230.956 149.384 230.116 151.16C229.276 152.912 228.28 154.604 227.128 156.236C226 157.844 224.752 159.296 223.384 160.592C222.04 161.912 220.624 162.944 219.136 163.688C217.648 164.456 216.136 164.84 214.6 164.84ZM269.068 165.668C267.796 165.668 266.608 165.5 265.504 165.164C264.4 164.852 263.512 164.36 262.84 163.688C262.168 163.016 261.832 162.164 261.832 161.132C261.832 160.34 262.048 159.632 262.48 159.008C262.888 158.408 263.416 157.892 264.064 157.46C264.736 157.004 265.456 156.644 266.224 156.38C266.992 156.116 267.736 155.936 268.456 155.84V155.588C268.024 155.348 267.64 155.036 267.304 154.652C266.968 154.268 266.8 153.776 266.8 153.176C266.8 152.384 267.064 151.736 267.592 151.232C268.144 150.704 268.684 150.296 269.212 150.008V149.828C268.348 149.468 267.712 148.904 267.304 148.136C266.896 147.344 266.692 146.468 266.692 145.508C266.692 144.188 267.028 142.976 267.7 141.872C268.372 140.768 269.26 139.88 270.364 139.208C271.492 138.536 272.716 138.2 274.036 138.2C274.444 138.2 274.804 138.236 275.116 138.308C275.452 138.356 275.764 138.44 276.052 138.56H282.28L282.064 139.676H277.6C277.96 140.108 278.224 140.6 278.392 141.152C278.56 141.704 278.644 142.292 278.644 142.916C278.644 144.236 278.308 145.448 277.636 146.552C276.964 147.656 276.076 148.544 274.972 149.216C273.868 149.888 272.644 150.224 271.3 150.224C271.132 150.224 270.964 150.224 270.796 150.224C270.652 150.2 270.508 150.176 270.364 150.152C270.052 150.272 269.692 150.464 269.284 150.728C268.9 150.992 268.708 151.388 268.708 151.916C268.708 152.492 268.936 152.9 269.392 153.14C269.848 153.38 270.292 153.596 270.724 153.788L273.352 154.832C273.76 155 274.24 155.204 274.792 155.444C275.344 155.66 275.884 155.96 276.412 156.344C276.94 156.704 277.372 157.172 277.708 157.748C278.068 158.3 278.248 158.984 278.248 159.8C278.248 161.072 277.804 162.14 276.916 163.004C276.028 163.892 274.888 164.552 273.496 164.984C272.104 165.44 270.628 165.668 269.068 165.668ZM271.444 149.216C272.668 149.216 273.652 148.808 274.396 147.992C275.14 147.176 275.632 146.168 275.872 144.968L276.196 143.456C276.46 142.16 276.412 141.128 276.052 140.36C275.692 139.592 274.948 139.208 273.82 139.208C272.62 139.208 271.648 139.616 270.904 140.432C270.184 141.248 269.692 142.256 269.428 143.456L269.104 144.968C268.84 146.264 268.876 147.296 269.212 148.064C269.572 148.832 270.316 149.216 271.444 149.216ZM269.896 164.372C271 164.372 272.02 164.228 272.956 163.94C273.892 163.676 274.648 163.268 275.224 162.716C275.824 162.188 276.124 161.528 276.124 160.736C276.124 159.992 275.908 159.392 275.476 158.936C275.068 158.48 274.576 158.12 274 157.856C273.424 157.592 272.92 157.376 272.488 157.208L269.716 156.128L268.816 156.38C268.072 156.572 267.316 156.836 266.548 157.172C265.804 157.484 265.18 157.904 264.676 158.432C264.172 158.984 263.92 159.68 263.92 160.52C263.92 161.744 264.472 162.692 265.576 163.364C266.704 164.036 268.144 164.372 269.896 164.372ZM297.724 135.32C297.268 135.32 296.884 135.176 296.572 134.888C296.26 134.6 296.104 134.228 296.104 133.772C296.104 133.148 296.356 132.596 296.86 132.116C297.364 131.612 297.928 131.36 298.552 131.36C299.032 131.36 299.416 131.504 299.704 131.792C300.016 132.08 300.172 132.452 300.172 132.908C300.172 133.532 299.92 134.096 299.416 134.6C298.912 135.08 298.348 135.32 297.724 135.32ZM295.312 158.36C294.208 158.36 293.38 157.976 292.828 157.208C292.276 156.44 292.144 155.408 292.432 154.112L295.456 140.288H289.372V139.424L295.744 138.956L297.508 138.056H298.372L294.844 154.112C294.676 154.88 294.712 155.48 294.952 155.912C295.216 156.344 295.672 156.56 296.32 156.56C297.064 156.56 297.784 156.224 298.48 155.552C299.2 154.856 299.992 153.944 300.856 152.816L301.648 151.772L302.332 152.276L301.54 153.356C300.292 155.036 299.224 156.296 298.336 157.136C297.448 157.952 296.44 158.36 295.312 158.36ZM317.56 158.36C316.024 158.36 314.968 157.856 314.392 156.848C313.816 155.816 313.696 154.484 314.032 152.852L316.804 139.712H311.764L312.124 138.56H317.056L317.632 134.708H320.332L319.504 138.56H327.316L326.956 139.712H319.252L316.48 152.852C316.24 153.956 316.288 154.856 316.624 155.552C316.984 156.224 317.644 156.56 318.604 156.56C319.372 156.56 320.056 156.368 320.656 155.984C321.256 155.576 321.796 155.084 322.276 154.508C322.78 153.908 323.236 153.344 323.644 152.816L324.436 151.772L325.12 152.276L324.328 153.356C323.656 154.268 322.996 155.108 322.348 155.876C321.7 156.644 320.992 157.256 320.224 157.712C319.48 158.144 318.592 158.36 317.56 158.36ZM345.64 158.36C344.968 158.36 344.416 158.108 343.984 157.604C343.552 157.1 343.492 156.308 343.804 155.228L347.512 142.736C347.752 141.944 347.776 141.308 347.584 140.828C347.416 140.348 346.96 140.108 346.216 140.108C345.208 140.108 344.236 140.684 343.3 141.836C342.388 142.964 341.488 144.836 340.6 147.452C339.712 150.068 338.8 153.584 337.864 158H335.38L340.636 133.232H336.244L336.424 132.368L340.924 131.9L342.688 131H343.552L341.932 138.56L339.34 147.452H339.88C340.216 146.42 340.612 145.364 341.068 144.284C341.524 143.204 342.052 142.208 342.652 141.296C343.252 140.36 343.936 139.616 344.704 139.064C345.496 138.488 346.372 138.2 347.332 138.2C348.436 138.2 349.252 138.584 349.78 139.352C350.332 140.12 350.404 141.176 349.996 142.52L346.288 154.976C346.264 155.096 346.228 155.276 346.18 155.516C346.132 155.756 346.156 155.984 346.252 156.2C346.348 156.392 346.588 156.488 346.972 156.488C347.452 156.488 347.86 156.284 348.196 155.876C348.556 155.468 349 154.904 349.528 154.184L350.5 152.888L351.112 153.32L350.248 154.508C349.504 155.54 348.784 156.44 348.088 157.208C347.416 157.976 346.6 158.36 345.64 158.36ZM361.336 158.36C360.136 158.36 359.308 157.844 358.852 156.812C358.42 155.78 358.492 154.412 359.068 152.708L362.776 141.584C362.872 141.296 362.92 140.972 362.92 140.612C362.944 140.252 362.716 140.072 362.236 140.072C361.78 140.072 361.384 140.276 361.048 140.684C360.712 141.092 360.268 141.656 359.716 142.376L358.78 143.636L358.168 143.168L358.996 142.052C359.764 140.996 360.472 140.096 361.12 139.352C361.792 138.584 362.548 138.2 363.388 138.2C364.06 138.2 364.612 138.452 365.044 138.956C365.5 139.46 365.548 140.252 365.188 141.332L361.3 153.104C360.964 154.136 360.892 154.952 361.084 155.552C361.3 156.152 361.78 156.452 362.524 156.452C363.508 156.452 364.456 155.876 365.368 154.724C366.28 153.548 367.18 151.652 368.068 149.036C368.956 146.42 369.856 142.928 370.768 138.56H373.252L369.76 154.976C369.688 155.312 369.64 155.648 369.616 155.984C369.616 156.32 369.808 156.488 370.192 156.488C370.576 156.488 370.948 156.284 371.308 155.876C371.668 155.468 372.112 154.904 372.64 154.184L373.576 152.924L374.188 153.392L373.36 154.508C372.592 155.54 371.884 156.44 371.236 157.208C370.588 157.976 369.844 158.36 369.004 158.36C368.356 158.36 367.816 158.108 367.384 157.604C366.952 157.1 366.916 156.308 367.276 155.228L369.292 149.108H368.752C368.44 150.044 368.056 151.052 367.6 152.132C367.168 153.188 366.652 154.196 366.052 155.156C365.452 156.092 364.756 156.86 363.964 157.46C363.196 158.06 362.32 158.36 361.336 158.36ZM387.724 158.36C386.548 158.36 385.564 158.132 384.772 157.676C383.98 157.196 383.428 156.728 383.116 156.272L388.012 133.232H383.62L383.8 132.368L388.3 131.9L390.064 131H390.928L389.344 138.56L386.644 146.048H387.184C387.448 145.328 387.76 144.524 388.12 143.636C388.48 142.724 388.924 141.86 389.452 141.044C389.98 140.204 390.604 139.52 391.324 138.992C392.068 138.464 392.92 138.2 393.88 138.2C395.152 138.2 396.088 138.704 396.688 139.712C397.312 140.696 397.624 142.052 397.624 143.78C397.624 144.932 397.48 146.18 397.192 147.524C396.928 148.844 396.52 150.14 395.968 151.412C395.44 152.684 394.78 153.848 393.988 154.904C393.196 155.96 392.272 156.8 391.216 157.424C390.184 158.048 389.02 158.36 387.724 158.36ZM388.3 157.208C389.5 157.208 390.568 156.728 391.504 155.768C392.44 154.808 393.112 153.368 393.52 151.448L395.212 143.6C395.5 142.256 395.428 141.236 394.996 140.54C394.564 139.844 393.964 139.496 393.196 139.496C392.332 139.496 391.516 139.904 390.748 140.72C389.98 141.512 389.284 142.616 388.66 144.032C388.06 145.448 387.556 147.104 387.148 149L386.068 153.968C385.876 154.856 385.936 155.624 386.248 156.272C386.56 156.896 387.244 157.208 388.3 157.208ZM415.12 131.36H417.64L412.528 151.808H411.52L415.12 131.36ZM410.62 158.36C410.14 158.36 409.744 158.216 409.432 157.928C409.144 157.64 409 157.268 409 156.812C409 156.188 409.252 155.636 409.756 155.156C410.26 154.652 410.824 154.4 411.448 154.4C411.928 154.4 412.312 154.544 412.6 154.832C412.912 155.12 413.068 155.492 413.068 155.948C413.068 156.572 412.816 157.136 412.312 157.64C411.808 158.12 411.244 158.36 410.62 158.36Z" fill="#011ECB"/>
<path d="M83.704 201.36C82.096 201.36 80.884 200.94 80.068 200.1C79.276 199.26 78.88 198.168 78.88 196.824C78.88 195.768 79.084 194.748 79.492 193.764C79.9 192.756 80.404 191.808 81.004 190.92C81.628 190.032 82.264 189.228 82.912 188.508C83.56 187.764 84.124 187.14 84.604 186.636L87.016 184.08C86.488 184.08 85.912 183.996 85.288 183.828C84.688 183.636 84.04 183.456 83.344 183.288C82.672 183.12 81.94 183.036 81.148 183.036C80.452 183.036 79.948 183.12 79.636 183.288C79.324 183.432 79.156 183.576 79.132 183.72L80.032 183.9C80.536 183.996 80.872 184.164 81.04 184.404C81.232 184.644 81.328 184.932 81.328 185.268C81.328 185.796 81.16 186.192 80.824 186.456C80.512 186.72 80.14 186.852 79.708 186.852C79.3 186.828 78.928 186.672 78.592 186.384C78.28 186.096 78.124 185.676 78.124 185.124C78.124 184.668 78.268 184.14 78.556 183.54C78.844 182.916 79.276 182.376 79.852 181.92C80.452 181.44 81.196 181.2 82.084 181.2C82.732 181.2 83.284 181.32 83.74 181.56C84.196 181.8 84.592 182.076 84.928 182.388C85.288 182.7 85.612 182.976 85.9 183.216C86.188 183.456 86.488 183.576 86.8 183.576H86.872L86.656 181.56H89.104L85.936 186.312C85.24 187.344 84.556 188.4 83.884 189.48C83.236 190.536 82.696 191.628 82.264 192.756C81.832 193.86 81.616 195 81.616 196.176C81.616 197.448 81.904 198.408 82.48 199.056C83.08 199.704 83.884 200.028 84.892 200.028C86.02 200.028 87.04 199.692 87.952 199.02C88.888 198.324 89.692 197.424 90.364 196.32C91.06 195.216 91.588 194.016 91.948 192.72C92.332 191.424 92.524 190.152 92.524 188.904C92.524 187.848 92.404 187.032 92.164 186.456C91.948 185.856 91.684 185.388 91.372 185.052C91.06 184.716 90.784 184.404 90.544 184.116C90.328 183.804 90.22 183.396 90.22 182.892C90.22 182.268 90.4 181.836 90.76 181.596C91.144 181.332 91.504 181.2 91.84 181.2C92.608 181.2 93.136 181.668 93.424 182.604C93.712 183.516 93.856 184.668 93.856 186.06C93.856 188.052 93.628 189.96 93.172 191.784C92.74 193.608 92.08 195.24 91.192 196.68C90.328 198.12 89.272 199.26 88.024 200.1C86.776 200.94 85.336 201.36 83.704 201.36ZM110.524 178.32C110.068 178.32 109.684 178.176 109.372 177.888C109.06 177.6 108.904 177.228 108.904 176.772C108.904 176.148 109.156 175.596 109.66 175.116C110.164 174.612 110.728 174.36 111.352 174.36C111.832 174.36 112.216 174.504 112.504 174.792C112.816 175.08 112.972 175.452 112.972 175.908C112.972 176.532 112.72 177.096 112.216 177.6C111.712 178.08 111.148 178.32 110.524 178.32ZM108.112 201.36C107.008 201.36 106.18 200.976 105.628 200.208C105.076 199.44 104.944 198.408 105.232 197.112L108.256 183.288H102.172V182.424L108.544 181.956L110.308 181.056H111.172L107.644 197.112C107.476 197.88 107.512 198.48 107.752 198.912C108.016 199.344 108.472 199.56 109.12 199.56C109.864 199.56 110.584 199.224 111.28 198.552C112 197.856 112.792 196.944 113.656 195.816L114.448 194.772L115.132 195.276L114.34 196.356C113.092 198.036 112.024 199.296 111.136 200.136C110.248 200.952 109.24 201.36 108.112 201.36ZM130.612 201.36C128.956 201.36 127.636 200.724 126.652 199.452C125.692 198.156 125.212 196.416 125.212 194.232C125.212 192.672 125.464 191.124 125.968 189.588C126.472 188.052 127.168 186.648 128.056 185.376C128.968 184.104 130.024 183.096 131.224 182.352C132.448 181.584 133.768 181.2 135.184 181.2C136.528 181.2 137.608 181.56 138.424 182.28C139.264 182.976 139.684 183.948 139.684 185.196C139.684 186.396 139.312 187.392 138.568 188.184C137.848 188.976 136.9 189.6 135.724 190.056C134.572 190.512 133.336 190.824 132.016 190.992C130.72 191.136 129.496 191.172 128.344 191.1L127.912 193.08C127.456 195.336 127.516 197.076 128.092 198.3C128.668 199.5 129.652 200.1 131.044 200.1C131.884 200.1 132.616 199.908 133.24 199.524C133.888 199.14 134.428 198.672 134.86 198.12C135.316 197.544 135.676 196.98 135.94 196.428C136.228 195.876 136.432 195.444 136.552 195.132L137.092 193.656L137.992 193.944L137.56 195.132C137.344 195.756 137.032 196.428 136.624 197.148C136.24 197.868 135.76 198.552 135.184 199.2C134.632 199.824 133.972 200.34 133.204 200.748C132.46 201.156 131.596 201.36 130.612 201.36ZM128.668 189.48L128.488 190.308C129.952 190.404 131.356 190.296 132.7 189.984C134.044 189.648 135.148 189.096 136.012 188.328C136.876 187.536 137.308 186.516 137.308 185.268C137.308 184.356 137.044 183.636 136.516 183.108C136.012 182.58 135.316 182.316 134.428 182.316C133.012 182.316 131.812 182.964 130.828 184.26C129.868 185.532 129.148 187.272 128.668 189.48ZM149.548 201.36C148.66 201.36 147.952 201.072 147.424 200.496C146.92 199.896 146.668 198.984 146.668 197.76C146.668 196.488 146.932 195.156 147.46 193.764C147.988 192.372 148.708 190.992 149.62 189.624C150.556 188.256 151.612 186.972 152.788 185.772L154.444 184.08C153.988 184.08 153.52 183.996 153.04 183.828C152.56 183.636 152.068 183.456 151.564 183.288C151.084 183.12 150.604 183.036 150.124 183.036C149.716 183.036 149.392 183.12 149.152 183.288C148.912 183.432 148.768 183.576 148.72 183.72L149.62 183.9C149.74 183.924 149.98 184.02 150.34 184.188C150.7 184.332 150.88 184.68 150.88 185.232C150.88 185.76 150.7 186.168 150.34 186.456C149.98 186.72 149.608 186.852 149.224 186.852C148.912 186.852 148.576 186.72 148.216 186.456C147.856 186.192 147.676 185.748 147.676 185.124C147.676 184.548 147.844 183.96 148.18 183.36C148.516 182.736 148.972 182.22 149.548 181.812C150.148 181.404 150.796 181.2 151.492 181.2C152.044 181.2 152.464 181.32 152.752 181.56C153.064 181.8 153.292 182.076 153.436 182.388C153.604 182.7 153.736 182.976 153.832 183.216C153.952 183.456 154.084 183.576 154.228 183.576H154.3L154.084 181.56H156.532L153.364 186.312C152.596 187.464 151.876 188.664 151.204 189.912C150.556 191.16 150.028 192.384 149.62 193.584C149.212 194.76 149.008 195.864 149.008 196.896C149.008 198.504 149.584 199.308 150.736 199.308C151.456 199.308 152.056 199.08 152.536 198.624C153.016 198.168 153.4 197.664 153.688 197.112C153.976 196.56 154.168 196.152 154.264 195.888L154.696 194.844C154.696 194.004 154.732 193.14 154.804 192.252C154.9 191.364 155.032 190.536 155.2 189.768C155.368 189 155.596 188.376 155.884 187.896C156.172 187.416 156.52 187.176 156.928 187.176C157.168 187.176 157.36 187.272 157.504 187.464C157.648 187.656 157.72 188.016 157.72 188.544C157.72 189.192 157.6 189.912 157.36 190.704C157.144 191.496 156.868 192.264 156.532 193.008C156.22 193.752 155.908 194.388 155.596 194.916V195.744C155.596 195.936 155.608 196.236 155.632 196.644C155.656 197.028 155.716 197.436 155.812 197.868C155.932 198.276 156.112 198.636 156.352 198.948C156.616 199.236 156.976 199.38 157.432 199.38C158.128 199.38 158.764 199.032 159.34 198.336C159.94 197.64 160.456 196.752 160.888 195.672C161.344 194.592 161.692 193.464 161.932 192.288C162.196 191.088 162.328 189.984 162.328 188.976C162.328 187.968 162.22 187.188 162.004 186.636C161.788 186.06 161.536 185.616 161.248 185.304C160.96 184.992 160.72 184.716 160.528 184.476C160.432 184.332 160.3 184.128 160.132 183.864C159.964 183.576 159.88 183.24 159.88 182.856C159.88 182.4 160.024 182.016 160.312 181.704C160.6 181.392 160.972 181.236 161.428 181.236C162.172 181.236 162.7 181.68 163.012 182.568C163.348 183.432 163.516 184.788 163.516 186.636C163.516 188.556 163.36 190.404 163.048 192.18C162.736 193.932 162.292 195.504 161.716 196.896C161.14 198.264 160.468 199.356 159.7 200.172C158.956 200.964 158.152 201.36 157.288 201.36C156.592 201.36 156.064 201.132 155.704 200.676C155.368 200.22 155.14 199.668 155.02 199.02C154.9 198.372 154.84 197.784 154.84 197.256H154.444C154.276 197.664 153.988 198.204 153.58 198.876C153.172 199.524 152.632 200.1 151.96 200.604C151.288 201.108 150.484 201.36 149.548 201.36ZM205.384 201.36C204.784 201.36 204.364 201.108 204.124 200.604C203.884 200.1 203.92 199.308 204.232 198.228L208.228 185.016C208.3 184.824 208.36 184.584 208.408 184.296C208.48 183.984 208.492 183.708 208.444 183.468C208.42 183.228 208.264 183.108 207.976 183.108C207.592 183.108 207.208 183.348 206.824 183.828C206.44 184.308 206.068 184.932 205.708 185.7C205.372 186.468 205.048 187.296 204.736 188.184C204.448 189.072 204.172 189.924 203.908 190.74L200.704 201H198.94L202.936 184.944C203.032 184.608 203.08 184.224 203.08 183.792C203.104 183.336 202.936 183.108 202.576 183.108C202.288 183.108 201.964 183.336 201.604 183.792C201.244 184.224 200.848 184.98 200.416 186.06C200.008 187.14 199.564 188.628 199.084 190.524L196.42 201H194.476L197.968 184.584C198.04 184.248 198.076 183.912 198.076 183.576C198.076 183.24 197.92 183.072 197.608 183.072C197.416 183.072 197.188 183.216 196.924 183.504C196.66 183.768 196.168 184.392 195.448 185.376L194.512 186.636L193.9 186.168L194.728 185.052C195.712 183.708 196.468 182.736 196.996 182.136C197.524 181.512 198.052 181.2 198.58 181.2C199.036 181.2 199.396 181.452 199.66 181.956C199.948 182.436 199.948 183.228 199.66 184.332L198.076 190.452H198.472L198.688 189.624C198.88 188.904 199.108 188.076 199.372 187.14C199.66 186.18 199.996 185.244 200.38 184.332C200.788 183.42 201.244 182.676 201.748 182.1C202.252 181.5 202.828 181.2 203.476 181.2C204.028 181.2 204.472 181.464 204.808 181.992C205.144 182.52 205.12 183.42 204.736 184.692L202.972 190.452H203.368L203.62 189.66C204.076 188.244 204.544 186.9 205.024 185.628C205.504 184.332 206.056 183.276 206.68 182.46C207.304 181.62 208.036 181.2 208.876 181.2C209.644 181.2 210.148 181.584 210.388 182.352C210.628 183.12 210.544 184.176 210.136 185.52L206.356 197.976C206.332 198.072 206.284 198.24 206.212 198.48C206.164 198.72 206.152 198.948 206.176 199.164C206.224 199.38 206.356 199.488 206.572 199.488C206.86 199.488 207.184 199.284 207.544 198.876C207.904 198.468 208.348 197.904 208.876 197.184L210.604 194.88L211.216 195.312L209.596 197.508C208.756 198.66 208.012 199.596 207.364 200.316C206.716 201.012 206.056 201.36 205.384 201.36ZM214.6 207.84C213.352 207.84 212.428 207.588 211.828 207.084C211.228 206.58 210.928 205.98 210.928 205.284C210.928 204.684 211.12 204.18 211.504 203.772C211.864 203.388 212.344 203.196 212.944 203.196C213.76 203.196 214.3 203.496 214.564 204.096C214.804 204.696 214.9 205.308 214.852 205.932L214.78 206.976C216.628 206.976 218.176 206.304 219.424 204.96C220.672 203.64 221.62 201.804 222.268 199.452C222.916 197.076 223.24 194.328 223.24 191.208C223.24 188.112 222.952 185.928 222.376 184.656C221.824 183.384 221.14 182.748 220.324 182.748C219.964 182.748 219.616 182.88 219.28 183.144C218.968 183.384 218.548 183.792 218.02 184.368L217.264 185.196L216.796 184.764L217.552 183.864C218.152 183.144 218.752 182.52 219.352 181.992C219.976 181.464 220.696 181.2 221.512 181.2C222.712 181.2 223.684 181.908 224.428 183.324C225.172 184.74 225.544 187.056 225.544 190.272C225.544 192.24 225.4 194.064 225.112 195.744C224.848 197.4 224.524 198.84 224.14 200.064C223.756 201.288 223.372 202.224 222.988 202.872C224.044 201.816 225.028 200.64 225.94 199.344C226.876 198.024 227.692 196.68 228.388 195.312C229.108 193.944 229.672 192.624 230.08 191.352C230.488 190.056 230.692 188.928 230.692 187.968C230.692 187.128 230.572 186.468 230.332 185.988C230.092 185.484 229.84 185.028 229.576 184.62C229.336 184.212 229.216 183.72 229.216 183.144C229.216 182.52 229.372 182.04 229.684 181.704C230.02 181.368 230.44 181.2 230.944 181.2C231.496 181.2 231.94 181.452 232.276 181.956C232.612 182.436 232.78 183.264 232.78 184.44C232.78 185.808 232.54 187.332 232.06 189.012C231.604 190.668 230.956 192.384 230.116 194.16C229.276 195.912 228.28 197.604 227.128 199.236C226 200.844 224.752 202.296 223.384 203.592C222.04 204.912 220.624 205.944 219.136 206.688C217.648 207.456 216.136 207.84 214.6 207.84ZM269.068 208.668C267.796 208.668 266.608 208.5 265.504 208.164C264.4 207.852 263.512 207.36 262.84 206.688C262.168 206.016 261.832 205.164 261.832 204.132C261.832 203.34 262.048 202.632 262.48 202.008C262.888 201.408 263.416 200.892 264.064 200.46C264.736 200.004 265.456 199.644 266.224 199.38C266.992 199.116 267.736 198.936 268.456 198.84V198.588C268.024 198.348 267.64 198.036 267.304 197.652C266.968 197.268 266.8 196.776 266.8 196.176C266.8 195.384 267.064 194.736 267.592 194.232C268.144 193.704 268.684 193.296 269.212 193.008V192.828C268.348 192.468 267.712 191.904 267.304 191.136C266.896 190.344 266.692 189.468 266.692 188.508C266.692 187.188 267.028 185.976 267.7 184.872C268.372 183.768 269.26 182.88 270.364 182.208C271.492 181.536 272.716 181.2 274.036 181.2C274.444 181.2 274.804 181.236 275.116 181.308C275.452 181.356 275.764 181.44 276.052 181.56H282.28L282.064 182.676H277.6C277.96 183.108 278.224 183.6 278.392 184.152C278.56 184.704 278.644 185.292 278.644 185.916C278.644 187.236 278.308 188.448 277.636 189.552C276.964 190.656 276.076 191.544 274.972 192.216C273.868 192.888 272.644 193.224 271.3 193.224C271.132 193.224 270.964 193.224 270.796 193.224C270.652 193.2 270.508 193.176 270.364 193.152C270.052 193.272 269.692 193.464 269.284 193.728C268.9 193.992 268.708 194.388 268.708 194.916C268.708 195.492 268.936 195.9 269.392 196.14C269.848 196.38 270.292 196.596 270.724 196.788L273.352 197.832C273.76 198 274.24 198.204 274.792 198.444C275.344 198.66 275.884 198.96 276.412 199.344C276.94 199.704 277.372 200.172 277.708 200.748C278.068 201.3 278.248 201.984 278.248 202.8C278.248 204.072 277.804 205.14 276.916 206.004C276.028 206.892 274.888 207.552 273.496 207.984C272.104 208.44 270.628 208.668 269.068 208.668ZM271.444 192.216C272.668 192.216 273.652 191.808 274.396 190.992C275.14 190.176 275.632 189.168 275.872 187.968L276.196 186.456C276.46 185.16 276.412 184.128 276.052 183.36C275.692 182.592 274.948 182.208 273.82 182.208C272.62 182.208 271.648 182.616 270.904 183.432C270.184 184.248 269.692 185.256 269.428 186.456L269.104 187.968C268.84 189.264 268.876 190.296 269.212 191.064C269.572 191.832 270.316 192.216 271.444 192.216ZM269.896 207.372C271 207.372 272.02 207.228 272.956 206.94C273.892 206.676 274.648 206.268 275.224 205.716C275.824 205.188 276.124 204.528 276.124 203.736C276.124 202.992 275.908 202.392 275.476 201.936C275.068 201.48 274.576 201.12 274 200.856C273.424 200.592 272.92 200.376 272.488 200.208L269.716 199.128L268.816 199.38C268.072 199.572 267.316 199.836 266.548 200.172C265.804 200.484 265.18 200.904 264.676 201.432C264.172 201.984 263.92 202.68 263.92 203.52C263.92 204.744 264.472 205.692 265.576 206.364C266.704 207.036 268.144 207.372 269.896 207.372ZM297.724 178.32C297.268 178.32 296.884 178.176 296.572 177.888C296.26 177.6 296.104 177.228 296.104 176.772C296.104 176.148 296.356 175.596 296.86 175.116C297.364 174.612 297.928 174.36 298.552 174.36C299.032 174.36 299.416 174.504 299.704 174.792C300.016 175.08 300.172 175.452 300.172 175.908C300.172 176.532 299.92 177.096 299.416 177.6C298.912 178.08 298.348 178.32 297.724 178.32ZM295.312 201.36C294.208 201.36 293.38 200.976 292.828 200.208C292.276 199.44 292.144 198.408 292.432 197.112L295.456 183.288H289.372V182.424L295.744 181.956L297.508 181.056H298.372L294.844 197.112C294.676 197.88 294.712 198.48 294.952 198.912C295.216 199.344 295.672 199.56 296.32 199.56C297.064 199.56 297.784 199.224 298.48 198.552C299.2 197.856 299.992 196.944 300.856 195.816L301.648 194.772L302.332 195.276L301.54 196.356C300.292 198.036 299.224 199.296 298.336 200.136C297.448 200.952 296.44 201.36 295.312 201.36ZM317.56 201.36C316.024 201.36 314.968 200.856 314.392 199.848C313.816 198.816 313.696 197.484 314.032 195.852L316.804 182.712H311.764L312.124 181.56H317.056L317.632 177.708H320.332L319.504 181.56H327.316L326.956 182.712H319.252L316.48 195.852C316.24 196.956 316.288 197.856 316.624 198.552C316.984 199.224 317.644 199.56 318.604 199.56C319.372 199.56 320.056 199.368 320.656 198.984C321.256 198.576 321.796 198.084 322.276 197.508C322.78 196.908 323.236 196.344 323.644 195.816L324.436 194.772L325.12 195.276L324.328 196.356C323.656 197.268 322.996 198.108 322.348 198.876C321.7 199.644 320.992 200.256 320.224 200.712C319.48 201.144 318.592 201.36 317.56 201.36ZM345.64 201.36C344.968 201.36 344.416 201.108 343.984 200.604C343.552 200.1 343.492 199.308 343.804 198.228L347.512 185.736C347.752 184.944 347.776 184.308 347.584 183.828C347.416 183.348 346.96 183.108 346.216 183.108C345.208 183.108 344.236 183.684 343.3 184.836C342.388 185.964 341.488 187.836 340.6 190.452C339.712 193.068 338.8 196.584 337.864 201H335.38L340.636 176.232H336.244L336.424 175.368L340.924 174.9L342.688 174H343.552L341.932 181.56L339.34 190.452H339.88C340.216 189.42 340.612 188.364 341.068 187.284C341.524 186.204 342.052 185.208 342.652 184.296C343.252 183.36 343.936 182.616 344.704 182.064C345.496 181.488 346.372 181.2 347.332 181.2C348.436 181.2 349.252 181.584 349.78 182.352C350.332 183.12 350.404 184.176 349.996 185.52L346.288 197.976C346.264 198.096 346.228 198.276 346.18 198.516C346.132 198.756 346.156 198.984 346.252 199.2C346.348 199.392 346.588 199.488 346.972 199.488C347.452 199.488 347.86 199.284 348.196 198.876C348.556 198.468 349 197.904 349.528 197.184L350.5 195.888L351.112 196.32L350.248 197.508C349.504 198.54 348.784 199.44 348.088 200.208C347.416 200.976 346.6 201.36 345.64 201.36ZM361.336 201.36C360.136 201.36 359.308 200.844 358.852 199.812C358.42 198.78 358.492 197.412 359.068 195.708L362.776 184.584C362.872 184.296 362.92 183.972 362.92 183.612C362.944 183.252 362.716 183.072 362.236 183.072C361.78 183.072 361.384 183.276 361.048 183.684C360.712 184.092 360.268 184.656 359.716 185.376L358.78 186.636L358.168 186.168L358.996 185.052C359.764 183.996 360.472 183.096 361.12 182.352C361.792 181.584 362.548 181.2 363.388 181.2C364.06 181.2 364.612 181.452 365.044 181.956C365.5 182.46 365.548 183.252 365.188 184.332L361.3 196.104C360.964 197.136 360.892 197.952 361.084 198.552C361.3 199.152 361.78 199.452 362.524 199.452C363.508 199.452 364.456 198.876 365.368 197.724C366.28 196.548 367.18 194.652 368.068 192.036C368.956 189.42 369.856 185.928 370.768 181.56H373.252L369.76 197.976C369.688 198.312 369.64 198.648 369.616 198.984C369.616 199.32 369.808 199.488 370.192 199.488C370.576 199.488 370.948 199.284 371.308 198.876C371.668 198.468 372.112 197.904 372.64 197.184L373.576 195.924L374.188 196.392L373.36 197.508C372.592 198.54 371.884 199.44 371.236 200.208C370.588 200.976 369.844 201.36 369.004 201.36C368.356 201.36 367.816 201.108 367.384 200.604C366.952 200.1 366.916 199.308 367.276 198.228L369.292 192.108H368.752C368.44 193.044 368.056 194.052 367.6 195.132C367.168 196.188 366.652 197.196 366.052 198.156C365.452 199.092 364.756 199.86 363.964 200.46C363.196 201.06 362.32 201.36 361.336 201.36ZM387.724 201.36C386.548 201.36 385.564 201.132 384.772 200.676C383.98 200.196 383.428 199.728 383.116 199.272L388.012 176.232H383.62L383.8 175.368L388.3 174.9L390.064 174H390.928L389.344 181.56L386.644 189.048H387.184C387.448 188.328 387.76 187.524 388.12 186.636C388.48 185.724 388.924 184.86 389.452 184.044C389.98 183.204 390.604 182.52 391.324 181.992C392.068 181.464 392.92 181.2 393.88 181.2C395.152 181.2 396.088 181.704 396.688 182.712C397.312 183.696 397.624 185.052 397.624 186.78C397.624 187.932 397.48 189.18 397.192 190.524C396.928 191.844 396.52 193.14 395.968 194.412C395.44 195.684 394.78 196.848 393.988 197.904C393.196 198.96 392.272 199.8 391.216 200.424C390.184 201.048 389.02 201.36 387.724 201.36ZM388.3 200.208C389.5 200.208 390.568 199.728 391.504 198.768C392.44 197.808 393.112 196.368 393.52 194.448L395.212 186.6C395.5 185.256 395.428 184.236 394.996 183.54C394.564 182.844 393.964 182.496 393.196 182.496C392.332 182.496 391.516 182.904 390.748 183.72C389.98 184.512 389.284 185.616 388.66 187.032C388.06 188.448 387.556 190.104 387.148 192L386.068 196.968C385.876 197.856 385.936 198.624 386.248 199.272C386.56 199.896 387.244 200.208 388.3 200.208ZM415.12 174.36H417.64L412.528 194.808H411.52L415.12 174.36ZM410.62 201.36C410.14 201.36 409.744 201.216 409.432 200.928C409.144 200.64 409 200.268 409 199.812C409 199.188 409.252 198.636 409.756 198.156C410.26 197.652 410.824 197.4 411.448 197.4C411.928 197.4 412.312 197.544 412.6 197.832C412.912 198.12 413.068 198.492 413.068 198.948C413.068 199.572 412.816 200.136 412.312 200.64C411.808 201.12 411.244 201.36 410.62 201.36Z" fill="#011ECB"/>
<path d="M83.704 244.36C82.096 244.36 80.884 243.94 80.068 243.1C79.276 242.26 78.88 241.168 78.88 239.824C78.88 238.768 79.084 237.748 79.492 236.764C79.9 235.756 80.404 234.808 81.004 233.92C81.628 233.032 82.264 232.228 82.912 231.508C83.56 230.764 84.124 230.14 84.604 229.636L87.016 227.08C86.488 227.08 85.912 226.996 85.288 226.828C84.688 226.636 84.04 226.456 83.344 226.288C82.672 226.12 81.94 226.036 81.148 226.036C80.452 226.036 79.948 226.12 79.636 226.288C79.324 226.432 79.156 226.576 79.132 226.72L80.032 226.9C80.536 226.996 80.872 227.164 81.04 227.404C81.232 227.644 81.328 227.932 81.328 228.268C81.328 228.796 81.16 229.192 80.824 229.456C80.512 229.72 80.14 229.852 79.708 229.852C79.3 229.828 78.928 229.672 78.592 229.384C78.28 229.096 78.124 228.676 78.124 228.124C78.124 227.668 78.268 227.14 78.556 226.54C78.844 225.916 79.276 225.376 79.852 224.92C80.452 224.44 81.196 224.2 82.084 224.2C82.732 224.2 83.284 224.32 83.74 224.56C84.196 224.8 84.592 225.076 84.928 225.388C85.288 225.7 85.612 225.976 85.9 226.216C86.188 226.456 86.488 226.576 86.8 226.576H86.872L86.656 224.56H89.104L85.936 229.312C85.24 230.344 84.556 231.4 83.884 232.48C83.236 233.536 82.696 234.628 82.264 235.756C81.832 236.86 81.616 238 81.616 239.176C81.616 240.448 81.904 241.408 82.48 242.056C83.08 242.704 83.884 243.028 84.892 243.028C86.02 243.028 87.04 242.692 87.952 242.02C88.888 241.324 89.692 240.424 90.364 239.32C91.06 238.216 91.588 237.016 91.948 235.72C92.332 234.424 92.524 233.152 92.524 231.904C92.524 230.848 92.404 230.032 92.164 229.456C91.948 228.856 91.684 228.388 91.372 228.052C91.06 227.716 90.784 227.404 90.544 227.116C90.328 226.804 90.22 226.396 90.22 225.892C90.22 225.268 90.4 224.836 90.76 224.596C91.144 224.332 91.504 224.2 91.84 224.2C92.608 224.2 93.136 224.668 93.424 225.604C93.712 226.516 93.856 227.668 93.856 229.06C93.856 231.052 93.628 232.96 93.172 234.784C92.74 236.608 92.08 238.24 91.192 239.68C90.328 241.12 89.272 242.26 88.024 243.1C86.776 243.94 85.336 244.36 83.704 244.36ZM110.524 221.32C110.068 221.32 109.684 221.176 109.372 220.888C109.06 220.6 108.904 220.228 108.904 219.772C108.904 219.148 109.156 218.596 109.66 218.116C110.164 217.612 110.728 217.36 111.352 217.36C111.832 217.36 112.216 217.504 112.504 217.792C112.816 218.08 112.972 218.452 112.972 218.908C112.972 219.532 112.72 220.096 112.216 220.6C111.712 221.08 111.148 221.32 110.524 221.32ZM108.112 244.36C107.008 244.36 106.18 243.976 105.628 243.208C105.076 242.44 104.944 241.408 105.232 240.112L108.256 226.288H102.172V225.424L108.544 224.956L110.308 224.056H111.172L107.644 240.112C107.476 240.88 107.512 241.48 107.752 241.912C108.016 242.344 108.472 242.56 109.12 242.56C109.864 242.56 110.584 242.224 111.28 241.552C112 240.856 112.792 239.944 113.656 238.816L114.448 237.772L115.132 238.276L114.34 239.356C113.092 241.036 112.024 242.296 111.136 243.136C110.248 243.952 109.24 244.36 108.112 244.36ZM130.612 244.36C128.956 244.36 127.636 243.724 126.652 242.452C125.692 241.156 125.212 239.416 125.212 237.232C125.212 235.672 125.464 234.124 125.968 232.588C126.472 231.052 127.168 229.648 128.056 228.376C128.968 227.104 130.024 226.096 131.224 225.352C132.448 224.584 133.768 224.2 135.184 224.2C136.528 224.2 137.608 224.56 138.424 225.28C139.264 225.976 139.684 226.948 139.684 228.196C139.684 229.396 139.312 230.392 138.568 231.184C137.848 231.976 136.9 232.6 135.724 233.056C134.572 233.512 133.336 233.824 132.016 233.992C130.72 234.136 129.496 234.172 128.344 234.1L127.912 236.08C127.456 238.336 127.516 240.076 128.092 241.3C128.668 242.5 129.652 243.1 131.044 243.1C131.884 243.1 132.616 242.908 133.24 242.524C133.888 242.14 134.428 241.672 134.86 241.12C135.316 240.544 135.676 239.98 135.94 239.428C136.228 238.876 136.432 238.444 136.552 238.132L137.092 236.656L137.992 236.944L137.56 238.132C137.344 238.756 137.032 239.428 136.624 240.148C136.24 240.868 135.76 241.552 135.184 242.2C134.632 242.824 133.972 243.34 133.204 243.748C132.46 244.156 131.596 244.36 130.612 244.36ZM128.668 232.48L128.488 233.308C129.952 233.404 131.356 233.296 132.7 232.984C134.044 232.648 135.148 232.096 136.012 231.328C136.876 230.536 137.308 229.516 137.308 228.268C137.308 227.356 137.044 226.636 136.516 226.108C136.012 225.58 135.316 225.316 134.428 225.316C133.012 225.316 131.812 225.964 130.828 227.26C129.868 228.532 129.148 230.272 128.668 232.48ZM149.548 244.36C148.66 244.36 147.952 244.072 147.424 243.496C146.92 242.896 146.668 241.984 146.668 240.76C146.668 239.488 146.932 238.156 147.46 236.764C147.988 235.372 148.708 233.992 149.62 232.624C150.556 231.256 151.612 229.972 152.788 228.772L154.444 227.08C153.988 227.08 153.52 226.996 153.04 226.828C152.56 226.636 152.068 226.456 151.564 226.288C151.084 226.12 150.604 226.036 150.124 226.036C149.716 226.036 149.392 226.12 149.152 226.288C148.912 226.432 148.768 226.576 148.72 226.72L149.62 226.9C149.74 226.924 149.98 227.02 150.34 227.188C150.7 227.332 150.88 227.68 150.88 228.232C150.88 228.76 150.7 229.168 150.34 229.456C149.98 229.72 149.608 229.852 149.224 229.852C148.912 229.852 148.576 229.72 148.216 229.456C147.856 229.192 147.676 228.748 147.676 228.124C147.676 227.548 147.844 226.96 148.18 226.36C148.516 225.736 148.972 225.22 149.548 224.812C150.148 224.404 150.796 224.2 151.492 224.2C152.044 224.2 152.464 224.32 152.752 224.56C153.064 224.8 153.292 225.076 153.436 225.388C153.604 225.7 153.736 225.976 153.832 226.216C153.952 226.456 154.084 226.576 154.228 226.576H154.3L154.084 224.56H156.532L153.364 229.312C152.596 230.464 151.876 231.664 151.204 232.912C150.556 234.16 150.028 235.384 149.62 236.584C149.212 237.76 149.008 238.864 149.008 239.896C149.008 241.504 149.584 242.308 150.736 242.308C151.456 242.308 152.056 242.08 152.536 241.624C153.016 241.168 153.4 240.664 153.688 240.112C153.976 239.56 154.168 239.152 154.264 238.888L154.696 237.844C154.696 237.004 154.732 236.14 154.804 235.252C154.9 234.364 155.032 233.536 155.2 232.768C155.368 232 155.596 231.376 155.884 230.896C156.172 230.416 156.52 230.176 156.928 230.176C157.168 230.176 157.36 230.272 157.504 230.464C157.648 230.656 157.72 231.016 157.72 231.544C157.72 232.192 157.6 232.912 157.36 233.704C157.144 234.496 156.868 235.264 156.532 236.008C156.22 236.752 155.908 237.388 155.596 237.916V238.744C155.596 238.936 155.608 239.236 155.632 239.644C155.656 240.028 155.716 240.436 155.812 240.868C155.932 241.276 156.112 241.636 156.352 241.948C156.616 242.236 156.976 242.38 157.432 242.38C158.128 242.38 158.764 242.032 159.34 241.336C159.94 240.64 160.456 239.752 160.888 238.672C161.344 237.592 161.692 236.464 161.932 235.288C162.196 234.088 162.328 232.984 162.328 231.976C162.328 230.968 162.22 230.188 162.004 229.636C161.788 229.06 161.536 228.616 161.248 228.304C160.96 227.992 160.72 227.716 160.528 227.476C160.432 227.332 160.3 227.128 160.132 226.864C159.964 226.576 159.88 226.24 159.88 225.856C159.88 225.4 160.024 225.016 160.312 224.704C160.6 224.392 160.972 224.236 161.428 224.236C162.172 224.236 162.7 224.68 163.012 225.568C163.348 226.432 163.516 227.788 163.516 229.636C163.516 231.556 163.36 233.404 163.048 235.18C162.736 236.932 162.292 238.504 161.716 239.896C161.14 241.264 160.468 242.356 159.7 243.172C158.956 243.964 158.152 244.36 157.288 244.36C156.592 244.36 156.064 244.132 155.704 243.676C155.368 243.22 155.14 242.668 155.02 242.02C154.9 241.372 154.84 240.784 154.84 240.256H154.444C154.276 240.664 153.988 241.204 153.58 241.876C153.172 242.524 152.632 243.1 151.96 243.604C151.288 244.108 150.484 244.36 149.548 244.36ZM205.384 244.36C204.784 244.36 204.364 244.108 204.124 243.604C203.884 243.1 203.92 242.308 204.232 241.228L208.228 228.016C208.3 227.824 208.36 227.584 208.408 227.296C208.48 226.984 208.492 226.708 208.444 226.468C208.42 226.228 208.264 226.108 207.976 226.108C207.592 226.108 207.208 226.348 206.824 226.828C206.44 227.308 206.068 227.932 205.708 228.7C205.372 229.468 205.048 230.296 204.736 231.184C204.448 232.072 204.172 232.924 203.908 233.74L200.704 244H198.94L202.936 227.944C203.032 227.608 203.08 227.224 203.08 226.792C203.104 226.336 202.936 226.108 202.576 226.108C202.288 226.108 201.964 226.336 201.604 226.792C201.244 227.224 200.848 227.98 200.416 229.06C200.008 230.14 199.564 231.628 199.084 233.524L196.42 244H194.476L197.968 227.584C198.04 227.248 198.076 226.912 198.076 226.576C198.076 226.24 197.92 226.072 197.608 226.072C197.416 226.072 197.188 226.216 196.924 226.504C196.66 226.768 196.168 227.392 195.448 228.376L194.512 229.636L193.9 229.168L194.728 228.052C195.712 226.708 196.468 225.736 196.996 225.136C197.524 224.512 198.052 224.2 198.58 224.2C199.036 224.2 199.396 224.452 199.66 224.956C199.948 225.436 199.948 226.228 199.66 227.332L198.076 233.452H198.472L198.688 232.624C198.88 231.904 199.108 231.076 199.372 230.14C199.66 229.18 199.996 228.244 200.38 227.332C200.788 226.42 201.244 225.676 201.748 225.1C202.252 224.5 202.828 224.2 203.476 224.2C204.028 224.2 204.472 224.464 204.808 224.992C205.144 225.52 205.12 226.42 204.736 227.692L202.972 233.452H203.368L203.62 232.66C204.076 231.244 204.544 229.9 205.024 228.628C205.504 227.332 206.056 226.276 206.68 225.46C207.304 224.62 208.036 224.2 208.876 224.2C209.644 224.2 210.148 224.584 210.388 225.352C210.628 226.12 210.544 227.176 210.136 228.52L206.356 240.976C206.332 241.072 206.284 241.24 206.212 241.48C206.164 241.72 206.152 241.948 206.176 242.164C206.224 242.38 206.356 242.488 206.572 242.488C206.86 242.488 207.184 242.284 207.544 241.876C207.904 241.468 208.348 240.904 208.876 240.184L210.604 237.88L211.216 238.312L209.596 240.508C208.756 241.66 208.012 242.596 207.364 243.316C206.716 244.012 206.056 244.36 205.384 244.36ZM214.6 250.84C213.352 250.84 212.428 250.588 211.828 250.084C211.228 249.58 210.928 248.98 210.928 248.284C210.928 247.684 211.12 247.18 211.504 246.772C211.864 246.388 212.344 246.196 212.944 246.196C213.76 246.196 214.3 246.496 214.564 247.096C214.804 247.696 214.9 248.308 214.852 248.932L214.78 249.976C216.628 249.976 218.176 249.304 219.424 247.96C220.672 246.64 221.62 244.804 222.268 242.452C222.916 240.076 223.24 237.328 223.24 234.208C223.24 231.112 222.952 228.928 222.376 227.656C221.824 226.384 221.14 225.748 220.324 225.748C219.964 225.748 219.616 225.88 219.28 226.144C218.968 226.384 218.548 226.792 218.02 227.368L217.264 228.196L216.796 227.764L217.552 226.864C218.152 226.144 218.752 225.52 219.352 224.992C219.976 224.464 220.696 224.2 221.512 224.2C222.712 224.2 223.684 224.908 224.428 226.324C225.172 227.74 225.544 230.056 225.544 233.272C225.544 235.24 225.4 237.064 225.112 238.744C224.848 240.4 224.524 241.84 224.14 243.064C223.756 244.288 223.372 245.224 222.988 245.872C224.044 244.816 225.028 243.64 225.94 242.344C226.876 241.024 227.692 239.68 228.388 238.312C229.108 236.944 229.672 235.624 230.08 234.352C230.488 233.056 230.692 231.928 230.692 230.968C230.692 230.128 230.572 229.468 230.332 228.988C230.092 228.484 229.84 228.028 229.576 227.62C229.336 227.212 229.216 226.72 229.216 226.144C229.216 225.52 229.372 225.04 229.684 224.704C230.02 224.368 230.44 224.2 230.944 224.2C231.496 224.2 231.94 224.452 232.276 224.956C232.612 225.436 232.78 226.264 232.78 227.44C232.78 228.808 232.54 230.332 232.06 232.012C231.604 233.668 230.956 235.384 230.116 237.16C229.276 238.912 228.28 240.604 227.128 242.236C226 243.844 224.752 245.296 223.384 246.592C222.04 247.912 220.624 248.944 219.136 249.688C217.648 250.456 216.136 250.84 214.6 250.84ZM269.068 251.668C267.796 251.668 266.608 251.5 265.504 251.164C264.4 250.852 263.512 250.36 262.84 249.688C262.168 249.016 261.832 248.164 261.832 247.132C261.832 246.34 262.048 245.632 262.48 245.008C262.888 244.408 263.416 243.892 264.064 243.46C264.736 243.004 265.456 242.644 266.224 242.38C266.992 242.116 267.736 241.936 268.456 241.84V241.588C268.024 241.348 267.64 241.036 267.304 240.652C266.968 240.268 266.8 239.776 266.8 239.176C266.8 238.384 267.064 237.736 267.592 237.232C268.144 236.704 268.684 236.296 269.212 236.008V235.828C268.348 235.468 267.712 234.904 267.304 234.136C266.896 233.344 266.692 232.468 266.692 231.508C266.692 230.188 267.028 228.976 267.7 227.872C268.372 226.768 269.26 225.88 270.364 225.208C271.492 224.536 272.716 224.2 274.036 224.2C274.444 224.2 274.804 224.236 275.116 224.308C275.452 224.356 275.764 224.44 276.052 224.56H282.28L282.064 225.676H277.6C277.96 226.108 278.224 226.6 278.392 227.152C278.56 227.704 278.644 228.292 278.644 228.916C278.644 230.236 278.308 231.448 277.636 232.552C276.964 233.656 276.076 234.544 274.972 235.216C273.868 235.888 272.644 236.224 271.3 236.224C271.132 236.224 270.964 236.224 270.796 236.224C270.652 236.2 270.508 236.176 270.364 236.152C270.052 236.272 269.692 236.464 269.284 236.728C268.9 236.992 268.708 237.388 268.708 237.916C268.708 238.492 268.936 238.9 269.392 239.14C269.848 239.38 270.292 239.596 270.724 239.788L273.352 240.832C273.76 241 274.24 241.204 274.792 241.444C275.344 241.66 275.884 241.96 276.412 242.344C276.94 242.704 277.372 243.172 277.708 243.748C278.068 244.3 278.248 244.984 278.248 245.8C278.248 247.072 277.804 248.14 276.916 249.004C276.028 249.892 274.888 250.552 273.496 250.984C272.104 251.44 270.628 251.668 269.068 251.668ZM271.444 235.216C272.668 235.216 273.652 234.808 274.396 233.992C275.14 233.176 275.632 232.168 275.872 230.968L276.196 229.456C276.46 228.16 276.412 227.128 276.052 226.36C275.692 225.592 274.948 225.208 273.82 225.208C272.62 225.208 271.648 225.616 270.904 226.432C270.184 227.248 269.692 228.256 269.428 229.456L269.104 230.968C268.84 232.264 268.876 233.296 269.212 234.064C269.572 234.832 270.316 235.216 271.444 235.216ZM269.896 250.372C271 250.372 272.02 250.228 272.956 249.94C273.892 249.676 274.648 249.268 275.224 248.716C275.824 248.188 276.124 247.528 276.124 246.736C276.124 245.992 275.908 245.392 275.476 244.936C275.068 244.48 274.576 244.12 274 243.856C273.424 243.592 272.92 243.376 272.488 243.208L269.716 242.128L268.816 242.38C268.072 242.572 267.316 242.836 266.548 243.172C265.804 243.484 265.18 243.904 264.676 244.432C264.172 244.984 263.92 245.68 263.92 246.52C263.92 247.744 264.472 248.692 265.576 249.364C266.704 250.036 268.144 250.372 269.896 250.372ZM297.724 221.32C297.268 221.32 296.884 221.176 296.572 220.888C296.26 220.6 296.104 220.228 296.104 219.772C296.104 219.148 296.356 218.596 296.86 218.116C297.364 217.612 297.928 217.36 298.552 217.36C299.032 217.36 299.416 217.504 299.704 217.792C300.016 218.08 300.172 218.452 300.172 218.908C300.172 219.532 299.92 220.096 299.416 220.6C298.912 221.08 298.348 221.32 297.724 221.32ZM295.312 244.36C294.208 244.36 293.38 243.976 292.828 243.208C292.276 242.44 292.144 241.408 292.432 240.112L295.456 226.288H289.372V225.424L295.744 224.956L297.508 224.056H298.372L294.844 240.112C294.676 240.88 294.712 241.48 294.952 241.912C295.216 242.344 295.672 242.56 296.32 242.56C297.064 242.56 297.784 242.224 298.48 241.552C299.2 240.856 299.992 239.944 300.856 238.816L301.648 237.772L302.332 238.276L301.54 239.356C300.292 241.036 299.224 242.296 298.336 243.136C297.448 243.952 296.44 244.36 295.312 244.36ZM317.56 244.36C316.024 244.36 314.968 243.856 314.392 242.848C313.816 241.816 313.696 240.484 314.032 238.852L316.804 225.712H311.764L312.124 224.56H317.056L317.632 220.708H320.332L319.504 224.56H327.316L326.956 225.712H319.252L316.48 238.852C316.24 239.956 316.288 240.856 316.624 241.552C316.984 242.224 317.644 242.56 318.604 242.56C319.372 242.56 320.056 242.368 320.656 241.984C321.256 241.576 321.796 241.084 322.276 240.508C322.78 239.908 323.236 239.344 323.644 238.816L324.436 237.772L325.12 238.276L324.328 239.356C323.656 240.268 322.996 241.108 322.348 241.876C321.7 242.644 320.992 243.256 320.224 243.712C319.48 244.144 318.592 244.36 317.56 244.36ZM345.64 244.36C344.968 244.36 344.416 244.108 343.984 243.604C343.552 243.1 343.492 242.308 343.804 241.228L347.512 228.736C347.752 227.944 347.776 227.308 347.584 226.828C347.416 226.348 346.96 226.108 346.216 226.108C345.208 226.108 344.236 226.684 343.3 227.836C342.388 228.964 341.488 230.836 340.6 233.452C339.712 236.068 338.8 239.584 337.864 244H335.38L340.636 219.232H336.244L336.424 218.368L340.924 217.9L342.688 217H343.552L341.932 224.56L339.34 233.452H339.88C340.216 232.42 340.612 231.364 341.068 230.284C341.524 229.204 342.052 228.208 342.652 227.296C343.252 226.36 343.936 225.616 344.704 225.064C345.496 224.488 346.372 224.2 347.332 224.2C348.436 224.2 349.252 224.584 349.78 225.352C350.332 226.12 350.404 227.176 349.996 228.52L346.288 240.976C346.264 241.096 346.228 241.276 346.18 241.516C346.132 241.756 346.156 241.984 346.252 242.2C346.348 242.392 346.588 242.488 346.972 242.488C347.452 242.488 347.86 242.284 348.196 241.876C348.556 241.468 349 240.904 349.528 240.184L350.5 238.888L351.112 239.32L350.248 240.508C349.504 241.54 348.784 242.44 348.088 243.208C347.416 243.976 346.6 244.36 345.64 244.36ZM361.336 244.36C360.136 244.36 359.308 243.844 358.852 242.812C358.42 241.78 358.492 240.412 359.068 238.708L362.776 227.584C362.872 227.296 362.92 226.972 362.92 226.612C362.944 226.252 362.716 226.072 362.236 226.072C361.78 226.072 361.384 226.276 361.048 226.684C360.712 227.092 360.268 227.656 359.716 228.376L358.78 229.636L358.168 229.168L358.996 228.052C359.764 226.996 360.472 226.096 361.12 225.352C361.792 224.584 362.548 224.2 363.388 224.2C364.06 224.2 364.612 224.452 365.044 224.956C365.5 225.46 365.548 226.252 365.188 227.332L361.3 239.104C360.964 240.136 360.892 240.952 361.084 241.552C361.3 242.152 361.78 242.452 362.524 242.452C363.508 242.452 364.456 241.876 365.368 240.724C366.28 239.548 367.18 237.652 368.068 235.036C368.956 232.42 369.856 228.928 370.768 224.56H373.252L369.76 240.976C369.688 241.312 369.64 241.648 369.616 241.984C369.616 242.32 369.808 242.488 370.192 242.488C370.576 242.488 370.948 242.284 371.308 241.876C371.668 241.468 372.112 240.904 372.64 240.184L373.576 238.924L374.188 239.392L373.36 240.508C372.592 241.54 371.884 242.44 371.236 243.208C370.588 243.976 369.844 244.36 369.004 244.36C368.356 244.36 367.816 244.108 367.384 243.604C366.952 243.1 366.916 242.308 367.276 241.228L369.292 235.108H368.752C368.44 236.044 368.056 237.052 367.6 238.132C367.168 239.188 366.652 240.196 366.052 241.156C365.452 242.092 364.756 242.86 363.964 243.46C363.196 244.06 362.32 244.36 361.336 244.36ZM387.724 244.36C386.548 244.36 385.564 244.132 384.772 243.676C383.98 243.196 383.428 242.728 383.116 242.272L388.012 219.232H383.62L383.8 218.368L388.3 217.9L390.064 217H390.928L389.344 224.56L386.644 232.048H387.184C387.448 231.328 387.76 230.524 388.12 229.636C388.48 228.724 388.924 227.86 389.452 227.044C389.98 226.204 390.604 225.52 391.324 224.992C392.068 224.464 392.92 224.2 393.88 224.2C395.152 224.2 396.088 224.704 396.688 225.712C397.312 226.696 397.624 228.052 397.624 229.78C397.624 230.932 397.48 232.18 397.192 233.524C396.928 234.844 396.52 236.14 395.968 237.412C395.44 238.684 394.78 239.848 393.988 240.904C393.196 241.96 392.272 242.8 391.216 243.424C390.184 244.048 389.02 244.36 387.724 244.36ZM388.3 243.208C389.5 243.208 390.568 242.728 391.504 241.768C392.44 240.808 393.112 239.368 393.52 237.448L395.212 229.6C395.5 228.256 395.428 227.236 394.996 226.54C394.564 225.844 393.964 225.496 393.196 225.496C392.332 225.496 391.516 225.904 390.748 226.72C389.98 227.512 389.284 228.616 388.66 230.032C388.06 231.448 387.556 233.104 387.148 235L386.068 239.968C385.876 240.856 385.936 241.624 386.248 242.272C386.56 242.896 387.244 243.208 388.3 243.208ZM415.12 217.36H417.64L412.528 237.808H411.52L415.12 217.36ZM410.62 244.36C410.14 244.36 409.744 244.216 409.432 243.928C409.144 243.64 409 243.268 409 242.812C409 242.188 409.252 241.636 409.756 241.156C410.26 240.652 410.824 240.4 411.448 240.4C411.928 240.4 412.312 240.544 412.6 240.832C412.912 241.12 413.068 241.492 413.068 241.948C413.068 242.572 412.816 243.136 412.312 243.64C411.808 244.12 411.244 244.36 410.62 244.36Z" fill="#011ECB"/>
<path d="M240.523 103.236C240.071 103.718 239.704 104.314 239.436 104.931C238.809 105.014 238.17 105.037 237.72 105.037C237.185 105.037 236.947 104.99 236.782 104.904C236.616 104.819 236.459 104.663 236.168 104.269L236.167 104.268C235.545 103.432 234.839 102.804 233.94 102.542L233.897 102.53L233.853 102.525C233.53 102.49 233.145 102.59 232.935 102.907C232.823 103.077 232.781 103.288 232.836 103.501C232.888 103.703 233.016 103.862 233.161 103.98L233.172 103.989L233.183 103.997C233.672 104.35 233.945 104.819 234.158 105.351C234.243 105.563 234.314 105.774 234.388 105.993C234.409 106.054 234.429 106.116 234.451 106.179C234.546 106.456 234.651 106.748 234.791 107.015L234.791 107.015C235.33 108.044 236.42 108.558 237.567 108.558H237.569H237.57H237.572H237.573H237.575H237.576H237.578H237.58H237.581H237.583H237.584H237.586H237.588H237.59H237.591H237.593H237.595H237.596H237.598H237.6H237.602H237.604H237.606H237.607H237.609H237.611H237.613H237.615H237.617H237.619H237.621H237.623H237.625H237.627H237.629H237.631H237.633H237.635H237.637H237.639H237.641H237.644H237.646H237.648H237.65H237.652H237.654H237.657H237.659H237.661H237.663H237.666H237.668H237.67H237.673H237.675H237.677H237.68H237.682H237.685H237.687H237.689H237.692H237.694H237.697H237.699H237.702H237.704H237.707H237.709H237.712H237.714H237.717H237.72H237.722H237.725H237.727H237.73H237.733H237.735H237.738H237.741H237.743H237.746H237.749H237.752H237.754H237.757H237.76H237.763H237.766H237.768H237.771H237.774H237.777H237.78H237.783H237.786H237.789H237.791H237.794H237.797H237.8H237.803H237.806H237.809H237.812H237.815H237.818H237.821H237.824H237.827H237.83H237.834H237.837H237.84H237.843H237.846H237.849H237.852H237.855H237.859H237.862H237.865H237.868H237.871H237.875H237.878H237.881H237.884H237.888H237.891H237.894H237.898H237.901H237.904H237.908H237.911H237.914H237.918H237.921H237.924H237.928H237.931H237.935H237.938H237.941H237.945H237.948H237.952H237.955H237.959H237.962H237.966H237.969H237.973H237.976H237.98H237.983H237.987H237.99H237.994H237.997H238.001H238.005H238.008H238.012H238.015H238.019H238.023H238.026H238.03H238.034H238.037H238.041H238.045H238.048H238.052H238.056H238.06H238.063H238.067H238.071H238.075H238.078H238.082H238.086H238.09H238.093H238.097H238.101H238.105H238.109H238.112H238.116H238.12H238.124H238.128H238.132H238.135H238.139H238.143H238.147H238.151H238.155H238.159H238.163H238.167H238.171H238.174H238.178H238.182H238.186H238.19H238.194H238.198H238.202H238.206H238.21H238.214H238.218H238.222H238.226H238.23H238.234H238.238H238.242H238.246H238.25H238.254H238.258H238.262H238.267H238.271H238.275H238.279H238.283H238.287H238.291H238.295H238.299H238.303H238.307H238.312H238.316H238.32H238.324H238.328H238.332H238.336H238.34H238.345H238.349H238.353H238.357H238.361H238.365H238.37H238.374H238.378H238.382H238.386H238.391H238.395H238.399H238.403H238.407H238.412H238.416H238.42H238.424H238.428H238.433H238.437H238.441H238.445H238.45H238.454H238.458H238.462H238.467H238.471H238.475H238.479H238.484H238.488H238.492H238.496H238.501H238.505H238.509H238.514H238.518H238.522H238.526H238.531H238.535H238.539H238.544H238.548H238.552H238.556H238.561H238.565H238.569H238.574H238.578H238.582H238.587H238.591H238.595H238.599H238.604H238.608H238.612H238.617H238.621H238.625H238.63H238.634H238.638H238.643H238.647H238.651H238.656H238.66H238.664H238.669H238.673H238.677H238.682H238.686H238.69H238.694H238.699H238.703H238.707H238.712H238.716H238.72H238.725H238.729H238.733H238.738H238.742H238.746H238.751H238.755H238.759H238.764H238.768H238.772H238.777H238.781H238.785H238.789H238.794H238.798H238.802H238.807H238.811H238.815H238.82H238.824H238.828H238.832H238.837H238.841H238.845H238.85H238.854H238.858H238.862H238.867H238.871H238.875H238.88H238.884H238.888H238.892H238.897H238.901H238.905H238.909H238.914H238.914V110.649C238.914 110.662 238.914 110.676 238.915 110.69C233.12 108.85 228.891 103.295 228.891 96.6928C228.891 88.5821 235.262 82.0327 243.089 82.0327C250.915 82.0327 257.287 88.5821 257.287 96.6928C257.287 102.819 253.644 108.045 248.488 110.237V107.195C248.488 106.333 248.216 105.362 247.773 104.515C247.531 104.053 247.23 103.61 246.876 103.234C248.828 102.871 250.357 102.153 251.447 101.132C252.752 99.9083 253.382 98.2913 253.382 96.4654C253.382 94.9456 252.79 93.4957 251.806 92.2708C251.964 91.6642 252.121 90.8452 252.156 90.0434C252.177 89.5822 252.157 89.109 252.065 88.6773C251.973 88.2489 251.802 87.8237 251.489 87.5011L251.342 87.3494H251.13C249.06 87.3494 247.694 88.5227 247.117 89.1422C246.052 88.8018 244.898 88.6127 243.695 88.6127C242.494 88.6127 241.345 88.8018 240.283 89.1401C239.706 88.5213 238.341 87.3494 236.273 87.3494H236.061L235.913 87.5016C235.602 87.8236 235.431 88.2476 235.339 88.6747C235.247 89.1052 235.227 89.5769 235.247 90.0369C235.28 90.8367 235.436 91.654 235.592 92.2606C234.602 93.4882 234.006 94.9422 234.006 96.4654C234.006 98.2927 234.637 99.9107 235.944 101.135C237.036 102.156 238.567 102.874 240.523 103.236Z" fill="#011ECB" stroke="#011ECB"/>
<path d="M263.678 96.5573C263.678 108.197 254.449 117.615 243.089 117.615C231.728 117.615 222.5 108.197 222.5 96.5573C222.5 84.9172 231.728 75.5 243.089 75.5C254.449 75.5 263.678 84.9172 263.678 96.5573Z" stroke="#011ECB"/>
<g filter="url(#filter0_d_430_306)">
<path d="M191.331 0.536548C141.502 -6.02444 132.167 49.3025 109.276 72.7549C93.8876 88.5265 66.2812 90.8134 45.3187 99.2197C27.64 106.301 12.844 121.047 5.78018 135.983C-1.95189 152.37 -1.97098 169.592 5.99019 185.916C13.7795 201.893 28.3273 211.198 45.6815 219.683C57.6328 225.534 67.0258 232.364 67.3122 244.697C67.6176 257.172 57.2891 267.487 48.7361 276.84C35.3911 291.413 29.5682 306.096 34.9902 324.107C45.0324 357.417 85.4301 372.936 124.167 370.807C164.393 368.599 197.975 347.481 227.185 325.574C240.95 315.259 256.491 306.301 273.845 300.529C295.915 293.211 318.481 296.034 340.761 301.175C352.006 303.762 362.563 307.799 374.018 310.102C385.301 312.373 396.871 313.556 408.478 312.815C429.078 311.49 446.108 301.916 458.422 288.653C473.027 272.944 475.642 252.441 472.76 233.341C469.476 211.514 452.79 191.688 454.069 169.387C455.157 150.619 477.59 137.008 493.13 125.637C508.537 114.376 519.133 101.538 521.443 84.3312C526.139 49.1133 500.729 17.9799 461.438 5.36265C441.812 -0.930222 419.15 -0.141619 399.028 4.03785C375.087 9.02168 354.163 21.6232 332.284 30.5973C320.104 35.5969 306.854 39.3032 293.146 39.4767C279.324 39.6502 266.514 34.6032 254.982 28.8151C234.096 18.3269 216.379 3.80129 191.293 0.505023L191.331 0.536548ZM357.37 23.5946C379.345 12.0498 402.923 6.54555 428.944 8.87974C451.492 10.8985 473.905 19.3994 489.064 33.4046C503.211 46.4635 509.205 65.1688 507.773 82.3598C506.246 100.655 493.168 115.401 478.239 128.05C465.562 138.775 451.167 151.077 449.487 166.864C447.177 188.581 463.443 207.649 467.7 228.547C472.263 250.958 464.588 274.758 445.096 291.034C426.443 306.616 400.804 307.847 376.252 303.383C353.533 299.251 330.928 292.753 307.56 291.665C269.912 289.914 239.976 311.821 213.306 330.747C202.71 338.27 192.018 346.408 179.876 352.417C155.076 364.688 126.706 370.034 96.2359 364.183C72.2951 359.578 52.459 345.352 43.8487 326.363C39.9349 317.72 39.6676 308.888 41.3668 299.882C43.4859 288.653 52.1726 279.521 58.9501 269.979C68.7059 256.258 75.4834 239.508 60.9929 226.37C54.8645 220.819 46.006 217.444 38.4458 213.501C27.64 207.87 19.6597 199.511 14.0659 190.143C-9.53123 150.604 26.3036 109.944 70.3668 95.1979C90.9666 88.2899 107.462 80.7825 119.432 64.7429C131.766 48.2458 136.997 28.9412 155.019 15.5827C178.063 -1.49793 207.464 10.7566 228.445 23.642C247.25 35.1868 265.425 47.6937 290.149 47.1733C315.159 46.6528 337.076 34.2405 357.37 23.5946ZM162.045 334.942C166.436 331.504 159.677 325.905 155.401 329.454C140.471 341.866 119.929 347.623 98.9659 344.374C78.4425 341.204 63.9712 329.548 54.4063 314.849C54.349 314.755 54.1581 314.818 54.1963 314.928C68.725 352.748 129.055 360.792 162.026 334.958L162.045 334.942ZM172.488 322.278C172.488 327.877 182.988 327.877 182.988 322.278C182.988 316.679 172.488 316.679 172.488 322.278ZM198.605 310.102C198.605 311.821 201.851 311.821 201.851 310.102C201.851 308.383 198.605 308.383 198.605 310.102ZM438.395 251.305C433.851 264.301 421.289 276.587 406.836 282.801C389.425 290.293 369.226 288.463 351.948 281.981C351.815 281.934 351.7 282.076 351.834 282.139C381.464 296.775 422.301 287.738 439.75 263.607C448.838 251.053 450.308 236.149 446.07 222.159C440.8 204.716 427.78 189.512 428.429 170.917C428.448 170.129 428.085 170.318 428.009 171.075C424.572 198.644 448.112 223.5 438.395 251.305ZM248.319 56.4943C266.342 66.0361 291.168 66.7156 311.5 61.9999C315.853 60.9905 313.04 56.5101 308.916 57.8191C288.163 64.4274 268.633 63.4338 248.339 56.447C248.3 56.447 248.3 56.4785 248.319 56.4943Z" fill="#011ECB"/>
</g>
<defs>
<filter id="filter0_d_430_306" x="0" y="0" width="542" height="391" filterUnits="userSpaceOnUse" color-interpolation-filters="sRGB">
<feFlood flood-opacity="0" result="BackgroundImageFix"/>
<feColorMatrix in="SourceAlpha" type="matrix" values="0 0 0 0 0 0 0 0 0 0 0 0 0 0 0 0 0 0 127 0" result="hardAlpha"/>
<feOffset dx="10" dy="10"/>
<feGaussianBlur stdDeviation="5"/>
<feComposite in2="hardAlpha" operator="out"/>
<feColorMatrix type="matrix" values="0 0 0 0 0.232992 0 0 0 0 0.232992 0 0 0 0 0.232992 0 0 0 0.25 0"/>
<feBlend mode="normal" in2="BackgroundImageFix" result="effect1_dropShadow_430_306"/>
<feBlend mode="normal" in="SourceGraphic" in2="effect1_dropShadow_430_306" result="shape"/>
</filter>
</defs>
</svg>
