<svg width="124" height="144" viewBox="0 0 124 144" fill="none" xmlns="http://www.w3.org/2000/svg">
<g filter="url(#filter0_i_180_306)">
<path d="M94.0312 0H29.9688C13.4175 0 0 15.5817 0 34.8026V109.197C0 128.418 13.4175 144 29.9688 144H94.0312C110.583 144 124 128.418 124 109.197V34.8026C124 15.5817 110.583 0 94.0312 0Z" fill="#F5F1EA" fill-opacity="0.2"/>
</g>
<path d="M29.9688 0.5H94.0312C110.239 0.5 123.5 15.785 123.5 34.8026V109.197C123.5 128.215 110.239 143.5 94.0312 143.5H29.9688C13.7612 143.5 0.5 128.215 0.5 109.197V34.8026C0.5 15.785 13.7612 0.5 29.9688 0.5Z" stroke="#011ECB"/>
<g filter="url(#filter1_i_180_306)">
<path d="M35.3768 10.5H89.6232C103.288 10.5 114.5 23.6125 114.5 39.9689V104.031C114.5 120.387 103.288 133.5 89.6232 133.5H35.3768C21.7125 133.5 10.5 120.387 10.5 104.031V39.9689C10.5 23.6125 21.7125 10.5 35.3768 10.5Z" fill="#F5F1EA" stroke="#011ECB"/>
<path d="M40.284 45.16C39.5693 45.16 39.0307 44.9733 38.668 44.6C38.316 44.2267 38.14 43.7413 38.14 43.144C38.14 42.6747 38.2307 42.2213 38.412 41.784C38.5933 41.336 38.8173 40.9147 39.084 40.52C39.3613 40.1253 39.644 39.768 39.932 39.448C40.22 39.1173 40.4707 38.84 40.684 38.616L41.756 37.48C41.5213 37.48 41.2653 37.4427 40.988 37.368C40.7213 37.2827 40.4333 37.2027 40.124 37.128C39.8253 37.0533 39.5 37.016 39.148 37.016C38.8387 37.016 38.6147 37.0533 38.476 37.128C38.3373 37.192 38.2627 37.256 38.252 37.32L38.652 37.4C38.876 37.4427 39.0253 37.5173 39.1 37.624C39.1853 37.7307 39.228 37.8587 39.228 38.008C39.228 38.2427 39.1533 38.4187 39.004 38.536C38.8653 38.6533 38.7 38.712 38.508 38.712C38.3267 38.7013 38.1613 38.632 38.012 38.504C37.8733 38.376 37.804 38.1893 37.804 37.944C37.804 37.7413 37.868 37.5067 37.996 37.24C38.124 36.9627 38.316 36.7227 38.572 36.52C38.8387 36.3067 39.1693 36.2 39.564 36.2C39.852 36.2 40.0973 36.2533 40.3 36.36C40.5027 36.4667 40.6787 36.5893 40.828 36.728C40.988 36.8667 41.132 36.9893 41.26 37.096C41.388 37.2027 41.5213 37.256 41.66 37.256H41.692L41.596 36.36H42.684L41.276 38.472C40.9667 38.9307 40.6627 39.4 40.364 39.88C40.076 40.3493 39.836 40.8347 39.644 41.336C39.452 41.8267 39.356 42.3333 39.356 42.856C39.356 43.4213 39.484 43.848 39.74 44.136C40.0067 44.424 40.364 44.568 40.812 44.568C41.3133 44.568 41.7667 44.4187 42.172 44.12C42.588 43.8107 42.9453 43.4107 43.244 42.92C43.5533 42.4293 43.788 41.896 43.948 41.32C44.1187 40.744 44.204 40.1787 44.204 39.624C44.204 39.1547 44.1507 38.792 44.044 38.536C43.948 38.2693 43.8307 38.0613 43.692 37.912C43.5533 37.7627 43.4307 37.624 43.324 37.496C43.228 37.3573 43.18 37.176 43.18 36.952C43.18 36.6747 43.26 36.4827 43.42 36.376C43.5907 36.2587 43.7507 36.2 43.9 36.2C44.2413 36.2 44.476 36.408 44.604 36.824C44.732 37.2293 44.796 37.7413 44.796 38.36C44.796 39.2453 44.6947 40.0933 44.492 40.904C44.3 41.7147 44.0067 42.44 43.612 43.08C43.228 43.72 42.7587 44.2267 42.204 44.6C41.6493 44.9733 41.0093 45.16 40.284 45.16ZM48.844 34.92C48.6413 34.92 48.4707 34.856 48.332 34.728C48.1933 34.6 48.124 34.4347 48.124 34.232C48.124 33.9547 48.236 33.7093 48.46 33.496C48.684 33.272 48.9347 33.16 49.212 33.16C49.4253 33.16 49.596 33.224 49.724 33.352C49.8627 33.48 49.932 33.6453 49.932 33.848C49.932 34.1253 49.82 34.376 49.596 34.6C49.372 34.8133 49.1213 34.92 48.844 34.92ZM47.772 45.16C47.2813 45.16 46.9133 44.9893 46.668 44.648C46.4227 44.3067 46.364 43.848 46.492 43.272L47.836 37.128H45.132V36.744L47.964 36.536L48.748 36.136H49.132L47.564 43.272C47.4893 43.6133 47.5053 43.88 47.612 44.072C47.7293 44.264 47.932 44.36 48.22 44.36C48.5507 44.36 48.8707 44.2107 49.18 43.912C49.5 43.6027 49.852 43.1973 50.236 42.696L50.588 42.232L50.892 42.456L50.54 42.936C49.9853 43.6827 49.5107 44.2427 49.116 44.616C48.7213 44.9787 48.2733 45.16 47.772 45.16ZM54.412 45.16C53.676 45.16 53.0893 44.8773 52.652 44.312C52.2253 43.736 52.012 42.9627 52.012 41.992C52.012 41.2987 52.124 40.6107 52.348 39.928C52.572 39.2453 52.8813 38.6213 53.276 38.056C53.6813 37.4907 54.1507 37.0427 54.684 36.712C55.228 36.3707 55.8147 36.2 56.444 36.2C57.0413 36.2 57.5213 36.36 57.884 36.68C58.2573 36.9893 58.444 37.4213 58.444 37.976C58.444 38.5093 58.2787 38.952 57.948 39.304C57.628 39.656 57.2067 39.9333 56.684 40.136C56.172 40.3387 55.6227 40.4773 55.036 40.552C54.46 40.616 53.916 40.632 53.404 40.6L53.212 41.48C53.0093 42.4827 53.036 43.256 53.292 43.8C53.548 44.3333 53.9853 44.6 54.604 44.6C54.9773 44.6 55.3027 44.5147 55.58 44.344C55.868 44.1733 56.108 43.9653 56.3 43.72C56.5027 43.464 56.6627 43.2133 56.78 42.968C56.908 42.7227 56.9987 42.5307 57.052 42.392L57.292 41.736L57.692 41.864L57.5 42.392C57.404 42.6693 57.2653 42.968 57.084 43.288C56.9133 43.608 56.7 43.912 56.444 44.2C56.1987 44.4773 55.9053 44.7067 55.564 44.888C55.2333 45.0693 54.8493 45.16 54.412 45.16ZM53.548 39.88L53.468 40.248C54.1187 40.2907 54.7427 40.2427 55.34 40.104C55.9373 39.9547 56.428 39.7093 56.812 39.368C57.196 39.016 57.388 38.5627 57.388 38.008C57.388 37.6027 57.2707 37.2827 57.036 37.048C56.812 36.8133 56.5027 36.696 56.108 36.696C55.4787 36.696 54.9453 36.984 54.508 37.56C54.0813 38.1253 53.7613 38.8987 53.548 39.88ZM59.468 45.16C59.0733 45.16 58.7587 45.032 58.524 44.776C58.3 44.5093 58.188 44.104 58.188 43.56C58.188 42.9947 58.3053 42.4027 58.54 41.784C58.7747 41.1653 59.0947 40.552 59.5 39.944C59.916 39.336 60.3853 38.7653 60.908 38.232L61.644 37.48C61.4413 37.48 61.2333 37.4427 61.02 37.368C60.8067 37.2827 60.588 37.2027 60.364 37.128C60.1507 37.0533 59.9373 37.016 59.724 37.016C59.5427 37.016 59.3987 37.0533 59.292 37.128C59.1853 37.192 59.1213 37.256 59.1 37.32L59.5 37.4C59.5533 37.4107 59.66 37.4533 59.82 37.528C59.98 37.592 60.06 37.7467 60.06 37.992C60.06 38.2267 59.98 38.408 59.82 38.536C59.66 38.6533 59.4947 38.712 59.324 38.712C59.1853 38.712 59.036 38.6533 58.876 38.536C58.716 38.4187 58.636 38.2213 58.636 37.944C58.636 37.688 58.7107 37.4267 58.86 37.16C59.0093 36.8827 59.212 36.6533 59.468 36.472C59.7347 36.2907 60.0227 36.2 60.332 36.2C60.5773 36.2 60.764 36.2533 60.892 36.36C61.0307 36.4667 61.132 36.5893 61.196 36.728C61.2707 36.8667 61.3293 36.9893 61.372 37.096C61.4253 37.2027 61.484 37.256 61.548 37.256H61.58L61.484 36.36H62.572L61.164 38.472C60.8227 38.984 60.5027 39.5173 60.204 40.072C59.916 40.6267 59.6813 41.1707 59.5 41.704C59.3187 42.2267 59.228 42.7173 59.228 43.176C59.228 43.8907 59.484 44.248 59.996 44.248C60.316 44.248 60.5827 44.1467 60.796 43.944C61.0093 43.7413 61.18 43.5173 61.308 43.272C61.436 43.0267 61.5213 42.8453 61.564 42.728L61.756 42.264C61.756 41.8907 61.772 41.5067 61.804 41.112C61.8467 40.7173 61.9053 40.3493 61.98 40.008C62.0547 39.6667 62.156 39.3893 62.284 39.176C62.412 38.9627 62.5667 38.856 62.748 38.856C62.8547 38.856 62.94 38.8987 63.004 38.984C63.068 39.0693 63.1 39.2293 63.1 39.464C63.1 39.752 63.0467 40.072 62.94 40.424C62.844 40.776 62.7213 41.1173 62.572 41.448C62.4333 41.7787 62.2947 42.0613 62.156 42.296V42.664C62.156 42.7493 62.1613 42.8827 62.172 43.064C62.1827 43.2347 62.2093 43.416 62.252 43.608C62.3053 43.7893 62.3853 43.9493 62.492 44.088C62.6093 44.216 62.7693 44.28 62.972 44.28C63.2813 44.28 63.564 44.1253 63.82 43.816C64.0867 43.5067 64.316 43.112 64.508 42.632C64.7107 42.152 64.8653 41.6507 64.972 41.128C65.0893 40.5947 65.148 40.104 65.148 39.656C65.148 39.208 65.1 38.8613 65.004 38.616C64.908 38.36 64.796 38.1627 64.668 38.024C64.54 37.8853 64.4333 37.7627 64.348 37.656C64.3053 37.592 64.2467 37.5013 64.172 37.384C64.0973 37.256 64.06 37.1067 64.06 36.936C64.06 36.7333 64.124 36.5627 64.252 36.424C64.38 36.2853 64.5453 36.216 64.748 36.216C65.0787 36.216 65.3133 36.4133 65.452 36.808C65.6013 37.192 65.676 37.7947 65.676 38.616C65.676 39.4693 65.6067 40.2907 65.468 41.08C65.3293 41.8587 65.132 42.5573 64.876 43.176C64.62 43.784 64.3213 44.2693 63.98 44.632C63.6493 44.984 63.292 45.16 62.908 45.16C62.5987 45.16 62.364 45.0587 62.204 44.856C62.0547 44.6533 61.9533 44.408 61.9 44.12C61.8467 43.832 61.82 43.5707 61.82 43.336H61.644C61.5693 43.5173 61.4413 43.7573 61.26 44.056C61.0787 44.344 60.8387 44.6 60.54 44.824C60.2413 45.048 59.884 45.16 59.468 45.16ZM77.564 45.16C77.2973 45.16 77.1107 45.048 77.004 44.824C76.8973 44.6 76.9133 44.248 77.052 43.768L78.828 37.896C78.86 37.8107 78.8867 37.704 78.908 37.576C78.94 37.4373 78.9453 37.3147 78.924 37.208C78.9133 37.1013 78.844 37.048 78.716 37.048C78.5453 37.048 78.3747 37.1547 78.204 37.368C78.0333 37.5813 77.868 37.8587 77.708 38.2C77.5587 38.5413 77.4147 38.9093 77.276 39.304C77.148 39.6987 77.0253 40.0773 76.908 40.44L75.484 45H74.7L76.476 37.864C76.5187 37.7147 76.54 37.544 76.54 37.352C76.5507 37.1493 76.476 37.048 76.316 37.048C76.188 37.048 76.044 37.1493 75.884 37.352C75.724 37.544 75.548 37.88 75.356 38.36C75.1747 38.84 74.9773 39.5013 74.764 40.344L73.58 45H72.716L74.268 37.704C74.3 37.5547 74.316 37.4053 74.316 37.256C74.316 37.1067 74.2467 37.032 74.108 37.032C74.0227 37.032 73.9213 37.096 73.804 37.224C73.6867 37.3413 73.468 37.6187 73.148 38.056L72.732 38.616L72.46 38.408L72.828 37.912C73.2653 37.3147 73.6013 36.8827 73.836 36.616C74.0707 36.3387 74.3053 36.2 74.54 36.2C74.7427 36.2 74.9027 36.312 75.02 36.536C75.148 36.7493 75.148 37.1013 75.02 37.592L74.316 40.312H74.492L74.588 39.944C74.6733 39.624 74.7747 39.256 74.892 38.84C75.02 38.4133 75.1693 37.9973 75.34 37.592C75.5213 37.1867 75.724 36.856 75.948 36.6C76.172 36.3333 76.428 36.2 76.716 36.2C76.9613 36.2 77.1587 36.3173 77.308 36.552C77.4573 36.7867 77.4467 37.1867 77.276 37.752L76.492 40.312H76.668L76.78 39.96C76.9827 39.3307 77.1907 38.7333 77.404 38.168C77.6173 37.592 77.8627 37.1227 78.14 36.76C78.4173 36.3867 78.7427 36.2 79.116 36.2C79.4573 36.2 79.6813 36.3707 79.788 36.712C79.8947 37.0533 79.8573 37.5227 79.676 38.12L77.996 43.656C77.9853 43.6987 77.964 43.7733 77.932 43.88C77.9107 43.9867 77.9053 44.088 77.916 44.184C77.9373 44.28 77.996 44.328 78.092 44.328C78.22 44.328 78.364 44.2373 78.524 44.056C78.684 43.8747 78.8813 43.624 79.116 43.304L79.884 42.28L80.156 42.472L79.436 43.448C79.0627 43.96 78.732 44.376 78.444 44.696C78.156 45.0053 77.8627 45.16 77.564 45.16ZM78.3 48.04C77.7453 48.04 77.3347 47.928 77.068 47.704C76.8013 47.48 76.668 47.2133 76.668 46.904C76.668 46.6373 76.7533 46.4133 76.924 46.232C77.084 46.0613 77.2973 45.976 77.564 45.976C77.9267 45.976 78.1667 46.1093 78.284 46.376C78.3907 46.6427 78.4333 46.9147 78.412 47.192L78.38 47.656C79.2013 47.656 79.8893 47.3573 80.444 46.76C80.9987 46.1733 81.42 45.3573 81.708 44.312C81.996 43.256 82.14 42.0347 82.14 40.648C82.14 39.272 82.012 38.3013 81.756 37.736C81.5107 37.1707 81.2067 36.888 80.844 36.888C80.684 36.888 80.5293 36.9467 80.38 37.064C80.2413 37.1707 80.0547 37.352 79.82 37.608L79.484 37.976L79.276 37.784L79.612 37.384C79.8787 37.064 80.1453 36.7867 80.412 36.552C80.6893 36.3173 81.0093 36.2 81.372 36.2C81.9053 36.2 82.3373 36.5147 82.668 37.144C82.9987 37.7733 83.164 38.8027 83.164 40.232C83.164 41.1067 83.1 41.9173 82.972 42.664C82.8547 43.4 82.7107 44.04 82.54 44.584C82.3693 45.128 82.1987 45.544 82.028 45.832C82.4973 45.3627 82.9347 44.84 83.34 44.264C83.756 43.6773 84.1187 43.08 84.428 42.472C84.748 41.864 84.9987 41.2773 85.18 40.712C85.3613 40.136 85.452 39.6347 85.452 39.208C85.452 38.8347 85.3987 38.5413 85.292 38.328C85.1853 38.104 85.0733 37.9013 84.956 37.72C84.8493 37.5387 84.796 37.32 84.796 37.064C84.796 36.7867 84.8653 36.5733 85.004 36.424C85.1533 36.2747 85.34 36.2 85.564 36.2C85.8093 36.2 86.0067 36.312 86.156 36.536C86.3053 36.7493 86.38 37.1173 86.38 37.64C86.38 38.248 86.2733 38.9253 86.06 39.672C85.8573 40.408 85.5693 41.1707 85.196 41.96C84.8227 42.7387 84.38 43.4907 83.868 44.216C83.3667 44.9307 82.812 45.576 82.204 46.152C81.6067 46.7387 80.9773 47.1973 80.316 47.528C79.6547 47.8693 78.9827 48.04 78.3 48.04ZM33.098 71.22C32.174 71.22 31.4333 70.7873 30.876 69.922C30.3187 69.0567 30.04 67.7733 30.04 66.072C30.04 64.9867 30.15 63.894 30.37 62.794C30.6047 61.694 30.9273 60.6527 31.338 59.67C31.7633 58.6727 32.2547 57.7853 32.812 57.008C33.384 56.2307 34.0073 55.622 34.682 55.182C35.3713 54.7273 36.09 54.5 36.838 54.5C37.4247 54.5 37.8867 54.632 38.224 54.896C38.5613 55.16 38.8033 55.4827 38.95 55.864C39.1113 56.2453 39.1847 56.612 39.17 56.964H39.346L39.874 54.5H40.6L39.368 60.264H38.268L38.378 59.758C38.6273 58.614 38.7007 57.7193 38.598 57.074C38.4953 56.4287 38.2607 55.974 37.894 55.71C37.542 55.446 37.1167 55.314 36.618 55.314C35.7527 55.314 35.0047 55.6513 34.374 56.326C33.7433 57.0007 33.296 57.9687 33.032 59.23L31.492 66.49C31.228 67.7513 31.2427 68.7193 31.536 69.394C31.844 70.0687 32.3867 70.406 33.164 70.406C33.8093 70.406 34.3593 70.208 34.814 69.812C35.2687 69.4013 35.65 68.8807 35.958 68.25C36.2807 67.6047 36.5373 66.93 36.728 66.226C36.9333 65.5073 37.102 64.8473 37.234 64.246L37.52 62.86H33.868L34.044 62.112H38.928L37.036 71H36.266L36.816 68.36H36.618C36.4567 68.7707 36.2073 69.196 35.87 69.636C35.5473 70.076 35.1513 70.45 34.682 70.758C34.2127 71.066 33.6847 71.22 33.098 71.22ZM46.298 57.14C46.0193 57.14 45.7847 57.052 45.594 56.876C45.4033 56.7 45.308 56.4727 45.308 56.194C45.308 55.8127 45.462 55.4753 45.77 55.182C46.078 54.874 46.4227 54.72 46.804 54.72C47.0973 54.72 47.332 54.808 47.508 54.984C47.6987 55.16 47.794 55.3873 47.794 55.666C47.794 56.0473 47.64 56.392 47.332 56.7C47.024 56.9933 46.6793 57.14 46.298 57.14ZM44.824 71.22C44.1493 71.22 43.6433 70.9853 43.306 70.516C42.9687 70.0467 42.888 69.416 43.064 68.624L44.912 60.176H41.194V59.648L45.088 59.362L46.166 58.812H46.694L44.538 68.624C44.4353 69.0933 44.4573 69.46 44.604 69.724C44.7653 69.988 45.044 70.12 45.44 70.12C45.8947 70.12 46.3347 69.9147 46.76 69.504C47.2 69.0787 47.684 68.5213 48.212 67.832L48.696 67.194L49.114 67.502L48.63 68.162C47.8673 69.1887 47.2147 69.9587 46.672 70.472C46.1293 70.9707 45.5133 71.22 44.824 71.22ZM55.12 71.22C54.1813 71.22 53.536 70.912 53.184 70.296C52.832 69.6653 52.7587 68.8513 52.964 67.854L54.658 59.824H51.578L51.798 59.12H54.812L55.164 56.766H56.814L56.308 59.12H61.082L60.862 59.824H56.154L54.46 67.854C54.3133 68.5287 54.3427 69.0787 54.548 69.504C54.768 69.9147 55.1713 70.12 55.758 70.12C56.2273 70.12 56.6453 70.0027 57.012 69.768C57.3787 69.5187 57.7087 69.218 58.002 68.866C58.31 68.4993 58.5887 68.1547 58.838 67.832L59.322 67.194L59.74 67.502L59.256 68.162C58.8453 68.7193 58.442 69.2327 58.046 69.702C57.65 70.1713 57.2173 70.5453 56.748 70.824C56.2933 71.088 55.7507 71.22 55.12 71.22ZM68.98 71.22C68.5693 71.22 68.232 71.066 67.968 70.758C67.704 70.45 67.6673 69.966 67.858 69.306L70.124 61.672C70.2707 61.188 70.2853 60.7993 70.168 60.506C70.0653 60.2127 69.7867 60.066 69.332 60.066C68.716 60.066 68.122 60.418 67.55 61.122C66.9927 61.8113 66.4427 62.9553 65.9 64.554C65.3573 66.1527 64.8 68.3013 64.228 71H62.71L65.922 55.864H63.238L63.348 55.336L66.098 55.05L67.176 54.5H67.704L66.714 59.12L65.13 64.554H65.46C65.6653 63.9233 65.9073 63.278 66.186 62.618C66.4647 61.958 66.7873 61.3493 67.154 60.792C67.5207 60.22 67.9387 59.7653 68.408 59.428C68.892 59.076 69.4273 58.9 70.014 58.9C70.6887 58.9 71.1873 59.1347 71.51 59.604C71.8473 60.0733 71.8913 60.7187 71.642 61.54L69.376 69.152C69.3613 69.2253 69.3393 69.3353 69.31 69.482C69.2807 69.6287 69.2953 69.768 69.354 69.9C69.4127 70.0173 69.5593 70.076 69.794 70.076C70.0873 70.076 70.3367 69.9513 70.542 69.702C70.762 69.4527 71.0333 69.108 71.356 68.668L71.95 67.876L72.324 68.14L71.796 68.866C71.3413 69.4967 70.9013 70.0467 70.476 70.516C70.0653 70.9853 69.5667 71.22 68.98 71.22ZM75.272 71.22C74.5387 71.22 74.0327 70.9047 73.754 70.274C73.49 69.6433 73.534 68.8073 73.886 67.766L76.152 60.968C76.2107 60.792 76.24 60.594 76.24 60.374C76.2547 60.154 76.1153 60.044 75.822 60.044C75.5433 60.044 75.3013 60.1687 75.096 60.418C74.8907 60.6673 74.6193 61.012 74.282 61.452L73.71 62.222L73.336 61.936L73.842 61.254C74.3113 60.6087 74.744 60.0587 75.14 59.604C75.5507 59.1347 76.0127 58.9 76.526 58.9C76.9367 58.9 77.274 59.054 77.538 59.362C77.8167 59.67 77.846 60.154 77.626 60.814L75.25 68.008C75.0447 68.6387 75.0007 69.1373 75.118 69.504C75.25 69.8707 75.5433 70.054 75.998 70.054C76.5993 70.054 77.1787 69.702 77.736 68.998C78.2933 68.2793 78.8433 67.1207 79.386 65.522C79.9287 63.9233 80.4787 61.7893 81.036 59.12H82.554L80.42 69.152C80.376 69.3573 80.3467 69.5627 80.332 69.768C80.332 69.9733 80.4493 70.076 80.684 70.076C80.9187 70.076 81.146 69.9513 81.366 69.702C81.586 69.4527 81.8573 69.108 82.18 68.668L82.752 67.898L83.126 68.184L82.62 68.866C82.1507 69.4967 81.718 70.0467 81.322 70.516C80.926 70.9853 80.4713 71.22 79.958 71.22C79.562 71.22 79.232 71.066 78.968 70.758C78.704 70.45 78.682 69.966 78.902 69.306L80.134 65.566H79.804C79.6133 66.138 79.3787 66.754 79.1 67.414C78.836 68.0593 78.5207 68.6753 78.154 69.262C77.7873 69.834 77.362 70.3033 76.878 70.67C76.4087 71.0367 75.8733 71.22 75.272 71.22ZM88.098 71.22C87.3793 71.22 86.778 71.0807 86.294 70.802C85.81 70.5087 85.4727 70.2227 85.282 69.944L88.274 55.864H85.59L85.7 55.336L88.45 55.05L89.528 54.5H90.056L89.088 59.12L87.438 63.696H87.768C87.9293 63.256 88.12 62.7647 88.34 62.222C88.56 61.6647 88.8313 61.1367 89.154 60.638C89.4767 60.1247 89.858 59.7067 90.298 59.384C90.7527 59.0613 91.2733 58.9 91.86 58.9C92.6373 58.9 93.2093 59.208 93.576 59.824C93.9573 60.4253 94.148 61.254 94.148 62.31C94.148 63.014 94.06 63.7767 93.884 64.598C93.7227 65.4047 93.4733 66.1967 93.136 66.974C92.8133 67.7513 92.41 68.4627 91.926 69.108C91.442 69.7533 90.8773 70.2667 90.232 70.648C89.6013 71.0293 88.89 71.22 88.098 71.22ZM88.45 70.516C89.1833 70.516 89.836 70.2227 90.408 69.636C90.98 69.0493 91.3907 68.1693 91.64 66.996L92.674 62.2C92.85 61.3787 92.806 60.7553 92.542 60.33C92.278 59.9047 91.9113 59.692 91.442 59.692C90.914 59.692 90.4153 59.9413 89.946 60.44C89.4767 60.924 89.0513 61.5987 88.67 62.464C88.3033 63.3293 87.9953 64.3413 87.746 65.5L87.086 68.536C86.9687 69.0787 87.0053 69.548 87.196 69.944C87.3867 70.3253 87.8047 70.516 88.45 70.516Z" fill="#011ECB"/>
<path d="M61.6546 108.631C61.3198 109.008 61.0438 109.454 60.8356 109.915C60.3162 109.979 59.791 109.998 59.4183 109.998C58.9625 109.998 58.7726 109.958 58.6466 109.894C58.5213 109.831 58.397 109.714 58.1487 109.386L58.1479 109.384C57.6112 108.678 56.9959 108.142 56.2091 107.917L56.1675 107.905L56.1245 107.901C55.8356 107.87 55.4762 107.955 55.2756 108.252C55.167 108.413 55.1251 108.616 55.179 108.821C55.23 109.014 55.353 109.161 55.4852 109.266L55.496 109.274L55.5073 109.282C55.9074 109.565 56.1326 109.941 56.3109 110.377C56.3825 110.552 56.4422 110.725 56.5052 110.907C56.5229 110.958 56.5409 111.011 56.5595 111.064C56.6405 111.295 56.7326 111.545 56.855 111.774L56.8551 111.774C57.3328 112.667 58.293 113.103 59.2876 113.103H59.2889H59.2902H59.2915H59.2928H59.2941H59.2954H59.2968H59.2981H59.2995H59.3009H59.3023H59.3037H59.3052H59.3066H59.3081H59.3096H59.311H59.3126H59.3141H59.3156H59.3172H59.3187H59.3203H59.3219H59.3235H59.3251H59.3267H59.3284H59.33H59.3317H59.3334H59.3351H59.3368H59.3385H59.3402H59.342H59.3437H59.3455H59.3473H59.3491H59.3509H59.3527H59.3546H59.3564H59.3583H59.3601H59.362H59.3639H59.3658H59.3678H59.3697H59.3717H59.3736H59.3756H59.3776H59.3796H59.3816H59.3836H59.3857H59.3877H59.3898H59.3918H59.3939H59.396H59.3981H59.4002H59.4024H59.4045H59.4067H59.4088H59.411H59.4132H59.4154H59.4176H59.4198H59.4221H59.4243H59.4266H59.4288H59.4311H59.4334H59.4357H59.438H59.4403H59.4427H59.445H59.4474H59.4498H59.4521H59.4545H59.4569H59.4593H59.4617H59.4642H59.4666H59.4691H59.4715H59.474H59.4765H59.479H59.4815H59.484H59.4865H59.4891H59.4916H59.4942H59.4967H59.4993H59.5019H59.5045H59.5071H59.5097H59.5123H59.5149H59.5176H59.5202H59.5229H59.5256H59.5282H59.5309H59.5336H59.5363H59.5391H59.5418H59.5445H59.5473H59.55H59.5528H59.5555H59.5583H59.5611H59.5639H59.5667H59.5695H59.5724H59.5752H59.578H59.5809H59.5838H59.5866H59.5895H59.5924H59.5953H59.5982H59.6011H59.604H59.6069H59.6099H59.6128H59.6158H59.6187H59.6217H59.6247H59.6276H59.6306H59.6336H59.6366H59.6396H59.6427H59.6457H59.6487H59.6518H59.6548H59.6579H59.661H59.664H59.6671H59.6702H59.6733H59.6764H59.6795H59.6826H59.6857H59.6889H59.692H59.6952H59.6983H59.7015H59.7046H59.7078H59.711H59.7142H59.7174H59.7206H59.7238H59.727H59.7302H59.7334H59.7367H59.7399H59.7431H59.7464H59.7496H59.7529H59.7562H59.7595H59.7627H59.766H59.7693H59.7726H59.7759H59.7792H59.7825H59.7859H59.7892H59.7925H59.7959H59.7992H59.8026H59.8059H59.8093H59.8126H59.816H59.8194H59.8228H59.8261H59.8295H59.8329H59.8363H59.8397H59.8432H59.8466H59.85H59.8534H59.8568H59.8603H59.8637H59.8672H59.8706H59.8741H59.8775H59.881H59.8845H59.8879H59.8914H59.8949H59.8984H59.9019H59.9054H59.9089H59.9124H59.9159H59.9194H59.9229H59.9264H59.9299H59.9335H59.937H59.9405H59.944H59.9476H59.9511H59.9547H59.9582H59.9618H59.9653H59.9689H59.9725H59.976H59.9796H59.9832H59.9868H59.9903H59.9939H59.9975H60.0011H60.0047H60.0083H60.0119H60.0155H60.0191H60.0227H60.0263H60.0299H60.0335H60.0371H60.0408H60.0444H60.048H60.0516H60.0553H60.0589H60.0625H60.0662H60.0698H60.0734H60.0771H60.0807H60.0844H60.088H60.0917H60.0953H60.099H60.1026H60.1063H60.1099H60.1136H60.1173H60.1209H60.1246H60.1282H60.1319H60.1356H60.1393H60.1429H60.1466H60.1503H60.1539H60.1576H60.1613H60.165H60.1687H60.1723H60.176H60.1797H60.1834H60.1871H60.1907H60.1944H60.1981H60.2018H60.2055H60.2092H60.2129H60.2165H60.2202H60.2239H60.2276H60.2313H60.235H60.2387H60.2424H60.246H60.2497H60.2534H60.2571H60.2608H60.2645H60.2682H60.2719H60.2755H60.2792H60.2829H60.2866H60.2903H60.294H60.2977H60.3013H60.305H60.3087H60.3124H60.3161H60.3198H60.3234H60.3271H60.3308H60.3345H60.3381H60.3418H60.3455H60.3492H60.3528H60.3565H60.3602H60.3638H60.3642V114.691C55.4922 113.135 51.9551 108.548 51.9551 103.113C51.9551 96.3943 57.3527 90.9546 64.0005 90.9546C70.6484 90.9546 76.046 96.3943 76.046 103.113C76.046 108.15 73.0061 112.459 68.6824 114.303V111.882C68.6824 111.144 68.4444 110.319 68.0611 109.602C67.8766 109.257 67.6509 108.923 67.3889 108.629C68.9952 108.316 70.2647 107.723 71.1801 106.884C72.3125 105.846 72.8589 104.472 72.8589 102.923C72.8589 101.643 72.3556 100.427 71.5228 99.3995C71.6547 98.8932 71.7837 98.223 71.8131 97.565C71.8306 97.1751 71.8139 96.7715 71.733 96.4008C71.6526 96.0329 71.5007 95.6607 71.2188 95.3767L71.0722 95.2289H70.8639C69.1073 95.2289 67.9362 96.1835 67.4187 96.7167C66.5147 96.4381 65.5368 96.2838 64.518 96.2838C63.5009 96.2838 62.5268 96.4382 61.6255 96.7151C61.1077 96.1824 59.9374 95.2289 58.1826 95.2289H57.974L57.8272 95.3772C57.5466 95.6607 57.3951 96.0318 57.3147 96.3986C57.2338 96.7682 57.2168 97.1706 57.2336 97.5594C57.2621 98.2159 57.3897 98.8846 57.52 99.3907C56.6818 100.42 56.175 101.64 56.175 102.923C56.175 104.473 56.7223 105.848 57.8565 106.886C58.7735 107.725 60.0454 108.319 61.6546 108.631Z" fill="#011ECB" stroke="#011ECB"/>
<circle cx="64" cy="103" r="17.5" stroke="#011ECB"/>
</g>
<defs>
<filter id="filter0_i_180_306" x="0" y="0" width="128" height="148" filterUnits="userSpaceOnUse" color-interpolation-filters="sRGB">
<feFlood flood-opacity="0" result="BackgroundImageFix"/>
<feBlend mode="normal" in="SourceGraphic" in2="BackgroundImageFix" result="shape"/>
<feColorMatrix in="SourceAlpha" type="matrix" values="0 0 0 0 0 0 0 0 0 0 0 0 0 0 0 0 0 0 127 0" result="hardAlpha"/>
<feOffset dx="4" dy="4"/>
<feGaussianBlur stdDeviation="6"/>
<feComposite in2="hardAlpha" operator="arithmetic" k2="-1" k3="1"/>
<feColorMatrix type="matrix" values="0 0 0 0 0.743571 0 0 0 0 0.743571 0 0 0 0 0.743571 0 0 0 0.25 0"/>
<feBlend mode="normal" in2="shape" result="effect1_innerShadow_180_306"/>
</filter>
<filter id="filter1_i_180_306" x="10" y="10" width="109" height="128" filterUnits="userSpaceOnUse" color-interpolation-filters="sRGB">
<feFlood flood-opacity="0" result="BackgroundImageFix"/>
<feBlend mode="normal" in="SourceGraphic" in2="BackgroundImageFix" result="shape"/>
<feColorMatrix in="SourceAlpha" type="matrix" values="0 0 0 0 0 0 0 0 0 0 0 0 0 0 0 0 0 0 127 0" result="hardAlpha"/>
<feOffset dx="4" dy="4"/>
<feGaussianBlur stdDeviation="2"/>
<feComposite in2="hardAlpha" operator="arithmetic" k2="-1" k3="1"/>
<feColorMatrix type="matrix" values="0 0 0 0 0.775342 0 0 0 0 0.775342 0 0 0 0 0.775342 0 0 0 0.25 0"/>
<feBlend mode="normal" in2="shape" result="effect1_innerShadow_180_306"/>
</filter>
</defs>
</svg>
