<svg width="169" height="170" viewBox="0 0 169 170" fill="none" xmlns="http://www.w3.org/2000/svg">
<path fill-rule="evenodd" clip-rule="evenodd" d="M167.061 84.8244C167.061 130.786 129.803 168.044 83.842 168.044C37.8814 168.044 0.623047 130.786 0.623047 84.8244C0.623047 38.8639 37.8814 1.60547 83.842 1.60547C129.803 1.60547 167.061 38.8639 167.061 84.8244ZM83.842 145.65C117.435 145.65 144.668 118.418 144.668 84.8244C144.668 51.2316 117.435 23.9993 83.842 23.9993C50.2492 23.9993 23.0169 51.2316 23.0169 84.8244C23.0169 118.418 50.2492 145.65 83.842 145.65Z" fill="#F4F1EA"/>
<path fill-rule="evenodd" clip-rule="evenodd" d="M167.685 84.8267C167.685 131.132 130.147 168.669 83.8424 168.669C37.5375 168.669 0 131.132 0 84.8267C0 38.5219 37.5375 0.984375 83.8424 0.984375C130.147 0.984375 167.685 38.5219 167.685 84.8267ZM83.8424 145.029C117.091 145.029 144.044 118.076 144.044 84.8267C144.044 51.5782 117.091 24.625 83.8424 24.625C50.5938 24.625 23.6406 51.5782 23.6406 84.8267C23.6406 118.076 50.5938 145.029 83.8424 145.029ZM83.8424 168.046C129.803 168.046 167.061 130.788 167.061 84.8267C167.061 38.8661 129.803 1.60774 83.8424 1.60774C37.8818 1.60774 0.623367 38.8661 0.623367 84.8267C0.623367 130.788 37.8818 168.046 83.8424 168.046ZM144.668 84.8267C144.668 118.42 117.435 145.652 83.8424 145.652C50.2496 145.652 23.0172 118.42 23.0172 84.8267C23.0172 51.2339 50.2496 24.0016 83.8424 24.0016C117.435 24.0016 144.668 51.2339 144.668 84.8267Z" fill="#001ECB"/>
<path d="M137.756 128.528L138.164 128.888L137.698 129.416L143.141 134.226L143.713 133.578L143.953 133.79L143.497 134.669L143.397 135.434L143.195 135.662L142.344 134.91L142.312 134.946C142.44 135.172 142.518 135.462 142.547 135.815C142.57 136.177 142.461 136.493 142.221 136.765C142.03 136.981 141.803 137.093 141.539 137.102C141.268 137.119 140.985 137.011 140.691 136.78L140.66 136.816C140.78 137.051 140.855 137.344 140.884 137.698C140.913 138.051 140.808 138.364 140.568 138.635C140.349 138.883 140.095 139.001 139.807 138.988C139.527 138.983 139.232 138.843 138.92 138.567L133.693 133.948L133.173 134.535L132.766 134.175L133.974 132.808L139.573 137.756C139.876 138.024 140.145 138.027 140.378 137.763C140.505 137.619 140.563 137.449 140.55 137.254C140.539 137.073 140.483 136.888 140.38 136.697C140.286 136.514 140.178 136.355 140.056 136.219L135.356 132.065L134.837 132.653L134.429 132.293L135.627 130.938L141.226 135.886C141.529 136.154 141.808 136.144 142.063 135.857C142.183 135.721 142.233 135.559 142.214 135.371C142.203 135.191 142.146 135.005 142.044 134.815C141.942 134.64 141.83 134.484 141.709 134.348L137.009 130.195L136.49 130.782L136.082 130.422L137.756 128.528Z" fill="#011ECB"/>
<path d="M128.254 134.099C128.654 133.762 129.046 133.573 129.428 133.53C129.811 133.472 130.113 133.574 130.333 133.835C130.47 133.999 130.536 134.194 130.532 134.42C130.529 134.632 130.425 134.824 130.221 134.995C130.042 135.146 129.869 135.215 129.704 135.2C129.523 135.185 129.354 135.132 129.195 135.043C129.036 134.954 128.896 134.862 128.776 134.768L128.476 134.561C128.016 134.892 127.754 135.384 127.69 136.037C127.619 136.682 127.788 137.53 128.197 138.579L135.202 142.806L136.17 141.993L136.52 142.409L133.508 144.943L133.157 144.526L134.382 143.496L128.813 140.131L131.223 146.154L132.068 145.443L132.418 145.859L130.361 147.59L130.011 147.173L130.831 146.483L127.776 138.85C127.565 138.317 127.401 137.765 127.283 137.195C127.158 136.631 127.159 136.086 127.288 135.56C127.41 135.025 127.732 134.538 128.254 134.099Z" fill="#011ECB"/>
<path d="M32.0174 129.671L32.0476 131.075L28.671 130.712L28.6191 130.776L30.1161 133.83L28.7968 134.272L28.1074 130.961L28.0114 130.933L25.5792 133.289L24.7374 132.17L27.6747 130.486L27.6745 130.386L24.684 128.806L25.4861 127.677L27.9938 129.945L28.0698 129.913L28.6564 126.568L29.997 126.986L28.618 130.076L28.6661 130.14L32.0174 129.671Z" fill="#011ECB"/>
<path d="M21.2179 111.688L20.7068 111.874L20.4656 111.213L13.6412 113.702L13.9372 114.513L13.6365 114.623L13.0822 113.803L12.4571 113.35L12.3529 113.064L13.4202 112.675L13.4037 112.63C13.144 112.634 12.8519 112.564 12.5273 112.422C12.1991 112.269 11.9729 112.022 11.8487 111.681C11.75 111.411 11.7598 111.157 11.8781 110.921C11.9927 110.675 12.2217 110.478 12.5651 110.33L12.5487 110.285C12.2853 110.279 11.9913 110.204 11.6668 110.062C11.3422 109.919 11.1178 109.677 10.9936 109.336C10.8803 109.026 10.8978 108.747 11.0462 108.5C11.1845 108.256 11.449 108.063 11.8398 107.921L18.3937 105.531L18.1252 104.794L18.6362 104.608L19.2611 106.322L12.2412 108.881C11.8604 109.02 11.7303 109.255 11.8509 109.586C11.9167 109.766 12.0384 109.898 12.2162 109.981C12.3803 110.057 12.5704 110.095 12.7864 110.096C12.9923 110.101 13.1841 110.082 13.3618 110.04L19.2543 107.891L18.9857 107.154L19.4968 106.968L20.1162 108.667L13.0963 111.226C12.7155 111.365 12.5909 111.615 12.7224 111.976C12.7845 112.146 12.9027 112.268 13.0768 112.341C13.2409 112.417 13.4309 112.455 13.6469 112.456C13.8492 112.451 14.0392 112.427 14.2169 112.385L20.1094 110.236L19.8408 109.499L20.3519 109.313L21.2179 111.688Z" fill="#011ECB"/>
<path d="M20.8583 100.682C20.9632 101.194 20.9432 101.628 20.7983 101.984C20.6661 102.349 20.4328 102.565 20.0984 102.634C19.8894 102.676 19.6863 102.642 19.4892 102.53C19.3046 102.426 19.1856 102.243 19.1321 101.982C19.085 101.752 19.1072 101.568 19.1986 101.43C19.2984 101.279 19.4254 101.155 19.5798 101.058C19.7341 100.961 19.8813 100.882 20.0211 100.82L20.3467 100.656C20.2751 100.093 19.9676 99.6281 19.4241 99.2603C18.8911 98.8904 18.0657 98.6347 16.948 98.4934L9.89083 102.633L10.1443 103.871L9.6114 103.98L8.82199 100.124L9.35493 100.015L9.67583 101.583L15.2903 98.2938L8.84792 97.5385L9.06934 98.6201L8.53639 98.7292L7.99728 96.0958L8.53023 95.9867L8.74523 97.0369L16.9112 97.9946C17.4805 98.0632 18.0438 98.1819 18.601 98.3509C19.1561 98.5095 19.6343 98.7709 20.0355 99.1352C20.4471 99.4973 20.7214 100.013 20.8583 100.682Z" fill="#011ECB"/>
<path d="M19.082 82.5296L18.5404 82.4788L18.7182 80.5831L8.45924 79.6208L8.30684 81.2457L7.92451 81.2098L7.86983 79.5655L7.53732 78.8273L7.57318 78.4449L8.92724 78.5719L8.93172 78.5241C8.73791 78.4203 8.54858 78.2686 8.36374 78.0691C8.16827 77.8687 8.01396 77.6292 7.9008 77.3507C7.77702 77.0713 7.73107 76.7617 7.76295 76.4218C7.81275 75.8908 8.03513 75.4617 8.43008 75.1345C8.82503 74.8073 9.34427 74.5828 9.98778 74.461C10.6323 74.3286 11.3581 74.3003 12.1652 74.376C13.0361 74.4577 13.8221 74.6439 14.5234 74.9346C15.2256 75.2148 15.7692 75.5872 16.1542 76.0518C16.5391 76.5165 16.7022 77.0621 16.6434 77.6887C16.6066 78.0816 16.5014 78.4039 16.3278 78.6554C16.1446 78.8954 15.9557 79.0812 15.7612 79.2129L18.8198 79.4998L19.0649 76.8873L19.6065 76.9381L19.082 82.5296ZM13.8018 79.0292C14.5983 79.1039 15.1757 79.0027 15.5338 78.7256C15.8919 78.4485 16.0918 78.0869 16.1337 77.6409C16.1805 77.1417 16.0373 76.7265 15.7041 76.3953C15.3603 76.0631 14.8273 75.8631 14.1052 75.7954L10.3297 75.4412C9.68192 75.3805 9.205 75.4964 8.899 75.7891C8.59299 76.0818 8.42106 76.43 8.38321 76.8335C8.34934 77.1946 8.41653 77.5063 8.58478 77.7684C8.74341 78.019 8.94949 78.2205 9.20304 78.3728C9.45759 78.5145 9.70549 78.6128 9.94677 78.6676L13.8018 79.0292Z" fill="#011ECB"/>
<path d="M18.0724 66.6734L18.6006 66.8034L17.2589 72.2567L16.7306 72.1267L17.1894 70.2623L10.1357 68.5269L9.7458 70.1116L9.37293 70.0198L9.56086 68.3854L9.34064 67.6062L9.43239 67.2334L12.1668 67.9061L12.1783 67.8595L11.9644 67.7245C11.3083 67.3104 10.7981 66.8169 10.4338 66.2439C10.0695 65.671 9.96502 65.0686 10.1205 64.4368C10.2173 64.0432 10.3882 63.7282 10.6331 63.4919C10.878 63.2555 11.1661 63.1781 11.4976 63.2597C11.6944 63.3081 11.8422 63.3994 11.941 63.5336C12.0398 63.6677 12.0624 63.8435 12.0089 64.0611C11.9452 64.32 11.8152 64.4912 11.6189 64.5748C11.4226 64.6583 11.2417 64.7236 11.0763 64.7708L10.5684 64.893C10.4767 65.2659 10.5311 65.6253 10.7316 65.9712C10.9217 66.3146 11.2088 66.6433 11.5929 66.9575C11.9666 67.2692 12.3829 67.5638 12.8418 67.8415L13.4875 68.2311L17.4493 69.2059L18.0724 66.6734Z" fill="#011ECB"/>
<path d="M21.5674 58.9313C21.3652 59.4248 21.0757 59.8076 20.699 60.0797C20.3125 60.3478 19.8712 60.5244 19.3753 60.6093C18.8736 60.6803 18.3517 60.6739 17.8096 60.5901C17.2676 60.5063 16.74 60.3592 16.2267 60.1488C15.7036 59.9344 15.2245 59.6689 14.7895 59.3522C14.3445 59.0315 13.9732 58.6718 13.6755 58.2732C13.3719 57.8605 13.1815 57.4251 13.1042 56.9669C13.017 56.5046 13.0745 56.0268 13.2768 55.5333C13.479 55.0398 13.7734 54.659 14.16 54.3909C14.5367 54.1187 14.9759 53.9472 15.4776 53.8761C15.9736 53.7912 16.4925 53.7906 17.0346 53.8745C17.5667 53.9543 18.0944 54.1013 18.6175 54.3157C19.1307 54.5261 19.6098 54.7916 20.0547 55.1123C20.4997 55.433 20.8739 55.7997 21.1775 56.2123C21.4752 56.611 21.6676 57.0414 21.7548 57.5037C21.8322 57.9619 21.7697 58.4378 21.5674 58.9313ZM21.0937 58.7371C21.3485 58.1153 21.2841 57.5413 20.9003 57.0151C20.5066 56.4849 19.8509 56.0317 18.933 55.6555L17.4525 55.0487C16.5346 54.6725 15.7543 54.5371 15.1116 54.6426C14.4591 54.744 14.0054 55.1056 13.7505 55.7274C13.4957 56.3492 13.5651 56.9253 13.9587 57.4555C14.3425 57.9817 14.9933 58.4329 15.9112 58.8091L17.3917 59.4159C18.3096 59.7921 19.0948 59.9295 19.7474 59.828C20.3901 59.7226 20.8388 59.3589 21.0937 58.7371Z" fill="#011ECB"/>
<path d="M18.1654 43.357C18.04 43.5678 17.8603 43.7029 17.6264 43.7623C17.3924 43.8217 17.17 43.7887 16.9592 43.6633C16.7484 43.5378 16.6132 43.3582 16.5538 43.1242C16.4944 42.8903 16.5275 42.6679 16.6529 42.4571C16.7783 42.2462 16.958 42.1111 17.192 42.0517C17.4259 41.9923 17.6483 42.0253 17.8591 42.1507C18.07 42.2762 18.2051 42.4559 18.2645 42.6898C18.3239 42.9237 18.2909 43.1461 18.1654 43.357ZM19.3473 43.8739L19.5436 43.5439L27.1063 48.0434L27.0981 48.0572C27.8317 48.5557 28.2996 49.1878 28.5019 49.9536C28.7187 50.7156 28.5626 51.5412 28.0336 52.4304C27.7064 52.9804 27.3538 53.354 26.9759 53.5511C26.6034 53.7391 26.2613 53.7404 25.9496 53.5549C25.7479 53.4349 25.6248 53.2872 25.5803 53.1118C25.5412 52.9272 25.5789 52.7386 25.6934 52.5461C25.8243 52.3261 25.9894 52.1947 26.1886 52.1519C26.3879 52.109 26.5891 52.1046 26.7922 52.1386L27.627 52.3002C28.0165 51.7499 28.1323 51.1797 27.9746 50.5894C27.8316 49.9954 27.3659 49.4639 26.5775 48.9948L19.8398 44.9862L18.6781 46.9387L18.3481 46.7424L19.3311 44.6835L19.3473 43.8739Z" fill="#011ECB"/>
<path d="M32.2589 41.4609C31.8475 41.965 31.3361 42.3049 30.7247 42.4806C30.1118 42.6412 29.4547 42.6282 28.7535 42.4415C28.059 42.2465 27.3729 41.8725 26.6952 41.3195C26.249 40.9553 25.8597 40.5551 25.5274 40.1187C25.1936 39.6673 24.9449 39.196 24.7814 38.7046C24.6247 38.205 24.5786 37.7131 24.6433 37.2289C24.7147 36.7365 24.9325 36.2671 25.2967 35.8209C25.8294 35.168 26.4808 34.8253 27.2508 34.7928C28.0275 34.752 28.8167 35.0587 29.6183 35.7128C29.7258 35.8005 29.8216 35.8856 29.9057 35.968C29.9966 36.0422 30.0635 36.1036 30.1063 36.1524L26.9603 40.0077L28.0016 40.8574C28.5223 41.2822 29.0304 41.5454 29.5258 41.6468C30.013 41.7415 30.4648 41.7109 30.8811 41.555C31.2974 41.3991 31.6405 41.1559 31.9102 40.8253C32.1665 40.5112 32.3162 40.1928 32.3593 39.8701C32.4092 39.539 32.393 39.2298 32.3108 38.9425C32.2271 38.6402 32.1187 38.3934 31.9856 38.2022L32.2848 38.0127C32.484 38.2578 32.6451 38.5751 32.7679 38.9644C32.8825 39.347 32.9127 39.7572 32.8584 40.1948C32.7959 40.6256 32.5961 41.0477 32.2589 41.4609ZM25.6731 36.1694C25.3899 36.5165 25.2504 36.8983 25.2547 37.3148C25.2575 37.7163 25.3826 38.1282 25.6301 38.5504C25.8693 38.9659 26.2053 39.364 26.638 39.7446L28.6612 37.2654C28.7354 37.1745 28.7979 37.0809 28.8488 36.9848C28.8982 36.8737 28.8969 36.7487 28.845 36.6099C28.7915 36.4561 28.6408 36.2781 28.3928 36.0758C27.8805 35.6577 27.38 35.4696 26.8915 35.5115C26.403 35.5534 25.9968 35.7727 25.6731 36.1694Z" fill="#011ECB"/>
<path d="M39.2422 34.3007C38.7769 34.7244 38.2408 34.9674 37.6338 35.0296C37.0275 35.0767 36.4028 34.9531 35.7597 34.6587C35.1172 34.3493 34.5088 33.8791 33.9342 33.2482C33.3382 32.5936 32.9132 31.913 32.6593 31.2064C32.4055 30.4999 32.3349 29.8283 32.4478 29.1918C32.5613 28.5402 32.8705 27.9846 33.3753 27.525C33.7223 27.209 34.1024 26.9927 34.5156 26.8761C34.9216 26.7517 35.3151 26.7323 35.6962 26.8181C36.0701 26.896 36.3899 27.0809 36.6556 27.3727C36.907 27.6487 37.0191 27.9145 36.9921 28.1699C36.9729 28.4182 36.8844 28.6142 36.7267 28.7578C36.6005 28.8727 36.4463 28.941 36.2641 28.9627C36.0826 28.9693 35.9236 28.8976 35.7871 28.7478C35.6435 28.5901 35.5698 28.3903 35.566 28.1485C35.555 27.8988 35.5092 27.5871 35.4285 27.2133C35.2563 27.1826 35.017 27.2129 34.7107 27.3043C34.4051 27.3806 34.1025 27.5552 33.8028 27.8281C33.2507 28.3309 33.0112 28.9313 33.0842 29.6293C33.1573 30.3274 33.5242 31.0393 34.1849 31.7648L35.2621 32.9479C35.7146 33.4447 36.1705 33.787 36.6298 33.9746C37.0899 34.1471 37.5255 34.1977 37.9366 34.1263C38.3476 34.055 38.703 33.8828 39.0027 33.6099C39.2866 33.3514 39.4737 33.0657 39.5638 32.7528C39.654 32.4398 39.6796 32.1352 39.6406 31.8389C39.5944 31.5347 39.5196 31.2783 39.4161 31.0696L39.7399 30.9262C39.9009 31.198 40.0134 31.5355 40.0776 31.9387C40.1425 32.3268 40.1159 32.7333 39.9979 33.1582C39.8806 33.5679 39.6287 33.9488 39.2422 34.3007Z" fill="#011ECB"/>
<path d="M47.6348 27.9443C46.9881 28.3781 46.3274 28.5324 45.6525 28.4071C44.9805 28.2671 44.3801 27.8029 43.8512 27.0145L40.8383 22.5235L39.3236 23.5397L39.0384 23.1145L40.5531 22.0983L40.1972 20.2755L40.5028 20.0705L41.4566 21.4922L44.9245 19.1657L45.2097 19.5909L41.7418 21.9174L44.7102 26.3419C45.1202 26.9531 45.5621 27.3438 46.036 27.514C46.5039 27.6754 46.9814 27.5926 47.4686 27.2658C47.8584 27.0043 48.106 26.7033 48.2115 26.3628C48.3259 26.0163 48.3308 25.6598 48.2261 25.2933C48.1244 24.912 47.9548 24.5441 47.717 24.1898L47.4853 23.8444L47.8839 23.5769L48.1157 23.9224C48.282 24.1704 48.4353 24.4658 48.5753 24.8086C48.7094 25.1425 48.7859 25.4958 48.8047 25.8685C48.8265 26.2264 48.7476 26.5876 48.5682 26.952C48.3977 27.3104 48.0865 27.6412 47.6348 27.9443Z" fill="#011ECB"/>
<path d="M56.4671 23.1607C55.9853 23.3894 55.5328 23.4684 55.1096 23.3978C54.696 23.3225 54.3319 23.1647 54.0171 22.9245C53.6978 22.6746 53.4502 22.4143 53.2745 22.1435L53.1588 22.1984L54.0714 24.1208L53.6088 24.3404L52.0033 20.9581L52.755 20.6013L52.8373 20.7748C52.883 20.8711 52.9633 21.0278 53.0782 21.2449C53.2026 21.4574 53.3626 21.6825 53.5582 21.9203C53.7537 22.1581 53.9784 22.3702 54.2322 22.5568C54.4957 22.7387 54.7916 22.8521 55.1199 22.897C55.4482 22.9419 55.805 22.8728 56.1905 22.6899C56.6241 22.484 56.8991 22.2177 57.0156 21.8909C57.1416 21.5595 57.12 21.2155 56.9508 20.859C56.7861 20.5121 56.5528 20.2568 56.2508 20.0931C55.9442 19.9199 55.6006 19.8055 55.2201 19.75C54.8349 19.6849 54.4328 19.6337 54.0137 19.5965C53.6042 19.5547 53.2046 19.4964 52.8149 19.4216C52.4206 19.3372 52.0656 19.1988 51.7499 19.0062C51.4296 18.804 51.1756 18.5054 50.9881 18.1103C50.7319 17.5707 50.6998 17.0428 50.8917 16.5267C51.0836 16.0105 51.483 15.6084 52.0901 15.3202C52.5334 15.1098 52.9263 15.0296 53.2688 15.0795C53.6067 15.1198 53.8932 15.2259 54.1282 15.3977C54.3684 15.5553 54.556 15.7142 54.691 15.8744L54.8067 15.8195L54.1823 14.5042L54.6449 14.2846L55.9759 17.0888L55.3688 17.3769L55.3482 17.3336C55.2293 17.083 55.0746 16.8318 54.8842 16.5798C54.6937 16.3278 54.4667 16.1108 54.2033 15.9289C53.9494 15.7424 53.6655 15.6292 53.3514 15.5894C53.0469 15.545 52.7164 15.6074 52.3599 15.7766C51.9166 15.987 51.668 16.2467 51.6139 16.5558C51.5599 16.8648 51.5923 17.1446 51.7113 17.3951C51.8576 17.7035 52.0795 17.9346 52.377 18.0886C52.6698 18.233 53.0088 18.3378 53.394 18.4029C53.7746 18.4584 54.1696 18.507 54.579 18.5488C54.9982 18.586 55.4071 18.6517 55.806 18.7457C56.2003 18.8301 56.5599 18.9782 56.8848 19.19C57.2051 19.3922 57.4613 19.6957 57.6534 20.1004C57.8364 20.4858 57.9047 20.8785 57.8583 21.2783C57.8216 21.6736 57.6829 22.0405 57.4421 22.3791C57.2065 22.7035 56.8815 22.9641 56.4671 23.1607Z" fill="#011ECB"/>
<path d="M73.8962 16.8754L72.6479 16.2322L74.5776 13.4377L74.5461 13.3615L71.1482 13.2201L71.3892 11.8497L74.6278 12.8236L74.6981 12.7525L73.7881 9.49091L75.1728 9.28484L75.252 12.6701L75.3399 12.7176L78.1547 10.8429L78.7644 12.0867L75.5747 13.2084L75.5667 13.2905L78.2265 15.402L77.2196 16.3809L75.1618 13.6945L75.0826 13.7063L73.8962 16.8754Z" fill="#011ECB"/>
<path d="M91.6201 17.3111L91.7001 16.7731L92.3965 16.8767L93.4657 9.6918L92.6111 9.56463L92.6582 9.24811L93.643 9.15203L94.3397 8.81894L94.6404 8.86368L94.4731 9.98731L94.5206 9.99438C94.6411 9.76427 94.8416 9.54067 95.1219 9.32357C95.4128 9.10804 95.7376 9.02697 96.0963 9.08035C96.3812 9.12274 96.5992 9.25223 96.7503 9.46883C96.9119 9.687 96.9758 9.98229 96.942 10.3547L96.9894 10.3618C97.1205 10.1332 97.3262 9.91042 97.6065 9.69332C97.8869 9.47621 98.2064 9.39436 98.5651 9.44774C98.8922 9.49641 99.1289 9.64487 99.2753 9.89312C99.4233 10.1308 99.4666 10.4554 99.4054 10.8669L98.3786 17.7669L99.1541 17.8823L99.074 18.4204L97.2699 18.1519L98.3697 10.7613C98.4293 10.3604 98.2851 10.134 97.9369 10.0822C97.747 10.0539 97.5733 10.0982 97.4157 10.2149C97.2702 10.3227 97.1457 10.4713 97.042 10.6608C96.9399 10.8397 96.8649 11.0172 96.8171 11.1935L95.894 17.3971L96.6694 17.5125L96.5894 18.0506L94.801 17.7845L95.9009 10.3939C95.9605 9.99297 95.8004 9.76425 95.4206 9.70772C95.2413 9.68103 95.0781 9.72685 94.9311 9.84516C94.7856 9.95293 94.661 10.1015 94.5574 10.291C94.4658 10.4715 94.3961 10.6499 94.3483 10.8261L93.4251 17.0298L94.2006 17.1452L94.1205 17.6832L91.6201 17.3111Z" fill="#011ECB"/>
<path d="M101.47 22.2426C100.97 22.0904 100.598 21.8657 100.354 21.5684C100.097 21.2782 100.018 20.9699 100.117 20.6433C100.179 20.4393 100.306 20.2773 100.499 20.1575C100.678 20.0448 100.895 20.0273 101.15 20.105C101.375 20.1733 101.526 20.2807 101.604 20.4271C101.69 20.5868 101.738 20.7576 101.749 20.9395C101.761 21.1214 101.76 21.2885 101.747 21.4406L101.737 21.8053C102.265 22.0108 102.821 21.9624 103.403 21.6603C103.983 21.3684 104.601 20.765 105.259 19.8501L104.988 11.673L103.779 11.3049L103.937 10.7845L107.703 11.9306L107.544 12.451L106.014 11.9851L106.225 18.4885L109.963 13.1871L108.906 12.8656L109.065 12.3452L111.636 13.1279L111.478 13.6483L110.452 13.3362L105.715 20.0558C105.383 20.5234 105.01 20.9617 104.595 21.3708C104.191 21.783 103.733 22.0785 103.222 22.2573C102.707 22.4463 102.123 22.4414 101.47 22.2426Z" fill="#011ECB"/>
<path d="M118.27 29.3398L118.573 28.8881L120.155 29.9488L125.895 21.392L124.54 20.4828L124.754 20.1639L126.225 20.9004L127.032 20.9604L127.351 21.1744L126.594 22.3038L126.633 22.3305C126.817 22.2097 127.041 22.1157 127.304 22.0484C127.574 21.9723 127.858 21.9509 128.156 21.9844C128.461 22.0089 128.755 22.1163 129.039 22.3064C129.482 22.6036 129.753 23.0037 129.852 23.5069C129.951 24.0102 129.9 24.5736 129.7 25.1972C129.509 25.8268 129.188 26.4782 128.736 27.1514C128.249 27.8778 127.71 28.4797 127.12 28.9573C126.539 29.4408 125.952 29.7408 125.36 29.8574C124.768 29.9741 124.211 29.8571 123.688 29.5064C123.36 29.2866 123.127 29.0403 122.989 28.7678C122.866 28.4923 122.792 28.2376 122.769 28.0039L121.058 30.555L123.237 32.0168L122.934 32.4686L118.27 29.3398ZM123.866 26.3696C123.42 27.0339 123.234 27.5895 123.306 28.0365C123.379 28.4834 123.601 28.8317 123.973 29.0813C124.39 29.3606 124.823 29.4328 125.273 29.298C125.729 29.1544 126.159 28.7814 126.563 28.1791L128.676 25.0301C129.038 24.4897 129.164 24.0153 129.053 23.6067C128.941 23.1981 128.717 22.8809 128.381 22.6551C128.08 22.453 127.774 22.3634 127.463 22.3862C127.167 22.406 126.892 22.491 126.637 22.6411C126.391 22.7972 126.186 22.9682 126.023 23.1541L123.866 26.3696Z" fill="#011ECB"/>
<path d="M132.688 36.0247L132.322 36.4269L128.169 32.6458L128.536 32.2436L129.955 33.5362L134.846 28.1653L133.639 27.0665L133.898 26.7826L135.245 27.7276L136.034 27.9059L136.318 28.1644L134.422 30.2465L134.458 30.2788L134.679 30.1552C135.356 29.7762 136.033 29.5633 136.71 29.5165C137.388 29.4697 137.967 29.6654 138.448 30.1034C138.748 30.3763 138.943 30.6768 139.034 31.0048C139.125 31.3327 139.055 31.6229 138.825 31.8753C138.689 32.0252 138.538 32.1115 138.373 32.1343C138.208 32.1571 138.043 32.0931 137.877 31.9423C137.68 31.7628 137.591 31.5668 137.612 31.3545C137.632 31.1421 137.661 30.952 137.698 30.7841L137.833 30.2794C137.549 30.0209 137.207 29.8972 136.808 29.9084C136.415 29.9116 135.989 30.0071 135.53 30.1947C135.078 30.3744 134.62 30.5997 134.157 30.8705L133.507 31.2521L130.76 34.2688L132.688 36.0247Z" fill="#011ECB"/>
<path d="M137.823 42.7848C137.486 42.3715 137.287 41.9345 137.228 41.4736C137.177 41.006 137.232 40.534 137.394 40.0576C137.571 39.5828 137.826 39.1272 138.158 38.6908C138.49 38.2544 138.871 37.8609 139.301 37.5102C139.739 37.1528 140.201 36.8585 140.687 36.6272C141.181 36.3892 141.674 36.2345 142.167 36.1631C142.674 36.0932 143.148 36.1336 143.587 36.2842C144.035 36.4282 144.428 36.7067 144.765 37.1199C145.102 37.5332 145.296 37.9736 145.348 38.4412C145.407 38.9021 145.348 39.37 145.171 39.8448C145.009 40.3212 144.762 40.7775 144.43 41.2139C144.106 41.6435 143.725 42.037 143.287 42.3944C142.857 42.7451 142.395 43.0395 141.901 43.2775C141.407 43.5155 140.906 43.6695 140.399 43.7394C139.906 43.8108 139.436 43.7745 138.988 43.6306C138.549 43.4799 138.16 43.198 137.823 42.7848ZM138.22 42.4611C138.645 42.9817 139.18 43.1989 139.825 43.1127C140.479 43.0197 141.19 42.6597 141.959 42.0325L143.199 41.0209C143.967 40.3937 144.458 39.7726 144.672 39.1574C144.894 38.5356 144.793 37.9643 144.368 37.4436C143.943 36.923 143.404 36.7092 142.75 36.8021C142.105 36.8883 141.398 37.245 140.629 37.8722L139.389 38.8838C138.621 39.511 138.125 40.1355 137.903 40.7574C137.689 41.3725 137.795 41.9404 138.22 42.4611Z" fill="#011ECB"/>
<path d="M153.129 47.2203C153.003 47.0095 152.97 46.7871 153.03 46.5532C153.089 46.3193 153.224 46.1396 153.435 46.0141C153.646 45.8887 153.868 45.8557 154.102 45.9151C154.336 45.9745 154.516 46.1096 154.641 46.3204C154.767 46.5313 154.8 46.7537 154.74 46.9876C154.681 47.2215 154.546 47.4012 154.335 47.5267C154.124 47.6521 153.902 47.6851 153.668 47.6257C153.434 47.5663 153.254 47.4312 153.129 47.2203ZM152.111 48.0123L152.307 48.3423L144.744 52.8418L144.736 52.8281C143.948 53.2349 143.169 53.3445 142.4 53.1569C141.627 52.9839 140.975 52.4528 140.446 51.5636C140.119 51.0136 139.959 50.5255 139.966 50.0993C139.979 49.6823 140.141 49.381 140.452 49.1956C140.654 49.0756 140.843 49.0379 141.018 49.0824C141.199 49.1362 141.347 49.2593 141.461 49.4518C141.592 49.6718 141.629 49.8796 141.571 50.0751C141.514 50.2706 141.422 50.4495 141.295 50.6119L140.755 51.2684C141.053 51.8732 141.498 52.2471 142.092 52.3902C142.683 52.5479 143.372 52.3922 144.16 51.9232L150.898 47.9145L149.736 45.962L150.066 45.7656L151.407 47.6118L152.111 48.0123Z" fill="#011ECB"/>
<path d="M148.077 60.521C147.83 59.9189 147.776 59.3073 147.913 58.6862C148.064 58.0708 148.389 57.4996 148.888 56.9724C149.39 56.4551 150.047 56.0306 150.856 55.6989C151.389 55.4805 151.926 55.3293 152.468 55.2455C153.024 55.1675 153.557 55.1739 154.067 55.2647C154.581 55.3653 155.035 55.5595 155.43 55.8474C155.829 56.1451 156.137 56.5604 156.356 57.0934C156.675 57.8731 156.665 58.6091 156.327 59.3013C155.992 60.0033 155.346 60.5505 154.388 60.9429C154.26 60.9955 154.14 61.0391 154.027 61.0738C153.919 61.1183 153.833 61.1477 153.769 61.1621L151.882 56.5578L150.639 57.0675C150.017 57.3224 149.543 57.6433 149.218 58.0304C148.902 58.4134 148.713 58.825 148.652 59.2653C148.59 59.7055 148.64 60.123 148.802 60.5178C148.956 60.8929 149.164 61.1764 149.427 61.3683C149.694 61.57 149.974 61.7033 150.265 61.7682C150.571 61.8389 150.84 61.8614 151.071 61.8357L151.095 62.189C150.785 62.2471 150.429 62.2373 150.028 62.1595C149.637 62.0776 149.262 61.9084 148.904 61.652C148.555 61.3915 148.279 61.0145 148.077 60.521ZM155.87 57.2579C155.7 56.8434 155.431 56.5387 155.063 56.3437C154.708 56.1546 154.287 56.068 153.798 56.084C153.318 56.096 152.808 56.2014 152.267 56.4001L153.481 59.361C153.525 59.4696 153.578 59.5692 153.638 59.6598C153.712 59.7562 153.822 59.8147 153.969 59.8352C154.13 59.8616 154.358 59.8141 154.654 59.6928C155.266 59.442 155.67 59.0919 155.867 58.6426C156.063 58.1932 156.064 57.7317 155.87 57.2579Z" fill="#011ECB"/>
<path d="M151.036 70.0754C150.885 69.4643 150.927 68.8772 151.162 68.3141C151.41 67.7588 151.817 67.2688 152.382 66.844C152.961 66.4271 153.665 66.1167 154.493 65.9128C155.353 65.7013 156.154 65.6525 156.896 65.7665C157.638 65.8805 158.262 66.139 158.767 66.5419C159.286 66.9525 159.626 67.4893 159.79 68.1522C159.902 68.608 159.91 69.0452 159.816 69.464C159.731 69.8802 159.561 70.2353 159.303 70.5292C159.057 70.8206 158.741 71.0135 158.358 71.1078C157.996 71.197 157.709 71.1688 157.497 71.0231C157.288 70.8878 157.158 70.7166 157.107 70.5094C157.066 70.3437 157.08 70.1756 157.148 70.0051C157.229 69.8424 157.367 69.7368 157.564 69.6884C157.771 69.6374 157.982 69.668 158.196 69.78C158.421 69.8895 158.717 69.998 159.084 70.1054C159.193 69.9687 159.28 69.744 159.346 69.4312C159.425 69.1262 159.416 68.7769 159.319 68.3833C159.141 67.6583 158.727 67.1613 158.079 66.8924C157.431 66.6235 156.63 66.6063 155.677 66.8408L154.123 67.223C153.471 67.3836 152.953 67.621 152.569 67.9352C152.197 68.2572 151.945 68.6158 151.812 69.0111C151.678 69.4065 151.66 69.8009 151.757 70.1945C151.849 70.5674 152.01 70.8681 152.242 71.0966C152.474 71.3252 152.73 71.493 153.009 71.6001C153.298 71.7046 153.559 71.7612 153.792 71.7699L153.764 72.1229C153.448 72.1347 153.098 72.0726 152.713 71.9366C152.341 71.8084 151.996 71.5911 151.679 71.2847C151.375 70.986 151.16 70.5829 151.036 70.0754Z" fill="#011ECB"/>
<path d="M152.612 80.4787C152.539 79.7034 152.719 79.0491 153.151 78.5157C153.595 77.992 154.289 77.6858 155.235 77.5972L160.619 77.0921L160.449 75.2761L160.958 75.2283L161.129 77.0443L162.9 77.6013L162.935 77.9677L161.23 78.1276L161.62 82.2853L161.111 82.3331L160.721 78.1754L155.416 78.6729C154.683 78.7417 154.129 78.9436 153.753 79.2789C153.388 79.6131 153.233 80.0722 153.288 80.6563C153.332 81.1236 153.478 81.4849 153.727 81.7401C153.977 82.0059 154.288 82.1803 154.66 82.2632C155.043 82.3558 155.448 82.3822 155.873 82.3423L156.287 82.3035L156.332 82.7814L155.917 82.8202C155.62 82.8481 155.287 82.8418 154.919 82.8014C154.562 82.7599 154.215 82.6585 153.878 82.4972C153.553 82.3456 153.274 82.104 153.039 81.7725C152.805 81.4515 152.663 81.0203 152.612 80.4787Z" fill="#011ECB"/>
<path d="M152.604 90.5251C152.633 89.9925 152.779 89.5571 153.044 89.219C153.307 88.8914 153.619 88.6466 153.981 88.4846C154.353 88.3232 154.7 88.2299 155.021 88.2046L155.028 88.0768L152.903 87.9615L152.931 87.4503L156.67 87.6531L156.625 88.4839L156.433 88.4735C156.326 88.4677 156.15 88.4635 155.905 88.4609C155.659 88.4689 155.384 88.5021 155.082 88.5604C154.78 88.6188 154.486 88.715 154.201 88.8491C153.916 88.9939 153.675 89.1998 153.479 89.4669C153.283 89.734 153.173 90.0806 153.15 90.5066C153.124 90.9859 153.227 91.3547 153.458 91.6129C153.69 91.8819 154.002 92.027 154.396 92.0484C154.78 92.0692 155.115 91.9859 155.403 91.7986C155.702 91.6118 155.966 91.3644 156.197 91.0565C156.438 90.7491 156.674 90.4201 156.907 90.0695C157.139 89.7296 157.381 89.4062 157.633 89.0994C157.895 88.7932 158.186 88.5472 158.506 88.3616C158.836 88.1766 159.22 88.0959 159.657 88.1196C160.253 88.152 160.733 88.3756 161.095 88.7905C161.457 89.2054 161.619 89.7483 161.583 90.4194C161.556 90.9093 161.439 91.2929 161.232 91.57C161.035 91.8478 160.806 92.049 160.542 92.1736C160.289 92.3094 160.06 92.3984 159.855 92.4407L159.848 92.5685L161.302 92.6474L161.274 93.1587L158.175 92.9905L158.211 92.3195L158.259 92.3221C158.536 92.3371 158.831 92.321 159.143 92.2739C159.455 92.2267 159.754 92.1308 160.04 91.9861C160.325 91.852 160.56 91.6564 160.745 91.3994C160.929 91.153 161.032 90.8328 161.053 90.4387C161.08 89.9487 160.97 89.6063 160.724 89.4114C160.479 89.2164 160.217 89.1114 159.94 89.0964C159.599 89.0779 159.29 89.1626 159.013 89.3506C158.747 89.5391 158.493 89.787 158.252 90.0944C158.021 90.4024 157.79 90.7263 157.558 91.0663C157.325 91.4168 157.073 91.7449 156.8 92.0506C156.537 92.3568 156.236 92.6022 155.894 92.7866C155.564 92.9717 155.175 93.0521 154.728 93.0278C154.302 93.0047 153.924 92.8774 153.595 92.6458C153.265 92.425 153.009 92.128 152.826 91.7549C152.653 91.393 152.579 90.9831 152.604 90.5251Z" fill="#011ECB"/>
<path d="M146.264 112.256L147.425 111.466L148.96 114.495L149.042 114.504L150.788 111.585L151.877 112.45L149.476 114.832L149.505 114.928L152.806 115.684L152.326 116.999L149.313 115.454L149.229 115.508L149.534 118.877L148.15 118.819L148.686 115.481L148.618 115.434L145.493 116.764L145.113 115.413L148.456 114.886L148.483 114.811L146.264 112.256Z" fill="#011ECB"/>
<path d="M117.685 141.892L117.937 142.374L116.251 143.258L121.032 152.385L122.477 151.628L122.656 151.968L121.306 152.91L120.868 153.591L120.528 153.769L119.897 152.564L119.855 152.586C119.873 152.806 119.849 153.047 119.782 153.311C119.721 153.584 119.604 153.844 119.432 154.09C119.265 154.346 119.031 154.553 118.728 154.712C118.256 154.959 117.775 155.006 117.285 154.853C116.796 154.7 116.325 154.387 115.872 153.914C115.41 153.446 114.991 152.852 114.615 152.134C114.209 151.359 113.937 150.599 113.799 149.852C113.651 149.111 113.667 148.452 113.847 147.876C114.027 147.3 114.396 146.866 114.953 146.574C115.303 146.391 115.631 146.304 115.936 146.312C116.237 146.335 116.496 146.392 116.712 146.484L115.287 143.762L112.962 144.98L112.71 144.498L117.685 141.892ZM117.625 148.227C117.254 147.518 116.855 147.089 116.427 146.94C116 146.791 115.588 146.82 115.191 147.028C114.747 147.26 114.477 147.607 114.38 148.066C114.289 148.536 114.412 149.092 114.748 149.734L116.508 153.093C116.81 153.67 117.167 154.006 117.579 154.104C117.991 154.201 118.377 154.155 118.736 153.967C119.057 153.799 119.282 153.573 119.41 153.289C119.534 153.019 119.59 152.737 119.58 152.441C119.56 152.151 119.508 151.889 119.422 151.657L117.625 148.227Z" fill="#011ECB"/>
<path d="M104.935 151.379L104.756 150.865L110.06 149.02L110.239 149.534L108.425 150.165L110.812 157.025L112.353 156.489L112.48 156.852L111.007 157.584L110.473 158.194L110.11 158.32L109.185 155.66L109.14 155.676L109.143 155.929C109.153 156.705 109.017 157.401 108.735 158.019C108.453 158.637 108.005 159.052 107.39 159.266C107.007 159.399 106.65 159.427 106.319 159.351C105.987 159.274 105.765 159.075 105.653 158.752C105.586 158.561 105.583 158.387 105.641 158.231C105.7 158.075 105.835 157.961 106.047 157.887C106.298 157.799 106.513 157.815 106.69 157.934C106.867 158.053 107.02 158.169 107.15 158.282L107.529 158.642C107.892 158.516 108.163 158.274 108.344 157.918C108.529 157.571 108.648 157.151 108.702 156.658C108.76 156.175 108.78 155.665 108.763 155.129L108.738 154.376L107.398 150.522L104.935 151.379Z" fill="#011ECB"/>
<path d="M96.5393 152.655C97.0633 152.556 97.542 152.59 97.9754 152.757C98.4108 152.936 98.7992 153.21 99.1406 153.579C99.4734 153.961 99.7523 154.402 99.9773 154.903C100.202 155.403 100.366 155.925 100.469 156.47C100.575 157.026 100.613 157.572 100.584 158.11C100.558 158.658 100.458 159.165 100.286 159.632C100.105 160.111 99.844 160.508 99.5018 160.822C99.1616 161.147 98.7295 161.359 98.2055 161.458C97.6814 161.558 97.2017 161.518 96.7663 161.34C96.3329 161.172 95.9498 160.897 95.617 160.515C95.2756 160.146 94.9924 159.711 94.7675 159.211C94.5445 158.721 94.3805 158.198 94.2754 157.643C94.1722 157.098 94.1339 156.551 94.1605 156.004C94.1871 155.456 94.2908 154.942 94.4714 154.463C94.6436 153.996 94.8998 153.6 95.24 153.275C95.5822 152.961 96.0153 152.754 96.5393 152.655ZM96.6345 153.158C95.9742 153.283 95.528 153.65 95.2957 154.258C95.0655 154.877 95.0426 155.674 95.2271 156.648L95.5246 158.221C95.7091 159.195 96.0206 159.923 96.4591 160.405C96.8996 160.897 97.45 161.08 98.1103 160.955C98.7705 160.83 99.2158 160.458 99.4461 159.84C99.6783 159.231 99.7022 158.439 99.5177 157.465L99.2202 155.893C99.0357 154.918 98.7232 154.185 98.2827 153.693C97.8442 153.211 97.2948 153.033 96.6345 153.158Z" fill="#011ECB"/>
<path d="M85.3341 163.992C85.5792 163.982 85.7904 164.059 85.9677 164.223C86.1449 164.387 86.2384 164.591 86.248 164.836C86.2576 165.081 86.1806 165.293 86.0167 165.47C85.8529 165.647 85.6484 165.741 85.4033 165.75C85.1581 165.76 84.9469 165.683 84.7697 165.519C84.5924 165.355 84.499 165.151 84.4894 164.905C84.4797 164.66 84.5568 164.449 84.7206 164.272C84.8845 164.095 85.0889 164.001 85.3341 163.992ZM85.1239 162.719L84.7402 162.734L84.3943 153.941L84.4103 153.94C84.4287 153.053 84.704 152.317 85.236 151.73C85.7569 151.133 86.5343 150.814 87.5682 150.774C88.2077 150.748 88.7131 150.841 89.0843 151.05C89.4448 151.26 89.6322 151.546 89.6464 151.909C89.6557 152.143 89.5988 152.327 89.476 152.46C89.3424 152.593 89.1638 152.664 88.9399 152.673C88.6841 152.683 88.484 152.616 88.3396 152.473C88.1952 152.329 88.0819 152.162 87.9997 151.974L87.6805 151.185C87.0069 151.159 86.4656 151.372 86.0564 151.826C85.6362 152.269 85.4441 152.949 85.4802 153.866L85.7884 161.7L88.0586 161.611L88.0737 161.994L85.8116 162.291L85.1239 162.719Z" fill="#011ECB"/>
<path d="M76.064 153.211C76.7108 153.281 77.2744 153.525 77.7548 153.942C78.2234 154.368 78.5704 154.926 78.7957 155.616C79.0105 156.305 79.0706 157.084 78.9759 157.953C78.9136 158.526 78.79 159.071 78.605 159.587C78.4083 160.113 78.1484 160.578 77.8254 160.983C77.4918 161.386 77.1044 161.693 76.6631 161.902C76.2112 162.111 75.699 162.184 75.1264 162.121C74.2887 162.03 73.6465 161.671 73.1998 161.043C72.7425 160.413 72.5698 159.585 72.6818 158.556C72.6968 158.418 72.7159 158.291 72.7392 158.176C72.7519 158.059 72.7671 157.97 72.7846 157.907L77.7314 158.446L77.8768 157.11C77.9495 156.442 77.8934 155.872 77.7086 155.401C77.5226 154.941 77.2509 154.579 76.8934 154.315C76.5359 154.051 76.145 153.895 75.7209 153.849C75.3179 153.805 74.9694 153.853 74.6752 153.993C74.3704 154.131 74.1199 154.313 73.9237 154.539C73.7158 154.774 73.5678 154.999 73.48 155.215L73.1581 155.067C73.2552 154.766 73.4335 154.459 73.6931 154.143C73.9516 153.839 74.2791 153.59 74.6756 153.397C75.071 153.215 75.5338 153.153 76.064 153.211ZM75.2136 161.616C75.659 161.664 76.0551 161.573 76.4021 161.343C76.7373 161.122 77.0146 160.793 77.2339 160.355C77.452 159.928 77.6028 159.43 77.6864 158.859L74.5051 158.513C74.3885 158.5 74.276 158.499 74.1677 158.508C74.0475 158.528 73.9435 158.597 73.8554 158.716C73.7555 158.845 73.6883 159.068 73.6537 159.386C73.5821 160.043 73.697 160.566 73.9982 160.952C74.2995 161.339 74.7046 161.56 75.2136 161.616Z" fill="#011ECB"/>
<path d="M66.2586 151.249C66.8674 151.409 67.3632 151.726 67.7459 152.201C68.1157 152.684 68.3523 153.275 68.4557 153.975C68.5462 154.682 68.4833 155.449 68.2671 156.274C68.0428 157.131 67.7035 157.858 67.2493 158.456C66.795 159.053 66.2702 159.478 65.675 159.73C65.0667 159.99 64.4323 160.033 63.7719 159.86C63.3179 159.742 62.9295 159.541 62.6066 159.258C62.2811 158.985 62.0505 158.665 61.9149 158.299C61.7766 157.943 61.7574 157.574 61.8574 157.192C61.952 156.831 62.1138 156.592 62.3427 156.476C62.5614 156.357 62.7739 156.324 62.9803 156.378C63.1454 156.421 63.2866 156.514 63.4041 156.655C63.5085 156.803 63.535 156.976 63.4837 157.172C63.4296 157.378 63.3023 157.549 63.1015 157.684C62.8981 157.829 62.6616 158.037 62.3921 158.308C62.4602 158.469 62.616 158.654 62.8594 158.861C63.0899 159.075 63.4012 159.234 63.7933 159.337C64.5156 159.526 65.1496 159.4 65.6952 158.958C66.2409 158.517 66.638 157.821 66.8866 156.872L67.292 155.324C67.4622 154.674 67.5009 154.105 67.408 153.618C67.3021 153.138 67.1073 152.745 66.8235 152.439C66.5398 152.134 66.2018 151.929 65.8097 151.827C65.4382 151.729 65.0967 151.728 64.7852 151.823C64.4737 151.918 64.2043 152.062 63.9771 152.256C63.7471 152.461 63.5728 152.663 63.4541 152.864L63.1575 152.67C63.2977 152.387 63.5195 152.109 63.8226 151.835C64.1128 151.57 64.4682 151.37 64.8888 151.238C65.2963 151.113 65.7529 151.117 66.2586 151.249Z" fill="#011ECB"/>
<path d="M56.3596 147.667C57.0757 147.973 57.565 148.443 57.8275 149.077C58.0761 149.717 58.0138 150.474 57.6408 151.347L55.5156 156.32L57.1928 157.036L56.9916 157.507L55.3144 156.79L53.9795 158.082L53.6411 157.937L54.3139 156.363L50.4739 154.722L50.6751 154.251L54.5151 155.892L56.6089 150.993C56.8981 150.316 56.985 149.732 56.8697 149.242C56.7501 148.762 56.4206 148.407 55.8812 148.176C55.4496 147.992 55.0623 147.948 54.7192 148.045C54.3664 148.138 54.0647 148.328 53.8143 148.615C53.5499 148.908 53.3339 149.251 53.1662 149.643L53.0027 150.026L52.5613 149.837L52.7248 149.455C52.8422 149.18 53.0065 148.891 53.2176 148.586C53.4246 148.292 53.6793 148.036 53.9816 147.817C54.2699 147.604 54.6157 147.473 55.019 147.425C55.4125 147.373 55.8594 147.453 56.3596 147.667Z" fill="#011ECB"/>
<path d="M47.5345 142.869C47.9887 143.148 48.3014 143.485 48.4727 143.878C48.6348 144.266 48.7009 144.657 48.6708 145.052C48.6352 145.456 48.5517 145.805 48.4204 146.1L48.5294 146.167L49.6446 144.355L50.0806 144.623L48.1186 147.812L47.41 147.376L47.5106 147.212C47.5665 147.122 47.6542 146.969 47.7737 146.754C47.8841 146.534 47.9858 146.277 48.0787 145.984C48.1716 145.69 48.2271 145.386 48.2453 145.072C48.2543 144.752 48.1883 144.442 48.0471 144.142C47.9059 143.842 47.6536 143.581 47.2903 143.357C46.8814 143.106 46.5083 143.02 46.1708 143.1C45.8242 143.175 45.5475 143.381 45.3406 143.717C45.1394 144.044 45.0524 144.379 45.0797 144.721C45.1014 145.072 45.1926 145.423 45.3534 145.772C45.5085 146.131 45.6846 146.496 45.8817 146.868C46.0697 147.234 46.2385 147.601 46.3881 147.968C46.532 148.345 46.6093 148.718 46.6198 149.088C46.6247 149.466 46.5126 149.842 46.2834 150.214C45.9704 150.723 45.5452 151.038 45.0078 151.158C44.4704 151.278 43.9156 151.162 43.3432 150.81C42.9253 150.553 42.6441 150.267 42.4994 149.953C42.3491 149.647 42.282 149.349 42.2981 149.059C42.2995 148.771 42.3305 148.527 42.3913 148.327L42.2823 148.26L41.5193 149.5L41.0832 149.232L42.7099 146.588L43.2822 146.94L43.257 146.981C43.1117 147.217 42.9852 147.484 42.8776 147.781C42.7701 148.078 42.7117 148.386 42.7027 148.706C42.6845 149.021 42.7443 149.321 42.882 149.606C43.0106 149.885 43.2429 150.128 43.5791 150.335C43.997 150.592 44.3502 150.659 44.6388 150.536C44.9274 150.413 45.1444 150.234 45.2897 149.998C45.4686 149.707 45.5416 149.395 45.5087 149.062C45.4702 148.737 45.3734 148.396 45.2183 148.037C45.0575 147.688 44.8832 147.33 44.6952 146.964C44.4981 146.592 44.3303 146.214 44.192 145.828C44.048 145.451 43.9763 145.069 43.977 144.681C43.9721 144.302 44.087 143.922 44.3218 143.541C44.5454 143.177 44.8375 142.906 45.198 142.727C45.5495 142.543 45.9328 142.459 46.3479 142.477C46.7483 142.498 47.1438 142.628 47.5345 142.869Z" fill="#011ECB"/>
</svg>
