<svg width="15643" height="1860" viewBox="0 0 15643 1860" fill="none" xmlns="http://www.w3.org/2000/svg">
<rect width="15643" height="1860" fill="#F5F1EA"/>
<path d="M820 1162C799.6 1162 781.6 1155.6 766 1142.8C750.8 1130 738 1112.8 727.6 1091.2C717.6 1069.2 710 1044.8 704.8 1018C699.6 990.8 697 962.8 697 934C697 905.2 699.4 877.4 704.2 850.6C709.4 823.4 717.2 799 727.6 777.4C738 755.4 750.8 738 766 725.2C781.6 712.4 799.6 706 820 706C840.4 706 858.2 712.4 873.4 725.2C889 738 902 755.4 912.4 777.4C922.8 799 930.4 823.4 935.2 850.6C940.4 877.4 943 905.2 943 934C943 962.8 940.4 990.8 935.2 1018C930 1044.8 922.2 1069.2 911.8 1091.2C901.8 1112.8 889 1130 873.4 1142.8C858.2 1155.6 840.4 1162 820 1162ZM820 1139.8C848.4 1139.8 868.6 1129.6 880.6 1109.2C892.6 1088.8 898.6 1061.4 898.6 1027V841C898.6 806.6 892.4 779.2 880 758.8C868 738.4 848 728.2 820 728.2C792 728.2 771.8 738.4 759.4 758.8C747.4 779.2 741.4 806.6 741.4 841V1027C741.4 1061.4 747.4 1088.8 759.4 1109.2C771.8 1129.6 792 1139.8 820 1139.8ZM968.2 1156V1135.6H1099.6V775H990.4V758.8L1043.8 754C1063.4 752 1079.6 747.4 1092.4 740.2C1105.6 732.6 1116.8 721.2 1126 706H1140.4V1135.6H1253.8V1156H968.2Z" fill="#011ECB"/>
<path d="M1535.41 686H1570.57V1074.48L1568.22 1136H1535.41V686ZM1791.17 974.574V980.727C1791.17 1004.36 1788.44 1026.04 1782.97 1045.77C1777.5 1065.49 1769.59 1082.58 1759.24 1097.04C1748.89 1111.29 1736.19 1122.33 1721.15 1130.14C1706.31 1137.95 1689.22 1141.86 1669.88 1141.86C1650.94 1141.86 1634.14 1138.93 1619.49 1133.07C1604.84 1127.02 1592.34 1118.52 1581.99 1107.58C1571.64 1096.45 1563.34 1083.46 1557.09 1068.62C1550.84 1053.58 1546.45 1037.07 1543.91 1019.11V940.883C1546.84 921.742 1551.52 904.359 1557.97 888.734C1564.41 873.109 1572.71 859.633 1582.87 848.305C1593.22 836.977 1605.53 828.285 1619.79 822.23C1634.24 816.176 1650.74 813.148 1669.3 813.148C1688.63 813.148 1705.82 816.957 1720.86 824.574C1736.09 831.996 1748.89 842.836 1759.24 857.094C1769.59 871.156 1777.5 888.148 1782.97 908.07C1788.44 927.797 1791.17 949.965 1791.17 974.574ZM1755.72 980.727V974.574C1755.72 956.02 1753.96 938.832 1750.45 923.012C1746.93 907.191 1741.37 893.422 1733.75 881.703C1726.33 869.789 1716.76 860.512 1705.04 853.871C1693.32 847.23 1679.26 843.91 1662.85 843.91C1646.05 843.91 1631.7 846.742 1619.79 852.406C1608.07 857.875 1598.3 865.199 1590.49 874.379C1582.87 883.363 1576.82 893.227 1572.32 903.969C1567.83 914.711 1564.51 925.258 1562.36 935.609V1026.72C1565.68 1041.37 1571.45 1055.14 1579.65 1068.03C1587.85 1080.92 1598.89 1091.37 1612.75 1099.38C1626.62 1107.19 1643.52 1111.1 1663.44 1111.1C1679.45 1111.1 1693.22 1107.78 1704.75 1101.14C1716.46 1094.5 1726.04 1085.32 1733.46 1073.6C1741.07 1061.88 1746.64 1048.11 1750.16 1032.29C1753.87 1016.47 1755.72 999.281 1755.72 980.727ZM1903.67 871.449V1136H1868.81V819.008H1902.79L1903.67 871.449ZM2015.88 816.664L2015 848.891C2011.09 848.305 2007.29 847.816 2003.57 847.426C1999.86 847.035 1995.86 846.84 1991.56 846.84C1976.33 846.84 1962.95 849.672 1951.43 855.336C1940.1 860.805 1930.53 868.52 1922.71 878.48C1914.9 888.246 1908.95 899.77 1904.84 913.051C1900.74 926.137 1898.4 940.199 1897.81 955.238L1884.92 960.219C1884.92 939.516 1887.07 920.277 1891.37 902.504C1895.66 884.73 1902.21 869.203 1911 855.922C1919.98 842.445 1931.21 831.996 1944.69 824.574C1958.36 816.957 1974.38 813.148 1992.73 813.148C1997.23 813.148 2001.62 813.539 2005.92 814.32C2010.41 814.906 2013.73 815.688 2015.88 816.664ZM2252.01 1079.16V915.688C2252.01 900.648 2248.89 887.66 2242.64 876.723C2236.39 865.785 2227.21 857.387 2215.1 851.527C2202.99 845.668 2188.05 842.738 2170.27 842.738C2153.87 842.738 2139.22 845.668 2126.33 851.527C2113.63 857.191 2103.57 864.906 2096.15 874.672C2088.93 884.242 2085.31 894.887 2085.31 906.605L2050.16 906.312C2050.16 894.398 2053.09 882.875 2058.95 871.742C2064.8 860.609 2073.11 850.648 2083.85 841.859C2094.59 833.07 2107.38 826.137 2122.23 821.059C2137.27 815.785 2153.77 813.148 2171.74 813.148C2194.39 813.148 2214.32 816.957 2231.5 824.574C2248.89 832.191 2262.46 843.617 2272.23 858.852C2281.99 874.086 2286.88 893.227 2286.88 916.273V1069.5C2286.88 1080.43 2287.66 1091.76 2289.22 1103.48C2290.98 1115.2 2293.42 1124.87 2296.54 1132.48V1136H2259.34C2256.99 1128.97 2255.14 1120.18 2253.77 1109.63C2252.6 1098.89 2252.01 1088.73 2252.01 1079.16ZM2260.21 951.43L2260.8 978.383H2191.95C2173.98 978.383 2157.87 980.043 2143.61 983.363C2129.55 986.488 2117.64 991.176 2107.87 997.426C2098.11 1003.48 2090.59 1010.8 2085.31 1019.4C2080.23 1027.99 2077.7 1037.76 2077.7 1048.7C2077.7 1060.02 2080.53 1070.38 2086.19 1079.75C2092.05 1089.12 2100.25 1096.64 2110.8 1102.31C2121.54 1107.78 2134.24 1110.51 2148.89 1110.51C2168.42 1110.51 2185.61 1106.9 2200.45 1099.67C2215.49 1092.45 2227.89 1082.97 2237.66 1071.25C2247.42 1059.54 2253.96 1046.74 2257.29 1032.88L2272.52 1053.09C2269.98 1062.86 2265.29 1072.91 2258.46 1083.27C2251.82 1093.42 2243.12 1102.99 2232.38 1111.98C2221.64 1120.77 2208.95 1127.99 2194.3 1133.66C2179.84 1139.12 2163.44 1141.86 2145.08 1141.86C2124.38 1141.86 2106.31 1137.95 2090.88 1130.14C2075.64 1122.33 2063.73 1111.68 2055.14 1098.21C2046.74 1084.54 2042.54 1069.11 2042.54 1051.92C2042.54 1036.29 2045.86 1022.33 2052.5 1010.02C2059.14 997.523 2068.71 986.977 2081.21 978.383C2093.91 969.594 2109.14 962.953 2126.91 958.461C2144.88 953.773 2165 951.43 2187.27 951.43H2260.21ZM2415.78 886.684V1136H2380.92V819.008H2414.32L2415.78 886.684ZM2407.87 957.875L2392.34 949.086C2393.52 930.336 2397.32 912.758 2403.77 896.352C2410.21 879.945 2418.91 865.492 2429.84 852.992C2440.98 840.492 2453.96 830.727 2468.81 823.695C2483.85 816.664 2500.45 813.148 2518.61 813.148C2534.43 813.148 2548.59 815.297 2561.09 819.594C2573.59 823.891 2584.24 830.727 2593.03 840.102C2601.82 849.477 2608.46 861.488 2612.95 876.137C2617.64 890.785 2619.98 908.656 2619.98 929.75V1136H2584.82V929.457C2584.82 907.582 2581.8 890.492 2575.74 878.188C2569.69 865.688 2561.09 856.801 2549.96 851.527C2538.83 846.254 2525.64 843.617 2510.41 843.617C2493.61 843.617 2478.87 847.328 2466.17 854.75C2453.67 861.977 2443.12 871.449 2434.53 883.168C2426.13 894.691 2419.69 907.094 2415.2 920.375C2410.7 933.461 2408.26 945.961 2407.87 957.875ZM2916.76 1074.48V686H2951.91V1136H2919.1L2916.76 1074.48ZM2696.74 980.727V974.574C2696.74 949.965 2699.57 927.797 2705.23 908.07C2710.9 888.148 2719 871.156 2729.55 857.094C2740.29 842.836 2753.18 831.996 2768.22 824.574C2783.26 816.957 2800.25 813.148 2819.2 813.148C2837.75 813.148 2854.16 816.176 2868.42 822.23C2882.68 828.285 2894.88 836.977 2905.04 848.305C2915.39 859.633 2923.69 873.109 2929.94 888.734C2936.39 904.359 2941.07 921.742 2944 940.883V1019.11C2941.66 1037.07 2937.36 1053.58 2931.11 1068.62C2924.86 1083.46 2916.56 1096.45 2906.21 1107.58C2895.86 1118.52 2883.36 1127.02 2868.71 1133.07C2854.26 1138.93 2837.56 1141.86 2818.61 1141.86C2799.86 1141.86 2782.97 1137.95 2767.93 1130.14C2752.89 1122.33 2740.1 1111.29 2729.55 1097.04C2719 1082.58 2710.9 1065.49 2705.23 1045.77C2699.57 1026.04 2696.74 1004.36 2696.74 980.727ZM2731.89 974.574V980.727C2731.89 999.281 2733.75 1016.47 2737.46 1032.29C2741.17 1048.11 2746.84 1061.88 2754.45 1073.6C2762.07 1085.32 2771.74 1094.5 2783.46 1101.14C2795.18 1107.78 2809.04 1111.1 2825.06 1111.1C2845.18 1111.1 2862.07 1107.29 2875.74 1099.67C2889.41 1091.86 2900.35 1081.61 2908.55 1068.91C2916.76 1056.02 2922.71 1041.96 2926.43 1026.72V935.609C2924.08 925.258 2920.66 914.711 2916.17 903.969C2911.68 893.227 2905.53 883.363 2897.71 874.379C2890.1 865.199 2880.33 857.875 2868.42 852.406C2856.7 846.742 2842.44 843.91 2825.64 843.91C2809.43 843.91 2795.47 847.23 2783.75 853.871C2772.03 860.512 2762.27 869.789 2754.45 881.703C2746.84 893.422 2741.17 907.191 2737.46 923.012C2733.75 938.832 2731.89 956.02 2731.89 974.574ZM3083.16 819.008V1136H3048.3V819.008H3083.16ZM3042.15 727.309C3042.15 720.668 3044.2 715.102 3048.3 710.609C3052.6 705.922 3058.46 703.578 3065.88 703.578C3073.3 703.578 3079.16 705.922 3083.46 710.609C3087.95 715.102 3090.2 720.668 3090.2 727.309C3090.2 733.754 3087.95 739.32 3083.46 744.008C3079.16 748.5 3073.3 750.746 3065.88 750.746C3058.46 750.746 3052.6 748.5 3048.3 744.008C3044.2 739.32 3042.15 733.754 3042.15 727.309ZM3213.83 886.684V1136H3178.96V819.008H3212.36L3213.83 886.684ZM3205.92 957.875L3190.39 949.086C3191.56 930.336 3195.37 912.758 3201.82 896.352C3208.26 879.945 3216.95 865.492 3227.89 852.992C3239.02 840.492 3252.01 830.727 3266.86 823.695C3281.89 816.664 3298.5 813.148 3316.66 813.148C3332.48 813.148 3346.64 815.297 3359.14 819.594C3371.64 823.891 3382.29 830.727 3391.07 840.102C3399.86 849.477 3406.5 861.488 3411 876.137C3415.68 890.785 3418.03 908.656 3418.03 929.75V1136H3382.87V929.457C3382.87 907.582 3379.84 890.492 3373.79 878.188C3367.73 865.688 3359.14 856.801 3348.01 851.527C3336.88 846.254 3323.69 843.617 3308.46 843.617C3291.66 843.617 3276.91 847.328 3264.22 854.75C3251.72 861.977 3241.17 871.449 3232.58 883.168C3224.18 894.691 3217.73 907.094 3213.24 920.375C3208.75 933.461 3206.31 945.961 3205.92 957.875ZM3717.44 819.008H3749.96V1130.43C3749.96 1157.97 3744.69 1181.61 3734.14 1201.33C3723.79 1221.06 3709.04 1236.2 3689.9 1246.74C3670.96 1257.29 3648.59 1262.56 3622.81 1262.56C3609.73 1262.56 3596.25 1260.51 3582.38 1256.41C3568.71 1252.5 3555.72 1246.45 3543.42 1238.25C3531.31 1230.24 3520.96 1220.28 3512.36 1208.36L3531.99 1186.98C3544.88 1202.6 3558.65 1214.03 3573.3 1221.25C3587.95 1228.68 3603.77 1232.39 3620.76 1232.39C3640.88 1232.39 3657.87 1228.38 3671.74 1220.38C3685.8 1212.37 3696.45 1200.84 3703.67 1185.8C3711.09 1170.77 3714.8 1152.7 3714.8 1131.61V888.734L3717.44 819.008ZM3494.79 980.727V974.574C3494.79 949.965 3497.52 927.797 3502.99 908.07C3508.65 888.148 3516.76 871.156 3527.3 857.094C3537.85 842.836 3550.64 831.996 3565.68 824.574C3580.92 816.957 3598.11 813.148 3617.25 813.148C3635.61 813.148 3651.91 816.176 3666.17 822.23C3680.43 828.285 3692.73 836.977 3703.09 848.305C3713.44 859.633 3721.74 873.109 3727.99 888.734C3734.43 904.359 3739.12 921.742 3742.05 940.883V1019.11C3739.71 1037.07 3735.41 1053.58 3729.16 1068.62C3722.91 1083.46 3714.61 1096.45 3704.26 1107.58C3693.91 1118.52 3681.41 1127.02 3666.76 1133.07C3652.3 1138.93 3635.61 1141.86 3616.66 1141.86C3597.71 1141.86 3580.72 1137.95 3565.68 1130.14C3550.64 1122.33 3537.85 1111.29 3527.3 1097.04C3516.76 1082.58 3508.65 1065.49 3502.99 1045.77C3497.52 1026.04 3494.79 1004.36 3494.79 980.727ZM3529.94 974.574V980.727C3529.94 999.281 3531.8 1016.47 3535.51 1032.29C3539.22 1048.11 3544.88 1061.88 3552.5 1073.6C3560.12 1085.32 3569.79 1094.5 3581.5 1101.14C3593.22 1107.78 3606.99 1111.1 3622.81 1111.1C3642.93 1111.1 3659.82 1107.29 3673.5 1099.67C3687.17 1091.86 3698.01 1081.61 3706.02 1068.91C3714.02 1056.02 3719.88 1041.96 3723.59 1026.72V935.609C3721.45 925.258 3718.12 914.711 3713.63 903.969C3709.34 893.227 3703.28 883.363 3695.47 874.379C3687.85 865.199 3678.09 857.875 3666.17 852.406C3654.45 846.742 3640.2 843.91 3623.4 843.91C3607.38 843.91 3593.42 847.23 3581.5 853.871C3569.79 860.512 3560.12 869.789 3552.5 881.703C3544.88 893.422 3539.22 907.191 3535.51 923.012C3531.8 938.832 3529.94 956.02 3529.94 974.574Z" fill="#011ECB"/>
<path d="M12569 1162C12548.6 1162 12530.6 1155.6 12515 1142.8C12499.8 1130 12487 1112.8 12476.6 1091.2C12466.6 1069.2 12459 1044.8 12453.8 1018C12448.6 990.8 12446 962.8 12446 934C12446 905.2 12448.4 877.4 12453.2 850.6C12458.4 823.4 12466.2 799 12476.6 777.4C12487 755.4 12499.8 738 12515 725.2C12530.6 712.4 12548.6 706 12569 706C12589.4 706 12607.2 712.4 12622.4 725.2C12638 738 12651 755.4 12661.4 777.4C12671.8 799 12679.4 823.4 12684.2 850.6C12689.4 877.4 12692 905.2 12692 934C12692 962.8 12689.4 990.8 12684.2 1018C12679 1044.8 12671.2 1069.2 12660.8 1091.2C12650.8 1112.8 12638 1130 12622.4 1142.8C12607.2 1155.6 12589.4 1162 12569 1162ZM12569 1139.8C12597.4 1139.8 12617.6 1129.6 12629.6 1109.2C12641.6 1088.8 12647.6 1061.4 12647.6 1027V841C12647.6 806.6 12641.4 779.2 12629 758.8C12617 738.4 12597 728.2 12569 728.2C12541 728.2 12520.8 738.4 12508.4 758.8C12496.4 779.2 12490.4 806.6 12490.4 841V1027C12490.4 1061.4 12496.4 1088.8 12508.4 1109.2C12520.8 1129.6 12541 1139.8 12569 1139.8ZM12864.2 1162C12841.4 1162 12821.8 1157 12805.4 1147C12789.4 1136.6 12777 1122.6 12768.2 1105C12759.8 1087.4 12755.6 1068 12755.6 1046.8C12755.6 1026 12759.2 1010.2 12766.4 999.4C12774 988.6 12783.4 983.2 12794.6 983.2C12802.6 983.2 12809 985.8 12813.8 991C12819 996.2 12821.6 1003 12821.6 1011.4C12821.6 1021.4 12818.6 1029.2 12812.6 1034.8C12806.6 1040.4 12800.4 1045.4 12794 1049.8L12776 1062.4C12777.6 1084.4 12785.4 1103 12799.4 1118.2C12813.8 1133.4 12835 1141 12863 1141C12889 1141 12909.6 1133.8 12924.8 1119.4C12940 1104.6 12947.6 1083.4 12947.6 1055.8V974.8C12947.6 954.8 12942.6 937.8 12932.6 923.8C12923 909.4 12906.6 902.2 12883.4 902.2C12867.8 902.2 12853.6 905.4 12840.8 911.8C12828.4 918.2 12816.2 926.4 12804.2 936.4L12791.6 924.4L12947.6 752.2H12843.8C12838.2 752.2 12831.2 753.4 12822.8 755.8C12814.8 758.2 12807.6 762.6 12801.2 769C12794.8 775 12791 783.8 12789.8 795.4L12785.6 840.4H12768.8V712H12968.6V752.2L12839.6 892.6L12840.8 894.4C12845.2 892 12851.2 889.6 12858.8 887.2C12866.8 884.4 12876.2 883 12887 883C12903.8 883 12920 887.4 12935.6 896.2C12951.2 905 12963.8 919 12973.4 938.2C12983.4 957.4 12988.4 982.8 12988.4 1014.4C12988.4 1046.8 12982.8 1074 12971.6 1096C12960.4 1117.6 12945.4 1134 12926.6 1145.2C12907.8 1156.4 12887 1162 12864.2 1162Z" fill="#011ECB"/>
<path d="M13491 1074.48V686H13526.1V1136H13493.3L13491 1074.48ZM13270.9 980.727V974.574C13270.9 949.965 13273.8 927.797 13279.4 908.07C13285.1 888.148 13293.2 871.156 13303.7 857.094C13314.5 842.836 13327.4 831.996 13342.4 824.574C13357.5 816.957 13374.4 813.148 13393.4 813.148C13411.9 813.148 13428.4 816.176 13442.6 822.23C13456.9 828.285 13469.1 836.977 13479.2 848.305C13489.6 859.633 13497.9 873.109 13504.1 888.734C13510.6 904.359 13515.3 921.742 13518.2 940.883V1019.11C13515.9 1037.07 13511.6 1053.58 13505.3 1068.62C13499.1 1083.46 13490.8 1096.45 13480.4 1107.58C13470.1 1118.52 13457.6 1127.02 13442.9 1133.07C13428.5 1138.93 13411.8 1141.86 13392.8 1141.86C13374.1 1141.86 13357.2 1137.95 13342.1 1130.14C13327.1 1122.33 13314.3 1111.29 13303.7 1097.04C13293.2 1082.58 13285.1 1065.49 13279.4 1045.77C13273.8 1026.04 13270.9 1004.36 13270.9 980.727ZM13306.1 974.574V980.727C13306.1 999.281 13307.9 1016.47 13311.7 1032.29C13315.4 1048.11 13321 1061.88 13328.6 1073.6C13336.3 1085.32 13345.9 1094.5 13357.7 1101.14C13369.4 1107.78 13383.2 1111.1 13399.3 1111.1C13419.4 1111.1 13436.3 1107.29 13449.9 1099.67C13463.6 1091.86 13474.5 1081.61 13482.8 1068.91C13491 1056.02 13496.9 1041.96 13500.6 1026.72V935.609C13498.3 925.258 13494.9 914.711 13490.4 903.969C13485.9 893.227 13479.7 883.363 13471.9 874.379C13464.3 865.199 13454.5 857.875 13442.6 852.406C13430.9 846.742 13416.6 843.91 13399.8 843.91C13383.6 843.91 13369.7 847.23 13357.9 853.871C13346.2 860.512 13336.5 869.789 13328.6 881.703C13321 893.422 13315.4 907.191 13311.7 923.012C13307.9 938.832 13306.1 956.02 13306.1 974.574ZM13740.9 1141.86C13720.2 1141.86 13701.1 1138.05 13683.7 1130.43C13666.5 1122.82 13651.5 1112.07 13638.6 1098.21C13625.9 1084.34 13616.1 1067.93 13609 1048.99C13602.2 1029.85 13598.8 1008.95 13598.8 986.293V973.695C13598.8 949.281 13602.4 927.211 13609.6 907.484C13616.8 887.758 13626.8 870.863 13639.5 856.801C13652.2 842.738 13666.6 831.996 13682.8 824.574C13699.3 816.957 13716.4 813.148 13734.4 813.148C13754.5 813.148 13772.4 816.762 13788 823.988C13803.6 831.02 13816.7 841.078 13827.3 854.164C13838 867.055 13846.1 882.387 13851.6 900.16C13857.1 917.738 13859.8 937.172 13859.8 958.461V979.848H13619.9V949.965H13824.9V945.863C13824.5 928.09 13820.9 911.488 13814.1 896.059C13807.5 880.434 13797.5 867.738 13784.2 857.973C13770.9 848.207 13754.3 843.324 13734.4 843.324C13719.6 843.324 13705.9 846.449 13693.4 852.699C13681.1 858.949 13670.4 867.934 13661.5 879.652C13652.7 891.176 13645.8 904.945 13641 920.961C13636.3 936.781 13633.9 954.359 13633.9 973.695V986.293C13633.9 1003.87 13636.5 1020.28 13641.5 1035.51C13646.8 1050.55 13654.2 1063.83 13663.8 1075.36C13673.6 1086.88 13685.1 1095.86 13698.4 1102.31C13711.7 1108.75 13726.3 1111.98 13742.3 1111.98C13761.1 1111.98 13777.7 1108.56 13792.1 1101.72C13806.6 1094.69 13819.6 1083.66 13831.1 1068.62L13853.1 1085.61C13846.2 1095.77 13837.6 1105.14 13827.3 1113.73C13817.1 1122.33 13804.9 1129.16 13790.7 1134.24C13776.4 1139.32 13759.8 1141.86 13740.9 1141.86ZM14048.8 819.008V847.719H13890V819.008H14048.8ZM13948.3 737.562H13983.1V1058.95C13983.1 1073.6 13985.1 1084.63 13989 1092.05C13992.9 1099.48 13998 1104.46 14004.2 1107C14010.5 1109.54 14017.2 1110.8 14024.4 1110.8C14029.7 1110.8 14034.8 1110.51 14039.7 1109.93C14044.6 1109.14 14049 1108.36 14052.9 1107.58L14054.3 1137.17C14050 1138.54 14044.5 1139.61 14037.6 1140.39C14030.8 1141.37 14024 1141.86 14017.1 1141.86C14003.6 1141.86 13991.7 1139.42 13981.4 1134.54C13971 1129.46 13962.9 1120.86 13957.1 1108.75C13951.2 1096.45 13948.3 1079.75 13948.3 1058.66V737.562ZM14315.1 1079.16V915.688C14315.1 900.648 14311.9 887.66 14305.7 876.723C14299.4 865.785 14290.3 857.387 14278.2 851.527C14266.1 845.668 14251.1 842.738 14233.3 842.738C14216.9 842.738 14202.3 845.668 14189.4 851.527C14176.7 857.191 14166.6 864.906 14159.2 874.672C14152 884.242 14148.4 894.887 14148.4 906.605L14113.2 906.312C14113.2 894.398 14116.1 882.875 14122 871.742C14127.9 860.609 14136.2 850.648 14146.9 841.859C14157.7 833.07 14170.4 826.137 14185.3 821.059C14200.3 815.785 14216.8 813.148 14234.8 813.148C14257.5 813.148 14277.4 816.957 14294.6 824.574C14311.9 832.191 14325.5 843.617 14335.3 858.852C14345.1 874.086 14349.9 893.227 14349.9 916.273V1069.5C14349.9 1080.43 14350.7 1091.76 14352.3 1103.48C14354 1115.2 14356.5 1124.87 14359.6 1132.48V1136H14322.4C14320.1 1128.97 14318.2 1120.18 14316.8 1109.63C14315.7 1098.89 14315.1 1088.73 14315.1 1079.16ZM14323.3 951.43L14323.9 978.383H14255C14237 978.383 14220.9 980.043 14206.7 983.363C14192.6 986.488 14180.7 991.176 14170.9 997.426C14161.2 1003.48 14153.6 1010.8 14148.4 1019.4C14143.3 1027.99 14140.8 1037.76 14140.8 1048.7C14140.8 1060.02 14143.6 1070.38 14149.3 1079.75C14155.1 1089.12 14163.3 1096.64 14173.9 1102.31C14184.6 1107.78 14197.3 1110.51 14211.9 1110.51C14231.5 1110.51 14248.7 1106.9 14263.5 1099.67C14278.6 1092.45 14291 1082.97 14300.7 1071.25C14310.5 1059.54 14317 1046.74 14320.3 1032.88L14335.6 1053.09C14333 1062.86 14328.4 1072.91 14321.5 1083.27C14314.9 1093.42 14306.2 1102.99 14295.4 1111.98C14284.7 1120.77 14272 1127.99 14257.4 1133.66C14242.9 1139.12 14226.5 1141.86 14208.1 1141.86C14187.4 1141.86 14169.4 1137.95 14153.9 1130.14C14138.7 1122.33 14126.8 1111.68 14118.2 1098.21C14109.8 1084.54 14105.6 1069.11 14105.6 1051.92C14105.6 1036.29 14108.9 1022.33 14115.6 1010.02C14122.2 997.523 14131.8 986.977 14144.3 978.383C14157 969.594 14172.2 962.953 14190 958.461C14207.9 953.773 14228.1 951.43 14250.3 951.43H14323.3ZM14482.9 819.008V1136H14448.1V819.008H14482.9ZM14441.9 727.309C14441.9 720.668 14444 715.102 14448.1 710.609C14452.4 705.922 14458.2 703.578 14465.7 703.578C14473.1 703.578 14478.9 705.922 14483.2 710.609C14487.7 715.102 14490 720.668 14490 727.309C14490 733.754 14487.7 739.32 14483.2 744.008C14478.9 748.5 14473.1 750.746 14465.7 750.746C14458.2 750.746 14452.4 748.5 14448.1 744.008C14444 739.32 14441.9 733.754 14441.9 727.309ZM14617.7 686V1136H14582.8V686H14617.7ZM14903.4 1055.14C14903.4 1046.55 14901.2 1038.05 14896.9 1029.65C14892.6 1021.25 14884.3 1013.54 14872 1006.51C14859.9 999.477 14842 993.52 14818.4 988.637C14800.8 984.73 14785.1 980.336 14771.2 975.453C14757.6 970.57 14746 964.711 14736.7 957.875C14727.3 951.039 14720.2 942.836 14715.3 933.266C14710.4 923.695 14707.9 912.367 14707.9 899.281C14707.9 887.562 14710.5 876.527 14715.6 866.176C14720.8 855.629 14728.3 846.449 14737.8 838.637C14747.6 830.629 14759.3 824.379 14773 819.887C14786.9 815.395 14802.4 813.148 14819.6 813.148C14844 813.148 14864.9 817.348 14882.3 825.746C14899.8 833.949 14913.2 845.18 14922.4 859.438C14931.8 873.695 14936.5 889.809 14936.5 907.777H14901.6C14901.6 896.84 14898.4 886.488 14891.9 876.723C14885.7 866.957 14876.4 858.949 14864.1 852.699C14852 846.449 14837.1 843.324 14819.6 843.324C14801.4 843.324 14786.7 846.059 14775.3 851.527C14764 856.996 14755.7 863.93 14750.4 872.328C14745.3 880.727 14742.8 889.418 14742.8 898.402C14742.8 905.434 14743.9 911.879 14746 917.738C14748.4 923.402 14752.5 928.676 14758.3 933.559C14764.4 938.441 14773 943.031 14784.1 947.328C14795.2 951.625 14809.7 955.824 14827.5 959.926C14853.1 965.59 14874 972.523 14890.2 980.727C14906.6 988.734 14918.7 998.695 14926.5 1010.61C14934.3 1022.33 14938.2 1036.59 14938.2 1053.38C14938.2 1066.47 14935.5 1078.48 14930 1089.42C14924.5 1100.16 14916.6 1109.44 14906.3 1117.25C14896.1 1125.06 14883.8 1131.12 14869.4 1135.41C14855.1 1139.71 14839.1 1141.86 14821.3 1141.86C14794.6 1141.86 14771.9 1137.46 14753.4 1128.68C14735 1119.69 14721 1107.97 14711.5 1093.52C14702.1 1078.87 14697.4 1063.34 14697.4 1046.94H14732.3C14733.4 1063.34 14738.6 1076.33 14747.8 1085.9C14757 1095.28 14768.2 1101.92 14781.5 1105.82C14795 1109.73 14808.2 1111.68 14821.3 1111.68C14839.3 1111.68 14854.3 1109.05 14866.4 1103.77C14878.6 1098.5 14887.7 1091.57 14894 1082.97C14900.2 1074.38 14903.4 1065.1 14903.4 1055.14Z" fill="#011ECB"/>
<path d="M5041.3 935.303C5044.23 932.374 5044.23 927.626 5041.3 924.697L4993.57 876.967C4990.64 874.038 4985.9 874.038 4982.97 876.967C4980.04 879.896 4980.04 884.645 4982.97 887.574L5025.39 930L4982.97 972.426C4980.04 975.355 4980.04 980.104 4982.97 983.033C4985.9 985.962 4990.64 985.962 4993.57 983.033L5041.3 935.303ZM4203 937.5H5036V922.5H4203V937.5Z" fill="#011ECB"/>
<path d="M12017.3 935.303C12020.2 932.374 12020.2 927.626 12017.3 924.697L11969.6 876.967C11966.6 874.038 11961.9 874.038 11959 876.967C11956 879.896 11956 884.645 11959 887.574L12001.4 930L11959 972.426C11956 975.355 11956 980.104 11959 983.033C11961.9 985.962 11966.6 985.962 11969.6 983.033L12017.3 935.303ZM11179 937.5H12012V922.5H11179V937.5Z" fill="#011ECB"/>
<path d="M5593 1162C5572.6 1162 5554.6 1155.6 5539 1142.8C5523.8 1130 5511 1112.8 5500.6 1091.2C5490.6 1069.2 5483 1044.8 5477.8 1018C5472.6 990.8 5470 962.8 5470 934C5470 905.2 5472.4 877.4 5477.2 850.6C5482.4 823.4 5490.2 799 5500.6 777.4C5511 755.4 5523.8 738 5539 725.2C5554.6 712.4 5572.6 706 5593 706C5613.4 706 5631.2 712.4 5646.4 725.2C5662 738 5675 755.4 5685.4 777.4C5695.8 799 5703.4 823.4 5708.2 850.6C5713.4 877.4 5716 905.2 5716 934C5716 962.8 5713.4 990.8 5708.2 1018C5703 1044.8 5695.2 1069.2 5684.8 1091.2C5674.8 1112.8 5662 1130 5646.4 1142.8C5631.2 1155.6 5613.4 1162 5593 1162ZM5593 1139.8C5621.4 1139.8 5641.6 1129.6 5653.6 1109.2C5665.6 1088.8 5671.6 1061.4 5671.6 1027V841C5671.6 806.6 5665.4 779.2 5653 758.8C5641 738.4 5621 728.2 5593 728.2C5565 728.2 5544.8 738.4 5532.4 758.8C5520.4 779.2 5514.4 806.6 5514.4 841V1027C5514.4 1061.4 5520.4 1088.8 5532.4 1109.2C5544.8 1129.6 5565 1139.8 5593 1139.8ZM5813.2 1162C5803.6 1162 5795.2 1157.6 5788 1148.8C5781.2 1139.6 5777.8 1124.4 5777.8 1103.2C5777.8 1084 5780.4 1067 5785.6 1052.2C5791.2 1037.4 5798 1024.4 5806 1013.2C5814.4 1002 5822.8 992.6 5831.2 985C5839.6 977 5846.8 970.6 5852.8 965.8L5905.6 920.8C5912.4 914.8 5920.2 907.2 5929 898C5938.2 888.8 5946 877.2 5952.4 863.2C5959.2 849.2 5962.6 832.6 5962.6 813.4C5962.6 786.6 5955.4 765.6 5941 750.4C5926.6 734.8 5907.6 727 5884 727C5868.4 727 5855.2 730.4 5844.4 737.2C5833.6 743.6 5825 751.6 5818.6 761.2C5812.2 770.8 5808 780 5806 788.8L5830.6 811.6C5833.4 814 5837.4 818.2 5842.6 824.2C5847.8 830.2 5850.4 837.8 5850.4 847C5850.4 855.8 5847.6 862.8 5842 868C5836.4 873.2 5830 875.8 5822.8 875.8C5814 875.8 5805.2 871.4 5796.4 862.6C5788 853.8 5783.8 839.8 5783.8 820.6C5783.8 802.6 5788.2 784.8 5797 767.2C5806.2 749.6 5819.2 735 5836 723.4C5852.8 711.8 5873.2 706 5897.2 706C5918.8 706 5937.6 710.8 5953.6 720.4C5969.6 729.6 5982 742.2 5990.8 758.2C5999.6 774.2 6004 792.2 6004 812.2C6004 833.8 5999 852.8 5989 869.2C5979.4 885.2 5968 899 5954.8 910.6C5941.6 922.2 5929.4 932.2 5918.2 940.6L5864.2 980.8C5853.4 988.8 5842.6 998.2 5831.8 1009C5821.4 1019.4 5812.6 1031.4 5805.4 1045C5798.6 1058.6 5795.2 1074.4 5795.2 1092.4C5799.2 1084.4 5806.2 1076.4 5816.2 1068.4C5826.6 1060.4 5838.8 1056.4 5852.8 1056.4C5866.8 1056.4 5878.6 1060 5888.2 1067.2C5897.8 1074 5906.6 1082 5914.6 1091.2C5922.6 1100 5930.6 1108 5938.6 1115.2C5946.6 1122 5955.8 1125.4 5966.2 1125.4C5976.2 1125.4 5983.2 1122.2 5987.2 1115.8C5991.2 1109 5993.6 1100.8 5994.4 1091.2C5995.2 1081.6 5995.6 1072.4 5995.6 1063.6V1006.6H6013.6V1064.2C6013.6 1073 6013.2 1083 6012.4 1094.2C6011.6 1105.4 6009.4 1116.2 6005.8 1126.6C6002.6 1136.6 5997.2 1145 5989.6 1151.8C5982 1158.6 5971.2 1162 5957.2 1162C5944 1162 5933 1159 5924.2 1153C5915.4 1147 5908 1139.6 5902 1130.8C5896 1122 5890.2 1113.2 5884.6 1104.4C5879.4 1095.6 5873.8 1088.2 5867.8 1082.2C5861.8 1076.2 5854.2 1073.2 5845 1073.2C5835 1073.2 5826.2 1076.8 5818.6 1084C5811 1091.2 5805.6 1098.2 5802.4 1105L5818 1114C5820.8 1115.6 5824.6 1118.4 5829.4 1122.4C5834.6 1126.4 5837.2 1132.2 5837.2 1139.8C5837.2 1145.8 5835 1151 5830.6 1155.4C5826.6 1159.8 5820.8 1162 5813.2 1162Z" fill="#011ECB"/>
<path d="M6396.89 1061.88L6473.35 819.008H6497.96L6483.31 884.34L6403.33 1136H6378.72L6396.89 1061.88ZM6317.49 819.008L6384.58 1063.34L6398.94 1136H6373.45L6281.46 819.008H6317.49ZM6593.18 1062.46L6658.51 819.008H6694.54L6602.55 1136H6577.36L6593.18 1062.46ZM6502.94 819.008L6578.23 1059.83L6597.28 1136H6572.67L6490.93 884.047L6477.16 819.008H6502.94ZM6884.39 1141.86C6863.68 1141.86 6844.64 1138.05 6827.26 1130.43C6810.07 1122.82 6795.03 1112.07 6782.14 1098.21C6769.45 1084.34 6759.58 1067.93 6752.55 1048.99C6745.71 1029.85 6742.3 1008.95 6742.3 986.293V973.695C6742.3 949.281 6745.91 927.211 6753.14 907.484C6760.36 887.758 6770.32 870.863 6783.02 856.801C6795.71 842.738 6810.17 831.996 6826.38 824.574C6842.79 816.957 6859.97 813.148 6877.94 813.148C6898.06 813.148 6915.93 816.762 6931.55 823.988C6947.18 831.02 6960.27 841.078 6970.81 854.164C6981.55 867.055 6989.66 882.387 6995.13 900.16C7000.6 917.738 7003.33 937.172 7003.33 958.461V979.848H6763.39V949.965H6968.47V945.863C6968.08 928.09 6964.46 911.488 6957.63 896.059C6950.99 880.434 6941.03 867.738 6927.75 857.973C6914.46 848.207 6897.86 843.324 6877.94 843.324C6863.1 843.324 6849.43 846.449 6836.93 852.699C6824.62 858.949 6813.98 867.934 6804.99 879.652C6796.2 891.176 6789.37 904.945 6784.48 920.961C6779.8 936.781 6777.45 954.359 6777.45 973.695V986.293C6777.45 1003.87 6779.99 1020.28 6785.07 1035.51C6790.34 1050.55 6797.77 1063.83 6807.34 1075.36C6817.1 1086.88 6828.62 1095.86 6841.91 1102.31C6855.19 1108.75 6869.84 1111.98 6885.85 1111.98C6904.6 1111.98 6921.2 1108.56 6935.66 1101.72C6950.11 1094.69 6963.1 1083.66 6974.62 1068.62L6996.59 1085.61C6989.76 1095.77 6981.16 1105.14 6970.81 1113.73C6960.66 1122.33 6948.45 1129.16 6934.19 1134.24C6919.93 1139.32 6903.33 1141.86 6884.39 1141.86ZM7071.89 686H7107.04V1074.48L7104.7 1136H7071.89V686ZM7327.65 974.574V980.727C7327.65 1004.36 7324.91 1026.04 7319.45 1045.77C7313.98 1065.49 7306.07 1082.58 7295.71 1097.04C7285.36 1111.29 7272.67 1122.33 7257.63 1130.14C7242.79 1137.95 7225.7 1141.86 7206.36 1141.86C7187.41 1141.86 7170.62 1138.93 7155.97 1133.07C7141.32 1127.02 7128.82 1118.52 7118.47 1107.58C7108.12 1096.45 7099.82 1083.46 7093.57 1068.62C7087.32 1053.58 7082.92 1037.07 7080.38 1019.11V940.883C7083.31 921.742 7088 904.359 7094.45 888.734C7100.89 873.109 7109.19 859.633 7119.35 848.305C7129.7 836.977 7142 828.285 7156.26 822.23C7170.71 816.176 7187.22 813.148 7205.77 813.148C7225.11 813.148 7242.3 816.957 7257.34 824.574C7272.57 831.996 7285.36 842.836 7295.71 857.094C7306.07 871.156 7313.98 888.148 7319.45 908.07C7324.91 927.797 7327.65 949.965 7327.65 974.574ZM7292.2 980.727V974.574C7292.2 956.02 7290.44 938.832 7286.93 923.012C7283.41 907.191 7277.84 893.422 7270.23 881.703C7262.8 869.789 7253.23 860.512 7241.52 853.871C7229.8 847.23 7215.73 843.91 7199.33 843.91C7182.53 843.91 7168.18 846.742 7156.26 852.406C7144.54 857.875 7134.78 865.199 7126.96 874.379C7119.35 883.363 7113.29 893.227 7108.8 903.969C7104.31 914.711 7100.99 925.258 7098.84 935.609V1026.72C7102.16 1041.37 7107.92 1055.14 7116.12 1068.03C7124.33 1080.92 7135.36 1091.37 7149.23 1099.38C7163.1 1107.19 7179.99 1111.1 7199.91 1111.1C7215.93 1111.1 7229.7 1107.78 7241.22 1101.14C7252.94 1094.5 7262.51 1085.32 7269.93 1073.6C7277.55 1061.88 7283.12 1048.11 7286.63 1032.29C7290.34 1016.47 7292.2 999.281 7292.2 980.727ZM7595.13 1055.14C7595.13 1046.55 7592.98 1038.05 7588.68 1029.65C7584.39 1021.25 7576.09 1013.54 7563.78 1006.51C7551.67 999.477 7533.8 993.52 7510.17 988.637C7492.59 984.73 7476.87 980.336 7463 975.453C7449.33 970.57 7437.8 964.711 7428.43 957.875C7419.05 951.039 7411.93 942.836 7407.04 933.266C7402.16 923.695 7399.72 912.367 7399.72 899.281C7399.72 887.562 7402.26 876.527 7407.34 866.176C7412.61 855.629 7420.03 846.449 7429.6 838.637C7439.37 830.629 7451.09 824.379 7464.76 819.887C7478.62 815.395 7494.15 813.148 7511.34 813.148C7535.75 813.148 7556.65 817.348 7574.04 825.746C7591.61 833.949 7604.99 845.18 7614.17 859.438C7623.55 873.695 7628.23 889.809 7628.23 907.777H7593.37C7593.37 896.84 7590.15 886.488 7583.7 876.723C7577.45 866.957 7568.18 858.949 7555.87 852.699C7543.76 846.449 7528.92 843.324 7511.34 843.324C7493.18 843.324 7478.43 846.059 7467.1 851.527C7455.77 856.996 7447.47 863.93 7442.2 872.328C7437.12 880.727 7434.58 889.418 7434.58 898.402C7434.58 905.434 7435.66 911.879 7437.8 917.738C7440.15 923.402 7444.25 928.676 7450.11 933.559C7456.16 938.441 7464.76 943.031 7475.89 947.328C7487.02 951.625 7501.48 955.824 7519.25 959.926C7544.84 965.59 7565.73 972.523 7581.95 980.727C7598.35 988.734 7610.46 998.695 7618.27 1010.61C7626.09 1022.33 7629.99 1036.59 7629.99 1053.38C7629.99 1066.47 7627.26 1078.48 7621.79 1089.42C7616.32 1100.16 7608.41 1109.44 7598.06 1117.25C7587.9 1125.06 7575.6 1131.12 7561.14 1135.41C7546.89 1139.71 7530.87 1141.86 7513.1 1141.86C7486.34 1141.86 7463.68 1137.46 7445.13 1128.68C7426.77 1119.69 7412.8 1107.97 7403.23 1093.52C7393.86 1078.87 7389.17 1063.34 7389.17 1046.94H7424.04C7425.21 1063.34 7430.38 1076.33 7439.56 1085.9C7448.74 1095.28 7459.97 1101.92 7473.25 1105.82C7486.73 1109.73 7500.01 1111.68 7513.1 1111.68C7531.07 1111.68 7546.11 1109.05 7558.21 1103.77C7570.32 1098.5 7579.5 1091.57 7585.75 1082.97C7592 1074.38 7595.13 1065.1 7595.13 1055.14ZM7748.35 819.008V1136H7713.49V819.008H7748.35ZM7707.34 727.309C7707.34 720.668 7709.39 715.102 7713.49 710.609C7717.79 705.922 7723.64 703.578 7731.07 703.578C7738.49 703.578 7744.35 705.922 7748.64 710.609C7753.14 715.102 7755.38 720.668 7755.38 727.309C7755.38 733.754 7753.14 739.32 7748.64 744.008C7744.35 748.5 7738.49 750.746 7731.07 750.746C7723.64 750.746 7717.79 748.5 7713.49 744.008C7709.39 739.32 7707.34 733.754 7707.34 727.309ZM7963.98 819.008V847.719H7805.19V819.008H7963.98ZM7863.49 737.562H7898.35V1058.95C7898.35 1073.6 7900.3 1084.63 7904.21 1092.05C7908.12 1099.48 7913.2 1104.46 7919.45 1107C7925.7 1109.54 7932.43 1110.8 7939.66 1110.8C7944.93 1110.8 7950.01 1110.51 7954.89 1109.93C7959.78 1109.14 7964.17 1108.36 7968.08 1107.58L7969.54 1137.17C7965.25 1138.54 7959.68 1139.61 7952.84 1140.39C7946.01 1141.37 7939.17 1141.86 7932.34 1141.86C7918.86 1141.86 7906.95 1139.42 7896.59 1134.54C7886.24 1129.46 7878.14 1120.86 7872.28 1108.75C7866.42 1096.45 7863.49 1079.75 7863.49 1058.66V737.562ZM8159.97 1141.86C8139.27 1141.86 8120.23 1138.05 8102.84 1130.43C8085.66 1122.82 8070.62 1112.07 8057.73 1098.21C8045.03 1084.34 8035.17 1067.93 8028.14 1048.99C8021.3 1029.85 8017.88 1008.95 8017.88 986.293V973.695C8017.88 949.281 8021.5 927.211 8028.72 907.484C8035.95 887.758 8045.91 870.863 8058.61 856.801C8071.3 842.738 8085.75 831.996 8101.96 824.574C8118.37 816.957 8135.56 813.148 8153.53 813.148C8173.64 813.148 8191.52 816.762 8207.14 823.988C8222.77 831.02 8235.85 841.078 8246.4 854.164C8257.14 867.055 8265.25 882.387 8270.71 900.16C8276.18 917.738 8278.92 937.172 8278.92 958.461V979.848H8038.98V949.965H8244.05V945.863C8243.66 928.09 8240.05 911.488 8233.21 896.059C8226.57 880.434 8216.61 867.738 8203.33 857.973C8190.05 848.207 8173.45 843.324 8153.53 843.324C8138.68 843.324 8125.01 846.449 8112.51 852.699C8100.21 858.949 8089.56 867.934 8080.58 879.652C8071.79 891.176 8064.95 904.945 8060.07 920.961C8055.38 936.781 8053.04 954.359 8053.04 973.695V986.293C8053.04 1003.87 8055.58 1020.28 8060.66 1035.51C8065.93 1050.55 8073.35 1063.83 8082.92 1075.36C8092.69 1086.88 8104.21 1095.86 8117.49 1102.31C8130.77 1108.75 8145.42 1111.98 8161.44 1111.98C8180.19 1111.98 8196.79 1108.56 8211.24 1101.72C8225.7 1094.69 8238.68 1083.66 8250.21 1068.62L8272.18 1085.61C8265.34 1095.77 8256.75 1105.14 8246.4 1113.73C8236.24 1122.33 8224.04 1129.16 8209.78 1134.24C8195.52 1139.32 8178.92 1141.86 8159.97 1141.86ZM8700.5 1074.48V686H8735.66V1136H8702.84L8700.5 1074.48ZM8480.48 980.727V974.574C8480.48 949.965 8483.31 927.797 8488.98 908.07C8494.64 888.148 8502.75 871.156 8513.29 857.094C8524.04 842.836 8536.93 831.996 8551.96 824.574C8567 816.957 8584 813.148 8602.94 813.148C8621.5 813.148 8637.9 816.176 8652.16 822.23C8666.42 828.285 8678.62 836.977 8688.78 848.305C8699.13 859.633 8707.43 873.109 8713.68 888.734C8720.13 904.359 8724.82 921.742 8727.75 940.883V1019.11C8725.4 1037.07 8721.11 1053.58 8714.86 1068.62C8708.61 1083.46 8700.3 1096.45 8689.95 1107.58C8679.6 1118.52 8667.1 1127.02 8652.45 1133.07C8638 1138.93 8621.3 1141.86 8602.36 1141.86C8583.61 1141.86 8566.71 1137.95 8551.67 1130.14C8536.63 1122.33 8523.84 1111.29 8513.29 1097.04C8502.75 1082.58 8494.64 1065.49 8488.98 1045.77C8483.31 1026.04 8480.48 1004.36 8480.48 980.727ZM8515.64 974.574V980.727C8515.64 999.281 8517.49 1016.47 8521.2 1032.29C8524.91 1048.11 8530.58 1061.88 8538.2 1073.6C8545.81 1085.32 8555.48 1094.5 8567.2 1101.14C8578.92 1107.78 8592.79 1111.1 8608.8 1111.1C8628.92 1111.1 8645.81 1107.29 8659.48 1099.67C8673.16 1091.86 8684.09 1081.61 8692.3 1068.91C8700.5 1056.02 8706.46 1041.96 8710.17 1026.72V935.609C8707.82 925.258 8704.41 914.711 8699.91 903.969C8695.42 893.227 8689.27 883.363 8681.46 874.379C8673.84 865.199 8664.07 857.875 8652.16 852.406C8640.44 846.742 8626.18 843.91 8609.39 843.91C8593.18 843.91 8579.21 847.23 8567.49 853.871C8555.77 860.512 8546.01 869.789 8538.2 881.703C8530.58 893.422 8524.91 907.191 8521.2 923.012C8517.49 938.832 8515.64 956.02 8515.64 974.574ZM8950.4 1141.86C8929.7 1141.86 8910.66 1138.05 8893.27 1130.43C8876.09 1122.82 8861.05 1112.07 8848.16 1098.21C8835.46 1084.34 8825.6 1067.93 8818.57 1048.99C8811.73 1029.85 8808.31 1008.95 8808.31 986.293V973.695C8808.31 949.281 8811.93 927.211 8819.15 907.484C8826.38 887.758 8836.34 870.863 8849.04 856.801C8861.73 842.738 8876.18 831.996 8892.39 824.574C8908.8 816.957 8925.99 813.148 8943.96 813.148C8964.07 813.148 8981.95 816.762 8997.57 823.988C9013.2 831.02 9026.28 841.078 9036.83 854.164C9047.57 867.055 9055.68 882.387 9061.14 900.16C9066.61 917.738 9069.35 937.172 9069.35 958.461V979.848H8829.41V949.965H9034.48V945.863C9034.09 928.09 9030.48 911.488 9023.64 896.059C9017 880.434 9007.04 867.738 8993.76 857.973C8980.48 848.207 8963.88 843.324 8943.96 843.324C8929.11 843.324 8915.44 846.449 8902.94 852.699C8890.64 858.949 8879.99 867.934 8871.01 879.652C8862.22 891.176 8855.38 904.945 8850.5 920.961C8845.81 936.781 8843.47 954.359 8843.47 973.695V986.293C8843.47 1003.87 8846.01 1020.28 8851.09 1035.51C8856.36 1050.55 8863.78 1063.83 8873.35 1075.36C8883.12 1086.88 8894.64 1095.86 8907.92 1102.31C8921.2 1108.75 8935.85 1111.98 8951.87 1111.98C8970.62 1111.98 8987.22 1108.56 9001.67 1101.72C9016.12 1094.69 9029.11 1083.66 9040.64 1068.62L9062.61 1085.61C9055.77 1095.77 9047.18 1105.14 9036.83 1113.73C9026.67 1122.33 9014.46 1129.16 9000.21 1134.24C8985.95 1139.32 8969.35 1141.86 8950.4 1141.86ZM9328.33 1055.14C9328.33 1046.55 9326.18 1038.05 9321.89 1029.65C9317.59 1021.25 9309.29 1013.54 9296.98 1006.51C9284.88 999.477 9267 993.52 9243.37 988.637C9225.79 984.73 9210.07 980.336 9196.2 975.453C9182.53 970.57 9171.01 964.711 9161.63 957.875C9152.26 951.039 9145.13 942.836 9140.25 933.266C9135.36 923.695 9132.92 912.367 9132.92 899.281C9132.92 887.562 9135.46 876.527 9140.54 866.176C9145.81 855.629 9153.23 846.449 9162.8 838.637C9172.57 830.629 9184.29 824.379 9197.96 819.887C9211.83 815.395 9227.36 813.148 9244.54 813.148C9268.96 813.148 9289.86 817.348 9307.24 825.746C9324.82 833.949 9338.2 845.18 9347.38 859.438C9356.75 873.695 9361.44 889.809 9361.44 907.777H9326.57C9326.57 896.84 9323.35 886.488 9316.91 876.723C9310.66 866.957 9301.38 858.949 9289.07 852.699C9276.96 846.449 9262.12 843.324 9244.54 843.324C9226.38 843.324 9211.63 846.059 9200.3 851.527C9188.98 856.996 9180.68 863.93 9175.4 872.328C9170.32 880.727 9167.79 889.418 9167.79 898.402C9167.79 905.434 9168.86 911.879 9171.01 917.738C9173.35 923.402 9177.45 928.676 9183.31 933.559C9189.37 938.441 9197.96 943.031 9209.09 947.328C9220.23 951.625 9234.68 955.824 9252.45 959.926C9278.04 965.59 9298.94 972.523 9315.15 980.727C9331.55 988.734 9343.66 998.695 9351.48 1010.61C9359.29 1022.33 9363.2 1036.59 9363.2 1053.38C9363.2 1066.47 9360.46 1078.48 9354.99 1089.42C9349.52 1100.16 9341.61 1109.44 9331.26 1117.25C9321.11 1125.06 9308.8 1131.12 9294.35 1135.41C9280.09 1139.71 9264.07 1141.86 9246.3 1141.86C9219.54 1141.86 9196.89 1137.46 9178.33 1128.68C9159.97 1119.69 9146.01 1107.97 9136.44 1093.52C9127.06 1078.87 9122.38 1063.34 9122.38 1046.94H9157.24C9158.41 1063.34 9163.59 1076.33 9172.77 1085.9C9181.95 1095.28 9193.18 1101.92 9206.46 1105.82C9219.93 1109.73 9233.21 1111.68 9246.3 1111.68C9264.27 1111.68 9279.31 1109.05 9291.42 1103.77C9303.53 1098.5 9312.71 1091.57 9318.96 1082.97C9325.21 1074.38 9328.33 1065.1 9328.33 1055.14ZM9481.55 819.008V1136H9446.69V819.008H9481.55ZM9440.54 727.309C9440.54 720.668 9442.59 715.102 9446.69 710.609C9450.99 705.922 9456.85 703.578 9464.27 703.578C9471.69 703.578 9477.55 705.922 9481.85 710.609C9486.34 715.102 9488.59 720.668 9488.59 727.309C9488.59 733.754 9486.34 739.32 9481.85 744.008C9477.55 748.5 9471.69 750.746 9464.27 750.746C9456.85 750.746 9450.99 748.5 9446.69 744.008C9442.59 739.32 9440.54 733.754 9440.54 727.309ZM9785.95 819.008H9818.47V1130.43C9818.47 1157.97 9813.2 1181.61 9802.65 1201.33C9792.3 1221.06 9777.55 1236.2 9758.41 1246.74C9739.46 1257.29 9717.1 1262.56 9691.32 1262.56C9678.23 1262.56 9664.76 1260.51 9650.89 1256.41C9637.22 1252.5 9624.23 1246.45 9611.93 1238.25C9599.82 1230.24 9589.46 1220.28 9580.87 1208.36L9600.5 1186.98C9613.39 1202.6 9627.16 1214.03 9641.81 1221.25C9656.46 1228.68 9672.28 1232.39 9689.27 1232.39C9709.39 1232.39 9726.38 1228.38 9740.25 1220.38C9754.31 1212.37 9764.95 1200.84 9772.18 1185.8C9779.6 1170.77 9783.31 1152.7 9783.31 1131.61V888.734L9785.95 819.008ZM9563.29 980.727V974.574C9563.29 949.965 9566.03 927.797 9571.5 908.07C9577.16 888.148 9585.27 871.156 9595.81 857.094C9606.36 842.836 9619.15 831.996 9634.19 824.574C9649.43 816.957 9666.61 813.148 9685.75 813.148C9704.11 813.148 9720.42 816.176 9734.68 822.23C9748.94 828.285 9761.24 836.977 9771.59 848.305C9781.95 859.633 9790.25 873.109 9796.5 888.734C9802.94 904.359 9807.63 921.742 9810.56 940.883V1019.11C9808.21 1037.07 9803.92 1053.58 9797.67 1068.62C9791.42 1083.46 9783.12 1096.45 9772.77 1107.58C9762.41 1118.52 9749.91 1127.02 9735.27 1133.07C9720.81 1138.93 9704.11 1141.86 9685.17 1141.86C9666.22 1141.86 9649.23 1137.95 9634.19 1130.14C9619.15 1122.33 9606.36 1111.29 9595.81 1097.04C9585.27 1082.58 9577.16 1065.49 9571.5 1045.77C9566.03 1026.04 9563.29 1004.36 9563.29 980.727ZM9598.45 974.574V980.727C9598.45 999.281 9600.3 1016.47 9604.02 1032.29C9607.73 1048.11 9613.39 1061.88 9621.01 1073.6C9628.62 1085.32 9638.29 1094.5 9650.01 1101.14C9661.73 1107.78 9675.5 1111.1 9691.32 1111.1C9711.44 1111.1 9728.33 1107.29 9742 1099.67C9755.68 1091.86 9766.52 1081.61 9774.52 1068.91C9782.53 1056.02 9788.39 1041.96 9792.1 1026.72V935.609C9789.95 925.258 9786.63 914.711 9782.14 903.969C9777.84 893.227 9771.79 883.363 9763.98 874.379C9756.36 865.199 9746.59 857.875 9734.68 852.406C9722.96 846.742 9708.7 843.91 9691.91 843.91C9675.89 843.91 9661.93 847.23 9650.01 853.871C9638.29 860.512 9628.62 869.789 9621.01 881.703C9613.39 893.422 9607.73 907.191 9604.02 923.012C9600.3 938.832 9598.45 956.02 9598.45 974.574ZM9945.03 886.684V1136H9910.17V819.008H9943.57L9945.03 886.684ZM9937.12 957.875L9921.59 949.086C9922.77 930.336 9926.57 912.758 9933.02 896.352C9939.46 879.945 9948.16 865.492 9959.09 852.992C9970.23 840.492 9983.21 830.727 9998.06 823.695C10013.1 816.664 10029.7 813.148 10047.9 813.148C10063.7 813.148 10077.8 815.297 10090.3 819.594C10102.8 823.891 10113.5 830.727 10122.3 840.102C10131.1 849.477 10137.7 861.488 10142.2 876.137C10146.9 890.785 10149.2 908.656 10149.2 929.75V1136H10114.1V929.457C10114.1 907.582 10111 890.492 10105 878.188C10098.9 865.688 10090.3 856.801 10079.2 851.527C10068.1 846.254 10054.9 843.617 10039.7 843.617C10022.9 843.617 10008.1 847.328 9995.42 854.75C9982.92 861.977 9972.38 871.449 9963.78 883.168C9955.38 894.691 9948.94 907.094 9944.45 920.375C9939.95 933.461 9937.51 945.961 9937.12 957.875Z" fill="#011ECB"/>
<path d="M10514.5 1046.35C10514.5 1027.74 10515.8 1010.17 10517.9 994.753C10508.5 1007.16 10497 1020.48 10483.8 1033.63C10440.2 1077.21 10395.4 1103.08 10383.7 1091.35C10371.9 1079.62 10397.8 1034.79 10441.4 991.183C10454.5 978.035 10467.8 966.53 10480.2 957.122C10464.8 959.276 10447.3 960.494 10428.7 960.494C10367 960.494 10317 947.091 10317 930.514C10317 913.937 10367 900.506 10428.7 900.506C10447.3 900.506 10464.9 901.753 10480.3 903.906C10467.8 894.555 10454.5 882.965 10441.4 869.817C10397.7 826.207 10371.9 781.379 10383.6 769.648C10395.3 757.916 10440.2 783.788 10483.8 827.369C10496.9 840.517 10508.5 853.835 10517.9 866.247C10515.7 850.803 10514.5 833.263 10514.5 814.646C10514.5 753.014 10527.9 703 10544.5 703C10561.1 703 10574.5 752.986 10574.5 814.646C10574.5 833.263 10573.3 850.832 10571.1 866.247C10580.5 853.835 10592.1 840.517 10605.2 827.369C10648.8 783.788 10693.7 757.916 10705.4 769.648C10717.1 781.379 10691.3 826.207 10647.6 869.817C10634.5 882.965 10621.2 894.555 10608.7 903.906C10624.1 901.753 10641.7 900.506 10660.3 900.506C10722 900.506 10772 913.909 10772 930.514C10772 947.119 10722 960.494 10660.3 960.494C10641.7 960.494 10624.2 959.276 10608.8 957.122C10621.2 966.502 10634.5 978.006 10647.6 991.183C10691.2 1034.79 10717.1 1079.62 10705.3 1091.35C10693.6 1103.08 10648.8 1077.21 10605.2 1033.63C10592 1020.48 10580.5 1007.16 10571.1 994.753C10573.2 1010.2 10574.5 1027.74 10574.5 1046.35C10574.5 1108.01 10561 1158 10544.5 1158C10527.9 1158 10514.5 1108.01 10514.5 1046.35H10514.5Z" fill="#011ECB"/>
</svg>
