<svg width="1684" height="1174" viewBox="0 0 1684 1174" fill="none" xmlns="http://www.w3.org/2000/svg">
<path d="M1652 2H32C15.4315 2 2 15.4315 2 32V1142C2 1158.57 15.4315 1172 32 1172H1652C1668.57 1172 1682 1158.57 1682 1142V32C1682 15.4315 1668.57 2 1652 2Z" stroke="#011ECB" stroke-width="4" stroke-miterlimit="10"/>
<path d="M32 2H1652C1668.57 2 1682 15.43 1682 32V86H2V32C2 15.43 15.43 2 32 2Z" stroke="#011ECB" stroke-width="4" stroke-miterlimit="10"/>
<path d="M1200 67H498C484.75 67 474 56.25 474 43C474 29.75 484.75 19 498 19H1200C1213.25 19 1224 29.75 1224 43C1224 56.25 1213.25 67 1200 67Z" stroke="#011ECB" stroke-width="3" stroke-miterlimit="10"/>
<path d="M330.31 66.6201H258.31C245.06 66.6201 234.31 55.8701 234.31 42.6201C234.31 29.3701 245.06 18.6201 258.31 18.6201H330.31C343.56 18.6201 354.31 29.3701 354.31 42.6201C354.31 55.8701 343.56 66.6201 330.31 66.6201Z" stroke="#011ECB" stroke-width="3" stroke-miterlimit="10"/>
<path d="M78.6999 43C78.6999 38.3139 74.8861 34.5 70.1999 34.5C65.5138 34.5 61.7 38.3139 61.7 43C61.7 47.6861 65.5138 51.5 70.1999 51.5C74.8861 51.5 78.6999 47.6861 78.6999 43ZM58.7 43C58.7 36.6461 63.8461 31.5 70.1999 31.5C76.5538 31.5 81.6999 36.6461 81.6999 43C81.6999 49.3539 76.5538 54.5 70.1999 54.5C63.8461 54.5 58.7 49.3539 58.7 43Z" fill="#3169EB" stroke="#011ECB"/>
<path d="M119.5 43C119.5 38.3139 115.686 34.5 111 34.5C106.314 34.5 102.5 38.3139 102.5 43C102.5 47.6861 106.314 51.5 111 51.5C115.686 51.5 119.5 47.6861 119.5 43ZM99.5 43C99.5 36.6461 104.646 31.5 111 31.5C117.354 31.5 122.5 36.6461 122.5 43C122.5 49.3539 117.354 54.5 111 54.5C104.646 54.5 99.5 49.3539 99.5 43Z" fill="#3169EB" stroke="#011ECB"/>
<path d="M160.3 43C160.3 38.3139 156.486 34.5 151.8 34.5C147.114 34.5 143.3 38.3139 143.3 43C143.3 47.6861 147.114 51.5 151.8 51.5C156.486 51.5 160.3 47.6861 160.3 43ZM140.3 43C140.3 36.6461 145.446 31.5 151.8 31.5C158.154 31.5 163.3 36.6461 163.3 43C163.3 49.3539 158.154 54.5 151.8 54.5C145.446 54.5 140.3 49.3539 140.3 43Z" fill="#3169EB" stroke="#011ECB"/>
<path d="M262.766 42.2663L262.413 42.6198L262.766 42.9734L272.316 52.5234L272.316 52.5234L272.319 52.5264C272.708 52.9088 272.713 53.5398 272.316 53.9363C272.123 54.1293 271.862 54.2298 271.61 54.2298C271.358 54.2298 271.097 54.1293 270.903 53.9363L260.293 43.3263L260.294 43.3263L260.29 43.3233C259.901 42.9408 259.897 42.3098 260.293 41.9134L259.942 41.562L260.293 41.9134L270.903 31.3034L270.903 31.3034L270.906 31.3003C271.289 30.9113 271.92 30.907 272.316 31.3034L272.316 31.3034L272.319 31.3064C272.708 31.6888 272.713 32.3198 272.316 32.7163L262.766 42.2663Z" fill="#3169EB" stroke="#011ECB"/>
<path d="M335.316 41.9134L335.316 41.9134L335.319 41.9164C335.708 42.2988 335.713 42.9298 335.316 43.3263L324.706 53.9363C324.513 54.1293 324.252 54.2298 324 54.2298C323.748 54.2298 323.487 54.1293 323.293 53.9363L323.29 53.9333C322.901 53.5508 322.897 52.9198 323.293 52.5234L332.843 42.9734L333.197 42.6198L332.843 42.2663L323.293 32.7163L323.294 32.7163L323.29 32.7133C322.901 32.3308 322.897 31.6998 323.293 31.3034L323.294 31.3034L323.296 31.3003C323.679 30.9113 324.31 30.907 324.706 31.3034L335.316 41.9134Z" fill="#3169EB" stroke="#011ECB"/>
<path d="M295.994 19.1487L297.994 19.1361L298.292 66.5152L296.292 66.5278L295.994 19.1487Z" fill="#3169EB" stroke="#011ECB"/>
<path d="M1568.5 41V41.5H1569H1579.5C1580.05 41.5 1580.5 41.9461 1580.5 42.5C1580.5 43.0539 1580.05 43.5 1579.5 43.5H1569H1568.5V44V54.25C1568.5 54.8039 1568.05 55.25 1567.5 55.25C1566.95 55.25 1566.5 54.8039 1566.5 54.25V44V43.5H1566H1555.5C1554.95 43.5 1554.5 43.0539 1554.5 42.5C1554.5 41.9461 1554.95 41.5 1555.5 41.5H1566H1566.5V41V30.25C1566.5 29.6961 1566.95 29.25 1567.5 29.25C1568.05 29.25 1568.5 29.6961 1568.5 30.25V41Z" fill="#3169EB" stroke="#011ECB"/>
<path d="M1630.5 30.5H1642.5C1644.71 30.5 1646.5 32.2861 1646.5 34.5V46.5C1646.5 48.7139 1644.71 50.5 1642.5 50.5H1638.5V48.5H1642.5C1643.61 48.5 1644.5 47.6061 1644.5 46.5V34.5C1644.5 33.3939 1643.61 32.5 1642.5 32.5H1630.5C1629.41 32.5 1628.5 33.3917 1628.5 34.5V38.5H1626.5V34.5C1626.5 32.2869 1628.3 30.5 1630.5 30.5Z" fill="#3169EB" stroke="#011ECB"/>
<path d="M1624.5 36.5H1636.5C1638.71 36.5 1640.5 38.2861 1640.5 40.5V52.5C1640.5 54.7139 1638.71 56.5 1636.5 56.5H1624.5C1622.3 56.5 1620.5 54.7131 1620.5 52.5V40.5C1620.5 38.2869 1622.3 36.5 1624.5 36.5ZM1636.5 54.5C1637.61 54.5 1638.5 53.6061 1638.5 52.5V40.5C1638.5 39.3939 1637.61 38.5 1636.5 38.5H1624.5C1623.41 38.5 1622.5 39.3917 1622.5 40.5V52.5C1622.5 53.6083 1623.41 54.5 1624.5 54.5H1636.5Z" fill="#3169EB" stroke="#011ECB"/>
<path d="M1200.61 35.2339L1201.5 36.3365V34.92V32.48C1201.5 31.9745 1201.87 31.5588 1202.36 31.49H1202.51C1203.06 31.49 1203.51 31.9361 1203.51 32.49V38.49C1203.51 38.8059 1203.41 39.0636 1203.27 39.2336C1203.13 39.3958 1202.94 39.5 1202.67 39.5H1196.67C1196.12 39.5 1195.67 39.0538 1195.67 38.5C1195.67 37.9461 1196.12 37.5 1196.67 37.5H1199H1200.08L1199.38 36.6773C1197.59 34.5539 1195.01 33.49 1192.3 33.49C1187.06 33.49 1182.8 37.7435 1182.8 42.99C1182.8 48.2358 1187.06 52.5 1192.3 52.5C1196.12 52.5 1199.56 50.2197 1201.05 46.6944L1201.05 46.6919C1201.26 46.1825 1201.85 45.9475 1202.35 46.1597C1202.86 46.381 1203.09 46.9679 1202.88 47.4751C1201.07 51.7403 1196.9 54.5 1192.27 54.5C1185.93 54.5 1180.75 49.3333 1180.75 42.99C1180.75 36.6434 1185.87 31.48 1192.21 31.48C1195.49 31.48 1198.72 32.8874 1200.61 35.2339Z" fill="#3169EB" stroke="#011ECB"/>
<path d="M520.919 48.5657L526.77 54.4169V54.4294L526.919 54.5764C527.308 54.9588 527.313 55.5898 526.916 55.9862C526.723 56.1793 526.462 56.2798 526.21 56.2798C525.958 56.2798 525.697 56.1793 525.504 55.9862L519.507 49.9899C519.505 49.9874 519.502 49.9821 519.496 49.9725L519.483 49.9503L519.465 49.9187C519.451 49.8953 519.431 49.8634 519.407 49.8292L519.1 49.399L518.687 49.7297C516.65 51.363 514.179 52.2898 511.54 52.2898C508.463 52.2898 505.58 51.0927 503.403 48.9162C498.919 44.4315 498.919 37.1381 503.403 32.6533C507.888 28.1686 515.182 28.1686 519.666 32.6533C521.843 34.8298 523.04 37.7128 523.04 40.7898C523.04 43.3434 522.17 45.7473 520.634 47.7449L520.298 48.1817L520.765 48.4738C520.794 48.4921 520.823 48.5084 520.843 48.5202L520.848 48.5231C520.869 48.5346 520.882 48.5422 520.895 48.5499C520.91 48.5591 520.917 48.5641 520.919 48.5657ZM504.826 47.5034L504.826 47.5033C508.423 51.0886 514.662 51.0853 518.254 47.4933C520.047 45.7001 521.04 43.3131 521.04 40.7798C521.04 38.2465 520.047 35.8595 518.254 34.0662C516.406 32.2184 513.967 31.2898 511.54 31.2898C509.113 31.2898 506.674 32.2184 504.826 34.0662C501.121 37.7715 501.121 43.7981 504.826 47.5034Z" fill="#3169EB" stroke="#011ECB"/>
<mask id="path-16-outside-1_321_1136" maskUnits="userSpaceOnUse" x="101" y="460" width="1496" height="269" fill="black">
<rect fill="white" x="101" y="460" width="1496" height="269"/>
<path d="M189.5 727.25C128 727.25 102.5 700.625 102.5 642.875V640.25H151.625V644.75C151.625 675.875 163.625 683.75 192.5 683.75C223.25 683.75 230.75 676.25 230.75 655.25C230.75 632.375 219.5 628.625 176.375 612.5C130.25 594.875 103.25 579.5 103.25 533.375C103.25 486.875 129.875 461.75 189.875 461.75H192.875C252.5 461.75 280.625 488 280.625 543.875V546.5H231.875V542C231.875 513.5 219.875 505.25 191.375 505.25C161 505.25 153.5 512.75 153.5 531.125C153.5 552.125 168.875 557 207.875 570.5C257.375 588.125 281.75 603.125 281.75 651.875C281.75 702.875 257 727.25 195.125 727.25H189.5ZM443.621 467H495.371V722H443.621V618.125H373.871V722H322.121V467H373.871V569.375H443.621V467ZM675.617 722L663.242 668.75H584.117L571.367 722H521.867L584.492 464.75H666.242L728.867 722H675.617ZM626.117 497.75H622.367L594.617 624.5H653.117L626.117 497.75ZM863.738 584L950.363 722H888.863L817.988 606.875H814.988V722H763.238V467H814.988V566.375H817.988L888.488 467H947.363L863.738 584ZM1140.73 514.25H1084.11V674.75H1140.73V722H976.484V674.75H1033.11V514.25H976.484V467H1140.73V514.25ZM1370.11 722H1313.86L1268.48 629H1241.11V722H1190.86V467H1262.48C1338.23 467 1367.11 491.375 1367.11 548C1367.11 587 1353.61 610.625 1320.23 621.875L1370.11 722ZM1241.11 514.625V582.125H1269.23C1303.36 582.125 1315.36 573.5 1315.36 548.375C1315.36 522.875 1303.36 514.625 1269.23 514.625H1241.11ZM1542.1 722L1529.73 668.75H1450.6L1437.85 722H1388.35L1450.98 464.75H1532.73L1595.35 722H1542.1ZM1492.6 497.75H1488.85L1461.1 624.5H1519.6L1492.6 497.75Z"/>
</mask>
<path d="M189.5 727.25C128 727.25 102.5 700.625 102.5 642.875V640.25H151.625V644.75C151.625 675.875 163.625 683.75 192.5 683.75C223.25 683.75 230.75 676.25 230.75 655.25C230.75 632.375 219.5 628.625 176.375 612.5C130.25 594.875 103.25 579.5 103.25 533.375C103.25 486.875 129.875 461.75 189.875 461.75H192.875C252.5 461.75 280.625 488 280.625 543.875V546.5H231.875V542C231.875 513.5 219.875 505.25 191.375 505.25C161 505.25 153.5 512.75 153.5 531.125C153.5 552.125 168.875 557 207.875 570.5C257.375 588.125 281.75 603.125 281.75 651.875C281.75 702.875 257 727.25 195.125 727.25H189.5ZM443.621 467H495.371V722H443.621V618.125H373.871V722H322.121V467H373.871V569.375H443.621V467ZM675.617 722L663.242 668.75H584.117L571.367 722H521.867L584.492 464.75H666.242L728.867 722H675.617ZM626.117 497.75H622.367L594.617 624.5H653.117L626.117 497.75ZM863.738 584L950.363 722H888.863L817.988 606.875H814.988V722H763.238V467H814.988V566.375H817.988L888.488 467H947.363L863.738 584ZM1140.73 514.25H1084.11V674.75H1140.73V722H976.484V674.75H1033.11V514.25H976.484V467H1140.73V514.25ZM1370.11 722H1313.86L1268.48 629H1241.11V722H1190.86V467H1262.48C1338.23 467 1367.11 491.375 1367.11 548C1367.11 587 1353.61 610.625 1320.23 621.875L1370.11 722ZM1241.11 514.625V582.125H1269.23C1303.36 582.125 1315.36 573.5 1315.36 548.375C1315.36 522.875 1303.36 514.625 1269.23 514.625H1241.11ZM1542.1 722L1529.73 668.75H1450.6L1437.85 722H1388.35L1450.98 464.75H1532.73L1595.35 722H1542.1ZM1492.6 497.75H1488.85L1461.1 624.5H1519.6L1492.6 497.75Z" fill="#011ECB"/>
<path d="M102.5 640.25V639.25H101.5V640.25H102.5ZM151.625 640.25H152.625V639.25H151.625V640.25ZM176.375 612.5L176.018 613.434L176.025 613.437L176.375 612.5ZM280.625 546.5V547.5H281.625V546.5H280.625ZM231.875 546.5H230.875V547.5H231.875V546.5ZM207.875 570.5L208.21 569.558L208.202 569.555L207.875 570.5ZM189.5 726.25C158.868 726.25 137.433 719.616 123.64 706.007C109.851 692.401 103.5 671.627 103.5 642.875H101.5C101.5 671.873 107.899 693.286 122.235 707.431C136.567 721.572 158.632 728.25 189.5 728.25V726.25ZM103.5 642.875V640.25H101.5V642.875H103.5ZM102.5 641.25H151.625V639.25H102.5V641.25ZM150.625 640.25V644.75H152.625V640.25H150.625ZM150.625 644.75C150.625 660.393 153.631 670.518 160.571 676.67C167.478 682.794 178.036 684.75 192.5 684.75V682.75C178.089 682.75 168.209 680.769 161.898 675.174C155.619 669.607 152.625 660.232 152.625 644.75H150.625ZM192.5 684.75C207.88 684.75 217.762 682.892 223.775 678.161C229.873 673.362 231.75 665.822 231.75 655.25H229.75C229.75 665.678 227.877 672.388 222.538 676.589C217.113 680.858 207.87 682.75 192.5 682.75V684.75ZM231.75 655.25C231.75 649.457 231.039 644.776 229.229 640.775C227.412 636.759 224.524 633.512 220.313 630.528C216.119 627.556 210.587 624.827 203.45 621.843C196.309 618.857 187.497 615.591 176.725 611.563L176.025 613.437C186.815 617.471 195.582 620.721 202.679 623.688C209.78 626.657 215.147 629.319 219.156 632.16C223.147 634.988 225.768 637.976 227.407 641.6C229.054 645.24 229.75 649.605 229.75 655.25H231.75ZM176.732 611.566C153.66 602.75 135.556 594.558 123.202 582.898C110.917 571.303 104.25 556.207 104.25 533.375H102.25C102.25 556.668 109.083 572.322 121.829 584.352C134.506 596.317 152.965 604.625 176.018 613.434L176.732 611.566ZM104.25 533.375C104.25 510.318 110.844 492.733 124.712 480.885C138.611 469.011 159.989 462.75 189.875 462.75V460.75C159.761 460.75 137.826 467.051 123.413 479.365C108.968 491.705 102.25 509.932 102.25 533.375H104.25ZM189.875 462.75H192.875V460.75H189.875V462.75ZM192.875 462.75C222.564 462.75 244.204 469.288 258.426 482.59C272.635 495.878 279.625 516.093 279.625 543.875H281.625C281.625 515.781 274.553 494.934 259.792 481.129C245.046 467.337 222.811 460.75 192.875 460.75V462.75ZM279.625 543.875V546.5H281.625V543.875H279.625ZM280.625 545.5H231.875V547.5H280.625V545.5ZM232.875 546.5V542H230.875V546.5H232.875ZM232.875 542C232.875 527.645 229.858 518.088 222.963 512.178C216.11 506.304 205.664 504.25 191.375 504.25V506.25C205.586 506.25 215.39 508.321 221.662 513.697C227.892 519.037 230.875 527.855 230.875 542H232.875ZM191.375 504.25C176.174 504.25 166.409 506.111 160.454 510.491C154.395 514.948 152.5 521.827 152.5 531.125H154.5C154.5 522.048 156.355 515.99 161.639 512.102C167.029 508.138 176.201 506.25 191.375 506.25V504.25ZM152.5 531.125C152.5 536.5 153.485 540.923 155.642 544.731C157.797 548.536 161.075 551.645 165.527 554.469C174.37 560.08 188.11 564.717 207.548 571.445L208.202 569.555C188.64 562.783 175.192 558.233 166.598 552.781C162.331 550.074 159.328 547.183 157.382 543.745C155.437 540.311 154.5 536.25 154.5 531.125H152.5ZM207.54 571.442C232.298 580.258 250.569 588.354 262.675 600.23C274.713 612.038 280.75 627.686 280.75 651.875H282.75C282.75 627.314 276.6 611.087 264.075 598.802C251.619 586.583 232.952 578.367 208.21 569.558L207.54 571.442ZM280.75 651.875C280.75 677.228 274.599 695.739 260.973 707.943C247.321 720.17 225.964 726.25 195.125 726.25V728.25C226.161 728.25 248.116 722.143 262.308 709.432C276.526 696.699 282.75 677.522 282.75 651.875H280.75ZM195.125 726.25H189.5V728.25H195.125V726.25ZM443.621 467V466H442.621V467H443.621ZM495.371 467H496.371V466H495.371V467ZM495.371 722V723H496.371V722H495.371ZM443.621 722H442.621V723H443.621V722ZM443.621 618.125H444.621V617.125H443.621V618.125ZM373.871 618.125V617.125H372.871V618.125H373.871ZM373.871 722V723H374.871V722H373.871ZM322.121 722H321.121V723H322.121V722ZM322.121 467V466H321.121V467H322.121ZM373.871 467H374.871V466H373.871V467ZM373.871 569.375H372.871V570.375H373.871V569.375ZM443.621 569.375V570.375H444.621V569.375H443.621ZM443.621 468H495.371V466H443.621V468ZM494.371 467V722H496.371V467H494.371ZM495.371 721H443.621V723H495.371V721ZM444.621 722V618.125H442.621V722H444.621ZM443.621 617.125H373.871V619.125H443.621V617.125ZM372.871 618.125V722H374.871V618.125H372.871ZM373.871 721H322.121V723H373.871V721ZM323.121 722V467H321.121V722H323.121ZM322.121 468H373.871V466H322.121V468ZM372.871 467V569.375H374.871V467H372.871ZM373.871 570.375H443.621V568.375H373.871V570.375ZM444.621 569.375V467H442.621V569.375H444.621ZM675.617 722L674.643 722.226L674.823 723H675.617V722ZM663.242 668.75L664.216 668.524L664.036 667.75H663.242V668.75ZM584.117 668.75V667.75H583.328L583.145 668.517L584.117 668.75ZM571.367 722V723H572.156L572.34 722.233L571.367 722ZM521.867 722L520.896 721.763L520.595 723H521.867V722ZM584.492 464.75V463.75H583.706L583.521 464.513L584.492 464.75ZM666.242 464.75L667.214 464.513L667.028 463.75H666.242V464.75ZM728.867 722V723H730.14L729.839 721.763L728.867 722ZM626.117 497.75L627.095 497.542L626.927 496.75H626.117V497.75ZM622.367 497.75V496.75H621.562L621.39 497.536L622.367 497.75ZM594.617 624.5L593.64 624.286L593.375 625.5H594.617V624.5ZM653.117 624.5V625.5H654.353L654.095 624.292L653.117 624.5ZM676.591 721.774L664.216 668.524L662.268 668.976L674.643 722.226L676.591 721.774ZM663.242 667.75H584.117V669.75H663.242V667.75ZM583.145 668.517L570.395 721.767L572.34 722.233L585.09 668.983L583.145 668.517ZM571.367 721H521.867V723H571.367V721ZM522.839 722.237L585.464 464.987L583.521 464.513L520.896 721.763L522.839 722.237ZM584.492 465.75H666.242V463.75H584.492V465.75ZM665.271 464.987L727.896 722.237L729.839 721.763L667.214 464.513L665.271 464.987ZM728.867 721H675.617V723H728.867V721ZM626.117 496.75H622.367V498.75H626.117V496.75ZM621.39 497.536L593.64 624.286L595.594 624.714L623.344 497.964L621.39 497.536ZM594.617 625.5H653.117V623.5H594.617V625.5ZM654.095 624.292L627.095 497.542L625.139 497.958L652.139 624.708L654.095 624.292ZM863.738 584L862.925 583.419L862.535 583.964L862.891 584.532L863.738 584ZM950.363 722V723H952.172L951.21 721.468L950.363 722ZM888.863 722L888.012 722.524L888.305 723H888.863V722ZM817.988 606.875L818.84 606.351L818.547 605.875H817.988V606.875ZM814.988 606.875V605.875H813.988V606.875H814.988ZM814.988 722V723H815.988V722H814.988ZM763.238 722H762.238V723H763.238V722ZM763.238 467V466H762.238V467H763.238ZM814.988 467H815.988V466H814.988V467ZM814.988 566.375H813.988V567.375H814.988V566.375ZM817.988 566.375V567.375H818.505L818.804 566.954L817.988 566.375ZM888.488 467V466H887.972L887.673 466.421L888.488 467ZM947.363 467L948.177 467.581L949.307 466H947.363V467ZM862.891 584.532L949.516 722.532L951.21 721.468L864.585 583.468L862.891 584.532ZM950.363 721H888.863V723H950.363V721ZM889.715 721.476L818.84 606.351L817.137 607.399L888.012 722.524L889.715 721.476ZM817.988 605.875H814.988V607.875H817.988V605.875ZM813.988 606.875V722H815.988V606.875H813.988ZM814.988 721H763.238V723H814.988V721ZM764.238 722V467H762.238V722H764.238ZM763.238 468H814.988V466H763.238V468ZM813.988 467V566.375H815.988V467H813.988ZM814.988 567.375H817.988V565.375H814.988V567.375ZM818.804 566.954L889.304 467.579L887.673 466.421L817.173 565.796L818.804 566.954ZM888.488 468H947.363V466H888.488V468ZM946.55 466.419L862.925 583.419L864.552 584.581L948.177 467.581L946.55 466.419ZM1140.73 514.25V515.25H1141.73V514.25H1140.73ZM1084.11 514.25V513.25H1083.11V514.25H1084.11ZM1084.11 674.75H1083.11V675.75H1084.11V674.75ZM1140.73 674.75H1141.73V673.75H1140.73V674.75ZM1140.73 722V723H1141.73V722H1140.73ZM976.484 722H975.484V723H976.484V722ZM976.484 674.75V673.75H975.484V674.75H976.484ZM1033.11 674.75V675.75H1034.11V674.75H1033.11ZM1033.11 514.25H1034.11V513.25H1033.11V514.25ZM976.484 514.25H975.484V515.25H976.484V514.25ZM976.484 467V466H975.484V467H976.484ZM1140.73 467H1141.73V466H1140.73V467ZM1140.73 513.25H1084.11V515.25H1140.73V513.25ZM1083.11 514.25V674.75H1085.11V514.25H1083.11ZM1084.11 675.75H1140.73V673.75H1084.11V675.75ZM1139.73 674.75V722H1141.73V674.75H1139.73ZM1140.73 721H976.484V723H1140.73V721ZM977.484 722V674.75H975.484V722H977.484ZM976.484 675.75H1033.11V673.75H976.484V675.75ZM1034.11 674.75V514.25H1032.11V674.75H1034.11ZM1033.11 513.25H976.484V515.25H1033.11V513.25ZM977.484 514.25V467H975.484V514.25H977.484ZM976.484 468H1140.73V466H976.484V468ZM1139.73 467V514.25H1141.73V467H1139.73ZM1370.11 722V723H1371.72L1371 721.554L1370.11 722ZM1313.86 722L1312.96 722.438L1313.23 723H1313.86V722ZM1268.48 629L1269.38 628.562L1269.11 628H1268.48V629ZM1241.11 629V628H1240.11V629H1241.11ZM1241.11 722V723H1242.11V722H1241.11ZM1190.86 722H1189.86V723H1190.86V722ZM1190.86 467V466H1189.86V467H1190.86ZM1320.23 621.875L1319.91 620.927L1318.82 621.294L1319.34 622.321L1320.23 621.875ZM1241.11 514.625V513.625H1240.11V514.625H1241.11ZM1241.11 582.125H1240.11V583.125H1241.11V582.125ZM1370.11 721H1313.86V723H1370.11V721ZM1314.75 721.562L1269.38 628.562L1267.58 629.438L1312.96 722.438L1314.75 721.562ZM1268.48 628H1241.11V630H1268.48V628ZM1240.11 629V722H1242.11V629H1240.11ZM1241.11 721H1190.86V723H1241.11V721ZM1191.86 722V467H1189.86V722H1191.86ZM1190.86 468H1262.48V466H1190.86V468ZM1262.48 468C1300.29 468 1326.16 474.093 1342.58 487.051C1358.93 499.959 1366.11 519.851 1366.11 548H1368.11C1368.11 519.524 1360.84 498.916 1343.82 485.481C1326.86 472.094 1300.42 466 1262.48 466V468ZM1366.11 548C1366.11 567.396 1362.75 582.846 1355.33 594.817C1347.93 606.768 1336.43 615.361 1319.91 620.927L1320.55 622.823C1337.41 617.139 1349.34 608.295 1357.03 595.87C1364.71 583.467 1368.11 567.604 1368.11 548H1366.11ZM1319.34 622.321L1369.21 722.446L1371 721.554L1321.13 621.429L1319.34 622.321ZM1240.11 514.625V582.125H1242.11V514.625H1240.11ZM1241.11 583.125H1269.23V581.125H1241.11V583.125ZM1269.23 583.125C1286.32 583.125 1298.14 580.98 1305.68 575.48C1313.32 569.912 1316.36 561.083 1316.36 548.375H1314.36C1314.36 560.792 1311.39 568.838 1304.5 573.864C1297.51 578.958 1286.27 581.125 1269.23 581.125V583.125ZM1316.36 548.375C1316.36 535.484 1313.32 526.65 1305.68 521.127C1298.13 515.675 1286.31 513.625 1269.23 513.625V515.625C1286.28 515.625 1297.52 517.7 1304.5 522.748C1311.39 527.725 1314.36 535.766 1314.36 548.375H1316.36ZM1269.23 513.625H1241.11V515.625H1269.23V513.625ZM1542.1 722L1541.13 722.226L1541.31 723H1542.1V722ZM1529.73 668.75L1530.7 668.524L1530.52 667.75H1529.73V668.75ZM1450.6 668.75V667.75H1449.81L1449.63 668.517L1450.6 668.75ZM1437.85 722V723H1438.64L1438.82 722.233L1437.85 722ZM1388.35 722L1387.38 721.763L1387.08 723H1388.35V722ZM1450.98 464.75V463.75H1450.19L1450 464.513L1450.98 464.75ZM1532.73 464.75L1533.7 464.513L1533.51 463.75H1532.73V464.75ZM1595.35 722V723H1596.62L1596.32 721.763L1595.35 722ZM1492.6 497.75L1493.58 497.542L1493.41 496.75H1492.6V497.75ZM1488.85 497.75V496.75H1488.05L1487.87 497.536L1488.85 497.75ZM1461.1 624.5L1460.12 624.286L1459.86 625.5H1461.1V624.5ZM1519.6 624.5V625.5H1520.84L1520.58 624.292L1519.6 624.5ZM1543.08 721.774L1530.7 668.524L1528.75 668.976L1541.13 722.226L1543.08 721.774ZM1529.73 667.75H1450.6V669.75H1529.73V667.75ZM1449.63 668.517L1436.88 721.767L1438.82 722.233L1451.57 668.983L1449.63 668.517ZM1437.85 721H1388.35V723H1437.85V721ZM1389.32 722.237L1451.95 464.987L1450 464.513L1387.38 721.763L1389.32 722.237ZM1450.98 465.75H1532.73V463.75H1450.98V465.75ZM1531.75 464.987L1594.38 722.237L1596.32 721.763L1533.7 464.513L1531.75 464.987ZM1595.35 721H1542.1V723H1595.35V721ZM1492.6 496.75H1488.85V498.75H1492.6V496.75ZM1487.87 497.536L1460.12 624.286L1462.08 624.714L1489.83 497.964L1487.87 497.536ZM1461.1 625.5H1519.6V623.5H1461.1V625.5ZM1520.58 624.292L1493.58 497.542L1491.62 497.958L1518.62 624.708L1520.58 624.292Z" fill="#011ECB" mask="url(#path-16-outside-1_321_1136)"/>
</svg>
