<svg width="15643" height="1860" viewBox="0 0 15643 1860" fill="none" xmlns="http://www.w3.org/2000/svg">
<rect width="15643" height="1860" fill="#F5F1EA"/>
<path d="M820 1162C799.6 1162 781.6 1155.6 766 1142.8C750.8 1130 738 1112.8 727.6 1091.2C717.6 1069.2 710 1044.8 704.8 1018C699.6 990.8 697 962.8 697 934C697 905.2 699.4 877.4 704.2 850.6C709.4 823.4 717.2 799 727.6 777.4C738 755.4 750.8 738 766 725.2C781.6 712.4 799.6 706 820 706C840.4 706 858.2 712.4 873.4 725.2C889 738 902 755.4 912.4 777.4C922.8 799 930.4 823.4 935.2 850.6C940.4 877.4 943 905.2 943 934C943 962.8 940.4 990.8 935.2 1018C930 1044.8 922.2 1069.2 911.8 1091.2C901.8 1112.8 889 1130 873.4 1142.8C858.2 1155.6 840.4 1162 820 1162ZM820 1139.8C848.4 1139.8 868.6 1129.6 880.6 1109.2C892.6 1088.8 898.6 1061.4 898.6 1027V841C898.6 806.6 892.4 779.2 880 758.8C868 738.4 848 728.2 820 728.2C792 728.2 771.8 738.4 759.4 758.8C747.4 779.2 741.4 806.6 741.4 841V1027C741.4 1061.4 747.4 1088.8 759.4 1109.2C771.8 1129.6 792 1139.8 820 1139.8ZM968.2 1156V1135.6H1099.6V775H990.4V758.8L1043.8 754C1063.4 752 1079.6 747.4 1092.4 740.2C1105.6 732.6 1116.8 721.2 1126 706H1140.4V1135.6H1253.8V1156H968.2Z" fill="#011ECB"/>
<path d="M1570.86 686V1136H1536V686H1570.86ZM1562.95 957.875L1547.42 949.086C1548.59 930.336 1552.4 912.758 1558.85 896.352C1565.29 879.945 1573.98 865.492 1584.92 852.992C1596.05 840.492 1609.04 830.727 1623.89 823.695C1638.93 816.664 1655.53 813.148 1673.69 813.148C1689.51 813.148 1703.67 815.297 1716.17 819.594C1728.67 823.891 1739.32 830.727 1748.11 840.102C1756.89 849.477 1763.54 861.488 1768.03 876.137C1772.71 890.785 1775.06 908.656 1775.06 929.75V1136H1739.9V929.457C1739.9 907.582 1736.88 890.492 1730.82 878.188C1724.77 865.688 1716.17 856.801 1705.04 851.527C1693.91 846.254 1680.72 843.617 1665.49 843.617C1648.69 843.617 1633.95 847.328 1621.25 854.75C1608.75 861.977 1598.2 871.449 1589.61 883.168C1581.21 894.691 1574.77 907.094 1570.27 920.375C1565.78 933.461 1563.34 945.961 1562.95 957.875ZM1845.96 982.484V972.816C1845.96 949.77 1849.28 928.48 1855.92 908.949C1862.56 889.418 1872.03 872.523 1884.34 858.266C1896.84 844.008 1911.78 832.973 1929.16 825.16C1946.54 817.152 1965.88 813.148 1987.17 813.148C2008.65 813.148 2028.09 817.152 2045.47 825.16C2062.85 832.973 2077.79 844.008 2090.29 858.266C2102.79 872.523 2112.36 889.418 2119 908.949C2125.64 928.48 2128.96 949.77 2128.96 972.816V982.484C2128.96 1005.53 2125.64 1026.82 2119 1046.35C2112.36 1065.69 2102.79 1082.48 2090.29 1096.74C2077.99 1111 2063.14 1122.13 2045.76 1130.14C2028.38 1137.95 2009.04 1141.86 1987.75 1141.86C1966.27 1141.86 1946.84 1137.95 1929.45 1130.14C1912.07 1122.13 1897.13 1111 1884.63 1096.74C1872.13 1082.48 1862.56 1065.69 1855.92 1046.35C1849.28 1026.82 1845.96 1005.53 1845.96 982.484ZM1880.82 972.816V982.484C1880.82 999.867 1883.16 1016.37 1887.85 1032C1892.54 1047.43 1899.38 1061.2 1908.36 1073.3C1917.34 1085.22 1928.48 1094.59 1941.76 1101.43C1955.04 1108.27 1970.37 1111.68 1987.75 1111.68C2004.94 1111.68 2020.08 1108.27 2033.16 1101.43C2046.45 1094.59 2057.58 1085.22 2066.56 1073.3C2075.55 1061.2 2082.29 1047.43 2086.78 1032C2091.46 1016.37 2093.81 999.867 2093.81 982.484V972.816C2093.81 955.629 2091.46 939.32 2086.78 923.891C2082.29 908.461 2075.45 894.691 2066.27 882.582C2057.29 870.473 2046.15 860.902 2032.87 853.871C2019.59 846.84 2004.36 843.324 1987.17 843.324C1969.98 843.324 1954.75 846.84 1941.46 853.871C1928.38 860.902 1917.25 870.473 1908.07 882.582C1899.08 894.691 1892.25 908.461 1887.56 923.891C1883.07 939.32 1880.82 955.629 1880.82 972.816ZM2234.73 884.633V1136H2199.57V819.008H2233.26L2234.73 884.633ZM2228.28 957.875L2211.29 949.086C2212.46 930.336 2215.98 912.758 2221.84 896.352C2227.89 879.945 2236.29 865.492 2247.03 852.992C2257.77 840.492 2270.66 830.727 2285.7 823.695C2300.74 816.664 2317.83 813.148 2336.97 813.148C2352.4 813.148 2366.37 815.297 2378.87 819.594C2391.56 823.695 2402.3 830.238 2411.09 839.223C2420.08 848.012 2427.01 859.535 2431.89 873.793C2436.78 888.051 2439.22 905.141 2439.22 925.062V1136H2404.36V926.234C2404.36 905.141 2401.04 888.637 2394.39 876.723C2387.95 864.809 2378.87 856.312 2367.15 851.234C2355.62 846.156 2342.25 843.617 2327.01 843.617C2309.04 843.617 2293.81 847.328 2281.31 854.75C2269 861.977 2258.95 871.449 2251.13 883.168C2243.52 894.691 2237.85 907.094 2234.14 920.375C2230.43 933.461 2228.48 945.961 2228.28 957.875ZM2438.93 930.336L2415.49 930.922C2416.46 915.492 2419.98 900.746 2426.04 886.684C2432.29 872.621 2440.78 860.121 2451.52 849.184C2462.27 838.051 2475.06 829.262 2489.9 822.816C2504.94 816.371 2521.84 813.148 2540.59 813.148C2556.99 813.148 2571.64 815.395 2584.53 819.887C2597.42 824.184 2608.26 831.117 2617.05 840.688C2626.04 850.062 2632.87 862.074 2637.56 876.723C2642.25 891.371 2644.59 908.949 2644.59 929.457V1136H2609.43V929.164C2609.43 906.703 2606.11 889.32 2599.47 877.016C2593.03 864.516 2584.04 855.824 2572.52 850.941C2561 846.059 2547.52 843.617 2532.09 843.617C2516.86 843.812 2503.48 846.645 2491.95 852.113C2480.43 857.387 2470.76 864.418 2462.95 873.207C2455.33 881.801 2449.47 891.078 2445.37 901.039C2441.46 911 2439.32 920.766 2438.93 930.336ZM2856.11 1141.86C2835.41 1141.86 2816.37 1138.05 2798.98 1130.43C2781.8 1122.82 2766.76 1112.07 2753.87 1098.21C2741.17 1084.34 2731.31 1067.93 2724.28 1048.99C2717.44 1029.85 2714.02 1008.95 2714.02 986.293V973.695C2714.02 949.281 2717.64 927.211 2724.86 907.484C2732.09 887.758 2742.05 870.863 2754.75 856.801C2767.44 842.738 2781.89 831.996 2798.11 824.574C2814.51 816.957 2831.7 813.148 2849.67 813.148C2869.79 813.148 2887.66 816.762 2903.28 823.988C2918.91 831.02 2931.99 841.078 2942.54 854.164C2953.28 867.055 2961.39 882.387 2966.86 900.16C2972.32 917.738 2975.06 937.172 2975.06 958.461V979.848H2735.12V949.965H2940.2V945.863C2939.8 928.09 2936.19 911.488 2929.36 896.059C2922.71 880.434 2912.75 867.738 2899.47 857.973C2886.19 848.207 2869.59 843.324 2849.67 843.324C2834.82 843.324 2821.15 846.449 2808.65 852.699C2796.35 858.949 2785.7 867.934 2776.72 879.652C2767.93 891.176 2761.09 904.945 2756.21 920.961C2751.52 936.781 2749.18 954.359 2749.18 973.695V986.293C2749.18 1003.87 2751.72 1020.28 2756.8 1035.51C2762.07 1050.55 2769.49 1063.83 2779.06 1075.36C2788.83 1086.88 2800.35 1095.86 2813.63 1102.31C2826.91 1108.75 2841.56 1111.98 2857.58 1111.98C2876.33 1111.98 2892.93 1108.56 2907.38 1101.72C2921.84 1094.69 2934.82 1083.66 2946.35 1068.62L2968.32 1085.61C2961.48 1095.77 2952.89 1105.14 2942.54 1113.73C2932.38 1122.33 2920.18 1129.16 2905.92 1134.24C2891.66 1139.32 2875.06 1141.86 2856.11 1141.86ZM3078.77 879.945V1257.88H3043.61V819.008H3076.43L3078.77 879.945ZM3299.08 974.574V980.727C3299.08 1004.36 3296.35 1026.04 3290.88 1045.77C3285.41 1065.49 3277.5 1082.58 3267.15 1097.04C3256.99 1111.29 3244.39 1122.33 3229.36 1130.14C3214.32 1137.95 3197.23 1141.86 3178.09 1141.86C3159.14 1141.86 3142.25 1138.93 3127.4 1133.07C3112.56 1127.21 3099.77 1118.91 3089.02 1108.17C3078.48 1097.23 3069.98 1084.54 3063.54 1070.08C3057.29 1055.43 3052.89 1039.42 3050.35 1022.04V940.883C3053.28 921.742 3058.07 904.359 3064.71 888.734C3071.35 873.109 3079.84 859.633 3090.2 848.305C3100.74 836.977 3113.24 828.285 3127.7 822.23C3142.15 816.176 3158.65 813.148 3177.21 813.148C3196.54 813.148 3213.73 816.957 3228.77 824.574C3244 831.996 3256.8 842.836 3267.15 857.094C3277.7 871.156 3285.61 888.148 3290.88 908.07C3296.35 927.797 3299.08 949.965 3299.08 974.574ZM3263.93 980.727V974.574C3263.93 956.02 3261.97 938.832 3258.07 923.012C3254.36 907.191 3248.59 893.422 3240.78 881.703C3233.16 869.789 3223.4 860.512 3211.48 853.871C3199.77 847.23 3185.8 843.91 3169.59 843.91C3152.79 843.91 3138.44 846.742 3126.52 852.406C3114.8 857.875 3105.04 865.199 3097.23 874.379C3089.41 883.363 3083.26 893.227 3078.77 903.969C3074.28 914.711 3070.96 925.258 3068.81 935.609V1029.07C3072.52 1043.91 3078.48 1057.68 3086.68 1070.38C3094.88 1082.88 3105.82 1092.93 3119.49 1100.55C3133.36 1107.97 3150.25 1111.68 3170.18 1111.68C3186.19 1111.68 3200.06 1108.36 3211.78 1101.72C3223.5 1095.08 3233.16 1085.8 3240.78 1073.89C3248.59 1061.98 3254.36 1048.11 3258.07 1032.29C3261.97 1016.47 3263.93 999.281 3263.93 980.727ZM3569.79 1079.16V915.688C3569.79 900.648 3566.66 887.66 3560.41 876.723C3554.16 865.785 3544.98 857.387 3532.87 851.527C3520.76 845.668 3505.82 842.738 3488.05 842.738C3471.64 842.738 3456.99 845.668 3444.1 851.527C3431.41 857.191 3421.35 864.906 3413.93 874.672C3406.7 884.242 3403.09 894.887 3403.09 906.605L3367.93 906.312C3367.93 894.398 3370.86 882.875 3376.72 871.742C3382.58 860.609 3390.88 850.648 3401.62 841.859C3412.36 833.07 3425.16 826.137 3440 821.059C3455.04 815.785 3471.54 813.148 3489.51 813.148C3512.17 813.148 3532.09 816.957 3549.28 824.574C3566.66 832.191 3580.23 843.617 3590 858.852C3599.77 874.086 3604.65 893.227 3604.65 916.273V1069.5C3604.65 1080.43 3605.43 1091.76 3606.99 1103.48C3608.75 1115.2 3611.19 1124.87 3614.32 1132.48V1136H3577.11C3574.77 1128.97 3572.91 1120.18 3571.54 1109.63C3570.37 1098.89 3569.79 1088.73 3569.79 1079.16ZM3577.99 951.43L3578.57 978.383H3509.73C3491.76 978.383 3475.64 980.043 3461.39 983.363C3447.32 986.488 3435.41 991.176 3425.64 997.426C3415.88 1003.48 3408.36 1010.8 3403.09 1019.4C3398.01 1027.99 3395.47 1037.76 3395.47 1048.7C3395.47 1060.02 3398.3 1070.38 3403.96 1079.75C3409.82 1089.12 3418.03 1096.64 3428.57 1102.31C3439.32 1107.78 3452.01 1110.51 3466.66 1110.51C3486.19 1110.51 3503.38 1106.9 3518.22 1099.67C3533.26 1092.45 3545.66 1082.97 3555.43 1071.25C3565.2 1059.54 3571.74 1046.74 3575.06 1032.88L3590.29 1053.09C3587.75 1062.86 3583.07 1072.91 3576.23 1083.27C3569.59 1093.42 3560.9 1102.99 3550.16 1111.98C3539.41 1120.77 3526.72 1127.99 3512.07 1133.66C3497.62 1139.12 3481.21 1141.86 3462.85 1141.86C3442.15 1141.86 3424.08 1137.95 3408.65 1130.14C3393.42 1122.33 3381.5 1111.68 3372.91 1098.21C3364.51 1084.54 3360.31 1069.11 3360.31 1051.92C3360.31 1036.29 3363.63 1022.33 3370.27 1010.02C3376.91 997.523 3386.48 986.977 3398.98 978.383C3411.68 969.594 3426.91 962.953 3444.69 958.461C3462.66 953.773 3482.77 951.43 3505.04 951.43H3577.99ZM3907.29 819.008H3939.8V1130.43C3939.8 1157.97 3934.53 1181.61 3923.98 1201.33C3913.63 1221.06 3898.89 1236.2 3879.75 1246.74C3860.8 1257.29 3838.44 1262.56 3812.66 1262.56C3799.57 1262.56 3786.09 1260.51 3772.23 1256.41C3758.55 1252.5 3745.57 1246.45 3733.26 1238.25C3721.15 1230.24 3710.8 1220.28 3702.21 1208.36L3721.84 1186.98C3734.73 1202.6 3748.5 1214.03 3763.14 1221.25C3777.79 1228.68 3793.61 1232.39 3810.61 1232.39C3830.72 1232.39 3847.71 1228.38 3861.58 1220.38C3875.64 1212.37 3886.29 1200.84 3893.52 1185.8C3900.94 1170.77 3904.65 1152.7 3904.65 1131.61V888.734L3907.29 819.008ZM3684.63 980.727V974.574C3684.63 949.965 3687.36 927.797 3692.83 908.07C3698.5 888.148 3706.6 871.156 3717.15 857.094C3727.7 842.836 3740.49 831.996 3755.53 824.574C3770.76 816.957 3787.95 813.148 3807.09 813.148C3825.45 813.148 3841.76 816.176 3856.02 822.23C3870.27 828.285 3882.58 836.977 3892.93 848.305C3903.28 859.633 3911.58 873.109 3917.83 888.734C3924.28 904.359 3928.96 921.742 3931.89 940.883V1019.11C3929.55 1037.07 3925.25 1053.58 3919 1068.62C3912.75 1083.46 3904.45 1096.45 3894.1 1107.58C3883.75 1118.52 3871.25 1127.02 3856.6 1133.07C3842.15 1138.93 3825.45 1141.86 3806.5 1141.86C3787.56 1141.86 3770.57 1137.95 3755.53 1130.14C3740.49 1122.33 3727.7 1111.29 3717.15 1097.04C3706.6 1082.58 3698.5 1065.49 3692.83 1045.77C3687.36 1026.04 3684.63 1004.36 3684.63 980.727ZM3719.79 974.574V980.727C3719.79 999.281 3721.64 1016.47 3725.35 1032.29C3729.06 1048.11 3734.73 1061.88 3742.34 1073.6C3749.96 1085.32 3759.63 1094.5 3771.35 1101.14C3783.07 1107.78 3796.84 1111.1 3812.66 1111.1C3832.77 1111.1 3849.67 1107.29 3863.34 1099.67C3877.01 1091.86 3887.85 1081.61 3895.86 1068.91C3903.87 1056.02 3909.73 1041.96 3913.44 1026.72V935.609C3911.29 925.258 3907.97 914.711 3903.48 903.969C3899.18 893.227 3893.12 883.363 3885.31 874.379C3877.7 865.199 3867.93 857.875 3856.02 852.406C3844.3 846.742 3830.04 843.91 3813.24 843.91C3797.23 843.91 3783.26 847.23 3771.35 853.871C3759.63 860.512 3749.96 869.789 3742.34 881.703C3734.73 893.422 3729.06 907.191 3725.35 923.012C3721.64 938.832 3719.79 956.02 3719.79 974.574ZM4153.96 1141.86C4133.26 1141.86 4114.22 1138.05 4096.84 1130.43C4079.65 1122.82 4064.61 1112.07 4051.72 1098.21C4039.02 1084.34 4029.16 1067.93 4022.13 1048.99C4015.29 1029.85 4011.88 1008.95 4011.88 986.293V973.695C4011.88 949.281 4015.49 927.211 4022.71 907.484C4029.94 887.758 4039.9 870.863 4052.6 856.801C4065.29 842.738 4079.75 831.996 4095.96 824.574C4112.36 816.957 4129.55 813.148 4147.52 813.148C4167.64 813.148 4185.51 816.762 4201.13 823.988C4216.76 831.02 4229.84 841.078 4240.39 854.164C4251.13 867.055 4259.24 882.387 4264.71 900.16C4270.18 917.738 4272.91 937.172 4272.91 958.461V979.848H4032.97V949.965H4238.05V945.863C4237.66 928.09 4234.04 911.488 4227.21 896.059C4220.57 880.434 4210.61 867.738 4197.32 857.973C4184.04 848.207 4167.44 843.324 4147.52 843.324C4132.68 843.324 4119 846.449 4106.5 852.699C4094.2 858.949 4083.55 867.934 4074.57 879.652C4065.78 891.176 4058.95 904.945 4054.06 920.961C4049.38 936.781 4047.03 954.359 4047.03 973.695V986.293C4047.03 1003.87 4049.57 1020.28 4054.65 1035.51C4059.92 1050.55 4067.34 1063.83 4076.91 1075.36C4086.68 1086.88 4098.2 1095.86 4111.48 1102.31C4124.77 1108.75 4139.41 1111.98 4155.43 1111.98C4174.18 1111.98 4190.78 1108.56 4205.23 1101.72C4219.69 1094.69 4232.68 1083.66 4244.2 1068.62L4266.17 1085.61C4259.34 1095.77 4250.74 1105.14 4240.39 1113.73C4230.23 1122.33 4218.03 1129.16 4203.77 1134.24C4189.51 1139.32 4172.91 1141.86 4153.96 1141.86Z" fill="#011ECB"/>
<path d="M12571 1162C12550.6 1162 12532.6 1155.6 12517 1142.8C12501.8 1130 12489 1112.8 12478.6 1091.2C12468.6 1069.2 12461 1044.8 12455.8 1018C12450.6 990.8 12448 962.8 12448 934C12448 905.2 12450.4 877.4 12455.2 850.6C12460.4 823.4 12468.2 799 12478.6 777.4C12489 755.4 12501.8 738 12517 725.2C12532.6 712.4 12550.6 706 12571 706C12591.4 706 12609.2 712.4 12624.4 725.2C12640 738 12653 755.4 12663.4 777.4C12673.8 799 12681.4 823.4 12686.2 850.6C12691.4 877.4 12694 905.2 12694 934C12694 962.8 12691.4 990.8 12686.2 1018C12681 1044.8 12673.2 1069.2 12662.8 1091.2C12652.8 1112.8 12640 1130 12624.4 1142.8C12609.2 1155.6 12591.4 1162 12571 1162ZM12571 1139.8C12599.4 1139.8 12619.6 1129.6 12631.6 1109.2C12643.6 1088.8 12649.6 1061.4 12649.6 1027V841C12649.6 806.6 12643.4 779.2 12631 758.8C12619 738.4 12599 728.2 12571 728.2C12543 728.2 12522.8 738.4 12510.4 758.8C12498.4 779.2 12492.4 806.6 12492.4 841V1027C12492.4 1061.4 12498.4 1088.8 12510.4 1109.2C12522.8 1129.6 12543 1139.8 12571 1139.8ZM12866.2 1162C12843.4 1162 12823.8 1157 12807.4 1147C12791.4 1136.6 12779 1122.6 12770.2 1105C12761.8 1087.4 12757.6 1068 12757.6 1046.8C12757.6 1026 12761.2 1010.2 12768.4 999.4C12776 988.6 12785.4 983.2 12796.6 983.2C12804.6 983.2 12811 985.8 12815.8 991C12821 996.2 12823.6 1003 12823.6 1011.4C12823.6 1021.4 12820.6 1029.2 12814.6 1034.8C12808.6 1040.4 12802.4 1045.4 12796 1049.8L12778 1062.4C12779.6 1084.4 12787.4 1103 12801.4 1118.2C12815.8 1133.4 12837 1141 12865 1141C12891 1141 12911.6 1133.8 12926.8 1119.4C12942 1104.6 12949.6 1083.4 12949.6 1055.8V974.8C12949.6 954.8 12944.6 937.8 12934.6 923.8C12925 909.4 12908.6 902.2 12885.4 902.2C12869.8 902.2 12855.6 905.4 12842.8 911.8C12830.4 918.2 12818.2 926.4 12806.2 936.4L12793.6 924.4L12949.6 752.2H12845.8C12840.2 752.2 12833.2 753.4 12824.8 755.8C12816.8 758.2 12809.6 762.6 12803.2 769C12796.8 775 12793 783.8 12791.8 795.4L12787.6 840.4H12770.8V712H12970.6V752.2L12841.6 892.6L12842.8 894.4C12847.2 892 12853.2 889.6 12860.8 887.2C12868.8 884.4 12878.2 883 12889 883C12905.8 883 12922 887.4 12937.6 896.2C12953.2 905 12965.8 919 12975.4 938.2C12985.4 957.4 12990.4 982.8 12990.4 1014.4C12990.4 1046.8 12984.8 1074 12973.6 1096C12962.4 1117.6 12947.4 1134 12928.6 1145.2C12909.8 1156.4 12889 1162 12866.2 1162Z" fill="#011ECB"/>
<path d="M13493 1074.48V686H13528.1V1136H13495.3L13493 1074.48ZM13272.9 980.727V974.574C13272.9 949.965 13275.8 927.797 13281.4 908.07C13287.1 888.148 13295.2 871.156 13305.7 857.094C13316.5 842.836 13329.4 831.996 13344.4 824.574C13359.5 816.957 13376.4 813.148 13395.4 813.148C13413.9 813.148 13430.4 816.176 13444.6 822.23C13458.9 828.285 13471.1 836.977 13481.2 848.305C13491.6 859.633 13499.9 873.109 13506.1 888.734C13512.6 904.359 13517.3 921.742 13520.2 940.883V1019.11C13517.9 1037.07 13513.6 1053.58 13507.3 1068.62C13501.1 1083.46 13492.8 1096.45 13482.4 1107.58C13472.1 1118.52 13459.6 1127.02 13444.9 1133.07C13430.5 1138.93 13413.8 1141.86 13394.8 1141.86C13376.1 1141.86 13359.2 1137.95 13344.1 1130.14C13329.1 1122.33 13316.3 1111.29 13305.7 1097.04C13295.2 1082.58 13287.1 1065.49 13281.4 1045.77C13275.8 1026.04 13272.9 1004.36 13272.9 980.727ZM13308.1 974.574V980.727C13308.1 999.281 13309.9 1016.47 13313.7 1032.29C13317.4 1048.11 13323 1061.88 13330.6 1073.6C13338.3 1085.32 13347.9 1094.5 13359.7 1101.14C13371.4 1107.78 13385.2 1111.1 13401.3 1111.1C13421.4 1111.1 13438.3 1107.29 13451.9 1099.67C13465.6 1091.86 13476.5 1081.61 13484.8 1068.91C13493 1056.02 13498.9 1041.96 13502.6 1026.72V935.609C13500.3 925.258 13496.9 914.711 13492.4 903.969C13487.9 893.227 13481.7 883.363 13473.9 874.379C13466.3 865.199 13456.5 857.875 13444.6 852.406C13432.9 846.742 13418.6 843.91 13401.8 843.91C13385.6 843.91 13371.7 847.23 13359.9 853.871C13348.2 860.512 13338.5 869.789 13330.6 881.703C13323 893.422 13317.4 907.191 13313.7 923.012C13309.9 938.832 13308.1 956.02 13308.1 974.574ZM13742.9 1141.86C13722.2 1141.86 13703.1 1138.05 13685.7 1130.43C13668.5 1122.82 13653.5 1112.07 13640.6 1098.21C13627.9 1084.34 13618.1 1067.93 13611 1048.99C13604.2 1029.85 13600.8 1008.95 13600.8 986.293V973.695C13600.8 949.281 13604.4 927.211 13611.6 907.484C13618.8 887.758 13628.8 870.863 13641.5 856.801C13654.2 842.738 13668.6 831.996 13684.8 824.574C13701.3 816.957 13718.4 813.148 13736.4 813.148C13756.5 813.148 13774.4 816.762 13790 823.988C13805.6 831.02 13818.7 841.078 13829.3 854.164C13840 867.055 13848.1 882.387 13853.6 900.16C13859.1 917.738 13861.8 937.172 13861.8 958.461V979.848H13621.9V949.965H13826.9V945.863C13826.5 928.09 13822.9 911.488 13816.1 896.059C13809.5 880.434 13799.5 867.738 13786.2 857.973C13772.9 848.207 13756.3 843.324 13736.4 843.324C13721.6 843.324 13707.9 846.449 13695.4 852.699C13683.1 858.949 13672.4 867.934 13663.5 879.652C13654.7 891.176 13647.8 904.945 13643 920.961C13638.3 936.781 13635.9 954.359 13635.9 973.695V986.293C13635.9 1003.87 13638.5 1020.28 13643.5 1035.51C13648.8 1050.55 13656.2 1063.83 13665.8 1075.36C13675.6 1086.88 13687.1 1095.86 13700.4 1102.31C13713.7 1108.75 13728.3 1111.98 13744.3 1111.98C13763.1 1111.98 13779.7 1108.56 13794.1 1101.72C13808.6 1094.69 13821.6 1083.66 13833.1 1068.62L13855.1 1085.61C13848.2 1095.77 13839.6 1105.14 13829.3 1113.73C13819.1 1122.33 13806.9 1129.16 13792.7 1134.24C13778.4 1139.32 13761.8 1141.86 13742.9 1141.86ZM14050.8 819.008V847.719H13892V819.008H14050.8ZM13950.3 737.562H13985.1V1058.95C13985.1 1073.6 13987.1 1084.63 13991 1092.05C13994.9 1099.48 14000 1104.46 14006.2 1107C14012.5 1109.54 14019.2 1110.8 14026.4 1110.8C14031.7 1110.8 14036.8 1110.51 14041.7 1109.93C14046.6 1109.14 14051 1108.36 14054.9 1107.58L14056.3 1137.17C14052 1138.54 14046.5 1139.61 14039.6 1140.39C14032.8 1141.37 14026 1141.86 14019.1 1141.86C14005.6 1141.86 13993.7 1139.42 13983.4 1134.54C13973 1129.46 13964.9 1120.86 13959.1 1108.75C13953.2 1096.45 13950.3 1079.75 13950.3 1058.66V737.562ZM14317.1 1079.16V915.688C14317.1 900.648 14313.9 887.66 14307.7 876.723C14301.4 865.785 14292.3 857.387 14280.2 851.527C14268.1 845.668 14253.1 842.738 14235.3 842.738C14218.9 842.738 14204.3 845.668 14191.4 851.527C14178.7 857.191 14168.6 864.906 14161.2 874.672C14154 884.242 14150.4 894.887 14150.4 906.605L14115.2 906.312C14115.2 894.398 14118.1 882.875 14124 871.742C14129.9 860.609 14138.2 850.648 14148.9 841.859C14159.7 833.07 14172.4 826.137 14187.3 821.059C14202.3 815.785 14218.8 813.148 14236.8 813.148C14259.5 813.148 14279.4 816.957 14296.6 824.574C14313.9 832.191 14327.5 843.617 14337.3 858.852C14347.1 874.086 14351.9 893.227 14351.9 916.273V1069.5C14351.9 1080.43 14352.7 1091.76 14354.3 1103.48C14356 1115.2 14358.5 1124.87 14361.6 1132.48V1136H14324.4C14322.1 1128.97 14320.2 1120.18 14318.8 1109.63C14317.7 1098.89 14317.1 1088.73 14317.1 1079.16ZM14325.3 951.43L14325.9 978.383H14257C14239 978.383 14222.9 980.043 14208.7 983.363C14194.6 986.488 14182.7 991.176 14172.9 997.426C14163.2 1003.48 14155.6 1010.8 14150.4 1019.4C14145.3 1027.99 14142.8 1037.76 14142.8 1048.7C14142.8 1060.02 14145.6 1070.38 14151.3 1079.75C14157.1 1089.12 14165.3 1096.64 14175.9 1102.31C14186.6 1107.78 14199.3 1110.51 14213.9 1110.51C14233.5 1110.51 14250.7 1106.9 14265.5 1099.67C14280.6 1092.45 14293 1082.97 14302.7 1071.25C14312.5 1059.54 14319 1046.74 14322.3 1032.88L14337.6 1053.09C14335 1062.86 14330.4 1072.91 14323.5 1083.27C14316.9 1093.42 14308.2 1102.99 14297.4 1111.98C14286.7 1120.77 14274 1127.99 14259.4 1133.66C14244.9 1139.12 14228.5 1141.86 14210.1 1141.86C14189.4 1141.86 14171.4 1137.95 14155.9 1130.14C14140.7 1122.33 14128.8 1111.68 14120.2 1098.21C14111.8 1084.54 14107.6 1069.11 14107.6 1051.92C14107.6 1036.29 14110.9 1022.33 14117.6 1010.02C14124.2 997.523 14133.8 986.977 14146.3 978.383C14159 969.594 14174.2 962.953 14192 958.461C14209.9 953.773 14230.1 951.43 14252.3 951.43H14325.3ZM14484.9 819.008V1136H14450.1V819.008H14484.9ZM14443.9 727.309C14443.9 720.668 14446 715.102 14450.1 710.609C14454.4 705.922 14460.2 703.578 14467.7 703.578C14475.1 703.578 14480.9 705.922 14485.2 710.609C14489.7 715.102 14492 720.668 14492 727.309C14492 733.754 14489.7 739.32 14485.2 744.008C14480.9 748.5 14475.1 750.746 14467.7 750.746C14460.2 750.746 14454.4 748.5 14450.1 744.008C14446 739.32 14443.9 733.754 14443.9 727.309ZM14619.7 686V1136H14584.8V686H14619.7ZM14905.4 1055.14C14905.4 1046.55 14903.2 1038.05 14898.9 1029.65C14894.6 1021.25 14886.3 1013.54 14874 1006.51C14861.9 999.477 14844 993.52 14820.4 988.637C14802.8 984.73 14787.1 980.336 14773.2 975.453C14759.6 970.57 14748 964.711 14738.7 957.875C14729.3 951.039 14722.2 942.836 14717.3 933.266C14712.4 923.695 14709.9 912.367 14709.9 899.281C14709.9 887.562 14712.5 876.527 14717.6 866.176C14722.8 855.629 14730.3 846.449 14739.8 838.637C14749.6 830.629 14761.3 824.379 14775 819.887C14788.9 815.395 14804.4 813.148 14821.6 813.148C14846 813.148 14866.9 817.348 14884.3 825.746C14901.8 833.949 14915.2 845.18 14924.4 859.438C14933.8 873.695 14938.5 889.809 14938.5 907.777H14903.6C14903.6 896.84 14900.4 886.488 14893.9 876.723C14887.7 866.957 14878.4 858.949 14866.1 852.699C14854 846.449 14839.1 843.324 14821.6 843.324C14803.4 843.324 14788.7 846.059 14777.3 851.527C14766 856.996 14757.7 863.93 14752.4 872.328C14747.3 880.727 14744.8 889.418 14744.8 898.402C14744.8 905.434 14745.9 911.879 14748 917.738C14750.4 923.402 14754.5 928.676 14760.3 933.559C14766.4 938.441 14775 943.031 14786.1 947.328C14797.2 951.625 14811.7 955.824 14829.5 959.926C14855.1 965.59 14876 972.523 14892.2 980.727C14908.6 988.734 14920.7 998.695 14928.5 1010.61C14936.3 1022.33 14940.2 1036.59 14940.2 1053.38C14940.2 1066.47 14937.5 1078.48 14932 1089.42C14926.5 1100.16 14918.6 1109.44 14908.3 1117.25C14898.1 1125.06 14885.8 1131.12 14871.4 1135.41C14857.1 1139.71 14841.1 1141.86 14823.3 1141.86C14796.6 1141.86 14773.9 1137.46 14755.4 1128.68C14737 1119.69 14723 1107.97 14713.5 1093.52C14704.1 1078.87 14699.4 1063.34 14699.4 1046.94H14734.3C14735.4 1063.34 14740.6 1076.33 14749.8 1085.9C14759 1095.28 14770.2 1101.92 14783.5 1105.82C14797 1109.73 14810.2 1111.68 14823.3 1111.68C14841.3 1111.68 14856.3 1109.05 14868.4 1103.77C14880.6 1098.5 14889.7 1091.57 14896 1082.97C14902.2 1074.38 14905.4 1065.1 14905.4 1055.14Z" fill="#011ECB"/>
<path d="M5502.3 935.303C5505.23 932.374 5505.23 927.626 5502.3 924.697L5454.57 876.967C5451.64 874.038 5446.9 874.038 5443.97 876.967C5441.04 879.896 5441.04 884.645 5443.97 887.574L5486.39 930L5443.97 972.426C5441.04 975.355 5441.04 980.104 5443.97 983.033C5446.9 985.962 5451.64 985.962 5454.57 983.033L5502.3 935.303ZM4664 937.5H5497V922.5H4664V937.5Z" fill="#011ECB"/>
<path d="M12059.3 935.303C12062.2 932.374 12062.2 927.626 12059.3 924.697L12011.6 876.967C12008.6 874.038 12003.9 874.038 12001 876.967C11998 879.896 11998 884.645 12001 887.574L12043.4 930L12001 972.426C11998 975.355 11998 980.104 12001 983.033C12003.9 985.962 12008.6 985.962 12011.6 983.033L12059.3 935.303ZM11221 937.5H12054V922.5H11221V937.5Z" fill="#011ECB"/>
<path d="M6014 1162C5993.6 1162 5975.6 1155.6 5960 1142.8C5944.8 1130 5932 1112.8 5921.6 1091.2C5911.6 1069.2 5904 1044.8 5898.8 1018C5893.6 990.8 5891 962.8 5891 934C5891 905.2 5893.4 877.4 5898.2 850.6C5903.4 823.4 5911.2 799 5921.6 777.4C5932 755.4 5944.8 738 5960 725.2C5975.6 712.4 5993.6 706 6014 706C6034.4 706 6052.2 712.4 6067.4 725.2C6083 738 6096 755.4 6106.4 777.4C6116.8 799 6124.4 823.4 6129.2 850.6C6134.4 877.4 6137 905.2 6137 934C6137 962.8 6134.4 990.8 6129.2 1018C6124 1044.8 6116.2 1069.2 6105.8 1091.2C6095.8 1112.8 6083 1130 6067.4 1142.8C6052.2 1155.6 6034.4 1162 6014 1162ZM6014 1139.8C6042.4 1139.8 6062.6 1129.6 6074.6 1109.2C6086.6 1088.8 6092.6 1061.4 6092.6 1027V841C6092.6 806.6 6086.4 779.2 6074 758.8C6062 738.4 6042 728.2 6014 728.2C5986 728.2 5965.8 738.4 5953.4 758.8C5941.4 779.2 5935.4 806.6 5935.4 841V1027C5935.4 1061.4 5941.4 1088.8 5953.4 1109.2C5965.8 1129.6 5986 1139.8 6014 1139.8ZM6234.2 1162C6224.6 1162 6216.2 1157.6 6209 1148.8C6202.2 1139.6 6198.8 1124.4 6198.8 1103.2C6198.8 1084 6201.4 1067 6206.6 1052.2C6212.2 1037.4 6219 1024.4 6227 1013.2C6235.4 1002 6243.8 992.6 6252.2 985C6260.6 977 6267.8 970.6 6273.8 965.8L6326.6 920.8C6333.4 914.8 6341.2 907.2 6350 898C6359.2 888.8 6367 877.2 6373.4 863.2C6380.2 849.2 6383.6 832.6 6383.6 813.4C6383.6 786.6 6376.4 765.6 6362 750.4C6347.6 734.8 6328.6 727 6305 727C6289.4 727 6276.2 730.4 6265.4 737.2C6254.6 743.6 6246 751.6 6239.6 761.2C6233.2 770.8 6229 780 6227 788.8L6251.6 811.6C6254.4 814 6258.4 818.2 6263.6 824.2C6268.8 830.2 6271.4 837.8 6271.4 847C6271.4 855.8 6268.6 862.8 6263 868C6257.4 873.2 6251 875.8 6243.8 875.8C6235 875.8 6226.2 871.4 6217.4 862.6C6209 853.8 6204.8 839.8 6204.8 820.6C6204.8 802.6 6209.2 784.8 6218 767.2C6227.2 749.6 6240.2 735 6257 723.4C6273.8 711.8 6294.2 706 6318.2 706C6339.8 706 6358.6 710.8 6374.6 720.4C6390.6 729.6 6403 742.2 6411.8 758.2C6420.6 774.2 6425 792.2 6425 812.2C6425 833.8 6420 852.8 6410 869.2C6400.4 885.2 6389 899 6375.8 910.6C6362.6 922.2 6350.4 932.2 6339.2 940.6L6285.2 980.8C6274.4 988.8 6263.6 998.2 6252.8 1009C6242.4 1019.4 6233.6 1031.4 6226.4 1045C6219.6 1058.6 6216.2 1074.4 6216.2 1092.4C6220.2 1084.4 6227.2 1076.4 6237.2 1068.4C6247.6 1060.4 6259.8 1056.4 6273.8 1056.4C6287.8 1056.4 6299.6 1060 6309.2 1067.2C6318.8 1074 6327.6 1082 6335.6 1091.2C6343.6 1100 6351.6 1108 6359.6 1115.2C6367.6 1122 6376.8 1125.4 6387.2 1125.4C6397.2 1125.4 6404.2 1122.2 6408.2 1115.8C6412.2 1109 6414.6 1100.8 6415.4 1091.2C6416.2 1081.6 6416.6 1072.4 6416.6 1063.6V1006.6H6434.6V1064.2C6434.6 1073 6434.2 1083 6433.4 1094.2C6432.6 1105.4 6430.4 1116.2 6426.8 1126.6C6423.6 1136.6 6418.2 1145 6410.6 1151.8C6403 1158.6 6392.2 1162 6378.2 1162C6365 1162 6354 1159 6345.2 1153C6336.4 1147 6329 1139.6 6323 1130.8C6317 1122 6311.2 1113.2 6305.6 1104.4C6300.4 1095.6 6294.8 1088.2 6288.8 1082.2C6282.8 1076.2 6275.2 1073.2 6266 1073.2C6256 1073.2 6247.2 1076.8 6239.6 1084C6232 1091.2 6226.6 1098.2 6223.4 1105L6239 1114C6241.8 1115.6 6245.6 1118.4 6250.4 1122.4C6255.6 1126.4 6258.2 1132.2 6258.2 1139.8C6258.2 1145.8 6256 1151 6251.6 1155.4C6247.6 1159.8 6241.8 1162 6234.2 1162Z" fill="#011ECB"/>
<path d="M6768.96 819.008V1136H6734.1V819.008H6768.96ZM6727.95 727.309C6727.95 720.668 6730 715.102 6734.1 710.609C6738.39 705.922 6744.25 703.578 6751.68 703.578C6759.1 703.578 6764.96 705.922 6769.25 710.609C6773.75 715.102 6775.99 720.668 6775.99 727.309C6775.99 733.754 6773.75 739.32 6769.25 744.008C6764.96 748.5 6759.1 750.746 6751.68 750.746C6744.25 750.746 6738.39 748.5 6734.1 744.008C6730 739.32 6727.95 733.754 6727.95 727.309ZM6899.62 886.684V1136H6864.76V819.008H6898.16L6899.62 886.684ZM6891.71 957.875L6876.19 949.086C6877.36 930.336 6881.17 912.758 6887.61 896.352C6894.06 879.945 6902.75 865.492 6913.69 852.992C6924.82 840.492 6937.81 830.727 6952.65 823.695C6967.69 816.664 6984.29 813.148 7002.46 813.148C7018.28 813.148 7032.44 815.297 7044.94 819.594C7057.44 823.891 7068.08 830.727 7076.87 840.102C7085.66 849.477 7092.3 861.488 7096.79 876.137C7101.48 890.785 7103.82 908.656 7103.82 929.75V1136H7068.67V929.457C7068.67 907.582 7065.64 890.492 7059.59 878.188C7053.53 865.688 7044.94 856.801 7033.8 851.527C7022.67 846.254 7009.49 843.617 6994.25 843.617C6977.46 843.617 6962.71 847.328 6950.02 854.75C6937.52 861.977 6926.97 871.449 6918.38 883.168C6909.98 894.691 6903.53 907.094 6899.04 920.375C6894.55 933.461 6892.11 945.961 6891.71 957.875ZM7314.47 819.008V847.719H7155.68V819.008H7314.47ZM7213.98 737.562H7248.84V1058.95C7248.84 1073.6 7250.8 1084.63 7254.7 1092.05C7258.61 1099.48 7263.69 1104.46 7269.94 1107C7276.19 1109.54 7282.93 1110.8 7290.15 1110.8C7295.43 1110.8 7300.5 1110.51 7305.39 1109.93C7310.27 1109.14 7314.66 1108.36 7318.57 1107.58L7320.04 1137.17C7315.74 1138.54 7310.17 1139.61 7303.34 1140.39C7296.5 1141.37 7289.66 1141.86 7282.83 1141.86C7269.35 1141.86 7257.44 1139.42 7247.09 1134.54C7236.73 1129.46 7228.63 1120.86 7222.77 1108.75C7216.91 1096.45 7213.98 1079.75 7213.98 1058.66V737.562ZM7510.46 1141.86C7489.76 1141.86 7470.72 1138.05 7453.34 1130.43C7436.15 1122.82 7421.11 1112.07 7408.22 1098.21C7395.52 1084.34 7385.66 1067.93 7378.63 1048.99C7371.79 1029.85 7368.38 1008.95 7368.38 986.293V973.695C7368.38 949.281 7371.99 927.211 7379.21 907.484C7386.44 887.758 7396.4 870.863 7409.1 856.801C7421.79 842.738 7436.25 831.996 7452.46 824.574C7468.86 816.957 7486.05 813.148 7504.02 813.148C7524.14 813.148 7542.01 816.762 7557.63 823.988C7573.26 831.02 7586.34 841.078 7596.89 854.164C7607.63 867.055 7615.74 882.387 7621.21 900.16C7626.68 917.738 7629.41 937.172 7629.41 958.461V979.848H7389.47V949.965H7594.55V945.863C7594.16 928.09 7590.54 911.488 7583.71 896.059C7577.07 880.434 7567.11 867.738 7553.82 857.973C7540.54 848.207 7523.94 843.324 7504.02 843.324C7489.18 843.324 7475.5 846.449 7463 852.699C7450.7 858.949 7440.05 867.934 7431.07 879.652C7422.28 891.176 7415.45 904.945 7410.56 920.961C7405.88 936.781 7403.53 954.359 7403.53 973.695V986.293C7403.53 1003.87 7406.07 1020.28 7411.15 1035.51C7416.42 1050.55 7423.84 1063.83 7433.41 1075.36C7443.18 1086.88 7454.7 1095.86 7467.98 1102.31C7481.27 1108.75 7495.91 1111.98 7511.93 1111.98C7530.68 1111.98 7547.28 1108.56 7561.73 1101.72C7576.19 1094.69 7589.18 1083.66 7600.7 1068.62L7622.67 1085.61C7615.84 1095.77 7607.24 1105.14 7596.89 1113.73C7586.73 1122.33 7574.53 1129.16 7560.27 1134.24C7546.01 1139.32 7529.41 1141.86 7510.46 1141.86ZM7733.41 871.449V1136H7698.55V819.008H7732.54L7733.41 871.449ZM7845.62 816.664L7844.74 848.891C7840.84 848.305 7837.03 847.816 7833.32 847.426C7829.61 847.035 7825.6 846.84 7821.3 846.84C7806.07 846.84 7792.69 849.672 7781.17 855.336C7769.84 860.805 7760.27 868.52 7752.46 878.48C7744.64 888.246 7738.69 899.77 7734.59 913.051C7730.48 926.137 7728.14 940.199 7727.55 955.238L7714.66 960.219C7714.66 939.516 7716.81 920.277 7721.11 902.504C7725.41 884.73 7731.95 869.203 7740.74 855.922C7749.72 842.445 7760.95 831.996 7774.43 824.574C7788.1 816.957 7804.12 813.148 7822.48 813.148C7826.97 813.148 7831.36 813.539 7835.66 814.32C7840.15 814.906 7843.47 815.688 7845.62 816.664ZM7939.66 819.008V1136H7904.8V819.008H7939.66ZM7898.65 727.309C7898.65 720.668 7900.7 715.102 7904.8 710.609C7909.1 705.922 7914.96 703.578 7922.38 703.578C7929.8 703.578 7935.66 705.922 7939.96 710.609C7944.45 715.102 7946.7 720.668 7946.7 727.309C7946.7 733.754 7944.45 739.32 7939.96 744.008C7935.66 748.5 7929.8 750.746 7922.38 750.746C7914.96 750.746 7909.1 748.5 7904.8 744.008C7900.7 739.32 7898.65 733.754 7898.65 727.309ZM8016.13 982.484V972.816C8016.13 949.77 8019.45 928.48 8026.09 908.949C8032.73 889.418 8042.2 872.523 8054.51 858.266C8067.01 844.008 8081.95 832.973 8099.33 825.16C8116.71 817.152 8136.05 813.148 8157.34 813.148C8178.82 813.148 8198.26 817.152 8215.64 825.16C8233.02 832.973 8247.96 844.008 8260.46 858.266C8272.96 872.523 8282.54 889.418 8289.18 908.949C8295.82 928.48 8299.14 949.77 8299.14 972.816V982.484C8299.14 1005.53 8295.82 1026.82 8289.18 1046.35C8282.54 1065.69 8272.96 1082.48 8260.46 1096.74C8248.16 1111 8233.32 1122.13 8215.93 1130.14C8198.55 1137.95 8179.21 1141.86 8157.93 1141.86C8136.44 1141.86 8117.01 1137.95 8099.62 1130.14C8082.24 1122.13 8067.3 1111 8054.8 1096.74C8042.3 1082.48 8032.73 1065.69 8026.09 1046.35C8019.45 1026.82 8016.13 1005.53 8016.13 982.484ZM8050.99 972.816V982.484C8050.99 999.867 8053.34 1016.37 8058.02 1032C8062.71 1047.43 8069.55 1061.2 8078.53 1073.3C8087.52 1085.22 8098.65 1094.59 8111.93 1101.43C8125.21 1108.27 8140.54 1111.68 8157.93 1111.68C8175.11 1111.68 8190.25 1108.27 8203.34 1101.43C8216.62 1094.59 8227.75 1085.22 8236.73 1073.3C8245.72 1061.2 8252.46 1047.43 8256.95 1032C8261.64 1016.37 8263.98 999.867 8263.98 982.484V972.816C8263.98 955.629 8261.64 939.32 8256.95 923.891C8252.46 908.461 8245.62 894.691 8236.44 882.582C8227.46 870.473 8216.32 860.902 8203.04 853.871C8189.76 846.84 8174.53 843.324 8157.34 843.324C8140.15 843.324 8124.92 846.84 8111.64 853.871C8098.55 860.902 8087.42 870.473 8078.24 882.582C8069.25 894.691 8062.42 908.461 8057.73 923.891C8053.24 939.32 8050.99 955.629 8050.99 972.816ZM8406.66 871.449V1136H8371.79V819.008H8405.78L8406.66 871.449ZM8518.86 816.664L8517.98 848.891C8514.08 848.305 8510.27 847.816 8506.56 847.426C8502.85 847.035 8498.84 846.84 8494.55 846.84C8479.31 846.84 8465.93 849.672 8454.41 855.336C8443.08 860.805 8433.51 868.52 8425.7 878.48C8417.89 888.246 8411.93 899.77 8407.83 913.051C8403.73 926.137 8401.38 940.199 8400.8 955.238L8387.91 960.219C8387.91 939.516 8390.05 920.277 8394.35 902.504C8398.65 884.73 8405.19 869.203 8413.98 855.922C8422.96 842.445 8434.2 831.996 8447.67 824.574C8461.34 816.957 8477.36 813.148 8495.72 813.148C8500.21 813.148 8504.61 813.539 8508.9 814.32C8513.39 814.906 8516.71 815.688 8518.86 816.664ZM8755 879.945V1257.88H8719.84V819.008H8752.65L8755 879.945ZM8975.31 974.574V980.727C8975.31 1004.36 8972.57 1026.04 8967.11 1045.77C8961.64 1065.49 8953.73 1082.58 8943.38 1097.04C8933.22 1111.29 8920.62 1122.33 8905.58 1130.14C8890.54 1137.95 8873.45 1141.86 8854.31 1141.86C8835.37 1141.86 8818.47 1138.93 8803.63 1133.07C8788.79 1127.21 8775.99 1118.91 8765.25 1108.17C8754.7 1097.23 8746.21 1084.54 8739.76 1070.08C8733.51 1055.43 8729.12 1039.42 8726.58 1022.04V940.883C8729.51 921.742 8734.29 904.359 8740.93 888.734C8747.57 873.109 8756.07 859.633 8766.42 848.305C8776.97 836.977 8789.47 828.285 8803.92 822.23C8818.38 816.176 8834.88 813.148 8853.43 813.148C8872.77 813.148 8889.96 816.957 8905 824.574C8920.23 831.996 8933.02 842.836 8943.38 857.094C8953.92 871.156 8961.83 888.148 8967.11 908.07C8972.57 927.797 8975.31 949.965 8975.31 974.574ZM8940.15 980.727V974.574C8940.15 956.02 8938.2 938.832 8934.29 923.012C8930.58 907.191 8924.82 893.422 8917.01 881.703C8909.39 869.789 8899.62 860.512 8887.71 853.871C8875.99 847.23 8862.03 843.91 8845.82 843.91C8829.02 843.91 8814.66 846.742 8802.75 852.406C8791.03 857.875 8781.27 865.199 8773.45 874.379C8765.64 883.363 8759.49 893.227 8755 903.969C8750.5 914.711 8747.18 925.258 8745.04 935.609V1029.07C8748.75 1043.91 8754.7 1057.68 8762.91 1070.38C8771.11 1082.88 8782.05 1092.93 8795.72 1100.55C8809.59 1107.97 8826.48 1111.68 8846.4 1111.68C8862.42 1111.68 8876.29 1108.36 8888 1101.72C8899.72 1095.08 8909.39 1085.8 8917.01 1073.89C8924.82 1061.98 8930.58 1048.11 8934.29 1032.29C8938.2 1016.47 8940.15 999.281 8940.15 980.727ZM9246.01 1079.16V915.688C9246.01 900.648 9242.89 887.66 9236.64 876.723C9230.39 865.785 9221.21 857.387 9209.1 851.527C9196.99 845.668 9182.05 842.738 9164.27 842.738C9147.87 842.738 9133.22 845.668 9120.33 851.527C9107.63 857.191 9097.57 864.906 9090.15 874.672C9082.93 884.242 9079.31 894.887 9079.31 906.605L9044.16 906.312C9044.16 894.398 9047.09 882.875 9052.95 871.742C9058.8 860.609 9067.11 850.648 9077.85 841.859C9088.59 833.07 9101.38 826.137 9116.23 821.059C9131.27 815.785 9147.77 813.148 9165.74 813.148C9188.39 813.148 9208.32 816.957 9225.5 824.574C9242.89 832.191 9256.46 843.617 9266.23 858.852C9275.99 874.086 9280.88 893.227 9280.88 916.273V1069.5C9280.88 1080.43 9281.66 1091.76 9283.22 1103.48C9284.98 1115.2 9287.42 1124.87 9290.54 1132.48V1136H9253.34C9250.99 1128.97 9249.14 1120.18 9247.77 1109.63C9246.6 1098.89 9246.01 1088.73 9246.01 1079.16ZM9254.21 951.43L9254.8 978.383H9185.95C9167.98 978.383 9151.87 980.043 9137.61 983.363C9123.55 986.488 9111.64 991.176 9101.87 997.426C9092.11 1003.48 9084.59 1010.8 9079.31 1019.4C9074.23 1027.99 9071.7 1037.76 9071.7 1048.7C9071.7 1060.02 9074.53 1070.38 9080.19 1079.75C9086.05 1089.12 9094.25 1096.64 9104.8 1102.31C9115.54 1107.78 9128.24 1110.51 9142.89 1110.51C9162.42 1110.51 9179.61 1106.9 9194.45 1099.67C9209.49 1092.45 9221.89 1082.97 9231.66 1071.25C9241.42 1059.54 9247.96 1046.74 9251.29 1032.88L9266.52 1053.09C9263.98 1062.86 9259.29 1072.91 9252.46 1083.27C9245.82 1093.42 9237.12 1102.99 9226.38 1111.98C9215.64 1120.77 9202.95 1127.99 9188.3 1133.66C9173.84 1139.12 9157.44 1141.86 9139.08 1141.86C9118.38 1141.86 9100.31 1137.95 9084.88 1130.14C9069.64 1122.33 9057.73 1111.68 9049.14 1098.21C9040.74 1084.54 9036.54 1069.11 9036.54 1051.92C9036.54 1036.29 9039.86 1022.33 9046.5 1010.02C9053.14 997.523 9062.71 986.977 9075.21 978.383C9087.91 969.594 9103.14 962.953 9120.91 958.461C9138.88 953.773 9159 951.43 9181.27 951.43H9254.21ZM9583.51 819.008H9616.03V1130.43C9616.03 1157.97 9610.76 1181.61 9600.21 1201.33C9589.86 1221.06 9575.11 1236.2 9555.97 1246.74C9537.03 1257.29 9514.66 1262.56 9488.88 1262.56C9475.8 1262.56 9462.32 1260.51 9448.45 1256.41C9434.78 1252.5 9421.79 1246.45 9409.49 1238.25C9397.38 1230.24 9387.03 1220.28 9378.43 1208.36L9398.06 1186.98C9410.95 1202.6 9424.72 1214.03 9439.37 1221.25C9454.02 1228.68 9469.84 1232.39 9486.83 1232.39C9506.95 1232.39 9523.94 1228.38 9537.81 1220.38C9551.87 1212.37 9562.52 1200.84 9569.74 1185.8C9577.16 1170.77 9580.88 1152.7 9580.88 1131.61V888.734L9583.51 819.008ZM9360.86 980.727V974.574C9360.86 949.965 9363.59 927.797 9369.06 908.07C9374.72 888.148 9382.83 871.156 9393.38 857.094C9403.92 842.836 9416.71 831.996 9431.75 824.574C9446.99 816.957 9464.18 813.148 9483.32 813.148C9501.68 813.148 9517.98 816.176 9532.24 822.23C9546.5 828.285 9558.8 836.977 9569.16 848.305C9579.51 859.633 9587.81 873.109 9594.06 888.734C9600.5 904.359 9605.19 921.742 9608.12 940.883V1019.11C9605.78 1037.07 9601.48 1053.58 9595.23 1068.62C9588.98 1083.46 9580.68 1096.45 9570.33 1107.58C9559.98 1118.52 9547.48 1127.02 9532.83 1133.07C9518.38 1138.93 9501.68 1141.86 9482.73 1141.86C9463.79 1141.86 9446.79 1137.95 9431.75 1130.14C9416.71 1122.33 9403.92 1111.29 9393.38 1097.04C9382.83 1082.58 9374.72 1065.49 9369.06 1045.77C9363.59 1026.04 9360.86 1004.36 9360.86 980.727ZM9396.01 974.574V980.727C9396.01 999.281 9397.87 1016.47 9401.58 1032.29C9405.29 1048.11 9410.95 1061.88 9418.57 1073.6C9426.19 1085.32 9435.86 1094.5 9447.57 1101.14C9459.29 1107.78 9473.06 1111.1 9488.88 1111.1C9509 1111.1 9525.89 1107.29 9539.57 1099.67C9553.24 1091.86 9564.08 1081.61 9572.09 1068.91C9580.09 1056.02 9585.95 1041.96 9589.66 1026.72V935.609C9587.52 925.258 9584.2 914.711 9579.7 903.969C9575.41 893.227 9569.35 883.363 9561.54 874.379C9553.92 865.199 9544.16 857.875 9532.24 852.406C9520.52 846.742 9506.27 843.91 9489.47 843.91C9473.45 843.91 9459.49 847.23 9447.57 853.871C9435.86 860.512 9426.19 869.789 9418.57 881.703C9410.95 893.422 9405.29 907.191 9401.58 923.012C9397.87 938.832 9396.01 956.02 9396.01 974.574ZM9830.19 1141.86C9809.49 1141.86 9790.45 1138.05 9773.06 1130.43C9755.88 1122.82 9740.84 1112.07 9727.95 1098.21C9715.25 1084.34 9705.39 1067.93 9698.36 1048.99C9691.52 1029.85 9688.1 1008.95 9688.1 986.293V973.695C9688.1 949.281 9691.71 927.211 9698.94 907.484C9706.17 887.758 9716.13 870.863 9728.82 856.801C9741.52 842.738 9755.97 831.996 9772.18 824.574C9788.59 816.957 9805.78 813.148 9823.75 813.148C9843.86 813.148 9861.73 816.762 9877.36 823.988C9892.98 831.02 9906.07 841.078 9916.62 854.164C9927.36 867.055 9935.46 882.387 9940.93 900.16C9946.4 917.738 9949.14 937.172 9949.14 958.461V979.848H9709.2V949.965H9914.27V945.863C9913.88 928.09 9910.27 911.488 9903.43 896.059C9896.79 880.434 9886.83 867.738 9873.55 857.973C9860.27 848.207 9843.67 843.324 9823.75 843.324C9808.9 843.324 9795.23 846.449 9782.73 852.699C9770.43 858.949 9759.78 867.934 9750.8 879.652C9742.01 891.176 9735.17 904.945 9730.29 920.961C9725.6 936.781 9723.26 954.359 9723.26 973.695V986.293C9723.26 1003.87 9725.8 1020.28 9730.88 1035.51C9736.15 1050.55 9743.57 1063.83 9753.14 1075.36C9762.91 1086.88 9774.43 1095.86 9787.71 1102.31C9800.99 1108.75 9815.64 1111.98 9831.66 1111.98C9850.41 1111.98 9867.01 1108.56 9881.46 1101.72C9895.91 1094.69 9908.9 1083.66 9920.43 1068.62L9942.4 1085.61C9935.56 1095.77 9926.97 1105.14 9916.62 1113.73C9906.46 1122.33 9894.25 1129.16 9880 1134.24C9865.74 1139.32 9849.14 1141.86 9830.19 1141.86ZM10208.1 1055.14C10208.1 1046.55 10206 1038.05 10201.7 1029.65C10197.4 1021.25 10189.1 1013.54 10176.8 1006.51C10164.7 999.477 10146.8 993.52 10123.2 988.637C10105.6 984.73 10089.9 980.336 10076 975.453C10062.3 970.57 10050.8 964.711 10041.4 957.875C10032 951.039 10024.9 942.836 10020 933.266C10015.2 923.695 10012.7 912.367 10012.7 899.281C10012.7 887.562 10015.2 876.527 10020.3 866.176C10025.6 855.629 10033 846.449 10042.6 838.637C10052.4 830.629 10064.1 824.379 10077.8 819.887C10091.6 815.395 10107.1 813.148 10124.3 813.148C10148.7 813.148 10169.6 817.348 10187 825.746C10204.6 833.949 10218 845.18 10227.2 859.438C10236.5 873.695 10241.2 889.809 10241.2 907.777H10206.4C10206.4 896.84 10203.1 886.488 10196.7 876.723C10190.4 866.957 10181.2 858.949 10168.9 852.699C10156.8 846.449 10141.9 843.324 10124.3 843.324C10106.2 843.324 10091.4 846.059 10080.1 851.527C10068.8 856.996 10060.5 863.93 10055.2 872.328C10050.1 880.727 10047.6 889.418 10047.6 898.402C10047.6 905.434 10048.6 911.879 10050.8 917.738C10053.1 923.402 10057.2 928.676 10063.1 933.559C10069.2 938.441 10077.8 943.031 10088.9 947.328C10100 951.625 10114.5 955.824 10132.2 959.926C10157.8 965.59 10178.7 972.523 10194.9 980.727C10211.3 988.734 10223.5 998.695 10231.3 1010.61C10239.1 1022.33 10243 1036.59 10243 1053.38C10243 1066.47 10240.2 1078.48 10234.8 1089.42C10229.3 1100.16 10221.4 1109.44 10211.1 1117.25C10200.9 1125.06 10188.6 1131.12 10174.1 1135.41C10159.9 1139.71 10143.9 1141.86 10126.1 1141.86C10099.3 1141.86 10076.7 1137.46 10058.1 1128.68C10039.8 1119.69 10025.8 1107.97 10016.2 1093.52C10006.9 1078.87 10002.2 1063.34 10002.2 1046.94H10037C10038.2 1063.34 10043.4 1076.33 10052.6 1085.9C10061.7 1095.28 10073 1101.92 10086.2 1105.82C10099.7 1109.73 10113 1111.68 10126.1 1111.68C10144.1 1111.68 10159.1 1109.05 10171.2 1103.77C10183.3 1098.5 10192.5 1091.57 10198.7 1082.97C10205 1074.38 10208.1 1065.1 10208.1 1055.14Z" fill="#011ECB"/>
<path d="M10596.5 1046.35C10596.5 1027.74 10597.8 1010.17 10599.9 994.753C10590.5 1007.16 10579 1020.48 10565.8 1033.63C10522.2 1077.21 10477.4 1103.08 10465.7 1091.35C10453.9 1079.62 10479.8 1034.79 10523.4 991.183C10536.5 978.035 10549.8 966.53 10562.2 957.122C10546.8 959.276 10529.3 960.494 10510.7 960.494C10449 960.494 10399 947.091 10399 930.514C10399 913.937 10449 900.506 10510.7 900.506C10529.3 900.506 10546.9 901.753 10562.3 903.906C10549.8 894.555 10536.5 882.965 10523.4 869.817C10479.7 826.207 10453.9 781.379 10465.6 769.648C10477.3 757.916 10522.2 783.788 10565.8 827.369C10578.9 840.517 10590.5 853.835 10599.9 866.247C10597.7 850.803 10596.5 833.263 10596.5 814.646C10596.5 753.014 10609.9 703 10626.5 703C10643.1 703 10656.5 752.986 10656.5 814.646C10656.5 833.263 10655.3 850.832 10653.1 866.247C10662.5 853.835 10674.1 840.517 10687.2 827.369C10730.8 783.788 10775.7 757.916 10787.4 769.648C10799.1 781.379 10773.3 826.207 10729.6 869.817C10716.5 882.965 10703.2 894.555 10690.7 903.906C10706.1 901.753 10723.7 900.506 10742.3 900.506C10804 900.506 10854 913.909 10854 930.514C10854 947.119 10804 960.494 10742.3 960.494C10723.7 960.494 10706.2 959.276 10690.8 957.122C10703.2 966.502 10716.5 978.006 10729.6 991.183C10773.2 1034.79 10799.1 1079.62 10787.3 1091.35C10775.6 1103.08 10730.8 1077.21 10687.2 1033.63C10674 1020.48 10662.5 1007.16 10653.1 994.753C10655.2 1010.2 10656.5 1027.74 10656.5 1046.35C10656.5 1108.01 10643 1158 10626.5 1158C10609.9 1158 10596.5 1108.01 10596.5 1046.35H10596.5Z" fill="#011ECB"/>
</svg>
