<svg width="228" height="292" viewBox="0 0 228 292" fill="none" xmlns="http://www.w3.org/2000/svg">
<path d="M0 114C0 51.0395 51.0395 0 114 0V0C176.96 0 228 51.0395 228 114V292H0V114Z" fill="#011ECB"/>
<path d="M137.635 43C116.297 43 99 60.2969 99 81.6348H176.27C176.27 60.2969 158.973 43 137.635 43Z" fill="#F3EBDD"/>
<path d="M176.268 81.6349C163.421 83.1771 150.542 83.5273 137.636 83.5774C124.73 83.5332 111.851 83.183 99.0039 81.6349C111.851 80.0839 124.73 79.7336 137.636 79.6924C150.542 79.7424 163.421 80.0956 176.268 81.6349Z" fill="#F3EBDD"/>
<path d="M175.793 87.6944C163.105 89.2366 150.381 89.5869 137.632 89.6369C124.882 89.5928 112.159 89.2425 99.4707 87.6944C112.159 86.1434 124.882 85.7932 137.632 85.752C150.381 85.802 163.102 86.1552 175.793 87.6944Z" fill="#F3EBDD"/>
<path d="M175.385 93.5606C162.832 95.1029 150.247 95.4531 137.633 95.5032C125.018 95.459 112.433 95.1087 99.8809 93.5606C112.433 92.0096 125.018 91.6594 137.633 91.6182C150.247 91.6682 162.832 92.0214 175.385 93.5606Z" fill="#F3EBDD"/>
<path d="M172.897 99.4259C161.177 100.968 149.419 101.318 137.632 101.368C125.845 101.327 114.09 100.974 102.367 99.4259C114.087 97.8748 125.845 97.5246 137.632 97.4834C149.419 97.5334 161.174 97.8866 172.897 99.4259Z" fill="#F3EBDD"/>
<path d="M169.136 105.292C158.673 106.831 148.169 107.185 137.633 107.235C127.096 107.193 116.592 106.84 106.129 105.292C116.592 103.744 127.096 103.391 137.633 103.35C148.169 103.4 158.67 103.753 169.136 105.292Z" fill="#F3EBDD"/>
<path d="M164.671 111.158C155.703 112.698 146.686 113.051 137.633 113.101C128.576 113.06 119.562 112.703 110.594 111.158C119.562 109.61 128.579 109.257 137.633 109.216C146.686 109.266 155.703 109.622 164.671 111.158Z" fill="#F3EBDD"/>
<path d="M154.535 117.023C144.492 119.648 130.777 119.669 120.732 117.023C130.772 114.377 144.487 114.394 154.535 117.023Z" fill="#F3EBDD"/>
<path d="M176 214.5C162.869 217.466 160.466 219.872 157.5 233C154.534 219.869 152.128 217.466 139 214.5C152.131 211.534 154.534 209.128 157.5 196C160.466 209.131 162.872 211.534 176 214.5Z" fill="#F3EBDD"/>
<path d="M74 121C61.2242 123.886 58.8856 126.226 56 139C53.1143 126.224 50.7735 123.886 38 121C50.7758 118.114 53.1143 115.774 56 103C58.8856 115.776 61.2265 118.114 74 121Z" fill="#F3EBDD"/>
<path d="M95 174C89.3219 175.283 88.2825 176.323 87 182C85.7175 176.322 84.6771 175.283 79 174C84.6781 172.717 85.7175 171.677 87 166C88.2825 171.678 89.3229 172.717 95 174Z" fill="#F3EBDD"/>
<path d="M197 138C191.322 139.283 190.283 140.323 189 146C187.717 140.322 186.677 139.283 181 138C186.678 136.717 187.717 135.677 189 130C190.283 135.678 191.323 136.717 197 138Z" fill="#F3EBDD"/>
<path d="M45.5974 204V228.087H73.8846V252.173H102.172V279.93H12.9993V204.005H45.5974V204ZM69.5738 231.757H45.5974V252.173H69.5738V231.757ZM73.8846 276.255H97.861V255.838H73.8846V276.255ZM45.5974 276.255H69.5738V255.838H45.5974V276.255ZM17.3102 276.255H41.2866V255.838H17.3102V276.255ZM17.3102 252.168H41.2866V231.752H17.3102V252.168ZM41.2866 228.082V207.665H17.3102V228.082H41.2866Z" fill="#F3EBDD"/>
<rect x="15.8594" y="205.886" width="26.2945" height="22.6374" fill="#F3EBDD"/>
<rect x="15.8594" y="230.411" width="26.2945" height="22.6374" fill="#F3EBDD"/>
<rect x="44.4395" y="230.411" width="26.2945" height="22.6374" fill="#F3EBDD"/>
<rect x="44.4395" y="254.463" width="26.2945" height="22.6374" fill="#F3EBDD"/>
<rect x="73.0215" y="254.463" width="26.2945" height="22.6374" fill="#F3EBDD"/>
<rect x="15.8594" y="254.463" width="26.2945" height="22.6374" fill="#F3EBDD"/>
</svg>
