<svg width="163" height="257" viewBox="0 0 163 257" fill="none" xmlns="http://www.w3.org/2000/svg">
<g clip-path="url(#clip0_263_328)">
<path d="M82.6416 0.856123L90.9644 64.9431L161.375 38.9332C162.625 38.4712 163.631 39.9116 162.511 40.5911L100.423 78.6682L162.511 116.745C163.614 117.425 162.625 118.865 161.375 118.403L90.9644 92.3933L82.6416 256.076C82.5767 257.299 80.4028 257.299 80.3541 256.076L72.0313 92.3933L1.62023 118.403C0.370997 118.865 -0.634876 117.425 0.484563 116.745L62.5729 78.6682L0.484563 40.5911C-0.618652 39.9116 0.370997 38.4712 1.62023 38.9332L72.0313 64.9431L80.3541 0.856123C80.5001 -0.285374 82.4956 -0.285374 82.6416 0.856123Z" fill="#011ECB"/>
<path d="M148.5 153.5C148.5 153.769 148.357 154.238 147.616 154.903C146.88 155.565 145.708 156.273 144.058 156.99C140.771 158.419 135.92 159.741 129.812 160.864C117.62 163.105 100.715 164.5 82 164.5C63.2846 164.5 46.3797 163.105 34.1879 160.864C28.0798 159.741 23.2295 158.419 19.9417 156.99C18.2922 156.273 17.1202 155.565 16.3839 154.903C15.6428 154.238 15.5 153.769 15.5 153.5C15.5 153.231 15.6428 152.762 16.3839 152.097C17.1202 151.435 18.2922 150.727 19.9417 150.01C23.2295 148.581 28.0798 147.259 34.1879 146.136C46.3797 143.895 63.2846 142.5 82 142.5C100.715 142.5 117.62 143.895 129.812 146.136C135.92 147.259 140.771 148.581 144.058 150.01C145.708 150.727 146.88 151.435 147.616 152.097C148.357 152.762 148.5 153.231 148.5 153.5Z" stroke="#011ECB" stroke-width="3"/>
<path d="M148.5 171.5C148.5 171.769 148.357 172.238 147.616 172.903C146.88 173.565 145.708 174.273 144.058 174.99C140.771 176.419 135.92 177.741 129.812 178.864C117.62 181.105 100.715 182.5 82 182.5C63.2846 182.5 46.3797 181.105 34.1879 178.864C28.0798 177.741 23.2295 176.419 19.9417 174.99C18.2922 174.273 17.1202 173.565 16.3839 172.903C15.6428 172.238 15.5 171.769 15.5 171.5C15.5 171.231 15.6428 170.762 16.3839 170.097C17.1202 169.435 18.2922 168.727 19.9417 168.01C23.2295 166.581 28.0798 165.259 34.1879 164.136C46.3797 161.895 63.2846 160.5 82 160.5C100.715 160.5 117.62 161.895 129.812 164.136C135.92 165.259 140.771 166.581 144.058 168.01C145.708 168.727 146.88 169.435 147.616 170.097C148.357 170.762 148.5 171.231 148.5 171.5Z" stroke="#011ECB" stroke-width="3"/>
<path d="M148.5 221.5C148.5 221.769 148.357 222.238 147.616 222.903C146.88 223.565 145.708 224.273 144.058 224.99C140.771 226.419 135.92 227.741 129.812 228.864C117.62 231.105 100.715 232.5 82 232.5C63.2846 232.5 46.3797 231.105 34.1879 228.864C28.0798 227.741 23.2295 226.419 19.9417 224.99C18.2922 224.273 17.1202 223.565 16.3839 222.903C15.6428 222.238 15.5 221.769 15.5 221.5C15.5 221.231 15.6428 220.762 16.3839 220.097C17.1202 219.435 18.2922 218.727 19.9417 218.01C23.2295 216.581 28.0798 215.259 34.1879 214.136C46.3797 211.895 63.2846 210.5 82 210.5C100.715 210.5 117.62 211.895 129.812 214.136C135.92 215.259 140.771 216.581 144.058 218.01C145.708 218.727 146.88 219.435 147.616 220.097C148.357 220.762 148.5 221.231 148.5 221.5Z" stroke="#011ECB" stroke-width="3"/>
<path d="M148.5 188C148.5 188.209 148.384 188.64 147.639 189.282C146.904 189.916 145.731 190.597 144.079 191.287C140.787 192.66 135.933 193.93 129.823 195.008C117.627 197.16 100.718 198.5 82 198.5C63.2821 198.5 46.3734 197.16 34.1774 195.008C28.0672 193.93 23.213 192.66 19.9214 191.287C18.2691 190.597 17.0963 189.916 16.3611 189.282C15.6161 188.64 15.5 188.209 15.5 188C15.5 187.791 15.6161 187.36 16.3611 186.718C17.0963 186.084 18.2691 185.403 19.9214 184.713C23.213 183.34 28.0672 182.07 34.1774 180.992C46.3734 178.84 63.2821 177.5 82 177.5C100.718 177.5 117.627 178.84 129.823 180.992C135.933 182.07 140.787 183.34 144.079 184.713C145.731 185.403 146.904 186.084 147.639 186.718C148.384 187.36 148.5 187.791 148.5 188Z" stroke="#011ECB" stroke-width="3"/>
<path d="M148.5 204.5C148.5 204.769 148.357 205.238 147.616 205.903C146.88 206.565 145.708 207.273 144.058 207.99C140.771 209.419 135.92 210.741 129.812 211.864C117.62 214.105 100.715 215.5 82 215.5C63.2846 215.5 46.3797 214.105 34.1879 211.864C28.0798 210.741 23.2295 209.419 19.9417 207.99C18.2922 207.273 17.1202 206.565 16.3839 205.903C15.6428 205.238 15.5 204.769 15.5 204.5C15.5 204.231 15.6428 203.762 16.3839 203.097C17.1202 202.435 18.2922 201.727 19.9417 201.01C23.2295 199.581 28.0798 198.259 34.1879 197.136C46.3797 194.895 63.2846 193.5 82 193.5C100.715 193.5 117.62 194.895 129.812 197.136C135.92 198.259 140.771 199.581 144.058 201.01C145.708 201.727 146.88 202.435 147.616 203.097C148.357 203.762 148.5 204.231 148.5 204.5Z" stroke="#011ECB" stroke-width="3"/>
</g>
<defs>
<clipPath id="clip0_263_328">
<rect width="163" height="257" fill="white"/>
</clipPath>
</defs>
</svg>
